<svg width="378" height="406" viewBox="0 0 378 406" fill="none" xmlns="http://www.w3.org/2000/svg">
<rect width="378" height="406" rx="10" fill="#2D2D2F"/>
<path d="M209.181 53.44H204.913V39.16C204.913 34.6529 201.316 31 196.878 31H181.311C176.874 31 173.277 34.6529 173.277 39.16V53.44H169.009C167.898 53.44 167 54.3516 167 55.48V79.96C167 81.0884 167.898 82 169.009 82H209.181C210.292 82 211.19 81.0884 211.19 79.96V55.48C211.19 54.3516 210.292 53.44 209.181 53.44ZM177.796 39.16C177.796 37.1901 179.372 35.59 181.311 35.59H196.878C198.818 35.59 200.393 37.1901 200.393 39.16V53.44H177.796V39.16ZM206.67 77.41H171.519V58.03H206.67V77.41ZM187.337 68.5487V71.9275C187.337 72.208 187.563 72.4375 187.839 72.4375H190.35C190.626 72.4375 190.852 72.208 190.852 71.9275V68.5487C191.37 68.1709 191.757 67.6359 191.957 67.0206C192.157 66.4054 192.159 65.7416 191.963 65.125C191.768 64.5083 191.385 63.9705 190.87 63.589C190.354 63.2074 189.733 63.0019 189.095 63.0019C188.457 63.0019 187.836 63.2074 187.32 63.589C186.805 63.9705 186.421 64.5083 186.226 65.125C186.031 65.7416 186.033 66.4054 186.233 67.0206C186.432 67.6359 186.819 68.1709 187.337 68.5487V68.5487Z" fill="#FF5000"/>
<path d="M27.06 141.182C25.7947 141.182 24.6507 140.965 23.628 140.532C22.6227 140.099 21.8253 139.475 21.236 138.66C20.6467 137.845 20.3433 136.883 20.326 135.774H24.226C24.278 136.519 24.538 137.109 25.006 137.542C25.4913 137.975 26.15 138.192 26.982 138.192C27.8313 138.192 28.4987 137.993 28.984 137.594C29.4693 137.178 29.712 136.641 29.712 135.982C29.712 135.445 29.5473 135.003 29.218 134.656C28.8887 134.309 28.4727 134.041 27.97 133.85C27.4847 133.642 26.8087 133.417 25.942 133.174C24.7633 132.827 23.8013 132.489 23.056 132.16C22.328 131.813 21.6953 131.302 21.158 130.626C20.638 129.933 20.378 129.014 20.378 127.87C20.378 126.795 20.6467 125.859 21.184 125.062C21.7213 124.265 22.4753 123.658 23.446 123.242C24.4167 122.809 25.526 122.592 26.774 122.592C28.646 122.592 30.1627 123.051 31.324 123.97C32.5027 124.871 33.1527 126.137 33.274 127.766H29.27C29.2353 127.142 28.9667 126.631 28.464 126.232C27.9787 125.816 27.3287 125.608 26.514 125.608C25.8033 125.608 25.2313 125.79 24.798 126.154C24.382 126.518 24.174 127.047 24.174 127.74C24.174 128.225 24.33 128.633 24.642 128.962C24.9713 129.274 25.37 129.534 25.838 129.742C26.3233 129.933 26.9993 130.158 27.866 130.418C29.0447 130.765 30.0067 131.111 30.752 131.458C31.4973 131.805 32.1387 132.325 32.676 133.018C33.2133 133.711 33.482 134.621 33.482 135.748C33.482 136.719 33.2307 137.62 32.728 138.452C32.2253 139.284 31.4887 139.951 30.518 140.454C29.5473 140.939 28.3947 141.182 27.06 141.182ZM50.0278 133.486C50.0278 134.006 49.9931 134.474 49.9238 134.89H39.3938C39.4804 135.93 39.8444 136.745 40.4858 137.334C41.1271 137.923 41.9158 138.218 42.8518 138.218C44.2038 138.218 45.1658 137.637 45.7378 136.476H49.6638C49.2478 137.863 48.4504 139.007 47.2718 139.908C46.0931 140.792 44.6458 141.234 42.9298 141.234C41.5431 141.234 40.2951 140.931 39.1858 140.324C38.0938 139.7 37.2358 138.825 36.6118 137.698C36.0051 136.571 35.7017 135.271 35.7017 133.798C35.7017 132.307 36.0051 130.999 36.6118 129.872C37.2184 128.745 38.0678 127.879 39.1598 127.272C40.2518 126.665 41.5084 126.362 42.9298 126.362C44.2991 126.362 45.5211 126.657 46.5958 127.246C47.6878 127.835 48.5284 128.676 49.1178 129.768C49.7244 130.843 50.0278 132.082 50.0278 133.486ZM46.2578 132.446C46.2404 131.51 45.9024 130.765 45.2438 130.21C44.5851 129.638 43.7791 129.352 42.8258 129.352C41.9244 129.352 41.1618 129.629 40.5378 130.184C39.9311 130.721 39.5584 131.475 39.4198 132.446H46.2578ZM58.3266 126.362C59.4013 126.362 60.346 126.579 61.1606 127.012C61.9753 127.428 62.6166 127.974 63.0846 128.65V126.596H66.7506V141.104C66.7506 142.439 66.482 143.626 65.9446 144.666C65.4073 145.723 64.6013 146.555 63.5266 147.162C62.452 147.786 61.152 148.098 59.6266 148.098C57.5813 148.098 55.9 147.621 54.5826 146.668C53.2826 145.715 52.546 144.415 52.3726 142.768H55.9866C56.1773 143.427 56.5846 143.947 57.2086 144.328C57.85 144.727 58.6213 144.926 59.5226 144.926C60.58 144.926 61.438 144.605 62.0966 143.964C62.7553 143.34 63.0846 142.387 63.0846 141.104V138.868C62.6166 139.544 61.9666 140.107 61.1346 140.558C60.32 141.009 59.384 141.234 58.3266 141.234C57.1133 141.234 56.004 140.922 54.9986 140.298C53.9933 139.674 53.196 138.799 52.6066 137.672C52.0346 136.528 51.7486 135.219 51.7486 133.746C51.7486 132.29 52.0346 130.999 52.6066 129.872C53.196 128.745 53.9846 127.879 54.9726 127.272C55.978 126.665 57.096 126.362 58.3266 126.362ZM63.0846 133.798C63.0846 132.914 62.9113 132.16 62.5646 131.536C62.218 130.895 61.75 130.409 61.1606 130.08C60.5713 129.733 59.9386 129.56 59.2626 129.56C58.5866 129.56 57.9626 129.725 57.3906 130.054C56.8186 130.383 56.3506 130.869 55.9866 131.51C55.64 132.134 55.4666 132.879 55.4666 133.746C55.4666 134.613 55.64 135.375 55.9866 136.034C56.3506 136.675 56.8186 137.169 57.3906 137.516C57.98 137.863 58.604 138.036 59.2626 138.036C59.9386 138.036 60.5713 137.871 61.1606 137.542C61.75 137.195 62.218 136.71 62.5646 136.086C62.9113 135.445 63.0846 134.682 63.0846 133.798ZM83.9037 126.596V141H80.2377V139.18C79.7697 139.804 79.1544 140.298 78.3917 140.662C77.6464 141.009 76.8317 141.182 75.9477 141.182C74.8211 141.182 73.8244 140.948 72.9577 140.48C72.0911 139.995 71.4064 139.293 70.9037 138.374C70.4184 137.438 70.1757 136.329 70.1757 135.046V126.596H73.8157V134.526C73.8157 135.67 74.1017 136.554 74.6737 137.178C75.2457 137.785 76.0257 138.088 77.0137 138.088C78.0191 138.088 78.8077 137.785 79.3797 137.178C79.9517 136.554 80.2377 135.67 80.2377 134.526V126.596H83.9037ZM91.1352 128.832C91.6032 128.069 92.2098 127.471 92.9552 127.038C93.7178 126.605 94.5845 126.388 95.5552 126.388V130.21H94.5932C93.4492 130.21 92.5825 130.479 91.9932 131.016C91.4212 131.553 91.1352 132.489 91.1352 133.824V141H87.4952V126.596H91.1352V128.832ZM97.0709 133.746C97.0709 132.29 97.3569 130.999 97.9289 129.872C98.5182 128.745 99.3069 127.879 100.295 127.272C101.3 126.665 102.418 126.362 103.649 126.362C104.724 126.362 105.66 126.579 106.457 127.012C107.272 127.445 107.922 127.991 108.407 128.65V126.596H112.073V141H108.407V138.894C107.939 139.57 107.289 140.133 106.457 140.584C105.642 141.017 104.698 141.234 103.623 141.234C102.41 141.234 101.3 140.922 100.295 140.298C99.3069 139.674 98.5182 138.799 97.9289 137.672C97.3569 136.528 97.0709 135.219 97.0709 133.746ZM108.407 133.798C108.407 132.914 108.234 132.16 107.887 131.536C107.54 130.895 107.072 130.409 106.483 130.08C105.894 129.733 105.261 129.56 104.585 129.56C103.909 129.56 103.285 129.725 102.713 130.054C102.141 130.383 101.673 130.869 101.309 131.51C100.962 132.134 100.789 132.879 100.789 133.746C100.789 134.613 100.962 135.375 101.309 136.034C101.673 136.675 102.141 137.169 102.713 137.516C103.302 137.863 103.926 138.036 104.585 138.036C105.261 138.036 105.894 137.871 106.483 137.542C107.072 137.195 107.54 136.71 107.887 136.086C108.234 135.445 108.407 134.682 108.407 133.798ZM123.61 126.388C125.326 126.388 126.713 126.934 127.77 128.026C128.827 129.101 129.356 130.609 129.356 132.55V141H125.716V133.044C125.716 131.9 125.43 131.025 124.858 130.418C124.286 129.794 123.506 129.482 122.518 129.482C121.513 129.482 120.715 129.794 120.126 130.418C119.554 131.025 119.268 131.9 119.268 133.044V141H115.628V126.596H119.268V128.39C119.753 127.766 120.369 127.281 121.114 126.934C121.877 126.57 122.709 126.388 123.61 126.388ZM138.979 138.114C140.453 138.114 141.415 137.455 141.865 136.138H145.791C145.427 137.542 144.751 138.686 143.763 139.57C142.793 140.454 141.571 140.983 140.097 141.156V142.17C141.051 142.17 141.848 142.413 142.489 142.898C143.148 143.383 143.477 144.085 143.477 145.004C143.477 145.94 143.139 146.659 142.463 147.162C141.805 147.665 140.99 147.916 140.019 147.916H136.327V145.784H139.421C139.837 145.784 140.149 145.723 140.357 145.602C140.583 145.481 140.695 145.264 140.695 144.952C140.695 144.64 140.583 144.423 140.357 144.302C140.149 144.198 139.837 144.146 139.421 144.146H137.809V141.156C136.631 140.983 135.591 140.575 134.689 139.934C133.805 139.275 133.112 138.426 132.609 137.386C132.124 136.329 131.881 135.133 131.881 133.798C131.881 132.307 132.185 131.007 132.791 129.898C133.398 128.771 134.239 127.905 135.313 127.298C136.388 126.674 137.619 126.362 139.005 126.362C140.791 126.362 142.264 126.813 143.425 127.714C144.604 128.598 145.393 129.846 145.791 131.458H141.865C141.657 130.834 141.302 130.349 140.799 130.002C140.314 129.638 139.707 129.456 138.979 129.456C137.939 129.456 137.116 129.837 136.509 130.6C135.903 131.345 135.599 132.411 135.599 133.798C135.599 135.167 135.903 136.233 136.509 136.996C137.116 137.741 137.939 138.114 138.979 138.114ZM147.522 133.746C147.522 132.29 147.808 130.999 148.38 129.872C148.969 128.745 149.758 127.879 150.746 127.272C151.751 126.665 152.869 126.362 154.1 126.362C155.175 126.362 156.111 126.579 156.908 127.012C157.723 127.445 158.373 127.991 158.858 128.65V126.596H162.524V141H158.858V138.894C158.39 139.57 157.74 140.133 156.908 140.584C156.093 141.017 155.149 141.234 154.074 141.234C152.861 141.234 151.751 140.922 150.746 140.298C149.758 139.674 148.969 138.799 148.38 137.672C147.808 136.528 147.522 135.219 147.522 133.746ZM158.858 133.798C158.858 132.914 158.685 132.16 158.338 131.536C157.991 130.895 157.523 130.409 156.934 130.08C156.345 129.733 155.712 129.56 155.036 129.56C154.36 129.56 153.736 129.725 153.164 130.054C152.592 130.383 152.124 130.869 151.76 131.51C151.413 132.134 151.24 132.879 151.24 133.746C151.24 134.613 151.413 135.375 151.76 136.034C152.124 136.675 152.592 137.169 153.164 137.516C153.753 137.863 154.377 138.036 155.036 138.036C155.712 138.036 156.345 137.871 156.934 137.542C157.523 137.195 157.991 136.71 158.338 136.086C158.685 135.445 158.858 134.682 158.858 133.798ZM185.664 133.486C185.664 134.006 185.63 134.474 185.56 134.89H175.03C175.117 135.93 175.481 136.745 176.122 137.334C176.764 137.923 177.552 138.218 178.488 138.218C179.84 138.218 180.802 137.637 181.374 136.476H185.3C184.884 137.863 184.087 139.007 182.908 139.908C181.73 140.792 180.282 141.234 178.566 141.234C177.18 141.234 175.932 140.931 174.822 140.324C173.73 139.7 172.872 138.825 172.248 137.698C171.642 136.571 171.338 135.271 171.338 133.798C171.338 132.307 171.642 130.999 172.248 129.872C172.855 128.745 173.704 127.879 174.796 127.272C175.888 126.665 177.145 126.362 178.566 126.362C179.936 126.362 181.158 126.657 182.232 127.246C183.324 127.835 184.165 128.676 184.754 129.768C185.361 130.843 185.664 132.082 185.664 133.486ZM181.894 132.446C181.877 131.51 181.539 130.765 180.88 130.21C180.222 129.638 179.416 129.352 178.462 129.352C177.561 129.352 176.798 129.629 176.174 130.184C175.568 130.721 175.195 131.475 175.056 132.446H181.894ZM198.157 128.676C198.625 128.017 199.266 127.471 200.081 127.038C200.913 126.587 201.857 126.362 202.915 126.362C204.145 126.362 205.255 126.665 206.243 127.272C207.248 127.879 208.037 128.745 208.609 129.872C209.198 130.981 209.493 132.273 209.493 133.746C209.493 135.219 209.198 136.528 208.609 137.672C208.037 138.799 207.248 139.674 206.243 140.298C205.255 140.922 204.145 141.234 202.915 141.234C201.857 141.234 200.921 141.017 200.107 140.584C199.309 140.151 198.659 139.605 198.157 138.946V147.864H194.517V126.596H198.157V128.676ZM205.775 133.746C205.775 132.879 205.593 132.134 205.229 131.51C204.882 130.869 204.414 130.383 203.825 130.054C203.253 129.725 202.629 129.56 201.953 129.56C201.294 129.56 200.67 129.733 200.081 130.08C199.509 130.409 199.041 130.895 198.677 131.536C198.33 132.177 198.157 132.931 198.157 133.798C198.157 134.665 198.33 135.419 198.677 136.06C199.041 136.701 199.509 137.195 200.081 137.542C200.67 137.871 201.294 138.036 201.953 138.036C202.629 138.036 203.253 137.863 203.825 137.516C204.414 137.169 204.882 136.675 205.229 136.034C205.593 135.393 205.775 134.63 205.775 133.746ZM215.778 128.832C216.246 128.069 216.852 127.471 217.598 127.038C218.36 126.605 219.227 126.388 220.198 126.388V130.21H219.236C218.092 130.21 217.225 130.479 216.636 131.016C216.064 131.553 215.778 132.489 215.778 133.824V141H212.138V126.596H215.778V128.832ZM224.495 124.88C223.854 124.88 223.317 124.681 222.883 124.282C222.467 123.866 222.259 123.355 222.259 122.748C222.259 122.141 222.467 121.639 222.883 121.24C223.317 120.824 223.854 120.616 224.495 120.616C225.137 120.616 225.665 120.824 226.081 121.24C226.515 121.639 226.731 122.141 226.731 122.748C226.731 123.355 226.515 123.866 226.081 124.282C225.665 124.681 225.137 124.88 224.495 124.88ZM226.289 126.596V141H222.649V126.596H226.289ZM235.892 137.646L239.532 126.596H243.406L238.076 141H233.656L228.352 126.596H232.252L235.892 137.646ZM244.514 133.746C244.514 132.29 244.8 130.999 245.372 129.872C245.962 128.745 246.75 127.879 247.738 127.272C248.744 126.665 249.862 126.362 251.092 126.362C252.167 126.362 253.103 126.579 253.9 127.012C254.715 127.445 255.365 127.991 255.85 128.65V126.596H259.516V141H255.85V138.894C255.382 139.57 254.732 140.133 253.9 140.584C253.086 141.017 252.141 141.234 251.066 141.234C249.853 141.234 248.744 140.922 247.738 140.298C246.75 139.674 245.962 138.799 245.372 137.672C244.8 136.528 244.514 135.219 244.514 133.746ZM255.85 133.798C255.85 132.914 255.677 132.16 255.33 131.536C254.984 130.895 254.516 130.409 253.926 130.08C253.337 129.733 252.704 129.56 252.028 129.56C251.352 129.56 250.728 129.725 250.156 130.054C249.584 130.383 249.116 130.869 248.752 131.51C248.406 132.134 248.232 132.879 248.232 133.746C248.232 134.613 248.406 135.375 248.752 136.034C249.116 136.675 249.584 137.169 250.156 137.516C250.746 137.863 251.37 138.036 252.028 138.036C252.704 138.036 253.337 137.871 253.926 137.542C254.516 137.195 254.984 136.71 255.33 136.086C255.677 135.445 255.85 134.682 255.85 133.798ZM262.135 133.798C262.135 132.307 262.439 131.007 263.045 129.898C263.652 128.771 264.493 127.905 265.567 127.298C266.642 126.674 267.873 126.362 269.259 126.362C271.045 126.362 272.518 126.813 273.679 127.714C274.858 128.598 275.647 129.846 276.045 131.458H272.119C271.911 130.834 271.556 130.349 271.053 130.002C270.568 129.638 269.961 129.456 269.233 129.456C268.193 129.456 267.37 129.837 266.763 130.6C266.157 131.345 265.853 132.411 265.853 133.798C265.853 135.167 266.157 136.233 266.763 136.996C267.37 137.741 268.193 138.114 269.233 138.114C270.707 138.114 271.669 137.455 272.119 136.138H276.045C275.647 137.698 274.858 138.937 273.679 139.856C272.501 140.775 271.027 141.234 269.259 141.234C267.873 141.234 266.642 140.931 265.567 140.324C264.493 139.7 263.652 138.833 263.045 137.724C262.439 136.597 262.135 135.289 262.135 133.798ZM280.558 124.88C279.917 124.88 279.379 124.681 278.946 124.282C278.53 123.866 278.322 123.355 278.322 122.748C278.322 122.141 278.53 121.639 278.946 121.24C279.379 120.824 279.917 120.616 280.558 120.616C281.199 120.616 281.728 120.824 282.144 121.24C282.577 121.639 282.794 122.141 282.794 122.748C282.794 123.355 282.577 123.866 282.144 124.282C281.728 124.681 281.199 124.88 280.558 124.88ZM282.352 126.596V141H278.712V126.596H282.352ZM285.012 133.746C285.012 132.29 285.298 130.999 285.87 129.872C286.46 128.745 287.257 127.879 288.262 127.272C289.268 126.665 290.386 126.362 291.616 126.362C292.552 126.362 293.445 126.57 294.294 126.986C295.144 127.385 295.82 127.922 296.322 128.598V121.76H300.014V141H296.322V138.868C295.872 139.579 295.239 140.151 294.424 140.584C293.61 141.017 292.665 141.234 291.59 141.234C290.377 141.234 289.268 140.922 288.262 140.298C287.257 139.674 286.46 138.799 285.87 137.672C285.298 136.528 285.012 135.219 285.012 133.746ZM296.348 133.798C296.348 132.914 296.175 132.16 295.828 131.536C295.482 130.895 295.014 130.409 294.424 130.08C293.835 129.733 293.202 129.56 292.526 129.56C291.85 129.56 291.226 129.725 290.654 130.054C290.082 130.383 289.614 130.869 289.25 131.51C288.904 132.134 288.73 132.879 288.73 133.746C288.73 134.613 288.904 135.375 289.25 136.034C289.614 136.675 290.082 137.169 290.654 137.516C291.244 137.863 291.868 138.036 292.526 138.036C293.202 138.036 293.835 137.871 294.424 137.542C295.014 137.195 295.482 136.71 295.828 136.086C296.175 135.445 296.348 134.682 296.348 133.798ZM302.633 133.746C302.633 132.29 302.919 130.999 303.491 129.872C304.081 128.745 304.869 127.879 305.857 127.272C306.863 126.665 307.981 126.362 309.211 126.362C310.286 126.362 311.222 126.579 312.019 127.012C312.834 127.445 313.484 127.991 313.969 128.65V126.596H317.635V141H313.969V138.894C313.501 139.57 312.851 140.133 312.019 140.584C311.205 141.017 310.26 141.234 309.185 141.234C307.972 141.234 306.863 140.922 305.857 140.298C304.869 139.674 304.081 138.799 303.491 137.672C302.919 136.528 302.633 135.219 302.633 133.746ZM313.969 133.798C313.969 132.914 313.796 132.16 313.449 131.536C313.103 130.895 312.635 130.409 312.045 130.08C311.456 129.733 310.823 129.56 310.147 129.56C309.471 129.56 308.847 129.725 308.275 130.054C307.703 130.383 307.235 130.869 306.871 131.51C306.525 132.134 306.351 132.879 306.351 133.746C306.351 134.613 306.525 135.375 306.871 136.034C307.235 136.675 307.703 137.169 308.275 137.516C308.865 137.863 309.489 138.036 310.147 138.036C310.823 138.036 311.456 137.871 312.045 137.542C312.635 137.195 313.103 136.71 313.449 136.086C313.796 135.445 313.969 134.682 313.969 133.798ZM320.254 133.746C320.254 132.29 320.54 130.999 321.112 129.872C321.702 128.745 322.499 127.879 323.504 127.272C324.51 126.665 325.628 126.362 326.858 126.362C327.794 126.362 328.687 126.57 329.536 126.986C330.386 127.385 331.062 127.922 331.564 128.598V121.76H335.256V141H331.564V138.868C331.114 139.579 330.481 140.151 329.666 140.584C328.852 141.017 327.907 141.234 326.832 141.234C325.619 141.234 324.51 140.922 323.504 140.298C322.499 139.674 321.702 138.799 321.112 137.672C320.54 136.528 320.254 135.219 320.254 133.746ZM331.59 133.798C331.59 132.914 331.417 132.16 331.07 131.536C330.724 130.895 330.256 130.409 329.666 130.08C329.077 129.733 328.444 129.56 327.768 129.56C327.092 129.56 326.468 129.725 325.896 130.054C325.324 130.383 324.856 130.869 324.492 131.51C324.146 132.134 323.972 132.879 323.972 133.746C323.972 134.613 324.146 135.375 324.492 136.034C324.856 136.675 325.324 137.169 325.896 137.516C326.486 137.863 327.11 138.036 327.768 138.036C328.444 138.036 329.077 137.871 329.666 137.542C330.256 137.195 330.724 136.71 331.07 136.086C331.417 135.445 331.59 134.682 331.59 133.798ZM352.202 133.486C352.202 134.006 352.167 134.474 352.098 134.89H341.568C341.654 135.93 342.018 136.745 342.66 137.334C343.301 137.923 344.09 138.218 345.026 138.218C346.378 138.218 347.34 137.637 347.912 136.476H351.838C351.422 137.863 350.624 139.007 349.446 139.908C348.267 140.792 346.82 141.234 345.104 141.234C343.717 141.234 342.469 140.931 341.36 140.324C340.268 139.7 339.41 138.825 338.786 137.698C338.179 136.571 337.876 135.271 337.876 133.798C337.876 132.307 338.179 130.999 338.786 129.872C339.392 128.745 340.242 127.879 341.334 127.272C342.426 126.665 343.682 126.362 345.104 126.362C346.473 126.362 347.695 126.657 348.77 127.246C349.862 127.835 350.702 128.676 351.292 129.768C351.898 130.843 352.202 132.082 352.202 133.486ZM348.432 132.446C348.414 131.51 348.076 130.765 347.418 130.21C346.759 129.638 345.953 129.352 345 129.352C344.098 129.352 343.336 129.629 342.712 130.184C342.105 130.721 341.732 131.475 341.594 132.446H348.432Z" fill="white"/>
<path d="M71.151 183.14C71.151 184.3 70.751 185.267 69.951 186.04C69.1643 186.8 67.9577 187.18 66.331 187.18H63.651V193H61.831V179.06H66.331C67.9043 179.06 69.0977 179.44 69.911 180.2C70.7377 180.96 71.151 181.94 71.151 183.14ZM66.331 185.68C67.3443 185.68 68.091 185.46 68.571 185.02C69.051 184.58 69.291 183.953 69.291 183.14C69.291 181.42 68.3043 180.56 66.331 180.56H63.651V185.68H66.331ZM75.233 183.82C75.553 183.193 76.0064 182.707 76.593 182.36C77.193 182.013 77.9197 181.84 78.773 181.84V183.72H78.293C76.253 183.72 75.233 184.827 75.233 187.04V193H73.413V182.04H75.233V183.82ZM85.654 193.18C84.6273 193.18 83.694 192.947 82.854 192.48C82.0273 192.013 81.374 191.353 80.894 190.5C80.4273 189.633 80.194 188.633 80.194 187.5C80.194 186.38 80.434 185.393 80.914 184.54C81.4073 183.673 82.074 183.013 82.914 182.56C83.754 182.093 84.694 181.86 85.734 181.86C86.774 181.86 87.714 182.093 88.554 182.56C89.394 183.013 90.054 183.667 90.534 184.52C91.0273 185.373 91.274 186.367 91.274 187.5C91.274 188.633 91.0207 189.633 90.514 190.5C90.0207 191.353 89.3473 192.013 88.494 192.48C87.6407 192.947 86.694 193.18 85.654 193.18ZM85.654 191.58C86.3073 191.58 86.9207 191.427 87.494 191.12C88.0673 190.813 88.5273 190.353 88.874 189.74C89.234 189.127 89.414 188.38 89.414 187.5C89.414 186.62 89.2407 185.873 88.894 185.26C88.5473 184.647 88.094 184.193 87.534 183.9C86.974 183.593 86.3673 183.44 85.714 183.44C85.0473 183.44 84.434 183.593 83.874 183.9C83.3273 184.193 82.8873 184.647 82.554 185.26C82.2207 185.873 82.054 186.62 82.054 187.5C82.054 188.393 82.214 189.147 82.534 189.76C82.8673 190.373 83.3073 190.833 83.854 191.14C84.4007 191.433 85.0007 191.58 85.654 191.58ZM95.887 183.54V190C95.887 190.533 96.0003 190.913 96.227 191.14C96.4536 191.353 96.847 191.46 97.407 191.46H98.747V193H97.107C96.0936 193 95.3336 192.767 94.827 192.3C94.3203 191.833 94.067 191.067 94.067 190V183.54H92.647V182.04H94.067V179.28H95.887V182.04H98.747V183.54H95.887ZM110.952 187.1C110.952 187.447 110.932 187.813 110.892 188.2H102.132C102.199 189.28 102.565 190.127 103.232 190.74C103.912 191.34 104.732 191.64 105.692 191.64C106.479 191.64 107.132 191.46 107.652 191.1C108.185 190.727 108.559 190.233 108.772 189.62H110.732C110.439 190.673 109.852 191.533 108.972 192.2C108.092 192.853 106.999 193.18 105.692 193.18C104.652 193.18 103.719 192.947 102.892 192.48C102.079 192.013 101.439 191.353 100.972 190.5C100.505 189.633 100.272 188.633 100.272 187.5C100.272 186.367 100.499 185.373 100.952 184.52C101.405 183.667 102.039 183.013 102.852 182.56C103.679 182.093 104.625 181.86 105.692 181.86C106.732 181.86 107.652 182.087 108.452 182.54C109.252 182.993 109.865 183.62 110.292 184.42C110.732 185.207 110.952 186.1 110.952 187.1ZM109.072 186.72C109.072 186.027 108.919 185.433 108.612 184.94C108.305 184.433 107.885 184.053 107.352 183.8C106.832 183.533 106.252 183.4 105.612 183.4C104.692 183.4 103.905 183.693 103.252 184.28C102.612 184.867 102.245 185.68 102.152 186.72H109.072ZM114.334 180.26C113.988 180.26 113.694 180.14 113.454 179.9C113.228 179.66 113.114 179.367 113.114 179.02C113.114 178.673 113.228 178.38 113.454 178.14C113.694 177.9 113.988 177.78 114.334 177.78C114.681 177.78 114.968 177.9 115.194 178.14C115.434 178.38 115.554 178.673 115.554 179.02C115.554 179.367 115.434 179.66 115.194 179.9C114.968 180.14 114.681 180.26 114.334 180.26ZM115.234 195.38C115.234 196.353 114.988 197.067 114.494 197.52C114.001 197.973 113.281 198.2 112.334 198.2H111.274V196.66H112.034C112.541 196.66 112.894 196.56 113.094 196.36C113.308 196.16 113.414 195.82 113.414 195.34V182.04H115.234V195.38ZM117.635 187.48C117.635 186.36 117.862 185.38 118.315 184.54C118.769 183.687 119.389 183.027 120.175 182.56C120.975 182.093 121.862 181.86 122.835 181.86C123.795 181.86 124.629 182.067 125.335 182.48C126.042 182.893 126.569 183.413 126.915 184.04V182.04H128.755V193H126.915V190.96C126.555 191.6 126.015 192.133 125.295 192.56C124.589 192.973 123.762 193.18 122.815 193.18C121.842 193.18 120.962 192.94 120.175 192.46C119.389 191.98 118.769 191.307 118.315 190.44C117.862 189.573 117.635 188.587 117.635 187.48ZM126.915 187.5C126.915 186.673 126.749 185.953 126.415 185.34C126.082 184.727 125.629 184.26 125.055 183.94C124.495 183.607 123.875 183.44 123.195 183.44C122.515 183.44 121.895 183.6 121.335 183.92C120.775 184.24 120.329 184.707 119.995 185.32C119.662 185.933 119.495 186.653 119.495 187.48C119.495 188.32 119.662 189.053 119.995 189.68C120.329 190.293 120.775 190.767 121.335 191.1C121.895 191.42 122.515 191.58 123.195 191.58C123.875 191.58 124.495 191.42 125.055 191.1C125.629 190.767 126.082 190.293 126.415 189.68C126.749 189.053 126.915 188.327 126.915 187.5ZM141.043 193.18C140.203 193.18 139.45 193.04 138.783 192.76C138.116 192.467 137.59 192.067 137.203 191.56C136.816 191.04 136.603 190.447 136.563 189.78H138.443C138.496 190.327 138.75 190.773 139.203 191.12C139.67 191.467 140.276 191.64 141.023 191.64C141.716 191.64 142.263 191.487 142.663 191.18C143.063 190.873 143.263 190.487 143.263 190.02C143.263 189.54 143.05 189.187 142.623 188.96C142.196 188.72 141.536 188.487 140.643 188.26C139.83 188.047 139.163 187.833 138.643 187.62C138.136 187.393 137.696 187.067 137.323 186.64C136.963 186.2 136.783 185.627 136.783 184.92C136.783 184.36 136.95 183.847 137.283 183.38C137.616 182.913 138.09 182.547 138.703 182.28C139.316 182 140.016 181.86 140.803 181.86C142.016 181.86 142.996 182.167 143.743 182.78C144.49 183.393 144.89 184.233 144.943 185.3H143.123C143.083 184.727 142.85 184.267 142.423 183.92C142.01 183.573 141.45 183.4 140.743 183.4C140.09 183.4 139.57 183.54 139.183 183.82C138.796 184.1 138.603 184.467 138.603 184.92C138.603 185.28 138.716 185.58 138.943 185.82C139.183 186.047 139.476 186.233 139.823 186.38C140.183 186.513 140.676 186.667 141.303 186.84C142.09 187.053 142.73 187.267 143.223 187.48C143.716 187.68 144.136 187.987 144.483 188.4C144.843 188.813 145.03 189.353 145.043 190.02C145.043 190.62 144.876 191.16 144.543 191.64C144.21 192.12 143.736 192.5 143.123 192.78C142.523 193.047 141.83 193.18 141.043 193.18ZM157.332 182.04V193H155.512V191.38C155.166 191.94 154.679 192.38 154.052 192.7C153.439 193.007 152.759 193.16 152.012 193.16C151.159 193.16 150.392 192.987 149.712 192.64C149.032 192.28 148.492 191.747 148.092 191.04C147.706 190.333 147.512 189.473 147.512 188.46V182.04H149.312V188.22C149.312 189.3 149.586 190.133 150.132 190.72C150.679 191.293 151.426 191.58 152.372 191.58C153.346 191.58 154.112 191.28 154.672 190.68C155.232 190.08 155.512 189.207 155.512 188.06V182.04H157.332ZM159.725 187.48C159.725 186.36 159.952 185.38 160.405 184.54C160.859 183.687 161.479 183.027 162.265 182.56C163.065 182.093 163.952 181.86 164.925 181.86C165.885 181.86 166.719 182.067 167.425 182.48C168.132 182.893 168.659 183.413 169.005 184.04V182.04H170.845V193H169.005V190.96C168.645 191.6 168.105 192.133 167.385 192.56C166.679 192.973 165.852 193.18 164.905 193.18C163.932 193.18 163.052 192.94 162.265 192.46C161.479 191.98 160.859 191.307 160.405 190.44C159.952 189.573 159.725 188.587 159.725 187.48ZM169.005 187.5C169.005 186.673 168.839 185.953 168.505 185.34C168.172 184.727 167.719 184.26 167.145 183.94C166.585 183.607 165.965 183.44 165.285 183.44C164.605 183.44 163.985 183.6 163.425 183.92C162.865 184.24 162.419 184.707 162.085 185.32C161.752 185.933 161.585 186.653 161.585 187.48C161.585 188.32 161.752 189.053 162.085 189.68C162.419 190.293 162.865 190.767 163.425 191.1C163.985 191.42 164.605 191.58 165.285 191.58C165.965 191.58 166.585 191.42 167.145 191.1C167.719 190.767 168.172 190.293 168.505 189.68C168.839 189.053 169.005 188.327 169.005 187.5ZM177.801 193.18C176.961 193.18 176.208 193.04 175.541 192.76C174.874 192.467 174.348 192.067 173.961 191.56C173.574 191.04 173.361 190.447 173.321 189.78H175.201C175.254 190.327 175.508 190.773 175.961 191.12C176.428 191.467 177.034 191.64 177.781 191.64C178.474 191.64 179.021 191.487 179.421 191.18C179.821 190.873 180.021 190.487 180.021 190.02C180.021 189.54 179.808 189.187 179.381 188.96C178.954 188.72 178.294 188.487 177.401 188.26C176.588 188.047 175.921 187.833 175.401 187.62C174.894 187.393 174.454 187.067 174.081 186.64C173.721 186.2 173.541 185.627 173.541 184.92C173.541 184.36 173.708 183.847 174.041 183.38C174.374 182.913 174.848 182.547 175.461 182.28C176.074 182 176.774 181.86 177.561 181.86C178.774 181.86 179.754 182.167 180.501 182.78C181.248 183.393 181.648 184.233 181.701 185.3H179.881C179.841 184.727 179.608 184.267 179.181 183.92C178.768 183.573 178.208 183.4 177.501 183.4C176.848 183.4 176.328 183.54 175.941 183.82C175.554 184.1 175.361 184.467 175.361 184.92C175.361 185.28 175.474 185.58 175.701 185.82C175.941 186.047 176.234 186.233 176.581 186.38C176.941 186.513 177.434 186.667 178.061 186.84C178.848 187.053 179.488 187.267 179.981 187.48C180.474 187.68 180.894 187.987 181.241 188.4C181.601 188.813 181.788 189.353 181.801 190.02C181.801 190.62 181.634 191.16 181.301 191.64C180.968 192.12 180.494 192.5 179.881 192.78C179.281 193.047 178.588 193.18 177.801 193.18ZM191.922 183.54V190C191.922 190.533 192.035 190.913 192.262 191.14C192.489 191.353 192.882 191.46 193.442 191.46H194.782V193H193.142C192.129 193 191.369 192.767 190.862 192.3C190.355 191.833 190.102 191.067 190.102 190V183.54H188.682V182.04H190.102V179.28H191.922V182.04H194.782V183.54H191.922ZM198.807 183.82C199.127 183.193 199.581 182.707 200.167 182.36C200.767 182.013 201.494 181.84 202.347 181.84V183.72H201.867C199.827 183.72 198.807 184.827 198.807 187.04V193H196.987V182.04H198.807V183.82ZM203.768 187.48C203.768 186.36 203.995 185.38 204.448 184.54C204.902 183.687 205.522 183.027 206.308 182.56C207.108 182.093 207.995 181.86 208.968 181.86C209.928 181.86 210.762 182.067 211.468 182.48C212.175 182.893 212.702 183.413 213.048 184.04V182.04H214.888V193H213.048V190.96C212.688 191.6 212.148 192.133 211.428 192.56C210.722 192.973 209.895 193.18 208.948 193.18C207.975 193.18 207.095 192.94 206.308 192.46C205.522 191.98 204.902 191.307 204.448 190.44C203.995 189.573 203.768 188.587 203.768 187.48ZM213.048 187.5C213.048 186.673 212.882 185.953 212.548 185.34C212.215 184.727 211.762 184.26 211.188 183.94C210.628 183.607 210.008 183.44 209.328 183.44C208.648 183.44 208.028 183.6 207.468 183.92C206.908 184.24 206.462 184.707 206.128 185.32C205.795 185.933 205.628 186.653 205.628 187.48C205.628 188.32 205.795 189.053 206.128 189.68C206.462 190.293 206.908 190.767 207.468 191.1C208.028 191.42 208.648 191.58 209.328 191.58C210.008 191.58 210.628 191.42 211.188 191.1C211.762 190.767 212.215 190.293 212.548 189.68C212.882 189.053 213.048 188.327 213.048 187.5ZM223.304 181.84C224.637 181.84 225.717 182.247 226.544 183.06C227.37 183.86 227.784 185.02 227.784 186.54V193H225.984V186.8C225.984 185.707 225.71 184.873 225.164 184.3C224.617 183.713 223.87 183.42 222.924 183.42C221.964 183.42 221.197 183.72 220.624 184.32C220.064 184.92 219.784 185.793 219.784 186.94V193H217.964V182.04H219.784V183.6C220.144 183.04 220.63 182.607 221.244 182.3C221.87 181.993 222.557 181.84 223.304 181.84ZM234.637 193.18C233.797 193.18 233.043 193.04 232.377 192.76C231.71 192.467 231.183 192.067 230.797 191.56C230.41 191.04 230.197 190.447 230.157 189.78H232.037C232.09 190.327 232.343 190.773 232.797 191.12C233.263 191.467 233.87 191.64 234.617 191.64C235.31 191.64 235.857 191.487 236.257 191.18C236.657 190.873 236.857 190.487 236.857 190.02C236.857 189.54 236.643 189.187 236.217 188.96C235.79 188.72 235.13 188.487 234.237 188.26C233.423 188.047 232.757 187.833 232.237 187.62C231.73 187.393 231.29 187.067 230.917 186.64C230.557 186.2 230.377 185.627 230.377 184.92C230.377 184.36 230.543 183.847 230.877 183.38C231.21 182.913 231.683 182.547 232.297 182.28C232.91 182 233.61 181.86 234.397 181.86C235.61 181.86 236.59 182.167 237.337 182.78C238.083 183.393 238.483 184.233 238.537 185.3H236.717C236.677 184.727 236.443 184.267 236.017 183.92C235.603 183.573 235.043 183.4 234.337 183.4C233.683 183.4 233.163 183.54 232.777 183.82C232.39 184.1 232.197 184.467 232.197 184.92C232.197 185.28 232.31 185.58 232.537 185.82C232.777 186.047 233.07 186.233 233.417 186.38C233.777 186.513 234.27 186.667 234.897 186.84C235.683 187.053 236.323 187.267 236.817 187.48C237.31 187.68 237.73 187.987 238.077 188.4C238.437 188.813 238.623 189.353 238.637 190.02C238.637 190.62 238.47 191.16 238.137 191.64C237.803 192.12 237.33 192.5 236.717 192.78C236.117 193.047 235.423 193.18 234.637 193.18ZM240.526 187.48C240.526 186.36 240.753 185.38 241.206 184.54C241.659 183.687 242.279 183.027 243.066 182.56C243.866 182.093 244.753 181.86 245.726 181.86C246.686 181.86 247.519 182.067 248.226 182.48C248.933 182.893 249.459 183.413 249.806 184.04V182.04H251.646V193H249.806V190.96C249.446 191.6 248.906 192.133 248.186 192.56C247.479 192.973 246.653 193.18 245.706 193.18C244.733 193.18 243.853 192.94 243.066 192.46C242.279 191.98 241.659 191.307 241.206 190.44C240.753 189.573 240.526 188.587 240.526 187.48ZM249.806 187.5C249.806 186.673 249.639 185.953 249.306 185.34C248.973 184.727 248.519 184.26 247.946 183.94C247.386 183.607 246.766 183.44 246.086 183.44C245.406 183.44 244.786 183.6 244.226 183.92C243.666 184.24 243.219 184.707 242.886 185.32C242.553 185.933 242.386 186.653 242.386 187.48C242.386 188.32 242.553 189.053 242.886 189.68C243.219 190.293 243.666 190.767 244.226 191.1C244.786 191.42 245.406 191.58 246.086 191.58C246.766 191.58 247.386 191.42 247.946 191.1C248.519 190.767 248.973 190.293 249.306 189.68C249.639 189.053 249.806 188.327 249.806 187.5ZM259.382 191.64C260.182 191.64 260.848 191.453 261.382 191.08C261.915 190.707 262.282 190.173 262.482 189.48H264.442C264.175 190.52 263.648 191.373 262.862 192.04C262.088 192.693 261.115 193.067 259.942 193.16V194.16C260.728 194.147 261.355 194.313 261.822 194.66C262.288 195.007 262.522 195.5 262.522 196.14C262.522 196.767 262.295 197.267 261.842 197.64C261.388 198.013 260.802 198.2 260.082 198.2H257.782V197.02H259.722C260.162 197.02 260.482 196.953 260.682 196.82C260.895 196.687 261.002 196.46 261.002 196.14C261.002 195.833 260.895 195.613 260.682 195.48C260.482 195.347 260.162 195.28 259.722 195.28H258.722V193.14C257.802 193.047 256.988 192.76 256.282 192.28C255.575 191.787 255.022 191.133 254.622 190.32C254.235 189.493 254.042 188.553 254.042 187.5C254.042 186.367 254.268 185.38 254.722 184.54C255.175 183.687 255.802 183.027 256.602 182.56C257.415 182.093 258.342 181.86 259.382 181.86C260.728 181.86 261.835 182.187 262.702 182.84C263.582 183.493 264.162 184.4 264.442 185.56H262.482C262.295 184.893 261.928 184.367 261.382 183.98C260.848 183.593 260.182 183.4 259.382 183.4C258.342 183.4 257.502 183.76 256.862 184.48C256.222 185.187 255.902 186.193 255.902 187.5C255.902 188.82 256.222 189.84 256.862 190.56C257.502 191.28 258.342 191.64 259.382 191.64ZM271.65 193.18C270.623 193.18 269.69 192.947 268.85 192.48C268.023 192.013 267.37 191.353 266.89 190.5C266.423 189.633 266.19 188.633 266.19 187.5C266.19 186.38 266.43 185.393 266.91 184.54C267.403 183.673 268.07 183.013 268.91 182.56C269.75 182.093 270.69 181.86 271.73 181.86C272.77 181.86 273.71 182.093 274.55 182.56C275.39 183.013 276.05 183.667 276.53 184.52C277.023 185.373 277.27 186.367 277.27 187.5C277.27 188.633 277.017 189.633 276.51 190.5C276.017 191.353 275.343 192.013 274.49 192.48C273.637 192.947 272.69 193.18 271.65 193.18ZM271.65 191.58C272.303 191.58 272.917 191.427 273.49 191.12C274.063 190.813 274.523 190.353 274.87 189.74C275.23 189.127 275.41 188.38 275.41 187.5C275.41 186.62 275.237 185.873 274.89 185.26C274.543 184.647 274.09 184.193 273.53 183.9C272.97 183.593 272.363 183.44 271.71 183.44C271.043 183.44 270.43 183.593 269.87 183.9C269.323 184.193 268.883 184.647 268.55 185.26C268.217 185.873 268.05 186.62 268.05 187.5C268.05 188.393 268.21 189.147 268.53 189.76C268.863 190.373 269.303 190.833 269.85 191.14C270.397 191.433 270.997 191.58 271.65 191.58ZM268.81 180.72C268.903 180.04 269.123 179.52 269.47 179.16C269.83 178.8 270.277 178.62 270.81 178.62C271.063 178.62 271.277 178.667 271.45 178.76C271.637 178.84 271.857 178.96 272.11 179.12C272.297 179.253 272.463 179.36 272.61 179.44C272.757 179.507 272.917 179.54 273.09 179.54C273.317 179.54 273.51 179.467 273.67 179.32C273.83 179.173 273.93 178.96 273.97 178.68H275.01C274.93 179.347 274.71 179.86 274.35 180.22C273.99 180.58 273.543 180.76 273.01 180.76C272.757 180.76 272.53 180.72 272.33 180.64C272.143 180.547 271.93 180.413 271.69 180.24C271.477 180.107 271.303 180.007 271.17 179.94C271.05 179.873 270.903 179.84 270.73 179.84C270.503 179.84 270.31 179.913 270.15 180.06C270.003 180.207 269.91 180.427 269.87 180.72H268.81ZM289.663 187.1C289.663 187.447 289.643 187.813 289.603 188.2H280.843C280.91 189.28 281.276 190.127 281.943 190.74C282.623 191.34 283.443 191.64 284.403 191.64C285.19 191.64 285.843 191.46 286.363 191.1C286.896 190.727 287.27 190.233 287.483 189.62H289.443C289.15 190.673 288.563 191.533 287.683 192.2C286.803 192.853 285.71 193.18 284.403 193.18C283.363 193.18 282.43 192.947 281.603 192.48C280.79 192.013 280.15 191.353 279.683 190.5C279.216 189.633 278.983 188.633 278.983 187.5C278.983 186.367 279.21 185.373 279.663 184.52C280.116 183.667 280.75 183.013 281.563 182.56C282.39 182.093 283.336 181.86 284.403 181.86C285.443 181.86 286.363 182.087 287.163 182.54C287.963 182.993 288.576 183.62 289.003 184.42C289.443 185.207 289.663 186.1 289.663 187.1ZM287.783 186.72C287.783 186.027 287.63 185.433 287.323 184.94C287.016 184.433 286.596 184.053 286.063 183.8C285.543 183.533 284.963 183.4 284.323 183.4C283.403 183.4 282.616 183.693 281.963 184.28C281.323 184.867 280.956 185.68 280.863 186.72H287.783ZM295.945 193.18C295.105 193.18 294.352 193.04 293.685 192.76C293.019 192.467 292.492 192.067 292.105 191.56C291.719 191.04 291.505 190.447 291.465 189.78H293.345C293.399 190.327 293.652 190.773 294.105 191.12C294.572 191.467 295.179 191.64 295.925 191.64C296.619 191.64 297.165 191.487 297.565 191.18C297.965 190.873 298.165 190.487 298.165 190.02C298.165 189.54 297.952 189.187 297.525 188.96C297.099 188.72 296.439 188.487 295.545 188.26C294.732 188.047 294.065 187.833 293.545 187.62C293.039 187.393 292.599 187.067 292.225 186.64C291.865 186.2 291.685 185.627 291.685 184.92C291.685 184.36 291.852 183.847 292.185 183.38C292.519 182.913 292.992 182.547 293.605 182.28C294.219 182 294.919 181.86 295.705 181.86C296.919 181.86 297.899 182.167 298.645 182.78C299.392 183.393 299.792 184.233 299.845 185.3H298.025C297.985 184.727 297.752 184.267 297.325 183.92C296.912 183.573 296.352 183.4 295.645 183.4C294.992 183.4 294.472 183.54 294.085 183.82C293.699 184.1 293.505 184.467 293.505 184.92C293.505 185.28 293.619 185.58 293.845 185.82C294.085 186.047 294.379 186.233 294.725 186.38C295.085 186.513 295.579 186.667 296.205 186.84C296.992 187.053 297.632 187.267 298.125 187.48C298.619 187.68 299.039 187.987 299.385 188.4C299.745 188.813 299.932 189.353 299.945 190.02C299.945 190.62 299.779 191.16 299.445 191.64C299.112 192.12 298.639 192.5 298.025 192.78C297.425 193.047 296.732 193.18 295.945 193.18ZM317.847 187.1C317.847 187.447 317.827 187.813 317.787 188.2H309.027C309.093 189.28 309.46 190.127 310.127 190.74C310.807 191.34 311.627 191.64 312.587 191.64C313.373 191.64 314.027 191.46 314.547 191.1C315.08 190.727 315.453 190.233 315.667 189.62H317.627C317.333 190.673 316.747 191.533 315.867 192.2C314.987 192.853 313.893 193.18 312.587 193.18C311.547 193.18 310.613 192.947 309.787 192.48C308.973 192.013 308.333 191.353 307.867 190.5C307.4 189.633 307.167 188.633 307.167 187.5C307.167 186.367 307.393 185.373 307.847 184.52C308.3 183.667 308.933 183.013 309.747 182.56C310.573 182.093 311.52 181.86 312.587 181.86C313.627 181.86 314.547 182.087 315.347 182.54C316.147 182.993 316.76 183.62 317.187 184.42C317.627 185.207 317.847 186.1 317.847 187.1ZM315.967 186.72C315.967 186.027 315.813 185.433 315.507 184.94C315.2 184.433 314.78 184.053 314.247 183.8C313.727 183.533 313.147 183.4 312.507 183.4C311.587 183.4 310.8 183.693 310.147 184.28C309.507 184.867 309.14 185.68 309.047 186.72H315.967ZM35.3209 217.48C35.3209 216.36 35.5476 215.38 36.0009 214.54C36.4543 213.687 37.0743 213.027 37.8609 212.56C38.6609 212.093 39.5543 211.86 40.5409 211.86C41.3943 211.86 42.1876 212.06 42.9209 212.46C43.6543 212.847 44.2143 213.36 44.6009 214V208.2H46.4409V223H44.6009V220.94C44.2409 221.593 43.7076 222.133 43.0009 222.56C42.2943 222.973 41.4676 223.18 40.5209 223.18C39.5476 223.18 38.6609 222.94 37.8609 222.46C37.0743 221.98 36.4543 221.307 36.0009 220.44C35.5476 219.573 35.3209 218.587 35.3209 217.48ZM44.6009 217.5C44.6009 216.673 44.4343 215.953 44.1009 215.34C43.7676 214.727 43.3143 214.26 42.7409 213.94C42.1809 213.607 41.5609 213.44 40.8809 213.44C40.2009 213.44 39.5809 213.6 39.0209 213.92C38.4609 214.24 38.0143 214.707 37.6809 215.32C37.3476 215.933 37.1809 216.653 37.1809 217.48C37.1809 218.32 37.3476 219.053 37.6809 219.68C38.0143 220.293 38.4609 220.767 39.0209 221.1C39.5809 221.42 40.2009 221.58 40.8809 221.58C41.5609 221.58 42.1809 221.42 42.7409 221.1C43.3143 220.767 43.7676 220.293 44.1009 219.68C44.4343 219.053 44.6009 218.327 44.6009 217.5ZM50.4566 210.26C50.1099 210.26 49.8166 210.14 49.5766 209.9C49.3366 209.66 49.2166 209.367 49.2166 209.02C49.2166 208.673 49.3366 208.38 49.5766 208.14C49.8166 207.9 50.1099 207.78 50.4566 207.78C50.7899 207.78 51.0699 207.9 51.2966 208.14C51.5366 208.38 51.6566 208.673 51.6566 209.02C51.6566 209.367 51.5366 209.66 51.2966 209.9C51.0699 210.14 50.7899 210.26 50.4566 210.26ZM51.3366 212.04V223H49.5166V212.04H51.3366ZM58.3184 223.18C57.4784 223.18 56.7251 223.04 56.0584 222.76C55.3918 222.467 54.8651 222.067 54.4784 221.56C54.0918 221.04 53.8784 220.447 53.8384 219.78H55.7184C55.7718 220.327 56.0251 220.773 56.4784 221.12C56.9451 221.467 57.5518 221.64 58.2984 221.64C58.9918 221.64 59.5384 221.487 59.9384 221.18C60.3384 220.873 60.5384 220.487 60.5384 220.02C60.5384 219.54 60.3251 219.187 59.8984 218.96C59.4718 218.72 58.8118 218.487 57.9184 218.26C57.1051 218.047 56.4384 217.833 55.9184 217.62C55.4118 217.393 54.9718 217.067 54.5984 216.64C54.2384 216.2 54.0584 215.627 54.0584 214.92C54.0584 214.36 54.2251 213.847 54.5584 213.38C54.8918 212.913 55.3651 212.547 55.9784 212.28C56.5918 212 57.2918 211.86 58.0784 211.86C59.2918 211.86 60.2718 212.167 61.0184 212.78C61.7651 213.393 62.1651 214.233 62.2184 215.3H60.3984C60.3584 214.727 60.1251 214.267 59.6984 213.92C59.2851 213.573 58.7251 213.4 58.0184 213.4C57.3651 213.4 56.8451 213.54 56.4584 213.82C56.0718 214.1 55.8784 214.467 55.8784 214.92C55.8784 215.28 55.9918 215.58 56.2184 215.82C56.4584 216.047 56.7518 216.233 57.0984 216.38C57.4584 216.513 57.9518 216.667 58.5784 216.84C59.3651 217.053 60.0051 217.267 60.4984 217.48C60.9918 217.68 61.4118 217.987 61.7584 218.4C62.1184 218.813 62.3051 219.353 62.3184 220.02C62.3184 220.62 62.1518 221.16 61.8184 221.64C61.4851 222.12 61.0118 222.5 60.3984 222.78C59.7984 223.047 59.1051 223.18 58.3184 223.18ZM66.7077 214.06C67.0677 213.433 67.601 212.913 68.3077 212.5C69.0277 212.073 69.861 211.86 70.8077 211.86C71.781 211.86 72.661 212.093 73.4477 212.56C74.2477 213.027 74.8743 213.687 75.3277 214.54C75.781 215.38 76.0077 216.36 76.0077 217.48C76.0077 218.587 75.781 219.573 75.3277 220.44C74.8743 221.307 74.2477 221.98 73.4477 222.46C72.661 222.94 71.781 223.18 70.8077 223.18C69.8743 223.18 69.0477 222.973 68.3277 222.56C67.621 222.133 67.081 221.607 66.7077 220.98V228.2H64.8877V212.04H66.7077V214.06ZM74.1477 217.48C74.1477 216.653 73.981 215.933 73.6477 215.32C73.3143 214.707 72.861 214.24 72.2877 213.92C71.7277 213.6 71.1077 213.44 70.4277 213.44C69.761 213.44 69.141 213.607 68.5677 213.94C68.0077 214.26 67.5543 214.733 67.2077 215.36C66.8743 215.973 66.7077 216.687 66.7077 217.5C66.7077 218.327 66.8743 219.053 67.2077 219.68C67.5543 220.293 68.0077 220.767 68.5677 221.1C69.141 221.42 69.761 221.58 70.4277 221.58C71.1077 221.58 71.7277 221.42 72.2877 221.1C72.861 220.767 73.3143 220.293 73.6477 219.68C73.981 219.053 74.1477 218.32 74.1477 217.48ZM83.1833 223.18C82.1566 223.18 81.2233 222.947 80.3833 222.48C79.5566 222.013 78.9033 221.353 78.4233 220.5C77.9566 219.633 77.7233 218.633 77.7233 217.5C77.7233 216.38 77.9633 215.393 78.4433 214.54C78.9366 213.673 79.6033 213.013 80.4433 212.56C81.2833 212.093 82.2233 211.86 83.2633 211.86C84.3033 211.86 85.2433 212.093 86.0833 212.56C86.9233 213.013 87.5833 213.667 88.0633 214.52C88.5566 215.373 88.8033 216.367 88.8033 217.5C88.8033 218.633 88.5499 219.633 88.0433 220.5C87.5499 221.353 86.8766 222.013 86.0233 222.48C85.1699 222.947 84.2233 223.18 83.1833 223.18ZM83.1833 221.58C83.8366 221.58 84.4499 221.427 85.0233 221.12C85.5966 220.813 86.0566 220.353 86.4033 219.74C86.7633 219.127 86.9433 218.38 86.9433 217.5C86.9433 216.62 86.7699 215.873 86.4233 215.26C86.0766 214.647 85.6233 214.193 85.0633 213.9C84.5033 213.593 83.8966 213.44 83.2433 213.44C82.5766 213.44 81.9633 213.593 81.4033 213.9C80.8566 214.193 80.4166 214.647 80.0833 215.26C79.7499 215.873 79.5833 216.62 79.5833 217.5C79.5833 218.393 79.7433 219.147 80.0633 219.76C80.3966 220.373 80.8366 220.833 81.3833 221.14C81.9299 221.433 82.5299 221.58 83.1833 221.58ZM95.0763 223.18C94.2363 223.18 93.4829 223.04 92.8163 222.76C92.1496 222.467 91.6229 222.067 91.2363 221.56C90.8496 221.04 90.6363 220.447 90.5963 219.78H92.4763C92.5296 220.327 92.7829 220.773 93.2363 221.12C93.7029 221.467 94.3096 221.64 95.0563 221.64C95.7496 221.64 96.2963 221.487 96.6963 221.18C97.0963 220.873 97.2963 220.487 97.2963 220.02C97.2963 219.54 97.0829 219.187 96.6563 218.96C96.2296 218.72 95.5696 218.487 94.6763 218.26C93.8629 218.047 93.1963 217.833 92.6763 217.62C92.1696 217.393 91.7296 217.067 91.3563 216.64C90.9963 216.2 90.8163 215.627 90.8163 214.92C90.8163 214.36 90.9829 213.847 91.3163 213.38C91.6496 212.913 92.1229 212.547 92.7363 212.28C93.3496 212 94.0496 211.86 94.8363 211.86C96.0496 211.86 97.0296 212.167 97.7763 212.78C98.5229 213.393 98.9229 214.233 98.9763 215.3H97.1563C97.1163 214.727 96.8829 214.267 96.4563 213.92C96.0429 213.573 95.4829 213.4 94.7763 213.4C94.1229 213.4 93.6029 213.54 93.2163 213.82C92.8296 214.1 92.6363 214.467 92.6363 214.92C92.6363 215.28 92.7496 215.58 92.9763 215.82C93.2163 216.047 93.5096 216.233 93.8563 216.38C94.2163 216.513 94.7096 216.667 95.3363 216.84C96.1229 217.053 96.7629 217.267 97.2563 217.48C97.7496 217.68 98.1696 217.987 98.5163 218.4C98.8763 218.813 99.0629 219.353 99.0763 220.02C99.0763 220.62 98.9096 221.16 98.5763 221.64C98.2429 222.12 97.7696 222.5 97.1563 222.78C96.5563 223.047 95.8629 223.18 95.0763 223.18ZM102.585 210.26C102.239 210.26 101.945 210.14 101.705 209.9C101.465 209.66 101.345 209.367 101.345 209.02C101.345 208.673 101.465 208.38 101.705 208.14C101.945 207.9 102.239 207.78 102.585 207.78C102.919 207.78 103.199 207.9 103.425 208.14C103.665 208.38 103.785 208.673 103.785 209.02C103.785 209.367 103.665 209.66 103.425 209.9C103.199 210.14 102.919 210.26 102.585 210.26ZM103.465 212.04V223H101.645V212.04H103.465ZM108.787 213.54V220C108.787 220.533 108.901 220.913 109.127 221.14C109.354 221.353 109.747 221.46 110.307 221.46H111.647V223H110.007C108.994 223 108.234 222.767 107.727 222.3C107.221 221.833 106.967 221.067 106.967 220V213.54H105.547V212.04H106.967V209.28H108.787V212.04H111.647V213.54H108.787ZM114.793 210.26C114.446 210.26 114.153 210.14 113.913 209.9C113.673 209.66 113.553 209.367 113.553 209.02C113.553 208.673 113.673 208.38 113.913 208.14C114.153 207.9 114.446 207.78 114.793 207.78C115.126 207.78 115.406 207.9 115.633 208.14C115.873 208.38 115.993 208.673 115.993 209.02C115.993 209.367 115.873 209.66 115.633 209.9C115.406 210.14 115.126 210.26 114.793 210.26ZM115.673 212.04V223H113.853V212.04H115.673ZM122.854 221.32L126.254 212.04H128.194L123.894 223H121.774L117.474 212.04H119.434L122.854 221.32ZM134.765 223.18C133.739 223.18 132.805 222.947 131.965 222.48C131.139 222.013 130.485 221.353 130.005 220.5C129.539 219.633 129.305 218.633 129.305 217.5C129.305 216.38 129.545 215.393 130.025 214.54C130.519 213.673 131.185 213.013 132.025 212.56C132.865 212.093 133.805 211.86 134.845 211.86C135.885 211.86 136.825 212.093 137.665 212.56C138.505 213.013 139.165 213.667 139.645 214.52C140.139 215.373 140.385 216.367 140.385 217.5C140.385 218.633 140.132 219.633 139.625 220.5C139.132 221.353 138.459 222.013 137.605 222.48C136.752 222.947 135.805 223.18 134.765 223.18ZM134.765 221.58C135.419 221.58 136.032 221.427 136.605 221.12C137.179 220.813 137.639 220.353 137.985 219.74C138.345 219.127 138.525 218.38 138.525 217.5C138.525 216.62 138.352 215.873 138.005 215.26C137.659 214.647 137.205 214.193 136.645 213.9C136.085 213.593 135.479 213.44 134.825 213.44C134.159 213.44 133.545 213.593 132.985 213.9C132.439 214.193 131.999 214.647 131.665 215.26C131.332 215.873 131.165 216.62 131.165 217.5C131.165 218.393 131.325 219.147 131.645 219.76C131.979 220.373 132.419 220.833 132.965 221.14C133.512 221.433 134.112 221.58 134.765 221.58ZM146.658 223.18C145.818 223.18 145.065 223.04 144.398 222.76C143.732 222.467 143.205 222.067 142.818 221.56C142.432 221.04 142.218 220.447 142.178 219.78H144.058C144.112 220.327 144.365 220.773 144.818 221.12C145.285 221.467 145.892 221.64 146.638 221.64C147.332 221.64 147.878 221.487 148.278 221.18C148.678 220.873 148.878 220.487 148.878 220.02C148.878 219.54 148.665 219.187 148.238 218.96C147.812 218.72 147.152 218.487 146.258 218.26C145.445 218.047 144.778 217.833 144.258 217.62C143.752 217.393 143.312 217.067 142.938 216.64C142.578 216.2 142.398 215.627 142.398 214.92C142.398 214.36 142.565 213.847 142.898 213.38C143.232 212.913 143.705 212.547 144.318 212.28C144.932 212 145.632 211.86 146.418 211.86C147.632 211.86 148.612 212.167 149.358 212.78C150.105 213.393 150.505 214.233 150.558 215.3H148.738C148.698 214.727 148.465 214.267 148.038 213.92C147.625 213.573 147.065 213.4 146.358 213.4C145.705 213.4 145.185 213.54 144.798 213.82C144.412 214.1 144.218 214.467 144.218 214.92C144.218 215.28 144.332 215.58 144.558 215.82C144.798 216.047 145.092 216.233 145.438 216.38C145.798 216.513 146.292 216.667 146.918 216.84C147.705 217.053 148.345 217.267 148.838 217.48C149.332 217.68 149.752 217.987 150.098 218.4C150.458 218.813 150.645 219.353 150.658 220.02C150.658 220.62 150.492 221.16 150.158 221.64C149.825 222.12 149.352 222.5 148.738 222.78C148.138 223.047 147.445 223.18 146.658 223.18ZM157.88 217.5C157.88 216.367 158.106 215.38 158.56 214.54C159.013 213.687 159.64 213.027 160.44 212.56C161.253 212.093 162.18 211.86 163.22 211.86C164.566 211.86 165.673 212.187 166.54 212.84C167.42 213.493 168 214.4 168.28 215.56H166.32C166.133 214.893 165.766 214.367 165.22 213.98C164.686 213.593 164.02 213.4 163.22 213.4C162.18 213.4 161.34 213.76 160.7 214.48C160.06 215.187 159.74 216.193 159.74 217.5C159.74 218.82 160.06 219.84 160.7 220.56C161.34 221.28 162.18 221.64 163.22 221.64C164.02 221.64 164.686 221.453 165.22 221.08C165.753 220.707 166.12 220.173 166.32 219.48H168.28C167.986 220.6 167.4 221.5 166.52 222.18C165.64 222.847 164.54 223.18 163.22 223.18C162.18 223.18 161.253 222.947 160.44 222.48C159.64 222.013 159.013 221.353 158.56 220.5C158.106 219.647 157.88 218.647 157.88 217.5ZM175.488 223.18C174.461 223.18 173.528 222.947 172.688 222.48C171.861 222.013 171.208 221.353 170.728 220.5C170.261 219.633 170.028 218.633 170.028 217.5C170.028 216.38 170.268 215.393 170.748 214.54C171.241 213.673 171.908 213.013 172.748 212.56C173.588 212.093 174.528 211.86 175.568 211.86C176.608 211.86 177.548 212.093 178.388 212.56C179.228 213.013 179.888 213.667 180.368 214.52C180.861 215.373 181.108 216.367 181.108 217.5C181.108 218.633 180.855 219.633 180.348 220.5C179.855 221.353 179.181 222.013 178.328 222.48C177.475 222.947 176.528 223.18 175.488 223.18ZM175.488 221.58C176.141 221.58 176.755 221.427 177.328 221.12C177.901 220.813 178.361 220.353 178.708 219.74C179.068 219.127 179.248 218.38 179.248 217.5C179.248 216.62 179.075 215.873 178.728 215.26C178.381 214.647 177.928 214.193 177.368 213.9C176.808 213.593 176.201 213.44 175.548 213.44C174.881 213.44 174.268 213.593 173.708 213.9C173.161 214.193 172.721 214.647 172.388 215.26C172.055 215.873 171.888 216.62 171.888 217.5C171.888 218.393 172.048 219.147 172.368 219.76C172.701 220.373 173.141 220.833 173.688 221.14C174.235 221.433 174.835 221.58 175.488 221.58ZM188.841 211.84C190.174 211.84 191.254 212.247 192.081 213.06C192.908 213.86 193.321 215.02 193.321 216.54V223H191.521V216.8C191.521 215.707 191.248 214.873 190.701 214.3C190.154 213.713 189.408 213.42 188.461 213.42C187.501 213.42 186.734 213.72 186.161 214.32C185.601 214.92 185.321 215.793 185.321 216.94V223H183.501V212.04H185.321V213.6C185.681 213.04 186.168 212.607 186.781 212.3C187.408 211.993 188.094 211.84 188.841 211.84ZM198.514 213.54V220C198.514 220.533 198.627 220.913 198.854 221.14C199.081 221.353 199.474 221.46 200.034 221.46H201.374V223H199.734C198.721 223 197.961 222.767 197.454 222.3C196.947 221.833 196.694 221.067 196.694 220V213.54H195.274V212.04H196.694V209.28H198.514V212.04H201.374V213.54H198.514ZM205.399 213.82C205.719 213.193 206.172 212.707 206.759 212.36C207.359 212.013 208.086 211.84 208.939 211.84V213.72H208.459C206.419 213.72 205.399 214.827 205.399 217.04V223H203.579V212.04H205.399V213.82ZM210.36 217.48C210.36 216.36 210.587 215.38 211.04 214.54C211.493 213.687 212.113 213.027 212.9 212.56C213.7 212.093 214.587 211.86 215.56 211.86C216.52 211.86 217.353 212.067 218.06 212.48C218.767 212.893 219.293 213.413 219.64 214.04V212.04H221.48V223H219.64V220.96C219.28 221.6 218.74 222.133 218.02 222.56C217.313 222.973 216.487 223.18 215.54 223.18C214.567 223.18 213.687 222.94 212.9 222.46C212.113 221.98 211.493 221.307 211.04 220.44C210.587 219.573 210.36 218.587 210.36 217.48ZM219.64 217.5C219.64 216.673 219.473 215.953 219.14 215.34C218.807 214.727 218.353 214.26 217.78 213.94C217.22 213.607 216.6 213.44 215.92 213.44C215.24 213.44 214.62 213.6 214.06 213.92C213.5 214.24 213.053 214.707 212.72 215.32C212.387 215.933 212.22 216.653 212.22 217.48C212.22 218.32 212.387 219.053 212.72 219.68C213.053 220.293 213.5 220.767 214.06 221.1C214.62 221.42 215.24 221.58 215.92 221.58C216.6 221.58 217.22 221.42 217.78 221.1C218.353 220.767 218.807 220.293 219.14 219.68C219.473 219.053 219.64 218.327 219.64 217.5ZM229.208 217.48C229.208 216.36 229.434 215.38 229.888 214.54C230.341 213.687 230.961 213.027 231.748 212.56C232.548 212.093 233.434 211.86 234.408 211.86C235.368 211.86 236.201 212.067 236.908 212.48C237.614 212.893 238.141 213.413 238.488 214.04V212.04H240.328V223H238.488V220.96C238.128 221.6 237.588 222.133 236.868 222.56C236.161 222.973 235.334 223.18 234.388 223.18C233.414 223.18 232.534 222.94 231.748 222.46C230.961 221.98 230.341 221.307 229.888 220.44C229.434 219.573 229.208 218.587 229.208 217.48ZM238.488 217.5C238.488 216.673 238.321 215.953 237.988 215.34C237.654 214.727 237.201 214.26 236.628 213.94C236.068 213.607 235.448 213.44 234.768 213.44C234.088 213.44 233.468 213.6 232.908 213.92C232.348 214.24 231.901 214.707 231.568 215.32C231.234 215.933 231.068 216.653 231.068 217.48C231.068 218.32 231.234 219.053 231.568 219.68C231.901 220.293 232.348 220.767 232.908 221.1C233.468 221.42 234.088 221.58 234.768 221.58C235.448 221.58 236.068 221.42 236.628 221.1C237.201 220.767 237.654 220.293 237.988 219.68C238.321 219.053 238.488 218.327 238.488 217.5ZM242.723 217.5C242.723 216.367 242.95 215.38 243.403 214.54C243.857 213.687 244.483 213.027 245.283 212.56C246.097 212.093 247.023 211.86 248.063 211.86C249.41 211.86 250.517 212.187 251.383 212.84C252.263 213.493 252.843 214.4 253.123 215.56H251.163C250.977 214.893 250.61 214.367 250.063 213.98C249.53 213.593 248.863 213.4 248.063 213.4C247.023 213.4 246.183 213.76 245.543 214.48C244.903 215.187 244.583 216.193 244.583 217.5C244.583 218.82 244.903 219.84 245.543 220.56C246.183 221.28 247.023 221.64 248.063 221.64C248.863 221.64 249.53 221.453 250.063 221.08C250.597 220.707 250.963 220.173 251.163 219.48H253.123C252.83 220.6 252.243 221.5 251.363 222.18C250.483 222.847 249.383 223.18 248.063 223.18C247.023 223.18 246.097 222.947 245.283 222.48C244.483 222.013 243.857 221.353 243.403 220.5C242.95 219.647 242.723 218.647 242.723 217.5ZM265.552 217.1C265.552 217.447 265.532 217.813 265.492 218.2H256.732C256.798 219.28 257.165 220.127 257.832 220.74C258.512 221.34 259.332 221.64 260.292 221.64C261.078 221.64 261.732 221.46 262.252 221.1C262.785 220.727 263.158 220.233 263.372 219.62H265.332C265.038 220.673 264.452 221.533 263.572 222.2C262.692 222.853 261.598 223.18 260.292 223.18C259.252 223.18 258.318 222.947 257.492 222.48C256.678 222.013 256.038 221.353 255.572 220.5C255.105 219.633 254.872 218.633 254.872 217.5C254.872 216.367 255.098 215.373 255.552 214.52C256.005 213.667 256.638 213.013 257.452 212.56C258.278 212.093 259.225 211.86 260.292 211.86C261.332 211.86 262.252 212.087 263.052 212.54C263.852 212.993 264.465 213.62 264.892 214.42C265.332 215.207 265.552 216.1 265.552 217.1ZM263.672 216.72C263.672 216.027 263.518 215.433 263.212 214.94C262.905 214.433 262.485 214.053 261.952 213.8C261.432 213.533 260.852 213.4 260.212 213.4C259.292 213.4 258.505 213.693 257.852 214.28C257.212 214.867 256.845 215.68 256.752 216.72H263.672ZM271.834 223.18C270.994 223.18 270.241 223.04 269.574 222.76C268.907 222.467 268.381 222.067 267.994 221.56C267.607 221.04 267.394 220.447 267.354 219.78H269.234C269.287 220.327 269.541 220.773 269.994 221.12C270.461 221.467 271.067 221.64 271.814 221.64C272.507 221.64 273.054 221.487 273.454 221.18C273.854 220.873 274.054 220.487 274.054 220.02C274.054 219.54 273.841 219.187 273.414 218.96C272.987 218.72 272.327 218.487 271.434 218.26C270.621 218.047 269.954 217.833 269.434 217.62C268.927 217.393 268.487 217.067 268.114 216.64C267.754 216.2 267.574 215.627 267.574 214.92C267.574 214.36 267.741 213.847 268.074 213.38C268.407 212.913 268.881 212.547 269.494 212.28C270.107 212 270.807 211.86 271.594 211.86C272.807 211.86 273.787 212.167 274.534 212.78C275.281 213.393 275.681 214.233 275.734 215.3H273.914C273.874 214.727 273.641 214.267 273.214 213.92C272.801 213.573 272.241 213.4 271.534 213.4C270.881 213.4 270.361 213.54 269.974 213.82C269.587 214.1 269.394 214.467 269.394 214.92C269.394 215.28 269.507 215.58 269.734 215.82C269.974 216.047 270.267 216.233 270.614 216.38C270.974 216.513 271.467 216.667 272.094 216.84C272.881 217.053 273.521 217.267 274.014 217.48C274.507 217.68 274.927 217.987 275.274 218.4C275.634 218.813 275.821 219.353 275.834 220.02C275.834 220.62 275.667 221.16 275.334 221.64C275.001 222.12 274.527 222.5 273.914 222.78C273.314 223.047 272.621 223.18 271.834 223.18ZM282.283 223.18C281.443 223.18 280.69 223.04 280.023 222.76C279.357 222.467 278.83 222.067 278.443 221.56C278.057 221.04 277.843 220.447 277.803 219.78H279.683C279.737 220.327 279.99 220.773 280.443 221.12C280.91 221.467 281.517 221.64 282.263 221.64C282.957 221.64 283.503 221.487 283.903 221.18C284.303 220.873 284.503 220.487 284.503 220.02C284.503 219.54 284.29 219.187 283.863 218.96C283.437 218.72 282.777 218.487 281.883 218.26C281.07 218.047 280.403 217.833 279.883 217.62C279.377 217.393 278.937 217.067 278.563 216.64C278.203 216.2 278.023 215.627 278.023 214.92C278.023 214.36 278.19 213.847 278.523 213.38C278.857 212.913 279.33 212.547 279.943 212.28C280.557 212 281.257 211.86 282.043 211.86C283.257 211.86 284.237 212.167 284.983 212.78C285.73 213.393 286.13 214.233 286.183 215.3H284.363C284.323 214.727 284.09 214.267 283.663 213.92C283.25 213.573 282.69 213.4 281.983 213.4C281.33 213.4 280.81 213.54 280.423 213.82C280.037 214.1 279.843 214.467 279.843 214.92C279.843 215.28 279.957 215.58 280.183 215.82C280.423 216.047 280.717 216.233 281.063 216.38C281.423 216.513 281.917 216.667 282.543 216.84C283.33 217.053 283.97 217.267 284.463 217.48C284.957 217.68 285.377 217.987 285.723 218.4C286.083 218.813 286.27 219.353 286.283 220.02C286.283 220.62 286.117 221.16 285.783 221.64C285.45 222.12 284.977 222.5 284.363 222.78C283.763 223.047 283.07 223.18 282.283 223.18ZM293.633 223.18C292.606 223.18 291.673 222.947 290.833 222.48C290.006 222.013 289.353 221.353 288.873 220.5C288.406 219.633 288.173 218.633 288.173 217.5C288.173 216.38 288.413 215.393 288.893 214.54C289.386 213.673 290.053 213.013 290.893 212.56C291.733 212.093 292.673 211.86 293.713 211.86C294.753 211.86 295.693 212.093 296.533 212.56C297.373 213.013 298.033 213.667 298.513 214.52C299.006 215.373 299.253 216.367 299.253 217.5C299.253 218.633 298.999 219.633 298.493 220.5C297.999 221.353 297.326 222.013 296.473 222.48C295.619 222.947 294.673 223.18 293.633 223.18ZM293.633 221.58C294.286 221.58 294.899 221.427 295.473 221.12C296.046 220.813 296.506 220.353 296.853 219.74C297.213 219.127 297.393 218.38 297.393 217.5C297.393 216.62 297.219 215.873 296.873 215.26C296.526 214.647 296.073 214.193 295.513 213.9C294.953 213.593 294.346 213.44 293.693 213.44C293.026 213.44 292.413 213.593 291.853 213.9C291.306 214.193 290.866 214.647 290.533 215.26C290.199 215.873 290.033 216.62 290.033 217.5C290.033 218.393 290.193 219.147 290.513 219.76C290.846 220.373 291.286 220.833 291.833 221.14C292.379 221.433 292.979 221.58 293.633 221.58ZM312.318 211.84C313.651 211.84 314.731 212.247 315.558 213.06C316.384 213.86 316.798 215.02 316.798 216.54V223H314.998V216.8C314.998 215.707 314.724 214.873 314.178 214.3C313.631 213.713 312.884 213.42 311.938 213.42C310.978 213.42 310.211 213.72 309.638 214.32C309.078 214.92 308.798 215.793 308.798 216.94V223H306.978V212.04H308.798V213.6C309.158 213.04 309.644 212.607 310.258 212.3C310.884 211.993 311.571 211.84 312.318 211.84ZM319.09 217.48C319.09 216.36 319.317 215.38 319.77 214.54C320.224 213.687 320.844 213.027 321.63 212.56C322.43 212.093 323.317 211.86 324.29 211.86C325.25 211.86 326.084 212.067 326.79 212.48C327.497 212.893 328.024 213.413 328.37 214.04V212.04H330.21V223H328.37V220.96C328.01 221.6 327.47 222.133 326.75 222.56C326.044 222.973 325.217 223.18 324.27 223.18C323.297 223.18 322.417 222.94 321.63 222.46C320.844 221.98 320.224 221.307 319.77 220.44C319.317 219.573 319.09 218.587 319.09 217.48ZM328.37 217.5C328.37 216.673 328.204 215.953 327.87 215.34C327.537 214.727 327.084 214.26 326.51 213.94C325.95 213.607 325.33 213.44 324.65 213.44C323.97 213.44 323.35 213.6 322.79 213.92C322.23 214.24 321.784 214.707 321.45 215.32C321.117 215.933 320.95 216.653 320.95 217.48C320.95 218.32 321.117 219.053 321.45 219.68C321.784 220.293 322.23 220.767 322.79 221.1C323.35 221.42 323.97 221.58 324.65 221.58C325.33 221.58 325.95 221.42 326.51 221.1C327.084 220.767 327.537 220.293 327.87 219.68C328.204 219.053 328.37 218.327 328.37 217.5ZM322.07 210.86C322.164 210.18 322.384 209.66 322.73 209.3C323.09 208.94 323.537 208.76 324.07 208.76C324.324 208.76 324.537 208.807 324.71 208.9C324.897 208.98 325.117 209.1 325.37 209.26C325.557 209.393 325.724 209.5 325.87 209.58C326.017 209.647 326.177 209.68 326.35 209.68C326.577 209.68 326.77 209.607 326.93 209.46C327.09 209.313 327.19 209.1 327.23 208.82H328.27C328.19 209.487 327.97 210 327.61 210.36C327.25 210.72 326.804 210.9 326.27 210.9C326.017 210.9 325.79 210.86 325.59 210.78C325.404 210.687 325.19 210.553 324.95 210.38C324.737 210.247 324.564 210.147 324.43 210.08C324.31 210.013 324.164 209.98 323.99 209.98C323.764 209.98 323.57 210.053 323.41 210.2C323.264 210.347 323.17 210.567 323.13 210.86H322.07ZM338.066 223.18C337.039 223.18 336.106 222.947 335.266 222.48C334.439 222.013 333.786 221.353 333.306 220.5C332.839 219.633 332.606 218.633 332.606 217.5C332.606 216.38 332.846 215.393 333.326 214.54C333.819 213.673 334.486 213.013 335.326 212.56C336.166 212.093 337.106 211.86 338.146 211.86C339.186 211.86 340.126 212.093 340.966 212.56C341.806 213.013 342.466 213.667 342.946 214.52C343.439 215.373 343.686 216.367 343.686 217.5C343.686 218.633 343.433 219.633 342.926 220.5C342.433 221.353 341.759 222.013 340.906 222.48C340.053 222.947 339.106 223.18 338.066 223.18ZM338.066 221.58C338.719 221.58 339.333 221.427 339.906 221.12C340.479 220.813 340.939 220.353 341.286 219.74C341.646 219.127 341.826 218.38 341.826 217.5C341.826 216.62 341.653 215.873 341.306 215.26C340.959 214.647 340.506 214.193 339.946 213.9C339.386 213.593 338.779 213.44 338.126 213.44C337.459 213.44 336.846 213.593 336.286 213.9C335.739 214.193 335.299 214.647 334.966 215.26C334.633 215.873 334.466 216.62 334.466 217.5C334.466 218.393 334.626 219.147 334.946 219.76C335.279 220.373 335.719 220.833 336.266 221.14C336.813 221.433 337.413 221.58 338.066 221.58ZM52.8502 247.48C52.8502 246.36 53.0769 245.38 53.5302 244.54C53.9836 243.687 54.6036 243.027 55.3902 242.56C56.1902 242.093 57.0769 241.86 58.0502 241.86C59.0102 241.86 59.8436 242.067 60.5502 242.48C61.2569 242.893 61.7836 243.413 62.1302 244.04V242.04H63.9702V253H62.1302V250.96C61.7702 251.6 61.2302 252.133 60.5102 252.56C59.8036 252.973 58.9769 253.18 58.0302 253.18C57.0569 253.18 56.1769 252.94 55.3902 252.46C54.6036 251.98 53.9836 251.307 53.5302 250.44C53.0769 249.573 52.8502 248.587 52.8502 247.48ZM62.1302 247.5C62.1302 246.673 61.9636 245.953 61.6302 245.34C61.2969 244.727 60.8436 244.26 60.2702 243.94C59.7102 243.607 59.0902 243.44 58.4102 243.44C57.7302 243.44 57.1102 243.6 56.5502 243.92C55.9902 244.24 55.5436 244.707 55.2102 245.32C54.8769 245.933 54.7102 246.653 54.7102 247.48C54.7102 248.32 54.8769 249.053 55.2102 249.68C55.5436 250.293 55.9902 250.767 56.5502 251.1C57.1102 251.42 57.7302 251.58 58.4102 251.58C59.0902 251.58 59.7102 251.42 60.2702 251.1C60.8436 250.767 61.2969 250.293 61.6302 249.68C61.9636 249.053 62.1302 248.327 62.1302 247.5ZM76.7659 242.04V253H74.9459V251.38C74.5992 251.94 74.1125 252.38 73.4859 252.7C72.8725 253.007 72.1925 253.16 71.4459 253.16C70.5925 253.16 69.8259 252.987 69.1459 252.64C68.4659 252.28 67.9259 251.747 67.5259 251.04C67.1392 250.333 66.9459 249.473 66.9459 248.46V242.04H68.7459V248.22C68.7459 249.3 69.0192 250.133 69.5659 250.72C70.1125 251.293 70.8592 251.58 71.8059 251.58C72.7792 251.58 73.5459 251.28 74.1059 250.68C74.6659 250.08 74.9459 249.207 74.9459 248.06V242.04H76.7659ZM82.0588 243.54V250C82.0588 250.533 82.1722 250.913 82.3988 251.14C82.6255 251.353 83.0188 251.46 83.5788 251.46H84.9188V253H83.2788C82.2655 253 81.5055 252.767 80.9988 252.3C80.4922 251.833 80.2388 251.067 80.2388 250V243.54H78.8188V242.04H80.2388V239.28H82.0588V242.04H84.9188V243.54H82.0588ZM91.904 253.18C90.8773 253.18 89.944 252.947 89.104 252.48C88.2773 252.013 87.624 251.353 87.144 250.5C86.6773 249.633 86.444 248.633 86.444 247.5C86.444 246.38 86.684 245.393 87.164 244.54C87.6573 243.673 88.324 243.013 89.164 242.56C90.004 242.093 90.944 241.86 91.984 241.86C93.024 241.86 93.964 242.093 94.804 242.56C95.644 243.013 96.304 243.667 96.784 244.52C97.2773 245.373 97.524 246.367 97.524 247.5C97.524 248.633 97.2707 249.633 96.764 250.5C96.2707 251.353 95.5973 252.013 94.744 252.48C93.8907 252.947 92.944 253.18 91.904 253.18ZM91.904 251.58C92.5573 251.58 93.1707 251.427 93.744 251.12C94.3173 250.813 94.7773 250.353 95.124 249.74C95.484 249.127 95.664 248.38 95.664 247.5C95.664 246.62 95.4907 245.873 95.144 245.26C94.7973 244.647 94.344 244.193 93.784 243.9C93.224 243.593 92.6173 243.44 91.964 243.44C91.2973 243.44 90.684 243.593 90.124 243.9C89.5773 244.193 89.1373 244.647 88.804 245.26C88.4707 245.873 88.304 246.62 88.304 247.5C88.304 248.393 88.464 249.147 88.784 249.76C89.1173 250.373 89.5573 250.833 90.104 251.14C90.6507 251.433 91.2507 251.58 91.904 251.58ZM101.737 243.82C102.057 243.193 102.51 242.707 103.097 242.36C103.697 242.013 104.424 241.84 105.277 241.84V243.72H104.797C102.757 243.72 101.737 244.827 101.737 247.04V253H99.917V242.04H101.737V243.82ZM108.318 240.26C107.971 240.26 107.678 240.14 107.438 239.9C107.198 239.66 107.078 239.367 107.078 239.02C107.078 238.673 107.198 238.38 107.438 238.14C107.678 237.9 107.971 237.78 108.318 237.78C108.651 237.78 108.931 237.9 109.158 238.14C109.398 238.38 109.518 238.673 109.518 239.02C109.518 239.367 109.398 239.66 109.158 239.9C108.931 240.14 108.651 240.26 108.318 240.26ZM109.198 242.04V253H107.378V242.04H109.198ZM113.66 251.5H119.04V253H111.58V251.5L116.9 243.52H111.62V242.04H119V243.52L113.66 251.5ZM120.721 247.48C120.721 246.36 120.948 245.38 121.401 244.54C121.855 243.687 122.475 243.027 123.261 242.56C124.061 242.093 124.948 241.86 125.921 241.86C126.881 241.86 127.715 242.067 128.421 242.48C129.128 242.893 129.655 243.413 130.001 244.04V242.04H131.841V253H130.001V250.96C129.641 251.6 129.101 252.133 128.381 252.56C127.675 252.973 126.848 253.18 125.901 253.18C124.928 253.18 124.048 252.94 123.261 252.46C122.475 251.98 121.855 251.307 121.401 250.44C120.948 249.573 120.721 248.587 120.721 247.48ZM130.001 247.5C130.001 246.673 129.835 245.953 129.501 245.34C129.168 244.727 128.715 244.26 128.141 243.94C127.581 243.607 126.961 243.44 126.281 243.44C125.601 243.44 124.981 243.6 124.421 243.92C123.861 244.24 123.415 244.707 123.081 245.32C122.748 245.933 122.581 246.653 122.581 247.48C122.581 248.32 122.748 249.053 123.081 249.68C123.415 250.293 123.861 250.767 124.421 251.1C124.981 251.42 125.601 251.58 126.281 251.58C126.961 251.58 127.581 251.42 128.141 251.1C128.715 250.767 129.168 250.293 129.501 249.68C129.835 249.053 130.001 248.327 130.001 247.5ZM134.237 247.48C134.237 246.36 134.464 245.38 134.917 244.54C135.37 243.687 135.99 243.027 136.777 242.56C137.577 242.093 138.47 241.86 139.457 241.86C140.31 241.86 141.104 242.06 141.837 242.46C142.57 242.847 143.13 243.36 143.517 244V238.2H145.357V253H143.517V250.94C143.157 251.593 142.624 252.133 141.917 252.56C141.21 252.973 140.384 253.18 139.437 253.18C138.464 253.18 137.577 252.94 136.777 252.46C135.99 251.98 135.37 251.307 134.917 250.44C134.464 249.573 134.237 248.587 134.237 247.48ZM143.517 247.5C143.517 246.673 143.35 245.953 143.017 245.34C142.684 244.727 142.23 244.26 141.657 243.94C141.097 243.607 140.477 243.44 139.797 243.44C139.117 243.44 138.497 243.6 137.937 243.92C137.377 244.24 136.93 244.707 136.597 245.32C136.264 245.933 136.097 246.653 136.097 247.48C136.097 248.32 136.264 249.053 136.597 249.68C136.93 250.293 137.377 250.767 137.937 251.1C138.497 251.42 139.117 251.58 139.797 251.58C140.477 251.58 141.097 251.42 141.657 251.1C142.23 250.767 142.684 250.293 143.017 249.68C143.35 249.053 143.517 248.327 143.517 247.5ZM153.213 253.18C152.186 253.18 151.253 252.947 150.413 252.48C149.586 252.013 148.933 251.353 148.453 250.5C147.986 249.633 147.753 248.633 147.753 247.5C147.753 246.38 147.993 245.393 148.473 244.54C148.966 243.673 149.633 243.013 150.473 242.56C151.313 242.093 152.253 241.86 153.293 241.86C154.333 241.86 155.273 242.093 156.113 242.56C156.953 243.013 157.613 243.667 158.093 244.52C158.586 245.373 158.833 246.367 158.833 247.5C158.833 248.633 158.579 249.633 158.073 250.5C157.579 251.353 156.906 252.013 156.053 252.48C155.199 252.947 154.253 253.18 153.213 253.18ZM153.213 251.58C153.866 251.58 154.479 251.427 155.053 251.12C155.626 250.813 156.086 250.353 156.433 249.74C156.793 249.127 156.973 248.38 156.973 247.5C156.973 246.62 156.799 245.873 156.453 245.26C156.106 244.647 155.653 244.193 155.093 243.9C154.533 243.593 153.926 243.44 153.273 243.44C152.606 243.44 151.993 243.593 151.433 243.9C150.886 244.193 150.446 244.647 150.113 245.26C149.779 245.873 149.613 246.62 149.613 247.5C149.613 248.393 149.773 249.147 150.093 249.76C150.426 250.373 150.866 250.833 151.413 251.14C151.959 251.433 152.559 251.58 153.213 251.58ZM165.878 247.5C165.878 246.367 166.104 245.38 166.558 244.54C167.011 243.687 167.638 243.027 168.438 242.56C169.251 242.093 170.178 241.86 171.218 241.86C172.564 241.86 173.671 242.187 174.538 242.84C175.418 243.493 175.998 244.4 176.278 245.56H174.318C174.131 244.893 173.764 244.367 173.218 243.98C172.684 243.593 172.018 243.4 171.218 243.4C170.178 243.4 169.338 243.76 168.698 244.48C168.058 245.187 167.738 246.193 167.738 247.5C167.738 248.82 168.058 249.84 168.698 250.56C169.338 251.28 170.178 251.64 171.218 251.64C172.018 251.64 172.684 251.453 173.218 251.08C173.751 250.707 174.118 250.173 174.318 249.48H176.278C175.984 250.6 175.398 251.5 174.518 252.18C173.638 252.847 172.538 253.18 171.218 253.18C170.178 253.18 169.251 252.947 168.438 252.48C167.638 252.013 167.011 251.353 166.558 250.5C166.104 249.647 165.878 248.647 165.878 247.5ZM183.486 253.18C182.459 253.18 181.526 252.947 180.686 252.48C179.859 252.013 179.206 251.353 178.726 250.5C178.259 249.633 178.026 248.633 178.026 247.5C178.026 246.38 178.266 245.393 178.746 244.54C179.239 243.673 179.906 243.013 180.746 242.56C181.586 242.093 182.526 241.86 183.566 241.86C184.606 241.86 185.546 242.093 186.386 242.56C187.226 243.013 187.886 243.667 188.366 244.52C188.859 245.373 189.106 246.367 189.106 247.5C189.106 248.633 188.853 249.633 188.346 250.5C187.853 251.353 187.179 252.013 186.326 252.48C185.473 252.947 184.526 253.18 183.486 253.18ZM183.486 251.58C184.139 251.58 184.753 251.427 185.326 251.12C185.899 250.813 186.359 250.353 186.706 249.74C187.066 249.127 187.246 248.38 187.246 247.5C187.246 246.62 187.073 245.873 186.726 245.26C186.379 244.647 185.926 244.193 185.366 243.9C184.806 243.593 184.199 243.44 183.546 243.44C182.879 243.44 182.266 243.593 181.706 243.9C181.159 244.193 180.719 244.647 180.386 245.26C180.053 245.873 179.886 246.62 179.886 247.5C179.886 248.393 180.046 249.147 180.366 249.76C180.699 250.373 181.139 250.833 181.686 251.14C182.233 251.433 182.833 251.58 183.486 251.58ZM204.679 241.84C205.532 241.84 206.292 242.02 206.959 242.38C207.626 242.727 208.152 243.253 208.539 243.96C208.926 244.667 209.119 245.527 209.119 246.54V253H207.319V246.8C207.319 245.707 207.046 244.873 206.499 244.3C205.966 243.713 205.239 243.42 204.319 243.42C203.372 243.42 202.619 243.727 202.059 244.34C201.499 244.94 201.219 245.813 201.219 246.96V253H199.419V246.8C199.419 245.707 199.146 244.873 198.599 244.3C198.066 243.713 197.339 243.42 196.419 243.42C195.472 243.42 194.719 243.727 194.159 244.34C193.599 244.94 193.319 245.813 193.319 246.96V253H191.499V242.04H193.319V243.62C193.679 243.047 194.159 242.607 194.759 242.3C195.372 241.993 196.046 241.84 196.779 241.84C197.699 241.84 198.512 242.047 199.219 242.46C199.926 242.873 200.452 243.48 200.799 244.28C201.106 243.507 201.612 242.907 202.319 242.48C203.026 242.053 203.812 241.84 204.679 241.84ZM222.776 241.84C224.11 241.84 225.19 242.247 226.016 243.06C226.843 243.86 227.256 245.02 227.256 246.54V253H225.456V246.8C225.456 245.707 225.183 244.873 224.636 244.3C224.09 243.713 223.343 243.42 222.396 243.42C221.436 243.42 220.67 243.72 220.096 244.32C219.536 244.92 219.256 245.793 219.256 246.94V253H217.436V242.04H219.256V243.6C219.616 243.04 220.103 242.607 220.716 242.3C221.343 241.993 222.03 241.84 222.776 241.84ZM235.009 253.18C233.983 253.18 233.049 252.947 232.209 252.48C231.383 252.013 230.729 251.353 230.249 250.5C229.783 249.633 229.549 248.633 229.549 247.5C229.549 246.38 229.789 245.393 230.269 244.54C230.763 243.673 231.429 243.013 232.269 242.56C233.109 242.093 234.049 241.86 235.089 241.86C236.129 241.86 237.069 242.093 237.909 242.56C238.749 243.013 239.409 243.667 239.889 244.52C240.383 245.373 240.629 246.367 240.629 247.5C240.629 248.633 240.376 249.633 239.869 250.5C239.376 251.353 238.703 252.013 237.849 252.48C236.996 252.947 236.049 253.18 235.009 253.18ZM235.009 251.58C235.663 251.58 236.276 251.427 236.849 251.12C237.423 250.813 237.883 250.353 238.229 249.74C238.589 249.127 238.769 248.38 238.769 247.5C238.769 246.62 238.596 245.873 238.249 245.26C237.903 244.647 237.449 244.193 236.889 243.9C236.329 243.593 235.723 243.44 235.069 243.44C234.403 243.44 233.789 243.593 233.229 243.9C232.683 244.193 232.243 244.647 231.909 245.26C231.576 245.873 231.409 246.62 231.409 247.5C231.409 248.393 231.569 249.147 231.889 249.76C232.223 250.373 232.663 250.833 233.209 251.14C233.756 251.433 234.356 251.58 235.009 251.58ZM246.902 253.18C246.062 253.18 245.309 253.04 244.642 252.76C243.976 252.467 243.449 252.067 243.062 251.56C242.676 251.04 242.462 250.447 242.422 249.78H244.302C244.356 250.327 244.609 250.773 245.062 251.12C245.529 251.467 246.136 251.64 246.882 251.64C247.576 251.64 248.122 251.487 248.522 251.18C248.922 250.873 249.122 250.487 249.122 250.02C249.122 249.54 248.909 249.187 248.482 248.96C248.056 248.72 247.396 248.487 246.502 248.26C245.689 248.047 245.022 247.833 244.502 247.62C243.996 247.393 243.556 247.067 243.182 246.64C242.822 246.2 242.642 245.627 242.642 244.92C242.642 244.36 242.809 243.847 243.142 243.38C243.476 242.913 243.949 242.547 244.562 242.28C245.176 242 245.876 241.86 246.662 241.86C247.876 241.86 248.856 242.167 249.602 242.78C250.349 243.393 250.749 244.233 250.802 245.3H248.982C248.942 244.727 248.709 244.267 248.282 243.92C247.869 243.573 247.309 243.4 246.602 243.4C245.949 243.4 245.429 243.54 245.042 243.82C244.656 244.1 244.462 244.467 244.462 244.92C244.462 245.28 244.576 245.58 244.802 245.82C245.042 246.047 245.336 246.233 245.682 246.38C246.042 246.513 246.536 246.667 247.162 246.84C247.949 247.053 248.589 247.267 249.082 247.48C249.576 247.68 249.996 247.987 250.342 248.4C250.702 248.813 250.889 249.353 250.902 250.02C250.902 250.62 250.736 251.16 250.402 251.64C250.069 252.12 249.596 252.5 248.982 252.78C248.382 253.047 247.689 253.18 246.902 253.18ZM257.352 253.18C256.512 253.18 255.758 253.04 255.092 252.76C254.425 252.467 253.898 252.067 253.512 251.56C253.125 251.04 252.912 250.447 252.872 249.78H254.752C254.805 250.327 255.058 250.773 255.512 251.12C255.978 251.467 256.585 251.64 257.332 251.64C258.025 251.64 258.572 251.487 258.972 251.18C259.372 250.873 259.572 250.487 259.572 250.02C259.572 249.54 259.358 249.187 258.932 248.96C258.505 248.72 257.845 248.487 256.952 248.26C256.138 248.047 255.472 247.833 254.952 247.62C254.445 247.393 254.005 247.067 253.632 246.64C253.272 246.2 253.092 245.627 253.092 244.92C253.092 244.36 253.258 243.847 253.592 243.38C253.925 242.913 254.398 242.547 255.012 242.28C255.625 242 256.325 241.86 257.112 241.86C258.325 241.86 259.305 242.167 260.052 242.78C260.798 243.393 261.198 244.233 261.252 245.3H259.432C259.392 244.727 259.158 244.267 258.732 243.92C258.318 243.573 257.758 243.4 257.052 243.4C256.398 243.4 255.878 243.54 255.492 243.82C255.105 244.1 254.912 244.467 254.912 244.92C254.912 245.28 255.025 245.58 255.252 245.82C255.492 246.047 255.785 246.233 256.132 246.38C256.492 246.513 256.985 246.667 257.612 246.84C258.398 247.053 259.038 247.267 259.532 247.48C260.025 247.68 260.445 247.987 260.792 248.4C261.152 248.813 261.338 249.353 261.352 250.02C261.352 250.62 261.185 251.16 260.852 251.64C260.518 252.12 260.045 252.5 259.432 252.78C258.832 253.047 258.138 253.18 257.352 253.18ZM263.241 247.48C263.241 246.36 263.468 245.38 263.921 244.54C264.374 243.687 264.994 243.027 265.781 242.56C266.581 242.093 267.468 241.86 268.441 241.86C269.401 241.86 270.234 242.067 270.941 242.48C271.648 242.893 272.174 243.413 272.521 244.04V242.04H274.361V253H272.521V250.96C272.161 251.6 271.621 252.133 270.901 252.56C270.194 252.973 269.368 253.18 268.421 253.18C267.448 253.18 266.568 252.94 265.781 252.46C264.994 251.98 264.374 251.307 263.921 250.44C263.468 249.573 263.241 248.587 263.241 247.48ZM272.521 247.5C272.521 246.673 272.354 245.953 272.021 245.34C271.688 244.727 271.234 244.26 270.661 243.94C270.101 243.607 269.481 243.44 268.801 243.44C268.121 243.44 267.501 243.6 266.941 243.92C266.381 244.24 265.934 244.707 265.601 245.32C265.268 245.933 265.101 246.653 265.101 247.48C265.101 248.32 265.268 249.053 265.601 249.68C265.934 250.293 266.381 250.767 266.941 251.1C267.501 251.42 268.121 251.58 268.801 251.58C269.481 251.58 270.101 251.42 270.661 251.1C271.234 250.767 271.688 250.293 272.021 249.68C272.354 249.053 272.521 248.327 272.521 247.5ZM284.589 243.82C284.909 243.193 285.362 242.707 285.949 242.36C286.549 242.013 287.275 241.84 288.129 241.84V243.72H287.649C285.609 243.72 284.589 244.827 284.589 247.04V253H282.769V242.04H284.589V243.82ZM300.229 247.1C300.229 247.447 300.209 247.813 300.169 248.2H291.409C291.476 249.28 291.843 250.127 292.509 250.74C293.189 251.34 294.009 251.64 294.969 251.64C295.756 251.64 296.409 251.46 296.929 251.1C297.463 250.727 297.836 250.233 298.049 249.62H300.009C299.716 250.673 299.129 251.533 298.249 252.2C297.369 252.853 296.276 253.18 294.969 253.18C293.929 253.18 292.996 252.947 292.169 252.48C291.356 252.013 290.716 251.353 290.249 250.5C289.783 249.633 289.549 248.633 289.549 247.5C289.549 246.367 289.776 245.373 290.229 244.52C290.683 243.667 291.316 243.013 292.129 242.56C292.956 242.093 293.903 241.86 294.969 241.86C296.009 241.86 296.929 242.087 297.729 242.54C298.529 242.993 299.143 243.62 299.569 244.42C300.009 245.207 300.229 246.1 300.229 247.1ZM298.349 246.72C298.349 246.027 298.196 245.433 297.889 244.94C297.583 244.433 297.163 244.053 296.629 243.8C296.109 243.533 295.529 243.4 294.889 243.4C293.969 243.4 293.183 243.693 292.529 244.28C291.889 244.867 291.523 245.68 291.429 246.72H298.349ZM301.952 247.48C301.952 246.36 302.178 245.38 302.632 244.54C303.085 243.687 303.705 243.027 304.492 242.56C305.292 242.093 306.185 241.86 307.172 241.86C308.025 241.86 308.818 242.06 309.552 242.46C310.285 242.847 310.845 243.36 311.232 244V238.2H313.072V253H311.232V250.94C310.872 251.593 310.338 252.133 309.632 252.56C308.925 252.973 308.098 253.18 307.152 253.18C306.178 253.18 305.292 252.94 304.492 252.46C303.705 251.98 303.085 251.307 302.632 250.44C302.178 249.573 301.952 248.587 301.952 247.48ZM311.232 247.5C311.232 246.673 311.065 245.953 310.732 245.34C310.398 244.727 309.945 244.26 309.372 243.94C308.812 243.607 308.192 243.44 307.512 243.44C306.832 243.44 306.212 243.6 305.652 243.92C305.092 244.24 304.645 244.707 304.312 245.32C303.978 245.933 303.812 246.653 303.812 247.48C303.812 248.32 303.978 249.053 304.312 249.68C304.645 250.293 305.092 250.767 305.652 251.1C306.212 251.42 306.832 251.58 307.512 251.58C308.192 251.58 308.812 251.42 309.372 251.1C309.945 250.767 310.398 250.293 310.732 249.68C311.065 249.053 311.232 248.327 311.232 247.5ZM326.147 247.1C326.147 247.447 326.127 247.813 326.087 248.2H317.327C317.394 249.28 317.761 250.127 318.427 250.74C319.107 251.34 319.927 251.64 320.887 251.64C321.674 251.64 322.327 251.46 322.847 251.1C323.381 250.727 323.754 250.233 323.967 249.62H325.927C325.634 250.673 325.047 251.533 324.167 252.2C323.287 252.853 322.194 253.18 320.887 253.18C319.847 253.18 318.914 252.947 318.087 252.48C317.274 252.013 316.634 251.353 316.167 250.5C315.701 249.633 315.467 248.633 315.467 247.5C315.467 246.367 315.694 245.373 316.147 244.52C316.601 243.667 317.234 243.013 318.047 242.56C318.874 242.093 319.821 241.86 320.887 241.86C321.927 241.86 322.847 242.087 323.647 242.54C324.447 242.993 325.061 243.62 325.487 244.42C325.927 245.207 326.147 246.1 326.147 247.1ZM324.267 246.72C324.267 246.027 324.114 245.433 323.807 244.94C323.501 244.433 323.081 244.053 322.547 243.8C322.027 243.533 321.447 243.4 320.807 243.4C319.887 243.4 319.101 243.693 318.447 244.28C317.807 244.867 317.441 245.68 317.347 246.72H324.267ZM84.2174 274.06C84.5774 273.433 85.1108 272.913 85.8174 272.5C86.5374 272.073 87.3708 271.86 88.3174 271.86C89.2908 271.86 90.1708 272.093 90.9574 272.56C91.7574 273.027 92.3841 273.687 92.8374 274.54C93.2908 275.38 93.5174 276.36 93.5174 277.48C93.5174 278.587 93.2908 279.573 92.8374 280.44C92.3841 281.307 91.7574 281.98 90.9574 282.46C90.1708 282.94 89.2908 283.18 88.3174 283.18C87.3841 283.18 86.5574 282.973 85.8374 282.56C85.1308 282.133 84.5908 281.607 84.2174 280.98V288.2H82.3974V272.04H84.2174V274.06ZM91.6574 277.48C91.6574 276.653 91.4908 275.933 91.1574 275.32C90.8241 274.707 90.3708 274.24 89.7974 273.92C89.2374 273.6 88.6174 273.44 87.9374 273.44C87.2708 273.44 86.6508 273.607 86.0774 273.94C85.5174 274.26 85.0641 274.733 84.7174 275.36C84.3841 275.973 84.2174 276.687 84.2174 277.5C84.2174 278.327 84.3841 279.053 84.7174 279.68C85.0641 280.293 85.5174 280.767 86.0774 281.1C86.6508 281.42 87.2708 281.58 87.9374 281.58C88.6174 281.58 89.2374 281.42 89.7974 281.1C90.3708 280.767 90.8241 280.293 91.1574 279.68C91.4908 279.053 91.6574 278.32 91.6574 277.48ZM97.733 273.82C98.053 273.193 98.5064 272.707 99.093 272.36C99.693 272.013 100.42 271.84 101.273 271.84V273.72H100.793C98.753 273.72 97.733 274.827 97.733 277.04V283H95.913V272.04H97.733V273.82ZM104.314 270.26C103.967 270.26 103.674 270.14 103.434 269.9C103.194 269.66 103.074 269.367 103.074 269.02C103.074 268.673 103.194 268.38 103.434 268.14C103.674 267.9 103.967 267.78 104.314 267.78C104.647 267.78 104.927 267.9 105.154 268.14C105.394 268.38 105.514 268.673 105.514 269.02C105.514 269.367 105.394 269.66 105.154 269.9C104.927 270.14 104.647 270.26 104.314 270.26ZM105.194 272.04V283H103.374V272.04H105.194ZM112.376 281.32L115.776 272.04H117.716L113.416 283H111.296L106.996 272.04H108.956L112.376 281.32ZM118.827 277.48C118.827 276.36 119.053 275.38 119.507 274.54C119.96 273.687 120.58 273.027 121.367 272.56C122.167 272.093 123.053 271.86 124.027 271.86C124.987 271.86 125.82 272.067 126.527 272.48C127.233 272.893 127.76 273.413 128.107 274.04V272.04H129.947V283H128.107V280.96C127.747 281.6 127.207 282.133 126.487 282.56C125.78 282.973 124.953 283.18 124.007 283.18C123.033 283.18 122.153 282.94 121.367 282.46C120.58 281.98 119.96 281.307 119.507 280.44C119.053 279.573 118.827 278.587 118.827 277.48ZM128.107 277.5C128.107 276.673 127.94 275.953 127.607 275.34C127.273 274.727 126.82 274.26 126.247 273.94C125.687 273.607 125.067 273.44 124.387 273.44C123.707 273.44 123.087 273.6 122.527 273.92C121.967 274.24 121.52 274.707 121.187 275.32C120.853 275.933 120.687 276.653 120.687 277.48C120.687 278.32 120.853 279.053 121.187 279.68C121.52 280.293 121.967 280.767 122.527 281.1C123.087 281.42 123.707 281.58 124.387 281.58C125.067 281.58 125.687 281.42 126.247 281.1C126.82 280.767 127.273 280.293 127.607 279.68C127.94 279.053 128.107 278.327 128.107 277.5ZM132.342 277.48C132.342 276.36 132.569 275.38 133.022 274.54C133.476 273.687 134.096 273.027 134.882 272.56C135.682 272.093 136.576 271.86 137.562 271.86C138.416 271.86 139.209 272.06 139.942 272.46C140.676 272.847 141.236 273.36 141.622 274V268.2H143.462V283H141.622V280.94C141.262 281.593 140.729 282.133 140.022 282.56C139.316 282.973 138.489 283.18 137.542 283.18C136.569 283.18 135.682 282.94 134.882 282.46C134.096 281.98 133.476 281.307 133.022 280.44C132.569 279.573 132.342 278.587 132.342 277.48ZM141.622 277.5C141.622 276.673 141.456 275.953 141.122 275.34C140.789 274.727 140.336 274.26 139.762 273.94C139.202 273.607 138.582 273.44 137.902 273.44C137.222 273.44 136.602 273.6 136.042 273.92C135.482 274.24 135.036 274.707 134.702 275.32C134.369 275.933 134.202 276.653 134.202 277.48C134.202 278.32 134.369 279.053 134.702 279.68C135.036 280.293 135.482 280.767 136.042 281.1C136.602 281.42 137.222 281.58 137.902 281.58C138.582 281.58 139.202 281.42 139.762 281.1C140.336 280.767 140.789 280.293 141.122 279.68C141.456 279.053 141.622 278.327 141.622 277.5ZM145.858 277.48C145.858 276.36 146.085 275.38 146.538 274.54C146.991 273.687 147.611 273.027 148.398 272.56C149.198 272.093 150.085 271.86 151.058 271.86C152.018 271.86 152.851 272.067 153.558 272.48C154.265 272.893 154.791 273.413 155.138 274.04V272.04H156.978V283H155.138V280.96C154.778 281.6 154.238 282.133 153.518 282.56C152.811 282.973 151.985 283.18 151.038 283.18C150.065 283.18 149.185 282.94 148.398 282.46C147.611 281.98 146.991 281.307 146.538 280.44C146.085 279.573 145.858 278.587 145.858 277.48ZM155.138 277.5C155.138 276.673 154.971 275.953 154.638 275.34C154.305 274.727 153.851 274.26 153.278 273.94C152.718 273.607 152.098 273.44 151.418 273.44C150.738 273.44 150.118 273.6 149.558 273.92C148.998 274.24 148.551 274.707 148.218 275.32C147.885 275.933 147.718 276.653 147.718 277.48C147.718 278.32 147.885 279.053 148.218 279.68C148.551 280.293 148.998 280.767 149.558 281.1C150.118 281.42 150.738 281.58 151.418 281.58C152.098 281.58 152.718 281.42 153.278 281.1C153.851 280.767 154.305 280.293 154.638 279.68C154.971 279.053 155.138 278.327 155.138 277.5ZM169.466 281.32L172.866 272.04H174.806L170.506 283H168.386L164.086 272.04H166.046L169.466 281.32ZM177.537 270.26C177.19 270.26 176.897 270.14 176.657 269.9C176.417 269.66 176.297 269.367 176.297 269.02C176.297 268.673 176.417 268.38 176.657 268.14C176.897 267.9 177.19 267.78 177.537 267.78C177.87 267.78 178.15 267.9 178.377 268.14C178.617 268.38 178.737 268.673 178.737 269.02C178.737 269.367 178.617 269.66 178.377 269.9C178.15 270.14 177.87 270.26 177.537 270.26ZM178.417 272.04V283H176.597V272.04H178.417ZM183.339 273.82C183.659 273.193 184.112 272.707 184.699 272.36C185.299 272.013 186.025 271.84 186.879 271.84V273.72H186.399C184.359 273.72 183.339 274.827 183.339 277.04V283H181.519V272.04H183.339V273.82ZM191.199 273.54V280C191.199 280.533 191.313 280.913 191.539 281.14C191.766 281.353 192.159 281.46 192.719 281.46H194.059V283H192.419C191.406 283 190.646 282.767 190.139 282.3C189.633 281.833 189.379 281.067 189.379 280V273.54H187.959V272.04H189.379V269.28H191.199V272.04H194.059V273.54H191.199ZM205.985 272.04V283H204.165V281.38C203.818 281.94 203.331 282.38 202.705 282.7C202.091 283.007 201.411 283.16 200.665 283.16C199.811 283.16 199.045 282.987 198.365 282.64C197.685 282.28 197.145 281.747 196.745 281.04C196.358 280.333 196.165 279.473 196.165 278.46V272.04H197.965V278.22C197.965 279.3 198.238 280.133 198.785 280.72C199.331 281.293 200.078 281.58 201.025 281.58C201.998 281.58 202.765 281.28 203.325 280.68C203.885 280.08 204.165 279.207 204.165 278.06V272.04H205.985ZM208.378 277.48C208.378 276.36 208.604 275.38 209.058 274.54C209.511 273.687 210.131 273.027 210.918 272.56C211.718 272.093 212.604 271.86 213.578 271.86C214.538 271.86 215.371 272.067 216.078 272.48C216.784 272.893 217.311 273.413 217.658 274.04V272.04H219.498V283H217.658V280.96C217.298 281.6 216.758 282.133 216.038 282.56C215.331 282.973 214.504 283.18 213.558 283.18C212.584 283.18 211.704 282.94 210.918 282.46C210.131 281.98 209.511 281.307 209.058 280.44C208.604 279.573 208.378 278.587 208.378 277.48ZM217.658 277.5C217.658 276.673 217.491 275.953 217.158 275.34C216.824 274.727 216.371 274.26 215.798 273.94C215.238 273.607 214.618 273.44 213.938 273.44C213.258 273.44 212.638 273.6 212.078 273.92C211.518 274.24 211.071 274.707 210.738 275.32C210.404 275.933 210.238 276.653 210.238 277.48C210.238 278.32 210.404 279.053 210.738 279.68C211.071 280.293 211.518 280.767 212.078 281.1C212.638 281.42 213.258 281.58 213.938 281.58C214.618 281.58 215.238 281.42 215.798 281.1C216.371 280.767 216.824 280.293 217.158 279.68C217.491 279.053 217.658 278.327 217.658 277.5ZM224.393 268.2V283H222.573V268.2H224.393ZM237.507 286.72C236.227 285.467 235.227 283.873 234.507 281.94C233.8 280.007 233.447 277.92 233.447 275.68C233.447 273.387 233.82 271.247 234.567 269.26C235.327 267.26 236.407 265.613 237.807 264.32H239.707V264.5C238.214 265.9 237.087 267.587 236.327 269.56C235.58 271.52 235.207 273.56 235.207 275.68C235.207 277.747 235.56 279.72 236.267 281.6C236.987 283.48 238.034 285.127 239.407 286.54V286.72H237.507ZM253.429 269.06L248.169 283H246.069L240.809 269.06H242.749L247.129 281.08L251.509 269.06H253.429ZM264.745 273.14C264.745 274.3 264.345 275.267 263.545 276.04C262.758 276.8 261.551 277.18 259.925 277.18H257.245V283H255.425V269.06H259.925C261.498 269.06 262.691 269.44 263.505 270.2C264.331 270.96 264.745 271.94 264.745 273.14ZM259.925 275.68C260.938 275.68 261.685 275.46 262.165 275.02C262.645 274.58 262.885 273.953 262.885 273.14C262.885 271.42 261.898 270.56 259.925 270.56H257.245V275.68H259.925ZM277.967 283H276.147L268.827 271.9V283H267.007V269.04H268.827L276.147 280.12V269.04H277.967V283ZM280.489 286.72V286.54C281.863 285.127 282.903 283.48 283.609 281.6C284.329 279.72 284.689 277.747 284.689 275.68C284.689 273.56 284.309 271.52 283.549 269.56C282.803 267.587 281.683 265.9 280.189 264.5V264.32H282.089C283.489 265.613 284.563 267.26 285.309 269.26C286.069 271.247 286.449 273.387 286.449 275.68C286.449 277.92 286.089 280.007 285.369 281.94C284.663 283.873 283.669 285.467 282.389 286.72H280.489ZM290.731 283.12C290.385 283.12 290.091 283 289.851 282.76C289.611 282.52 289.491 282.227 289.491 281.88C289.491 281.533 289.611 281.24 289.851 281C290.091 280.76 290.385 280.64 290.731 280.64C291.065 280.64 291.345 280.76 291.571 281C291.811 281.24 291.931 281.533 291.931 281.88C291.931 282.227 291.811 282.52 291.571 282.76C291.345 283 291.065 283.12 290.731 283.12Z" fill="white"/>
</svg>
