<svg width="378" height="406" viewBox="0 0 378 406" fill="none" xmlns="http://www.w3.org/2000/svg">
<rect width="378" height="406" rx="10" fill="#2D2D2F"/>
<path d="M156 51.7508C176.1 29.4164 202.9 29.4164 223 51.7508M169.4 65.1508C181.46 51.7508 197.54 51.7508 209.6 65.1508" stroke="#FF5000" stroke-width="6.7" stroke-linecap="round" stroke-linejoin="round"/>
<path d="M189.499 81.8992C191.35 81.8992 192.849 80.3994 192.849 78.5492C192.849 76.6991 191.35 75.1992 189.499 75.1992C187.649 75.1992 186.149 76.6991 186.149 78.5492C186.149 80.3994 187.649 81.8992 189.499 81.8992Z" stroke="#FF5000" stroke-width="6.7" stroke-linecap="round" stroke-linejoin="round"/>
<path d="M91.528 128.367C91.528 129.338 91.294 130.248 90.826 131.097C90.3753 131.947 89.656 132.631 88.668 133.151C87.6973 133.671 86.4667 133.931 84.976 133.931H81.934V140.899H78.294V122.751H84.976C86.38 122.751 87.576 122.994 88.564 123.479C89.552 123.965 90.2887 124.632 90.774 125.481C91.2767 126.331 91.528 127.293 91.528 128.367ZM84.82 130.993C85.8253 130.993 86.5707 130.768 87.056 130.317C87.5413 129.849 87.784 129.199 87.784 128.367C87.784 126.599 86.796 125.715 84.82 125.715H81.934V130.993H84.82ZM97.7524 121.659V140.899H94.1124V121.659H97.7524ZM100.413 133.645C100.413 132.189 100.699 130.898 101.271 129.771C101.86 128.645 102.649 127.778 103.637 127.171C104.642 126.565 105.76 126.261 106.991 126.261C108.065 126.261 109.001 126.478 109.799 126.911C110.613 127.345 111.263 127.891 111.749 128.549V126.495H115.415V140.899H111.749V138.793C111.281 139.469 110.631 140.033 109.799 140.483C108.984 140.917 108.039 141.133 106.965 141.133C105.751 141.133 104.642 140.821 103.637 140.197C102.649 139.573 101.86 138.698 101.271 137.571C100.699 136.427 100.413 135.119 100.413 133.645ZM111.749 133.697C111.749 132.813 111.575 132.059 111.229 131.435C110.882 130.794 110.414 130.309 109.825 129.979C109.235 129.633 108.603 129.459 107.927 129.459C107.251 129.459 106.627 129.624 106.055 129.953C105.483 130.283 105.015 130.768 104.651 131.409C104.304 132.033 104.131 132.779 104.131 133.645C104.131 134.512 104.304 135.275 104.651 135.933C105.015 136.575 105.483 137.069 106.055 137.415C106.644 137.762 107.268 137.935 107.927 137.935C108.603 137.935 109.235 137.771 109.825 137.441C110.414 137.095 110.882 136.609 111.229 135.985C111.575 135.344 111.749 134.581 111.749 133.697ZM126.952 126.287C128.668 126.287 130.054 126.833 131.112 127.925C132.169 129 132.698 130.508 132.698 132.449V140.899H129.058V132.943C129.058 131.799 128.772 130.924 128.2 130.317C127.628 129.693 126.848 129.381 125.86 129.381C124.854 129.381 124.057 129.693 123.468 130.317C122.896 130.924 122.61 131.799 122.61 132.943V140.899H118.97V126.495H122.61V128.289C123.095 127.665 123.71 127.18 124.456 126.833C125.218 126.469 126.05 126.287 126.952 126.287ZM142.555 141.133C141.169 141.133 139.921 140.83 138.811 140.223C137.702 139.599 136.827 138.724 136.185 137.597C135.561 136.471 135.249 135.171 135.249 133.697C135.249 132.224 135.57 130.924 136.211 129.797C136.87 128.671 137.763 127.804 138.889 127.197C140.016 126.573 141.273 126.261 142.659 126.261C144.046 126.261 145.303 126.573 146.429 127.197C147.556 127.804 148.44 128.671 149.081 129.797C149.74 130.924 150.069 132.224 150.069 133.697C150.069 135.171 149.731 136.471 149.055 137.597C148.397 138.724 147.495 139.599 146.351 140.223C145.225 140.83 143.959 141.133 142.555 141.133ZM142.555 137.961C143.214 137.961 143.829 137.805 144.401 137.493C144.991 137.164 145.459 136.679 145.805 136.037C146.152 135.396 146.325 134.616 146.325 133.697C146.325 132.328 145.961 131.279 145.233 130.551C144.523 129.806 143.647 129.433 142.607 129.433C141.567 129.433 140.692 129.806 139.981 130.551C139.288 131.279 138.941 132.328 138.941 133.697C138.941 135.067 139.279 136.124 139.955 136.869C140.649 137.597 141.515 137.961 142.555 137.961ZM158.251 141.133C157.073 141.133 156.015 140.925 155.079 140.509C154.143 140.076 153.398 139.495 152.843 138.767C152.306 138.039 152.011 137.233 151.959 136.349H155.625C155.695 136.904 155.963 137.363 156.431 137.727C156.917 138.091 157.515 138.273 158.225 138.273C158.919 138.273 159.456 138.135 159.837 137.857C160.236 137.58 160.435 137.225 160.435 136.791C160.435 136.323 160.193 135.977 159.707 135.751C159.239 135.509 158.485 135.249 157.445 134.971C156.371 134.711 155.487 134.443 154.793 134.165C154.117 133.888 153.528 133.463 153.025 132.891C152.54 132.319 152.297 131.548 152.297 130.577C152.297 129.78 152.523 129.052 152.973 128.393C153.441 127.735 154.1 127.215 154.949 126.833C155.816 126.452 156.83 126.261 157.991 126.261C159.707 126.261 161.077 126.695 162.099 127.561C163.122 128.411 163.685 129.563 163.789 131.019H160.305C160.253 130.447 160.011 129.997 159.577 129.667C159.161 129.321 158.598 129.147 157.887 129.147C157.229 129.147 156.717 129.269 156.353 129.511C156.007 129.754 155.833 130.092 155.833 130.525C155.833 131.011 156.076 131.383 156.561 131.643C157.047 131.886 157.801 132.137 158.823 132.397C159.863 132.657 160.721 132.926 161.397 133.203C162.073 133.481 162.654 133.914 163.139 134.503C163.642 135.075 163.902 135.838 163.919 136.791C163.919 137.623 163.685 138.369 163.217 139.027C162.767 139.686 162.108 140.206 161.241 140.587C160.392 140.951 159.395 141.133 158.251 141.133ZM172.167 133.645C172.167 132.189 172.453 130.898 173.025 129.771C173.614 128.645 174.411 127.778 175.417 127.171C176.422 126.565 177.54 126.261 178.771 126.261C179.707 126.261 180.599 126.469 181.449 126.885C182.298 127.284 182.974 127.821 183.477 128.497V121.659H187.169V140.899H183.477V138.767C183.026 139.478 182.393 140.05 181.579 140.483C180.764 140.917 179.819 141.133 178.745 141.133C177.531 141.133 176.422 140.821 175.417 140.197C174.411 139.573 173.614 138.698 173.025 137.571C172.453 136.427 172.167 135.119 172.167 133.645ZM183.503 133.697C183.503 132.813 183.329 132.059 182.983 131.435C182.636 130.794 182.168 130.309 181.579 129.979C180.989 129.633 180.357 129.459 179.681 129.459C179.005 129.459 178.381 129.624 177.809 129.953C177.237 130.283 176.769 130.768 176.405 131.409C176.058 132.033 175.885 132.779 175.885 133.645C175.885 134.512 176.058 135.275 176.405 135.933C176.769 136.575 177.237 137.069 177.809 137.415C178.398 137.762 179.022 137.935 179.681 137.935C180.357 137.935 180.989 137.771 181.579 137.441C182.168 137.095 182.636 136.609 182.983 135.985C183.329 135.344 183.503 134.581 183.503 133.697ZM204.114 133.385C204.114 133.905 204.079 134.373 204.01 134.789H193.48C193.566 135.829 193.93 136.644 194.572 137.233C195.213 137.823 196.002 138.117 196.938 138.117C198.29 138.117 199.252 137.537 199.824 136.375H203.75C203.334 137.762 202.536 138.906 201.358 139.807C200.179 140.691 198.732 141.133 197.016 141.133C195.629 141.133 194.381 140.83 193.272 140.223C192.18 139.599 191.322 138.724 190.698 137.597C190.091 136.471 189.788 135.171 189.788 133.697C189.788 132.207 190.091 130.898 190.698 129.771C191.304 128.645 192.154 127.778 193.246 127.171C194.338 126.565 195.594 126.261 197.016 126.261C198.385 126.261 199.607 126.556 200.682 127.145C201.774 127.735 202.614 128.575 203.204 129.667C203.81 130.742 204.114 131.981 204.114 133.385ZM200.344 132.345C200.326 131.409 199.988 130.664 199.33 130.109C198.671 129.537 197.865 129.251 196.912 129.251C196.01 129.251 195.248 129.529 194.624 130.083C194.017 130.621 193.644 131.375 193.506 132.345H200.344ZM212.03 133.645C212.03 132.189 212.316 130.898 212.888 129.771C213.477 128.645 214.275 127.778 215.28 127.171C216.285 126.565 217.403 126.261 218.634 126.261C219.57 126.261 220.463 126.469 221.312 126.885C222.161 127.284 222.837 127.821 223.34 128.497V121.659H227.032V140.899H223.34V138.767C222.889 139.478 222.257 140.05 221.442 140.483C220.627 140.917 219.683 141.133 218.608 141.133C217.395 141.133 216.285 140.821 215.28 140.197C214.275 139.573 213.477 138.698 212.888 137.571C212.316 136.427 212.03 135.119 212.03 133.645ZM223.366 133.697C223.366 132.813 223.193 132.059 222.846 131.435C222.499 130.794 222.031 130.309 221.442 129.979C220.853 129.633 220.22 129.459 219.544 129.459C218.868 129.459 218.244 129.624 217.672 129.953C217.1 130.283 216.632 130.768 216.268 131.409C215.921 132.033 215.748 132.779 215.748 133.645C215.748 134.512 215.921 135.275 216.268 135.933C216.632 136.575 217.1 137.069 217.672 137.415C218.261 137.762 218.885 137.935 219.544 137.935C220.22 137.935 220.853 137.771 221.442 137.441C222.031 137.095 222.499 136.609 222.846 135.985C223.193 135.344 223.366 134.581 223.366 133.697ZM229.651 133.645C229.651 132.189 229.937 130.898 230.509 129.771C231.098 128.645 231.887 127.778 232.875 127.171C233.88 126.565 234.998 126.261 236.229 126.261C237.304 126.261 238.24 126.478 239.037 126.911C239.852 127.345 240.502 127.891 240.987 128.549V126.495H244.653V140.899H240.987V138.793C240.519 139.469 239.869 140.033 239.037 140.483C238.222 140.917 237.278 141.133 236.203 141.133C234.99 141.133 233.88 140.821 232.875 140.197C231.887 139.573 231.098 138.698 230.509 137.571C229.937 136.427 229.651 135.119 229.651 133.645ZM240.987 133.697C240.987 132.813 240.814 132.059 240.467 131.435C240.12 130.794 239.652 130.309 239.063 129.979C238.474 129.633 237.841 129.459 237.165 129.459C236.489 129.459 235.865 129.624 235.293 129.953C234.721 130.283 234.253 130.768 233.889 131.409C233.542 132.033 233.369 132.779 233.369 133.645C233.369 134.512 233.542 135.275 233.889 135.933C234.253 136.575 234.721 137.069 235.293 137.415C235.882 137.762 236.506 137.935 237.165 137.935C237.841 137.935 238.474 137.771 239.063 137.441C239.652 137.095 240.12 136.609 240.467 135.985C240.814 135.344 240.987 134.581 240.987 133.697ZM247.272 133.645C247.272 132.189 247.558 130.898 248.13 129.771C248.719 128.645 249.517 127.778 250.522 127.171C251.527 126.565 252.645 126.261 253.876 126.261C254.812 126.261 255.705 126.469 256.554 126.885C257.403 127.284 258.079 127.821 258.582 128.497V121.659H262.274V140.899H258.582V138.767C258.131 139.478 257.499 140.05 256.684 140.483C255.869 140.917 254.925 141.133 253.85 141.133C252.637 141.133 251.527 140.821 250.522 140.197C249.517 139.573 248.719 138.698 248.13 137.571C247.558 136.427 247.272 135.119 247.272 133.645ZM258.608 133.697C258.608 132.813 258.435 132.059 258.088 131.435C257.741 130.794 257.273 130.309 256.684 129.979C256.095 129.633 255.462 129.459 254.786 129.459C254.11 129.459 253.486 129.624 252.914 129.953C252.342 130.283 251.874 130.768 251.51 131.409C251.163 132.033 250.99 132.779 250.99 133.645C250.99 134.512 251.163 135.275 251.51 135.933C251.874 136.575 252.342 137.069 252.914 137.415C253.503 137.762 254.127 137.935 254.786 137.935C255.462 137.935 256.095 137.771 256.684 137.441C257.273 137.095 257.741 136.609 258.088 135.985C258.435 135.344 258.608 134.581 258.608 133.697ZM272.225 141.133C270.838 141.133 269.59 140.83 268.481 140.223C267.372 139.599 266.496 138.724 265.855 137.597C265.231 136.471 264.919 135.171 264.919 133.697C264.919 132.224 265.24 130.924 265.881 129.797C266.54 128.671 267.432 127.804 268.559 127.197C269.686 126.573 270.942 126.261 272.329 126.261C273.716 126.261 274.972 126.573 276.099 127.197C277.226 127.804 278.11 128.671 278.751 129.797C279.41 130.924 279.739 132.224 279.739 133.697C279.739 135.171 279.401 136.471 278.725 137.597C278.066 138.724 277.165 139.599 276.021 140.223C274.894 140.83 273.629 141.133 272.225 141.133ZM272.225 137.961C272.884 137.961 273.499 137.805 274.071 137.493C274.66 137.164 275.128 136.679 275.475 136.037C275.822 135.396 275.995 134.616 275.995 133.697C275.995 132.328 275.631 131.279 274.903 130.551C274.192 129.806 273.317 129.433 272.277 129.433C271.237 129.433 270.362 129.806 269.651 130.551C268.958 131.279 268.611 132.328 268.611 133.697C268.611 135.067 268.949 136.124 269.625 136.869C270.318 137.597 271.185 137.961 272.225 137.961ZM287.921 141.133C286.743 141.133 285.685 140.925 284.749 140.509C283.813 140.076 283.068 139.495 282.513 138.767C281.976 138.039 281.681 137.233 281.629 136.349H285.295C285.365 136.904 285.633 137.363 286.101 137.727C286.587 138.091 287.185 138.273 287.895 138.273C288.589 138.273 289.126 138.135 289.507 137.857C289.906 137.58 290.105 137.225 290.105 136.791C290.105 136.323 289.863 135.977 289.377 135.751C288.909 135.509 288.155 135.249 287.115 134.971C286.041 134.711 285.157 134.443 284.463 134.165C283.787 133.888 283.198 133.463 282.695 132.891C282.21 132.319 281.967 131.548 281.967 130.577C281.967 129.78 282.193 129.052 282.643 128.393C283.111 127.735 283.77 127.215 284.619 126.833C285.486 126.452 286.5 126.261 287.661 126.261C289.377 126.261 290.747 126.695 291.769 127.561C292.792 128.411 293.355 129.563 293.459 131.019H289.975C289.923 130.447 289.681 129.997 289.247 129.667C288.831 129.321 288.268 129.147 287.557 129.147C286.899 129.147 286.387 129.269 286.023 129.511C285.677 129.754 285.503 130.092 285.503 130.525C285.503 131.011 285.746 131.383 286.231 131.643C286.717 131.886 287.471 132.137 288.493 132.397C289.533 132.657 290.391 132.926 291.067 133.203C291.743 133.481 292.324 133.914 292.809 134.503C293.312 135.075 293.572 135.838 293.589 136.791C293.589 137.623 293.355 138.369 292.887 139.027C292.437 139.686 291.778 140.206 290.911 140.587C290.062 140.951 289.065 141.133 287.921 141.133Z" fill="white"/>
<path d="M65.7252 186.359H61.4652V190.679H59.7652V186.359H55.5252V184.819H59.7652V180.479H61.4652V184.819H65.7252V186.359ZM68.1975 180.099V178.439H71.9575V192.899H70.1175V180.099H68.1975ZM75.0438 182.079C75.1371 180.853 75.6104 179.893 76.4638 179.199C77.3171 178.506 78.4238 178.159 79.7838 178.159C80.6904 178.159 81.4704 178.326 82.1238 178.659C82.7904 178.979 83.2904 179.419 83.6238 179.979C83.9704 180.539 84.1438 181.173 84.1438 181.879C84.1438 182.706 83.9038 183.419 83.4238 184.019C82.9571 184.619 82.3438 185.006 81.5838 185.179V185.279C82.4504 185.493 83.1371 185.913 83.6438 186.539C84.1504 187.166 84.4037 187.986 84.4037 188.999C84.4037 189.759 84.2304 190.446 83.8838 191.059C83.5371 191.659 83.0171 192.133 82.3238 192.479C81.6304 192.826 80.7971 192.999 79.8238 192.999C78.4104 192.999 77.2504 192.633 76.3438 191.899C75.4371 191.153 74.9304 190.099 74.8238 188.739H76.5838C76.6771 189.539 77.0038 190.193 77.5638 190.699C78.1238 191.206 78.8704 191.459 79.8038 191.459C80.7371 191.459 81.4438 191.219 81.9238 190.739C82.4171 190.246 82.6638 189.613 82.6638 188.839C82.6638 187.839 82.3304 187.119 81.6638 186.679C80.9971 186.239 79.9904 186.019 78.6438 186.019H78.1838V184.499H78.6638C79.8904 184.486 80.8171 184.286 81.4438 183.899C82.0704 183.499 82.3838 182.886 82.3838 182.059C82.3838 181.353 82.1504 180.786 81.6838 180.359C81.2304 179.933 80.5771 179.719 79.7237 179.719C78.8971 179.719 78.2304 179.933 77.7238 180.359C77.2171 180.786 76.9171 181.359 76.8238 182.079H75.0438ZM96.0811 180.019H89.0611V184.579C89.3678 184.153 89.8211 183.806 90.4211 183.539C91.0211 183.259 91.6678 183.119 92.3611 183.119C93.4678 183.119 94.3678 183.353 95.0611 183.819C95.7544 184.273 96.2478 184.866 96.5411 185.599C96.8478 186.319 97.0011 187.086 97.0011 187.899C97.0011 188.859 96.8211 189.719 96.4611 190.479C96.1011 191.239 95.5478 191.839 94.8011 192.279C94.0678 192.719 93.1544 192.939 92.0611 192.939C90.6611 192.939 89.5278 192.579 88.6611 191.859C87.7944 191.139 87.2678 190.179 87.0811 188.979H88.8611C89.0344 189.739 89.4011 190.333 89.9611 190.759C90.5211 191.186 91.2278 191.399 92.0811 191.399C93.1344 191.399 93.9278 191.086 94.4611 190.459C94.9944 189.819 95.2611 188.979 95.2611 187.939C95.2611 186.899 94.9944 186.099 94.4611 185.539C93.9278 184.966 93.1411 184.679 92.1011 184.679C91.3944 184.679 90.7744 184.853 90.2411 185.199C89.7211 185.533 89.3411 185.993 89.1011 186.579H87.3811V178.419H96.0811V180.019ZM106.872 183.959C107.232 183.333 107.765 182.813 108.472 182.399C109.192 181.973 110.025 181.759 110.972 181.759C111.945 181.759 112.825 181.993 113.612 182.459C114.412 182.926 115.038 183.586 115.492 184.439C115.945 185.279 116.172 186.259 116.172 187.379C116.172 188.486 115.945 189.473 115.492 190.339C115.038 191.206 114.412 191.879 113.612 192.359C112.825 192.839 111.945 193.079 110.972 193.079C110.038 193.079 109.212 192.873 108.492 192.459C107.785 192.033 107.245 191.506 106.872 190.879V198.099H105.052V181.939H106.872V183.959ZM114.312 187.379C114.312 186.553 114.145 185.833 113.812 185.219C113.478 184.606 113.025 184.139 112.452 183.819C111.892 183.499 111.272 183.339 110.592 183.339C109.925 183.339 109.305 183.506 108.732 183.839C108.172 184.159 107.718 184.633 107.372 185.259C107.038 185.873 106.872 186.586 106.872 187.399C106.872 188.226 107.038 188.953 107.372 189.579C107.718 190.193 108.172 190.666 108.732 190.999C109.305 191.319 109.925 191.479 110.592 191.479C111.272 191.479 111.892 191.319 112.452 190.999C113.025 190.666 113.478 190.193 113.812 189.579C114.145 188.953 114.312 188.219 114.312 187.379ZM117.887 187.379C117.887 186.259 118.114 185.279 118.567 184.439C119.021 183.586 119.641 182.926 120.427 182.459C121.227 181.993 122.114 181.759 123.087 181.759C124.047 181.759 124.881 181.966 125.587 182.379C126.294 182.793 126.821 183.313 127.167 183.939V181.939H129.007V192.899H127.167V190.859C126.807 191.499 126.267 192.033 125.547 192.459C124.841 192.873 124.014 193.079 123.067 193.079C122.094 193.079 121.214 192.839 120.427 192.359C119.641 191.879 119.021 191.206 118.567 190.339C118.114 189.473 117.887 188.486 117.887 187.379ZM127.167 187.399C127.167 186.573 127.001 185.853 126.667 185.239C126.334 184.626 125.881 184.159 125.307 183.839C124.747 183.506 124.127 183.339 123.447 183.339C122.767 183.339 122.147 183.499 121.587 183.819C121.027 184.139 120.581 184.606 120.247 185.219C119.914 185.833 119.747 186.553 119.747 187.379C119.747 188.219 119.914 188.953 120.247 189.579C120.581 190.193 121.027 190.666 121.587 190.999C122.147 191.319 122.767 191.479 123.447 191.479C124.127 191.479 124.747 191.319 125.307 190.999C125.881 190.666 126.334 190.193 126.667 189.579C127.001 188.953 127.167 188.226 127.167 187.399ZM133.903 181.939V192.899H132.083V181.939H133.903ZM134.943 178.839L130.683 181.119V179.759L134.943 177.259V178.839ZM140.885 193.079C140.045 193.079 139.292 192.939 138.625 192.659C137.958 192.366 137.432 191.966 137.045 191.459C136.658 190.939 136.445 190.346 136.405 189.679H138.285C138.338 190.226 138.592 190.673 139.045 191.019C139.512 191.366 140.118 191.539 140.865 191.539C141.558 191.539 142.105 191.386 142.505 191.079C142.905 190.773 143.105 190.386 143.105 189.919C143.105 189.439 142.892 189.086 142.465 188.859C142.038 188.619 141.378 188.386 140.485 188.159C139.672 187.946 139.005 187.733 138.485 187.519C137.978 187.293 137.538 186.966 137.165 186.539C136.805 186.099 136.625 185.526 136.625 184.819C136.625 184.259 136.792 183.746 137.125 183.279C137.458 182.813 137.932 182.446 138.545 182.179C139.158 181.899 139.858 181.759 140.645 181.759C141.858 181.759 142.838 182.066 143.585 182.679C144.332 183.293 144.732 184.133 144.785 185.199H142.965C142.925 184.626 142.692 184.166 142.265 183.819C141.852 183.473 141.292 183.299 140.585 183.299C139.932 183.299 139.412 183.439 139.025 183.719C138.638 183.999 138.445 184.366 138.445 184.819C138.445 185.179 138.558 185.479 138.785 185.719C139.025 185.946 139.318 186.133 139.665 186.279C140.025 186.413 140.518 186.566 141.145 186.739C141.932 186.953 142.572 187.166 143.065 187.379C143.558 187.579 143.978 187.886 144.325 188.299C144.685 188.713 144.872 189.253 144.885 189.919C144.885 190.519 144.718 191.059 144.385 191.539C144.052 192.019 143.578 192.399 142.965 192.679C142.365 192.946 141.672 193.079 140.885 193.079ZM157.454 186.999C157.454 187.346 157.434 187.713 157.394 188.099H148.634C148.701 189.179 149.067 190.026 149.734 190.639C150.414 191.239 151.234 191.539 152.194 191.539C152.981 191.539 153.634 191.359 154.154 190.999C154.687 190.626 155.061 190.133 155.274 189.519H157.234C156.941 190.573 156.354 191.433 155.474 192.099C154.594 192.753 153.501 193.079 152.194 193.079C151.154 193.079 150.221 192.846 149.394 192.379C148.581 191.913 147.941 191.253 147.474 190.399C147.007 189.533 146.774 188.533 146.774 187.399C146.774 186.266 147.001 185.273 147.454 184.419C147.907 183.566 148.541 182.913 149.354 182.459C150.181 181.993 151.127 181.759 152.194 181.759C153.234 181.759 154.154 181.986 154.954 182.439C155.754 182.893 156.367 183.519 156.794 184.319C157.234 185.106 157.454 185.999 157.454 186.999ZM155.574 186.619C155.574 185.926 155.421 185.333 155.114 184.839C154.807 184.333 154.387 183.953 153.854 183.699C153.334 183.433 152.754 183.299 152.114 183.299C151.194 183.299 150.407 183.593 149.754 184.179C149.114 184.766 148.747 185.579 148.654 186.619H155.574ZM163.736 193.079C162.896 193.079 162.143 192.939 161.476 192.659C160.81 192.366 160.283 191.966 159.896 191.459C159.51 190.939 159.296 190.346 159.256 189.679H161.136C161.19 190.226 161.443 190.673 161.896 191.019C162.363 191.366 162.97 191.539 163.716 191.539C164.41 191.539 164.956 191.386 165.356 191.079C165.756 190.773 165.956 190.386 165.956 189.919C165.956 189.439 165.743 189.086 165.316 188.859C164.89 188.619 164.23 188.386 163.336 188.159C162.523 187.946 161.856 187.733 161.336 187.519C160.83 187.293 160.39 186.966 160.016 186.539C159.656 186.099 159.476 185.526 159.476 184.819C159.476 184.259 159.643 183.746 159.976 183.279C160.31 182.813 160.783 182.446 161.396 182.179C162.01 181.899 162.71 181.759 163.496 181.759C164.71 181.759 165.69 182.066 166.436 182.679C167.183 183.293 167.583 184.133 167.636 185.199H165.816C165.776 184.626 165.543 184.166 165.116 183.819C164.703 183.473 164.143 183.299 163.436 183.299C162.783 183.299 162.263 183.439 161.876 183.719C161.49 183.999 161.296 184.366 161.296 184.819C161.296 185.179 161.41 185.479 161.636 185.719C161.876 185.946 162.17 186.133 162.516 186.279C162.876 186.413 163.37 186.566 163.996 186.739C164.783 186.953 165.423 187.166 165.916 187.379C166.41 187.579 166.83 187.886 167.176 188.299C167.536 188.713 167.723 189.253 167.736 189.919C167.736 190.519 167.57 191.059 167.236 191.539C166.903 192.019 166.43 192.399 165.816 192.679C165.216 192.946 164.523 193.079 163.736 193.079ZM174.958 187.399C174.958 186.266 175.184 185.279 175.638 184.439C176.091 183.586 176.718 182.926 177.518 182.459C178.331 181.993 179.258 181.759 180.298 181.759C181.644 181.759 182.751 182.086 183.618 182.739C184.498 183.393 185.078 184.299 185.358 185.459H183.398C183.211 184.793 182.844 184.266 182.298 183.879C181.764 183.493 181.098 183.299 180.298 183.299C179.258 183.299 178.418 183.659 177.778 184.379C177.138 185.086 176.818 186.093 176.818 187.399C176.818 188.719 177.138 189.739 177.778 190.459C178.418 191.179 179.258 191.539 180.298 191.539C181.098 191.539 181.764 191.353 182.298 190.979C182.831 190.606 183.198 190.073 183.398 189.379H185.358C185.064 190.499 184.478 191.399 183.598 192.079C182.718 192.746 181.618 193.079 180.298 193.079C179.258 193.079 178.331 192.846 177.518 192.379C176.718 191.913 176.091 191.253 175.638 190.399C175.184 189.546 174.958 188.546 174.958 187.399ZM192.566 193.079C191.539 193.079 190.606 192.846 189.766 192.379C188.939 191.913 188.286 191.253 187.806 190.399C187.339 189.533 187.106 188.533 187.106 187.399C187.106 186.279 187.346 185.293 187.826 184.439C188.319 183.573 188.986 182.913 189.826 182.459C190.666 181.993 191.606 181.759 192.646 181.759C193.686 181.759 194.626 181.993 195.466 182.459C196.306 182.913 196.966 183.566 197.446 184.419C197.939 185.273 198.186 186.266 198.186 187.399C198.186 188.533 197.933 189.533 197.426 190.399C196.933 191.253 196.259 191.913 195.406 192.379C194.553 192.846 193.606 193.079 192.566 193.079ZM192.566 191.479C193.219 191.479 193.833 191.326 194.406 191.019C194.979 190.713 195.439 190.253 195.786 189.639C196.146 189.026 196.326 188.279 196.326 187.399C196.326 186.519 196.153 185.773 195.806 185.159C195.459 184.546 195.006 184.093 194.446 183.799C193.886 183.493 193.279 183.339 192.626 183.339C191.959 183.339 191.346 183.493 190.786 183.799C190.239 184.093 189.799 184.546 189.466 185.159C189.133 185.773 188.966 186.519 188.966 187.399C188.966 188.293 189.126 189.046 189.446 189.659C189.779 190.273 190.219 190.733 190.766 191.039C191.313 191.333 191.913 191.479 192.566 191.479ZM213.759 181.739C214.612 181.739 215.372 181.919 216.039 182.279C216.706 182.626 217.232 183.153 217.619 183.859C218.006 184.566 218.199 185.426 218.199 186.439V192.899H216.399V186.699C216.399 185.606 216.126 184.773 215.579 184.199C215.046 183.613 214.319 183.319 213.399 183.319C212.452 183.319 211.699 183.626 211.139 184.239C210.579 184.839 210.299 185.713 210.299 186.859V192.899H208.499V186.699C208.499 185.606 208.226 184.773 207.679 184.199C207.146 183.613 206.419 183.319 205.499 183.319C204.552 183.319 203.799 183.626 203.239 184.239C202.679 184.839 202.399 185.713 202.399 186.859V192.899H200.579V181.939H202.399V183.519C202.759 182.946 203.239 182.506 203.839 182.199C204.452 181.893 205.126 181.739 205.859 181.739C206.779 181.739 207.592 181.946 208.299 182.359C209.006 182.773 209.532 183.379 209.879 184.179C210.186 183.406 210.692 182.806 211.399 182.379C212.106 181.953 212.892 181.739 213.759 181.739ZM228.337 183.959C228.697 183.333 229.23 182.813 229.937 182.399C230.657 181.973 231.49 181.759 232.437 181.759C233.41 181.759 234.29 181.993 235.077 182.459C235.877 182.926 236.503 183.586 236.957 184.439C237.41 185.279 237.637 186.259 237.637 187.379C237.637 188.486 237.41 189.473 236.957 190.339C236.503 191.206 235.877 191.879 235.077 192.359C234.29 192.839 233.41 193.079 232.437 193.079C231.503 193.079 230.677 192.873 229.957 192.459C229.25 192.033 228.71 191.506 228.337 190.879V198.099H226.517V181.939H228.337V183.959ZM235.777 187.379C235.777 186.553 235.61 185.833 235.277 185.219C234.943 184.606 234.49 184.139 233.917 183.819C233.357 183.499 232.737 183.339 232.057 183.339C231.39 183.339 230.77 183.506 230.197 183.839C229.637 184.159 229.183 184.633 228.837 185.259C228.503 185.873 228.337 186.586 228.337 187.399C228.337 188.226 228.503 188.953 228.837 189.579C229.183 190.193 229.637 190.666 230.197 190.999C230.77 191.319 231.39 191.479 232.057 191.479C232.737 191.479 233.357 191.319 233.917 190.999C234.49 190.666 234.943 190.193 235.277 189.579C235.61 188.953 235.777 188.219 235.777 187.379ZM241.852 178.099V192.899H240.032V178.099H241.852ZM244.274 187.379C244.274 186.259 244.501 185.279 244.954 184.439C245.407 183.586 246.027 182.926 246.814 182.459C247.614 181.993 248.501 181.759 249.474 181.759C250.434 181.759 251.267 181.966 251.974 182.379C252.681 182.793 253.207 183.313 253.554 183.939V181.939H255.394V192.899H253.554V190.859C253.194 191.499 252.654 192.033 251.934 192.459C251.227 192.873 250.401 193.079 249.454 193.079C248.481 193.079 247.601 192.839 246.814 192.359C246.027 191.879 245.407 191.206 244.954 190.339C244.501 189.473 244.274 188.486 244.274 187.379ZM253.554 187.399C253.554 186.573 253.387 185.853 253.054 185.239C252.721 184.626 252.267 184.159 251.694 183.839C251.134 183.506 250.514 183.339 249.834 183.339C249.154 183.339 248.534 183.499 247.974 183.819C247.414 184.139 246.967 184.606 246.634 185.219C246.301 185.833 246.134 186.553 246.134 187.379C246.134 188.219 246.301 188.953 246.634 189.579C246.967 190.193 247.414 190.666 247.974 190.999C248.534 191.319 249.154 191.479 249.834 191.479C250.514 191.479 251.134 191.319 251.694 190.999C252.267 190.666 252.721 190.193 253.054 189.579C253.387 188.953 253.554 188.226 253.554 187.399ZM263.81 181.739C265.143 181.739 266.223 182.146 267.05 182.959C267.876 183.759 268.29 184.919 268.29 186.439V192.899H266.49V186.699C266.49 185.606 266.216 184.773 265.67 184.199C265.123 183.613 264.376 183.319 263.43 183.319C262.47 183.319 261.703 183.619 261.13 184.219C260.57 184.819 260.29 185.693 260.29 186.839V192.899H258.47V181.939H260.29V183.499C260.65 182.939 261.136 182.506 261.75 182.199C262.376 181.893 263.063 181.739 263.81 181.739ZM276.043 193.079C275.016 193.079 274.083 192.846 273.243 192.379C272.416 191.913 271.763 191.253 271.283 190.399C270.816 189.533 270.583 188.533 270.583 187.399C270.583 186.279 270.823 185.293 271.303 184.439C271.796 183.573 272.463 182.913 273.303 182.459C274.143 181.993 275.083 181.759 276.123 181.759C277.163 181.759 278.103 181.993 278.943 182.459C279.783 182.913 280.443 183.566 280.923 184.419C281.416 185.273 281.663 186.266 281.663 187.399C281.663 188.533 281.409 189.533 280.903 190.399C280.409 191.253 279.736 191.913 278.883 192.379C278.029 192.846 277.083 193.079 276.043 193.079ZM276.043 191.479C276.696 191.479 277.309 191.326 277.883 191.019C278.456 190.713 278.916 190.253 279.263 189.639C279.623 189.026 279.803 188.279 279.803 187.399C279.803 186.519 279.629 185.773 279.283 185.159C278.936 184.546 278.483 184.093 277.923 183.799C277.363 183.493 276.756 183.339 276.103 183.339C275.436 183.339 274.823 183.493 274.263 183.799C273.716 184.093 273.276 184.546 272.943 185.159C272.609 185.773 272.443 186.519 272.443 187.399C272.443 188.293 272.603 189.046 272.923 189.659C273.256 190.273 273.696 190.733 274.243 191.039C274.789 191.333 275.389 191.479 276.043 191.479ZM287.936 193.079C287.096 193.079 286.342 192.939 285.676 192.659C285.009 192.366 284.482 191.966 284.096 191.459C283.709 190.939 283.496 190.346 283.456 189.679H285.336C285.389 190.226 285.642 190.673 286.096 191.019C286.562 191.366 287.169 191.539 287.916 191.539C288.609 191.539 289.156 191.386 289.556 191.079C289.956 190.773 290.156 190.386 290.156 189.919C290.156 189.439 289.942 189.086 289.516 188.859C289.089 188.619 288.429 188.386 287.536 188.159C286.722 187.946 286.056 187.733 285.536 187.519C285.029 187.293 284.589 186.966 284.216 186.539C283.856 186.099 283.676 185.526 283.676 184.819C283.676 184.259 283.842 183.746 284.176 183.279C284.509 182.813 284.982 182.446 285.596 182.179C286.209 181.899 286.909 181.759 287.696 181.759C288.909 181.759 289.889 182.066 290.636 182.679C291.382 183.293 291.782 184.133 291.836 185.199H290.016C289.976 184.626 289.742 184.166 289.316 183.819C288.902 183.473 288.342 183.299 287.636 183.299C286.982 183.299 286.462 183.439 286.076 183.719C285.689 183.999 285.496 184.366 285.496 184.819C285.496 185.179 285.609 185.479 285.836 185.719C286.076 185.946 286.369 186.133 286.716 186.279C287.076 186.413 287.569 186.566 288.196 186.739C288.982 186.953 289.622 187.166 290.116 187.379C290.609 187.579 291.029 187.886 291.376 188.299C291.736 188.713 291.922 189.253 291.936 189.919C291.936 190.519 291.769 191.059 291.436 191.539C291.102 192.019 290.629 192.399 290.016 192.679C289.416 192.946 288.722 193.079 287.936 193.079ZM299.157 187.379C299.157 186.259 299.384 185.279 299.837 184.439C300.29 183.586 300.91 182.926 301.697 182.459C302.497 181.993 303.39 181.759 304.377 181.759C305.23 181.759 306.024 181.959 306.757 182.359C307.49 182.746 308.05 183.259 308.437 183.899V178.099H310.277V192.899H308.437V190.839C308.077 191.493 307.544 192.033 306.837 192.459C306.13 192.873 305.304 193.079 304.357 193.079C303.384 193.079 302.497 192.839 301.697 192.359C300.91 191.879 300.29 191.206 299.837 190.339C299.384 189.473 299.157 188.486 299.157 187.379ZM308.437 187.399C308.437 186.573 308.27 185.853 307.937 185.239C307.604 184.626 307.15 184.159 306.577 183.839C306.017 183.506 305.397 183.339 304.717 183.339C304.037 183.339 303.417 183.499 302.857 183.819C302.297 184.139 301.85 184.606 301.517 185.219C301.184 185.833 301.017 186.553 301.017 187.379C301.017 188.219 301.184 188.953 301.517 189.579C301.85 190.193 302.297 190.666 302.857 190.999C303.417 191.319 304.037 191.479 304.717 191.479C305.397 191.479 306.017 191.319 306.577 190.999C307.15 190.666 307.604 190.193 307.937 189.579C308.27 188.953 308.437 188.226 308.437 187.399ZM323.353 186.999C323.353 187.346 323.333 187.713 323.293 188.099H314.533C314.599 189.179 314.966 190.026 315.633 190.639C316.313 191.239 317.133 191.539 318.093 191.539C318.879 191.539 319.533 191.359 320.053 190.999C320.586 190.626 320.959 190.133 321.173 189.519H323.133C322.839 190.573 322.253 191.433 321.373 192.099C320.493 192.753 319.399 193.079 318.093 193.079C317.053 193.079 316.119 192.846 315.293 192.379C314.479 191.913 313.839 191.253 313.373 190.399C312.906 189.533 312.673 188.533 312.673 187.399C312.673 186.266 312.899 185.273 313.353 184.419C313.806 183.566 314.439 182.913 315.253 182.459C316.079 181.993 317.026 181.759 318.093 181.759C319.133 181.759 320.053 181.986 320.853 182.439C321.653 182.893 322.266 183.519 322.693 184.319C323.133 185.106 323.353 185.999 323.353 186.999ZM321.473 186.619C321.473 185.926 321.319 185.333 321.013 184.839C320.706 184.333 320.286 183.953 319.753 183.699C319.233 183.433 318.653 183.299 318.013 183.299C317.093 183.299 316.306 183.593 315.653 184.179C315.013 184.766 314.646 185.579 314.553 186.619H321.473ZM40.0455 217.379C40.0455 216.259 40.2722 215.279 40.7255 214.439C41.1789 213.586 41.7989 212.926 42.5855 212.459C43.3855 211.993 44.2789 211.759 45.2655 211.759C46.1189 211.759 46.9122 211.959 47.6455 212.359C48.3789 212.746 48.9389 213.259 49.3255 213.899V208.099H51.1655V222.899H49.3255V220.839C48.9655 221.493 48.4322 222.033 47.7255 222.459C47.0189 222.873 46.1922 223.079 45.2455 223.079C44.2722 223.079 43.3855 222.839 42.5855 222.359C41.7989 221.879 41.1789 221.206 40.7255 220.339C40.2722 219.473 40.0455 218.486 40.0455 217.379ZM49.3255 217.399C49.3255 216.573 49.1589 215.853 48.8255 215.239C48.4922 214.626 48.0389 214.159 47.4655 213.839C46.9055 213.506 46.2855 213.339 45.6055 213.339C44.9255 213.339 44.3055 213.499 43.7455 213.819C43.1855 214.139 42.7389 214.606 42.4055 215.219C42.0722 215.833 41.9055 216.553 41.9055 217.379C41.9055 218.219 42.0722 218.953 42.4055 219.579C42.7389 220.193 43.1855 220.666 43.7455 220.999C44.3055 221.319 44.9255 221.479 45.6055 221.479C46.2855 221.479 46.9055 221.319 47.4655 220.999C48.0389 220.666 48.4922 220.193 48.8255 219.579C49.1589 218.953 49.3255 218.226 49.3255 217.399ZM53.5612 217.379C53.5612 216.259 53.7878 215.279 54.2412 214.439C54.6945 213.586 55.3145 212.926 56.1012 212.459C56.9012 211.993 57.7878 211.759 58.7612 211.759C59.7212 211.759 60.5545 211.966 61.2612 212.379C61.9678 212.793 62.4945 213.313 62.8412 213.939V211.939H64.6812V222.899H62.8412V220.859C62.4812 221.499 61.9412 222.033 61.2212 222.459C60.5145 222.873 59.6878 223.079 58.7412 223.079C57.7678 223.079 56.8878 222.839 56.1012 222.359C55.3145 221.879 54.6945 221.206 54.2412 220.339C53.7878 219.473 53.5612 218.486 53.5612 217.379ZM62.8412 217.399C62.8412 216.573 62.6745 215.853 62.3412 215.239C62.0078 214.626 61.5545 214.159 60.9812 213.839C60.4212 213.506 59.8012 213.339 59.1212 213.339C58.4412 213.339 57.8212 213.499 57.2612 213.819C56.7012 214.139 56.2545 214.606 55.9212 215.219C55.5878 215.833 55.4212 216.553 55.4212 217.379C55.4212 218.219 55.5878 218.953 55.9212 219.579C56.2545 220.193 56.7012 220.666 57.2612 220.999C57.8212 221.319 58.4412 221.479 59.1212 221.479C59.8012 221.479 60.4212 221.319 60.9812 220.999C61.5545 220.666 62.0078 220.193 62.3412 219.579C62.6745 218.953 62.8412 218.226 62.8412 217.399ZM67.0768 217.379C67.0768 216.259 67.3035 215.279 67.7568 214.439C68.2101 213.586 68.8301 212.926 69.6168 212.459C70.4168 211.993 71.3101 211.759 72.2968 211.759C73.1501 211.759 73.9435 211.959 74.6768 212.359C75.4101 212.746 75.9701 213.259 76.3568 213.899V208.099H78.1968V222.899H76.3568V220.839C75.9968 221.493 75.4635 222.033 74.7568 222.459C74.0501 222.873 73.2235 223.079 72.2768 223.079C71.3035 223.079 70.4168 222.839 69.6168 222.359C68.8301 221.879 68.2101 221.206 67.7568 220.339C67.3035 219.473 67.0768 218.486 67.0768 217.379ZM76.3568 217.399C76.3568 216.573 76.1901 215.853 75.8568 215.239C75.5235 214.626 75.0701 214.159 74.4968 213.839C73.9368 213.506 73.3168 213.339 72.6368 213.339C71.9568 213.339 71.3368 213.499 70.7768 213.819C70.2168 214.139 69.7701 214.606 69.4368 215.219C69.1035 215.833 68.9368 216.553 68.9368 217.379C68.9368 218.219 69.1035 218.953 69.4368 219.579C69.7701 220.193 70.2168 220.666 70.7768 220.999C71.3368 221.319 71.9568 221.479 72.6368 221.479C73.3168 221.479 73.9368 221.319 74.4968 220.999C75.0701 220.666 75.5235 220.193 75.8568 219.579C76.1901 218.953 76.3568 218.226 76.3568 217.399ZM86.0524 223.079C85.0258 223.079 84.0924 222.846 83.2524 222.379C82.4258 221.913 81.7724 221.253 81.2924 220.399C80.8258 219.533 80.5924 218.533 80.5924 217.399C80.5924 216.279 80.8324 215.293 81.3124 214.439C81.8058 213.573 82.4724 212.913 83.3124 212.459C84.1524 211.993 85.0924 211.759 86.1324 211.759C87.1724 211.759 88.1124 211.993 88.9524 212.459C89.7924 212.913 90.4524 213.566 90.9324 214.419C91.4258 215.273 91.6724 216.266 91.6724 217.399C91.6724 218.533 91.4191 219.533 90.9124 220.399C90.4191 221.253 89.7458 221.913 88.8924 222.379C88.0391 222.846 87.0924 223.079 86.0524 223.079ZM86.0524 221.479C86.7058 221.479 87.3191 221.326 87.8924 221.019C88.4658 220.713 88.9258 220.253 89.2724 219.639C89.6324 219.026 89.8124 218.279 89.8124 217.399C89.8124 216.519 89.6391 215.773 89.2924 215.159C88.9458 214.546 88.4924 214.093 87.9324 213.799C87.3724 213.493 86.7658 213.339 86.1124 213.339C85.4458 213.339 84.8324 213.493 84.2724 213.799C83.7258 214.093 83.2858 214.546 82.9524 215.159C82.6191 215.773 82.4524 216.519 82.4524 217.399C82.4524 218.293 82.6124 219.046 82.9324 219.659C83.2658 220.273 83.7058 220.733 84.2524 221.039C84.7991 221.333 85.3991 221.479 86.0524 221.479ZM97.9454 223.079C97.1054 223.079 96.3521 222.939 95.6854 222.659C95.0187 222.366 94.4921 221.966 94.1054 221.459C93.7187 220.939 93.5054 220.346 93.4654 219.679H95.3454C95.3987 220.226 95.6521 220.673 96.1054 221.019C96.5721 221.366 97.1787 221.539 97.9254 221.539C98.6187 221.539 99.1654 221.386 99.5654 221.079C99.9654 220.773 100.165 220.386 100.165 219.919C100.165 219.439 99.9521 219.086 99.5254 218.859C99.0987 218.619 98.4387 218.386 97.5454 218.159C96.7321 217.946 96.0654 217.733 95.5454 217.519C95.0387 217.293 94.5987 216.966 94.2254 216.539C93.8654 216.099 93.6854 215.526 93.6854 214.819C93.6854 214.259 93.8521 213.746 94.1854 213.279C94.5187 212.813 94.9921 212.446 95.6054 212.179C96.2187 211.899 96.9187 211.759 97.7054 211.759C98.9187 211.759 99.8987 212.066 100.645 212.679C101.392 213.293 101.792 214.133 101.845 215.199H100.025C99.9854 214.626 99.7521 214.166 99.3254 213.819C98.9121 213.473 98.3521 213.299 97.6454 213.299C96.9921 213.299 96.4721 213.439 96.0854 213.719C95.6987 213.999 95.5054 214.366 95.5054 214.819C95.5054 215.179 95.6187 215.479 95.8454 215.719C96.0854 215.946 96.3787 216.133 96.7254 216.279C97.0854 216.413 97.5787 216.566 98.2054 216.739C98.9921 216.953 99.6321 217.166 100.125 217.379C100.619 217.579 101.039 217.886 101.385 218.299C101.745 218.713 101.932 219.253 101.945 219.919C101.945 220.519 101.779 221.059 101.445 221.539C101.112 222.019 100.639 222.399 100.025 222.679C99.4254 222.946 98.7321 223.079 97.9454 223.079ZM109.167 217.379C109.167 216.259 109.393 215.279 109.847 214.439C110.3 213.586 110.92 212.926 111.707 212.459C112.507 211.993 113.393 211.759 114.367 211.759C115.327 211.759 116.16 211.966 116.867 212.379C117.573 212.793 118.1 213.313 118.447 213.939V211.939H120.287V222.899H118.447V220.859C118.087 221.499 117.547 222.033 116.827 222.459C116.12 222.873 115.293 223.079 114.347 223.079C113.373 223.079 112.493 222.839 111.707 222.359C110.92 221.879 110.3 221.206 109.847 220.339C109.393 219.473 109.167 218.486 109.167 217.379ZM118.447 217.399C118.447 216.573 118.28 215.853 117.947 215.239C117.613 214.626 117.16 214.159 116.587 213.839C116.027 213.506 115.407 213.339 114.727 213.339C114.047 213.339 113.427 213.499 112.867 213.819C112.307 214.139 111.86 214.606 111.527 215.219C111.193 215.833 111.027 216.553 111.027 217.379C111.027 218.219 111.193 218.953 111.527 219.579C111.86 220.193 112.307 220.666 112.867 220.999C113.427 221.319 114.047 221.479 114.727 221.479C115.407 221.479 116.027 221.319 116.587 220.999C117.16 220.666 117.613 220.193 117.947 219.579C118.28 218.953 118.447 218.226 118.447 217.399ZM130.514 213.959C130.874 213.333 131.408 212.813 132.114 212.399C132.834 211.973 133.668 211.759 134.614 211.759C135.588 211.759 136.468 211.993 137.254 212.459C138.054 212.926 138.681 213.586 139.134 214.439C139.588 215.279 139.814 216.259 139.814 217.379C139.814 218.486 139.588 219.473 139.134 220.339C138.681 221.206 138.054 221.879 137.254 222.359C136.468 222.839 135.588 223.079 134.614 223.079C133.681 223.079 132.854 222.873 132.134 222.459C131.428 222.033 130.888 221.506 130.514 220.879V228.099H128.694V211.939H130.514V213.959ZM137.954 217.379C137.954 216.553 137.788 215.833 137.454 215.219C137.121 214.606 136.668 214.139 136.094 213.819C135.534 213.499 134.914 213.339 134.234 213.339C133.568 213.339 132.948 213.506 132.374 213.839C131.814 214.159 131.361 214.633 131.014 215.259C130.681 215.873 130.514 216.586 130.514 217.399C130.514 218.226 130.681 218.953 131.014 219.579C131.361 220.193 131.814 220.666 132.374 220.999C132.948 221.319 133.568 221.479 134.234 221.479C134.914 221.479 135.534 221.319 136.094 220.999C136.668 220.666 137.121 220.193 137.454 219.579C137.788 218.953 137.954 218.219 137.954 217.379ZM144.03 213.719C144.35 213.093 144.803 212.606 145.39 212.259C145.99 211.913 146.717 211.739 147.57 211.739V213.619H147.09C145.05 213.619 144.03 214.726 144.03 216.939V222.899H142.21V211.939H144.03V213.719ZM159.671 216.999C159.671 217.346 159.651 217.713 159.611 218.099H150.851C150.918 219.179 151.284 220.026 151.951 220.639C152.631 221.239 153.451 221.539 154.411 221.539C155.198 221.539 155.851 221.359 156.371 220.999C156.904 220.626 157.278 220.133 157.491 219.519H159.451C159.158 220.573 158.571 221.433 157.691 222.099C156.811 222.753 155.718 223.079 154.411 223.079C153.371 223.079 152.438 222.846 151.611 222.379C150.798 221.913 150.158 221.253 149.691 220.399C149.224 219.533 148.991 218.533 148.991 217.399C148.991 216.266 149.218 215.273 149.671 214.419C150.124 213.566 150.758 212.913 151.571 212.459C152.398 211.993 153.344 211.759 154.411 211.759C155.451 211.759 156.371 211.986 157.171 212.439C157.971 212.893 158.584 213.519 159.011 214.319C159.451 215.106 159.671 215.999 159.671 216.999ZM157.791 216.619C157.791 215.926 157.638 215.333 157.331 214.839C157.024 214.333 156.604 213.953 156.071 213.699C155.551 213.433 154.971 213.299 154.331 213.299C153.411 213.299 152.624 213.593 151.971 214.179C151.331 214.766 150.964 215.579 150.871 216.619H157.791ZM166.733 221.539C167.533 221.539 168.2 221.353 168.733 220.979C169.267 220.606 169.633 220.073 169.833 219.379H171.793C171.527 220.419 171 221.273 170.213 221.939C169.44 222.593 168.467 222.966 167.293 223.059V224.059C168.08 224.046 168.707 224.213 169.173 224.559C169.64 224.906 169.873 225.399 169.873 226.039C169.873 226.666 169.647 227.166 169.193 227.539C168.74 227.913 168.153 228.099 167.433 228.099H165.133V226.919H167.073C167.513 226.919 167.833 226.853 168.033 226.719C168.247 226.586 168.353 226.359 168.353 226.039C168.353 225.733 168.247 225.513 168.033 225.379C167.833 225.246 167.513 225.179 167.073 225.179H166.073V223.039C165.153 222.946 164.34 222.659 163.633 222.179C162.927 221.686 162.373 221.033 161.973 220.219C161.587 219.393 161.393 218.453 161.393 217.399C161.393 216.266 161.62 215.279 162.073 214.439C162.527 213.586 163.153 212.926 163.953 212.459C164.767 211.993 165.693 211.759 166.733 211.759C168.08 211.759 169.187 212.086 170.053 212.739C170.933 213.393 171.513 214.299 171.793 215.459H169.833C169.647 214.793 169.28 214.266 168.733 213.879C168.2 213.493 167.533 213.299 166.733 213.299C165.693 213.299 164.853 213.659 164.213 214.379C163.573 215.086 163.253 216.093 163.253 217.399C163.253 218.719 163.573 219.739 164.213 220.459C164.853 221.179 165.693 221.539 166.733 221.539ZM179.002 223.079C177.975 223.079 177.042 222.846 176.202 222.379C175.375 221.913 174.722 221.253 174.242 220.399C173.775 219.533 173.542 218.533 173.542 217.399C173.542 216.279 173.782 215.293 174.262 214.439C174.755 213.573 175.422 212.913 176.262 212.459C177.102 211.993 178.042 211.759 179.082 211.759C180.122 211.759 181.062 211.993 181.902 212.459C182.742 212.913 183.402 213.566 183.882 214.419C184.375 215.273 184.622 216.266 184.622 217.399C184.622 218.533 184.368 219.533 183.862 220.399C183.368 221.253 182.695 221.913 181.842 222.379C180.988 222.846 180.042 223.079 179.002 223.079ZM179.002 221.479C179.655 221.479 180.268 221.326 180.842 221.019C181.415 220.713 181.875 220.253 182.222 219.639C182.582 219.026 182.762 218.279 182.762 217.399C182.762 216.519 182.588 215.773 182.242 215.159C181.895 214.546 181.442 214.093 180.882 213.799C180.322 213.493 179.715 213.339 179.062 213.339C178.395 213.339 177.782 213.493 177.222 213.799C176.675 214.093 176.235 214.546 175.902 215.159C175.568 215.773 175.402 216.519 175.402 217.399C175.402 218.293 175.562 219.046 175.882 219.659C176.215 220.273 176.655 220.733 177.202 221.039C177.748 221.333 178.348 221.479 179.002 221.479ZM190.895 223.079C190.055 223.079 189.301 222.939 188.635 222.659C187.968 222.366 187.441 221.966 187.055 221.459C186.668 220.939 186.455 220.346 186.415 219.679H188.295C188.348 220.226 188.601 220.673 189.055 221.019C189.521 221.366 190.128 221.539 190.875 221.539C191.568 221.539 192.115 221.386 192.515 221.079C192.915 220.773 193.115 220.386 193.115 219.919C193.115 219.439 192.901 219.086 192.475 218.859C192.048 218.619 191.388 218.386 190.495 218.159C189.681 217.946 189.015 217.733 188.495 217.519C187.988 217.293 187.548 216.966 187.175 216.539C186.815 216.099 186.635 215.526 186.635 214.819C186.635 214.259 186.801 213.746 187.135 213.279C187.468 212.813 187.941 212.446 188.555 212.179C189.168 211.899 189.868 211.759 190.655 211.759C191.868 211.759 192.848 212.066 193.595 212.679C194.341 213.293 194.741 214.133 194.795 215.199H192.975C192.935 214.626 192.701 214.166 192.275 213.819C191.861 213.473 191.301 213.299 190.595 213.299C189.941 213.299 189.421 213.439 189.035 213.719C188.648 213.999 188.455 214.366 188.455 214.819C188.455 215.179 188.568 215.479 188.795 215.719C189.035 215.946 189.328 216.133 189.675 216.279C190.035 216.413 190.528 216.566 191.155 216.739C191.941 216.953 192.581 217.166 193.075 217.379C193.568 217.579 193.988 217.886 194.335 218.299C194.695 218.713 194.881 219.253 194.895 219.919C194.895 220.519 194.728 221.059 194.395 221.539C194.061 222.019 193.588 222.399 192.975 222.679C192.375 222.946 191.681 223.079 190.895 223.079ZM215.976 211.739C216.829 211.739 217.589 211.919 218.256 212.279C218.923 212.626 219.449 213.153 219.836 213.859C220.223 214.566 220.416 215.426 220.416 216.439V222.899H218.616V216.699C218.616 215.606 218.343 214.773 217.796 214.199C217.263 213.613 216.536 213.319 215.616 213.319C214.669 213.319 213.916 213.626 213.356 214.239C212.796 214.839 212.516 215.713 212.516 216.859V222.899H210.716V216.699C210.716 215.606 210.443 214.773 209.896 214.199C209.363 213.613 208.636 213.319 207.716 213.319C206.769 213.319 206.016 213.626 205.456 214.239C204.896 214.839 204.616 215.713 204.616 216.859V222.899H202.796V211.939H204.616V213.519C204.976 212.946 205.456 212.506 206.056 212.199C206.669 211.893 207.343 211.739 208.076 211.739C208.996 211.739 209.809 211.946 210.516 212.359C211.223 212.773 211.749 213.379 212.096 214.179C212.403 213.406 212.909 212.806 213.616 212.379C214.323 211.953 215.109 211.739 215.976 211.739ZM222.721 217.379C222.721 216.259 222.948 215.279 223.401 214.439C223.855 213.586 224.475 212.926 225.261 212.459C226.061 211.993 226.948 211.759 227.921 211.759C228.881 211.759 229.715 211.966 230.421 212.379C231.128 212.793 231.655 213.313 232.001 213.939V211.939H233.841V222.899H232.001V220.859C231.641 221.499 231.101 222.033 230.381 222.459C229.675 222.873 228.848 223.079 227.901 223.079C226.928 223.079 226.048 222.839 225.261 222.359C224.475 221.879 223.855 221.206 223.401 220.339C222.948 219.473 222.721 218.486 222.721 217.379ZM232.001 217.399C232.001 216.573 231.835 215.853 231.501 215.239C231.168 214.626 230.715 214.159 230.141 213.839C229.581 213.506 228.961 213.339 228.281 213.339C227.601 213.339 226.981 213.499 226.421 213.819C225.861 214.139 225.415 214.606 225.081 215.219C224.748 215.833 224.581 216.553 224.581 217.379C224.581 218.219 224.748 218.953 225.081 219.579C225.415 220.193 225.861 220.666 226.421 220.999C226.981 221.319 227.601 221.479 228.281 221.479C228.961 221.479 229.581 221.319 230.141 220.999C230.715 220.666 231.168 220.193 231.501 219.579C231.835 218.953 232.001 218.226 232.001 217.399ZM237.857 210.159C237.51 210.159 237.217 210.039 236.977 209.799C236.737 209.559 236.617 209.266 236.617 208.919C236.617 208.573 236.737 208.279 236.977 208.039C237.217 207.799 237.51 207.679 237.857 207.679C238.19 207.679 238.47 207.799 238.697 208.039C238.937 208.279 239.057 208.573 239.057 208.919C239.057 209.266 238.937 209.559 238.697 209.799C238.47 210.039 238.19 210.159 237.857 210.159ZM238.737 211.939V222.899H236.917V211.939H238.737ZM245.719 223.079C244.879 223.079 244.125 222.939 243.459 222.659C242.792 222.366 242.265 221.966 241.879 221.459C241.492 220.939 241.279 220.346 241.239 219.679H243.119C243.172 220.226 243.425 220.673 243.879 221.019C244.345 221.366 244.952 221.539 245.699 221.539C246.392 221.539 246.939 221.386 247.339 221.079C247.739 220.773 247.939 220.386 247.939 219.919C247.939 219.439 247.725 219.086 247.299 218.859C246.872 218.619 246.212 218.386 245.319 218.159C244.505 217.946 243.839 217.733 243.319 217.519C242.812 217.293 242.372 216.966 241.999 216.539C241.639 216.099 241.459 215.526 241.459 214.819C241.459 214.259 241.625 213.746 241.959 213.279C242.292 212.813 242.765 212.446 243.379 212.179C243.992 211.899 244.692 211.759 245.479 211.759C246.692 211.759 247.672 212.066 248.419 212.679C249.165 213.293 249.565 214.133 249.619 215.199H247.799C247.759 214.626 247.525 214.166 247.099 213.819C246.685 213.473 246.125 213.299 245.419 213.299C244.765 213.299 244.245 213.439 243.859 213.719C243.472 213.999 243.279 214.366 243.279 214.819C243.279 215.179 243.392 215.479 243.619 215.719C243.859 215.946 244.152 216.133 244.499 216.279C244.859 216.413 245.352 216.566 245.979 216.739C246.765 216.953 247.405 217.166 247.899 217.379C248.392 217.579 248.812 217.886 249.159 218.299C249.519 218.713 249.705 219.253 249.719 219.919C249.719 220.519 249.552 221.059 249.219 221.539C248.885 222.019 248.412 222.399 247.799 222.679C247.199 222.946 246.505 223.079 245.719 223.079ZM259.44 213.979C259.813 213.326 260.36 212.793 261.08 212.379C261.8 211.966 262.62 211.759 263.54 211.759C264.527 211.759 265.413 211.993 266.2 212.459C266.987 212.926 267.607 213.586 268.06 214.439C268.513 215.279 268.74 216.259 268.74 217.379C268.74 218.486 268.513 219.473 268.06 220.339C267.607 221.206 266.98 221.879 266.18 222.359C265.393 222.839 264.513 223.079 263.54 223.079C262.593 223.079 261.76 222.873 261.04 222.459C260.333 222.046 259.8 221.519 259.44 220.879V222.899H257.62V208.099H259.44V213.979ZM266.88 217.379C266.88 216.553 266.713 215.833 266.38 215.219C266.047 214.606 265.593 214.139 265.02 213.819C264.46 213.499 263.84 213.339 263.16 213.339C262.493 213.339 261.873 213.506 261.3 213.839C260.74 214.159 260.287 214.633 259.94 215.259C259.607 215.873 259.44 216.586 259.44 217.399C259.44 218.226 259.607 218.953 259.94 219.579C260.287 220.193 260.74 220.666 261.3 220.999C261.873 221.319 262.493 221.479 263.16 221.479C263.84 221.479 264.46 221.319 265.02 220.999C265.593 220.666 266.047 220.193 266.38 219.579C266.713 218.953 266.88 218.219 266.88 217.379ZM270.456 217.379C270.456 216.259 270.682 215.279 271.136 214.439C271.589 213.586 272.209 212.926 272.996 212.459C273.796 211.993 274.682 211.759 275.656 211.759C276.616 211.759 277.449 211.966 278.156 212.379C278.862 212.793 279.389 213.313 279.736 213.939V211.939H281.576V222.899H279.736V220.859C279.376 221.499 278.836 222.033 278.116 222.459C277.409 222.873 276.582 223.079 275.636 223.079C274.662 223.079 273.782 222.839 272.996 222.359C272.209 221.879 271.589 221.206 271.136 220.339C270.682 219.473 270.456 218.486 270.456 217.379ZM279.736 217.399C279.736 216.573 279.569 215.853 279.236 215.239C278.902 214.626 278.449 214.159 277.876 213.839C277.316 213.506 276.696 213.339 276.016 213.339C275.336 213.339 274.716 213.499 274.156 213.819C273.596 214.139 273.149 214.606 272.816 215.219C272.482 215.833 272.316 216.553 272.316 217.379C272.316 218.219 272.482 218.953 272.816 219.579C273.149 220.193 273.596 220.666 274.156 220.999C274.716 221.319 275.336 221.479 276.016 221.479C276.696 221.479 277.316 221.319 277.876 220.999C278.449 220.666 278.902 220.193 279.236 219.579C279.569 218.953 279.736 218.226 279.736 217.399ZM286.471 213.719C286.791 213.093 287.245 212.606 287.831 212.259C288.431 211.913 289.158 211.739 290.011 211.739V213.619H289.531C287.491 213.619 286.471 214.726 286.471 216.939V222.899H284.651V211.939H286.471V213.719ZM291.432 217.379C291.432 216.259 291.659 215.279 292.112 214.439C292.566 213.586 293.186 212.926 293.972 212.459C294.772 211.993 295.659 211.759 296.632 211.759C297.592 211.759 298.426 211.966 299.132 212.379C299.839 212.793 300.366 213.313 300.712 213.939V211.939H302.552V222.899H300.712V220.859C300.352 221.499 299.812 222.033 299.092 222.459C298.386 222.873 297.559 223.079 296.612 223.079C295.639 223.079 294.759 222.839 293.972 222.359C293.186 221.879 292.566 221.206 292.112 220.339C291.659 219.473 291.432 218.486 291.432 217.379ZM300.712 217.399C300.712 216.573 300.546 215.853 300.212 215.239C299.879 214.626 299.426 214.159 298.852 213.839C298.292 213.506 297.672 213.339 296.992 213.339C296.312 213.339 295.692 213.499 295.132 213.819C294.572 214.139 294.126 214.606 293.792 215.219C293.459 215.833 293.292 216.553 293.292 217.379C293.292 218.219 293.459 218.953 293.792 219.579C294.126 220.193 294.572 220.666 295.132 220.999C295.692 221.319 296.312 221.479 296.992 221.479C297.672 221.479 298.292 221.319 298.852 220.999C299.426 220.666 299.879 220.193 300.212 219.579C300.546 218.953 300.712 218.226 300.712 217.399ZM307.848 213.439V219.899C307.848 220.433 307.961 220.813 308.188 221.039C308.415 221.253 308.808 221.359 309.368 221.359H310.708V222.899H309.068C308.055 222.899 307.295 222.666 306.788 222.199C306.281 221.733 306.028 220.966 306.028 219.899V213.439H304.608V211.939H306.028V209.179H307.848V211.939H310.708V213.439H307.848ZM317.693 223.079C316.666 223.079 315.733 222.846 314.893 222.379C314.066 221.913 313.413 221.253 312.933 220.399C312.466 219.533 312.233 218.533 312.233 217.399C312.233 216.279 312.473 215.293 312.953 214.439C313.446 213.573 314.113 212.913 314.953 212.459C315.793 211.993 316.733 211.759 317.773 211.759C318.813 211.759 319.753 211.993 320.593 212.459C321.433 212.913 322.093 213.566 322.573 214.419C323.066 215.273 323.313 216.266 323.313 217.399C323.313 218.533 323.06 219.533 322.553 220.399C322.06 221.253 321.386 221.913 320.533 222.379C319.68 222.846 318.733 223.079 317.693 223.079ZM317.693 221.479C318.346 221.479 318.96 221.326 319.533 221.019C320.106 220.713 320.566 220.253 320.913 219.639C321.273 219.026 321.453 218.279 321.453 217.399C321.453 216.519 321.28 215.773 320.933 215.159C320.586 214.546 320.133 214.093 319.573 213.799C319.013 213.493 318.406 213.339 317.753 213.339C317.086 213.339 316.473 213.493 315.913 213.799C315.366 214.093 314.926 214.546 314.593 215.159C314.26 215.773 314.093 216.519 314.093 217.399C314.093 218.293 314.253 219.046 314.573 219.659C314.906 220.273 315.346 220.733 315.893 221.039C316.44 221.333 317.04 221.479 317.693 221.479ZM329.586 223.079C328.746 223.079 327.993 222.939 327.326 222.659C326.659 222.366 326.133 221.966 325.746 221.459C325.359 220.939 325.146 220.346 325.106 219.679H326.986C327.039 220.226 327.293 220.673 327.746 221.019C328.213 221.366 328.819 221.539 329.566 221.539C330.259 221.539 330.806 221.386 331.206 221.079C331.606 220.773 331.806 220.386 331.806 219.919C331.806 219.439 331.593 219.086 331.166 218.859C330.739 218.619 330.079 218.386 329.186 218.159C328.373 217.946 327.706 217.733 327.186 217.519C326.679 217.293 326.239 216.966 325.866 216.539C325.506 216.099 325.326 215.526 325.326 214.819C325.326 214.259 325.493 213.746 325.826 213.279C326.159 212.813 326.633 212.446 327.246 212.179C327.859 211.899 328.559 211.759 329.346 211.759C330.559 211.759 331.539 212.066 332.286 212.679C333.033 213.293 333.433 214.133 333.486 215.199H331.666C331.626 214.626 331.393 214.166 330.966 213.819C330.553 213.473 329.993 213.299 329.286 213.299C328.633 213.299 328.113 213.439 327.726 213.719C327.339 213.999 327.146 214.366 327.146 214.819C327.146 215.179 327.259 215.479 327.486 215.719C327.726 215.946 328.019 216.133 328.366 216.279C328.726 216.413 329.219 216.566 329.846 216.739C330.633 216.953 331.273 217.166 331.766 217.379C332.259 217.579 332.679 217.886 333.026 218.299C333.386 218.713 333.573 219.253 333.586 219.919C333.586 220.519 333.419 221.059 333.086 221.539C332.753 222.019 332.279 222.399 331.666 222.679C331.066 222.946 330.373 223.079 329.586 223.079ZM336.735 223.019C336.389 223.019 336.095 222.899 335.855 222.659C335.615 222.419 335.495 222.126 335.495 221.779C335.495 221.433 335.615 221.139 335.855 220.899C336.095 220.659 336.389 220.539 336.735 220.539C337.069 220.539 337.349 220.659 337.575 220.899C337.815 221.139 337.935 221.433 337.935 221.779C337.935 222.126 337.815 222.419 337.575 222.659C337.349 222.899 337.069 223.019 336.735 223.019ZM38.3356 238.959V247.779C38.3356 249.019 38.6356 249.939 39.2356 250.539C39.849 251.139 40.6956 251.439 41.7756 251.439C42.8423 251.439 43.6756 251.139 44.2756 250.539C44.889 249.939 45.1956 249.019 45.1956 247.779V238.959H47.0156V247.759C47.0156 248.919 46.7823 249.899 46.3156 250.699C45.849 251.486 45.2156 252.073 44.4156 252.459C43.629 252.846 42.7423 253.039 41.7556 253.039C40.769 253.039 39.8756 252.846 39.0756 252.459C38.289 252.073 37.6623 251.486 37.1956 250.699C36.7423 249.899 36.5156 248.919 36.5156 247.759V238.959H38.3356ZM63.2317 241.739C64.0851 241.739 64.8451 241.919 65.5117 242.279C66.1784 242.626 66.7051 243.153 67.0917 243.859C67.4784 244.566 67.6717 245.426 67.6717 246.439V252.899H65.8717V246.699C65.8717 245.606 65.5984 244.773 65.0517 244.199C64.5184 243.613 63.7917 243.319 62.8717 243.319C61.9251 243.319 61.1717 243.626 60.6117 244.239C60.0517 244.839 59.7717 245.713 59.7717 246.859V252.899H57.9717V246.699C57.9717 245.606 57.6984 244.773 57.1517 244.199C56.6184 243.613 55.8917 243.319 54.9717 243.319C54.0251 243.319 53.2717 243.626 52.7117 244.239C52.1517 244.839 51.8717 245.713 51.8717 246.859V252.899H50.0517V241.939H51.8717V243.519C52.2317 242.946 52.7117 242.506 53.3117 242.199C53.9251 241.893 54.5984 241.739 55.3317 241.739C56.2517 241.739 57.0651 241.946 57.7717 242.359C58.4784 242.773 59.0051 243.379 59.3517 244.179C59.6584 243.406 60.1651 242.806 60.8717 242.379C61.5784 241.953 62.3651 241.739 63.2317 241.739ZM75.3092 247.399C75.3092 246.266 75.5359 245.279 75.9892 244.439C76.4426 243.586 77.0692 242.926 77.8692 242.459C78.6826 241.993 79.6092 241.759 80.6492 241.759C81.9959 241.759 83.1026 242.086 83.9692 242.739C84.8492 243.393 85.4292 244.299 85.7092 245.459H83.7492C83.5626 244.793 83.1959 244.266 82.6492 243.879C82.1159 243.493 81.4492 243.299 80.6492 243.299C79.6092 243.299 78.7692 243.659 78.1292 244.379C77.4892 245.086 77.1692 246.093 77.1692 247.399C77.1692 248.719 77.4892 249.739 78.1292 250.459C78.7692 251.179 79.6092 251.539 80.6492 251.539C81.4492 251.539 82.1159 251.353 82.6492 250.979C83.1826 250.606 83.5492 250.073 83.7492 249.379H85.7092C85.4159 250.499 84.8292 251.399 83.9492 252.079C83.0692 252.746 81.9692 253.079 80.6492 253.079C79.6092 253.079 78.6826 252.846 77.8692 252.379C77.0692 251.913 76.4426 251.253 75.9892 250.399C75.5359 249.546 75.3092 248.546 75.3092 247.399ZM93.5777 241.739C94.4043 241.739 95.151 241.919 95.8177 242.279C96.4843 242.626 97.0043 243.153 97.3777 243.859C97.7643 244.566 97.9577 245.426 97.9577 246.439V252.899H96.1577V246.699C96.1577 245.606 95.8843 244.773 95.3377 244.199C94.791 243.613 94.0443 243.319 93.0977 243.319C92.1377 243.319 91.371 243.619 90.7977 244.219C90.2377 244.819 89.9577 245.693 89.9577 246.839V252.899H88.1377V238.099H89.9577V243.499C90.3177 242.939 90.811 242.506 91.4377 242.199C92.0777 241.893 92.791 241.739 93.5777 241.739ZM101.871 240.159C101.524 240.159 101.231 240.039 100.991 239.799C100.751 239.559 100.631 239.266 100.631 238.919C100.631 238.573 100.751 238.279 100.991 238.039C101.231 237.799 101.524 237.679 101.871 237.679C102.204 237.679 102.484 237.799 102.711 238.039C102.951 238.279 103.071 238.573 103.071 238.919C103.071 239.266 102.951 239.559 102.711 239.799C102.484 240.039 102.204 240.159 101.871 240.159ZM102.751 241.939V252.899H100.931V241.939H102.751ZM107.673 243.959C108.033 243.333 108.566 242.813 109.273 242.399C109.993 241.973 110.826 241.759 111.773 241.759C112.746 241.759 113.626 241.993 114.412 242.459C115.212 242.926 115.839 243.586 116.293 244.439C116.746 245.279 116.973 246.259 116.973 247.379C116.973 248.486 116.746 249.473 116.293 250.339C115.839 251.206 115.212 251.879 114.412 252.359C113.626 252.839 112.746 253.079 111.773 253.079C110.839 253.079 110.013 252.873 109.293 252.459C108.586 252.033 108.046 251.506 107.673 250.879V258.099H105.853V241.939H107.673V243.959ZM115.113 247.379C115.113 246.553 114.946 245.833 114.613 245.219C114.279 244.606 113.826 244.139 113.253 243.819C112.693 243.499 112.073 243.339 111.393 243.339C110.726 243.339 110.106 243.506 109.533 243.839C108.973 244.159 108.519 244.633 108.173 245.259C107.839 245.873 107.673 246.586 107.673 247.399C107.673 248.226 107.839 248.953 108.173 249.579C108.519 250.193 108.973 250.666 109.533 250.999C110.106 251.319 110.726 251.479 111.393 251.479C112.073 251.479 112.693 251.319 113.253 250.999C113.826 250.666 114.279 250.193 114.613 249.579C114.946 248.953 115.113 248.219 115.113 247.379ZM119.948 253.019C119.601 253.019 119.308 252.899 119.068 252.659C118.828 252.419 118.708 252.126 118.708 251.779C118.708 251.433 118.828 251.139 119.068 250.899C119.308 250.659 119.601 250.539 119.948 250.539C120.281 250.539 120.561 250.659 120.788 250.899C121.028 251.139 121.148 251.433 121.148 251.779C121.148 252.126 121.028 252.419 120.788 252.659C120.561 252.899 120.281 253.019 119.948 253.019ZM130.679 238.959V247.779C130.679 249.019 130.979 249.939 131.579 250.539C132.193 251.139 133.039 251.439 134.119 251.439C135.186 251.439 136.019 251.139 136.619 250.539C137.233 249.939 137.539 249.019 137.539 247.779V238.959H139.359V247.759C139.359 248.919 139.126 249.899 138.659 250.699C138.193 251.486 137.559 252.073 136.759 252.459C135.973 252.846 135.086 253.039 134.099 253.039C133.113 253.039 132.219 252.846 131.419 252.459C130.633 252.073 130.006 251.486 129.539 250.699C129.086 249.899 128.859 248.919 128.859 247.759V238.959H130.679ZM155.575 241.739C156.429 241.739 157.189 241.919 157.855 242.279C158.522 242.626 159.049 243.153 159.435 243.859C159.822 244.566 160.015 245.426 160.015 246.439V252.899H158.215V246.699C158.215 245.606 157.942 244.773 157.395 244.199C156.862 243.613 156.135 243.319 155.215 243.319C154.269 243.319 153.515 243.626 152.955 244.239C152.395 244.839 152.115 245.713 152.115 246.859V252.899H150.315V246.699C150.315 245.606 150.042 244.773 149.495 244.199C148.962 243.613 148.235 243.319 147.315 243.319C146.369 243.319 145.615 243.626 145.055 244.239C144.495 244.839 144.215 245.713 144.215 246.859V252.899H142.395V241.939H144.215V243.519C144.575 242.946 145.055 242.506 145.655 242.199C146.269 241.893 146.942 241.739 147.675 241.739C148.595 241.739 149.409 241.946 150.115 242.359C150.822 242.773 151.349 243.379 151.695 244.179C152.002 243.406 152.509 242.806 153.215 242.379C153.922 241.953 154.709 241.739 155.575 241.739ZM170.153 243.959C170.513 243.333 171.046 242.813 171.753 242.399C172.473 241.973 173.306 241.759 174.253 241.759C175.226 241.759 176.106 241.993 176.893 242.459C177.693 242.926 178.32 243.586 178.773 244.439C179.226 245.279 179.453 246.259 179.453 247.379C179.453 248.486 179.226 249.473 178.773 250.339C178.32 251.206 177.693 251.879 176.893 252.359C176.106 252.839 175.226 253.079 174.253 253.079C173.32 253.079 172.493 252.873 171.773 252.459C171.066 252.033 170.526 251.506 170.153 250.879V258.099H168.333V241.939H170.153V243.959ZM177.593 247.379C177.593 246.553 177.426 245.833 177.093 245.219C176.76 244.606 176.306 244.139 175.733 243.819C175.173 243.499 174.553 243.339 173.873 243.339C173.206 243.339 172.586 243.506 172.013 243.839C171.453 244.159 171 244.633 170.653 245.259C170.32 245.873 170.153 246.586 170.153 247.399C170.153 248.226 170.32 248.953 170.653 249.579C171 250.193 171.453 250.666 172.013 250.999C172.586 251.319 173.206 251.479 173.873 251.479C174.553 251.479 175.173 251.319 175.733 250.999C176.306 250.666 176.76 250.193 177.093 249.579C177.426 248.953 177.593 248.219 177.593 247.379ZM183.669 238.099V252.899H181.849V238.099H183.669ZM186.09 247.379C186.09 246.259 186.317 245.279 186.77 244.439C187.224 243.586 187.844 242.926 188.63 242.459C189.43 241.993 190.317 241.759 191.29 241.759C192.25 241.759 193.084 241.966 193.79 242.379C194.497 242.793 195.024 243.313 195.37 243.939V241.939H197.21V252.899H195.37V250.859C195.01 251.499 194.47 252.033 193.75 252.459C193.044 252.873 192.217 253.079 191.27 253.079C190.297 253.079 189.417 252.839 188.63 252.359C187.844 251.879 187.224 251.206 186.77 250.339C186.317 249.473 186.09 248.486 186.09 247.379ZM195.37 247.399C195.37 246.573 195.204 245.853 194.87 245.239C194.537 244.626 194.084 244.159 193.51 243.839C192.95 243.506 192.33 243.339 191.65 243.339C190.97 243.339 190.35 243.499 189.79 243.819C189.23 244.139 188.784 244.606 188.45 245.219C188.117 245.833 187.95 246.553 187.95 247.379C187.95 248.219 188.117 248.953 188.45 249.579C188.784 250.193 189.23 250.666 189.79 250.999C190.35 251.319 190.97 251.479 191.65 251.479C192.33 251.479 192.95 251.319 193.51 250.999C194.084 250.666 194.537 250.193 194.87 249.579C195.204 248.953 195.37 248.226 195.37 247.399ZM205.626 241.739C206.959 241.739 208.039 242.146 208.866 242.959C209.693 243.759 210.106 244.919 210.106 246.439V252.899H208.306V246.699C208.306 245.606 208.033 244.773 207.486 244.199C206.939 243.613 206.193 243.319 205.246 243.319C204.286 243.319 203.519 243.619 202.946 244.219C202.386 244.819 202.106 245.693 202.106 246.839V252.899H200.286V241.939H202.106V243.499C202.466 242.939 202.953 242.506 203.566 242.199C204.193 241.893 204.879 241.739 205.626 241.739ZM217.859 253.079C216.832 253.079 215.899 252.846 215.059 252.379C214.232 251.913 213.579 251.253 213.099 250.399C212.632 249.533 212.399 248.533 212.399 247.399C212.399 246.279 212.639 245.293 213.119 244.439C213.612 243.573 214.279 242.913 215.119 242.459C215.959 241.993 216.899 241.759 217.939 241.759C218.979 241.759 219.919 241.993 220.759 242.459C221.599 242.913 222.259 243.566 222.739 244.419C223.232 245.273 223.479 246.266 223.479 247.399C223.479 248.533 223.226 249.533 222.719 250.399C222.226 251.253 221.552 251.913 220.699 252.379C219.846 252.846 218.899 253.079 217.859 253.079ZM217.859 251.479C218.512 251.479 219.126 251.326 219.699 251.019C220.272 250.713 220.732 250.253 221.079 249.639C221.439 249.026 221.619 248.279 221.619 247.399C221.619 246.519 221.446 245.773 221.099 245.159C220.752 244.546 220.299 244.093 219.739 243.799C219.179 243.493 218.572 243.339 217.919 243.339C217.252 243.339 216.639 243.493 216.079 243.799C215.532 244.093 215.092 244.546 214.759 245.159C214.426 245.773 214.259 246.519 214.259 247.399C214.259 248.293 214.419 249.046 214.739 249.659C215.072 250.273 215.512 250.733 216.059 251.039C216.606 251.333 217.206 251.479 217.859 251.479ZM226.452 253.019C226.105 253.019 225.812 252.899 225.572 252.659C225.332 252.419 225.212 252.126 225.212 251.779C225.212 251.433 225.332 251.139 225.572 250.899C225.812 250.659 226.105 250.539 226.452 250.539C226.785 250.539 227.065 250.659 227.292 250.899C227.532 251.139 227.652 251.433 227.652 251.779C227.652 252.126 227.532 252.419 227.292 252.659C227.065 252.899 226.785 253.019 226.452 253.019ZM237.183 238.959V247.779C237.183 249.019 237.483 249.939 238.083 250.539C238.697 251.139 239.543 251.439 240.623 251.439C241.69 251.439 242.523 251.139 243.123 250.539C243.737 249.939 244.043 249.019 244.043 247.779V238.959H245.863V247.759C245.863 248.919 245.63 249.899 245.163 250.699C244.697 251.486 244.063 252.073 243.263 252.459C242.477 252.846 241.59 253.039 240.603 253.039C239.617 253.039 238.723 252.846 237.923 252.459C237.137 252.073 236.51 251.486 236.043 250.699C235.59 249.899 235.363 248.919 235.363 247.759V238.959H237.183ZM262.079 241.739C262.933 241.739 263.693 241.919 264.359 242.279C265.026 242.626 265.553 243.153 265.939 243.859C266.326 244.566 266.519 245.426 266.519 246.439V252.899H264.719V246.699C264.719 245.606 264.446 244.773 263.899 244.199C263.366 243.613 262.639 243.319 261.719 243.319C260.773 243.319 260.019 243.626 259.459 244.239C258.899 244.839 258.619 245.713 258.619 246.859V252.899H256.819V246.699C256.819 245.606 256.546 244.773 255.999 244.199C255.466 243.613 254.739 243.319 253.819 243.319C252.873 243.319 252.119 243.626 251.559 244.239C250.999 244.839 250.719 245.713 250.719 246.859V252.899H248.899V241.939H250.719V243.519C251.079 242.946 251.559 242.506 252.159 242.199C252.773 241.893 253.446 241.739 254.179 241.739C255.099 241.739 255.913 241.946 256.619 242.359C257.326 242.773 257.853 243.379 258.199 244.179C258.506 243.406 259.013 242.806 259.719 242.379C260.426 241.953 261.213 241.739 262.079 241.739ZM268.825 247.379C268.825 246.259 269.052 245.279 269.505 244.439C269.958 243.586 270.578 242.926 271.365 242.459C272.165 241.993 273.052 241.759 274.025 241.759C274.985 241.759 275.818 241.966 276.525 242.379C277.232 242.793 277.758 243.313 278.105 243.939V241.939H279.945V252.899H278.105V250.859C277.745 251.499 277.205 252.033 276.485 252.459C275.778 252.873 274.952 253.079 274.005 253.079C273.032 253.079 272.152 252.839 271.365 252.359C270.578 251.879 269.958 251.206 269.505 250.339C269.052 249.473 268.825 248.486 268.825 247.379ZM278.105 247.399C278.105 246.573 277.938 245.853 277.605 245.239C277.272 244.626 276.818 244.159 276.245 243.839C275.685 243.506 275.065 243.339 274.385 243.339C273.705 243.339 273.085 243.499 272.525 243.819C271.965 244.139 271.518 244.606 271.185 245.219C270.852 245.833 270.685 246.553 270.685 247.379C270.685 248.219 270.852 248.953 271.185 249.579C271.518 250.193 271.965 250.666 272.525 250.999C273.085 251.319 273.705 251.479 274.385 251.479C275.065 251.479 275.685 251.319 276.245 250.999C276.818 250.666 277.272 250.193 277.605 249.579C277.938 248.953 278.105 248.226 278.105 247.399ZM298.073 241.939V252.899H296.253V251.279C295.906 251.839 295.419 252.279 294.793 252.599C294.179 252.906 293.499 253.059 292.753 253.059C291.899 253.059 291.133 252.886 290.453 252.539C289.773 252.179 289.233 251.646 288.833 250.939C288.446 250.233 288.253 249.373 288.253 248.359V241.939H290.053V248.119C290.053 249.199 290.326 250.033 290.873 250.619C291.419 251.193 292.166 251.479 293.113 251.479C294.086 251.479 294.853 251.179 295.413 250.579C295.973 249.979 296.253 249.106 296.253 247.959V241.939H298.073ZM295.173 238.839L290.913 241.119V239.759L295.173 237.259V238.839ZM306.485 241.739C307.819 241.739 308.899 242.146 309.725 242.959C310.552 243.759 310.965 244.919 310.965 246.439V252.899H309.165V246.699C309.165 245.606 308.892 244.773 308.345 244.199C307.799 243.613 307.052 243.319 306.105 243.319C305.145 243.319 304.379 243.619 303.805 244.219C303.245 244.819 302.965 245.693 302.965 246.839V252.899H301.145V241.939H302.965V243.499C303.325 242.939 303.812 242.506 304.425 242.199C305.052 241.893 305.739 241.739 306.485 241.739ZM314.878 240.159C314.532 240.159 314.238 240.039 313.998 239.799C313.758 239.559 313.638 239.266 313.638 238.919C313.638 238.573 313.758 238.279 313.998 238.039C314.238 237.799 314.532 237.679 314.878 237.679C315.212 237.679 315.492 237.799 315.718 238.039C315.958 238.279 316.078 238.573 316.078 238.919C316.078 239.266 315.958 239.559 315.718 239.799C315.492 240.039 315.212 240.159 314.878 240.159ZM315.758 241.939V252.899H313.938V241.939H315.758ZM318.18 247.399C318.18 246.266 318.407 245.279 318.86 244.439C319.314 243.586 319.94 242.926 320.74 242.459C321.554 241.993 322.48 241.759 323.52 241.759C324.867 241.759 325.974 242.086 326.84 242.739C327.72 243.393 328.3 244.299 328.58 245.459H326.62C326.434 244.793 326.067 244.266 325.52 243.879C324.987 243.493 324.32 243.299 323.52 243.299C322.48 243.299 321.64 243.659 321 244.379C320.36 245.086 320.04 246.093 320.04 247.399C320.04 248.719 320.36 249.739 321 250.459C321.64 251.179 322.48 251.539 323.52 251.539C324.32 251.539 324.987 251.353 325.52 250.979C326.054 250.606 326.42 250.073 326.62 249.379H328.58C328.287 250.499 327.7 251.399 326.82 252.079C325.94 252.746 324.84 253.079 323.52 253.079C322.48 253.079 321.554 252.846 320.74 252.379C319.94 251.913 319.314 251.253 318.86 250.399C318.407 249.546 318.18 248.546 318.18 247.399ZM330.329 247.379C330.329 246.259 330.555 245.279 331.009 244.439C331.462 243.586 332.082 242.926 332.869 242.459C333.669 241.993 334.555 241.759 335.529 241.759C336.489 241.759 337.322 241.966 338.029 242.379C338.735 242.793 339.262 243.313 339.609 243.939V241.939H341.449V252.899H339.609V250.859C339.249 251.499 338.709 252.033 337.989 252.459C337.282 252.873 336.455 253.079 335.509 253.079C334.535 253.079 333.655 252.839 332.869 252.359C332.082 251.879 331.462 251.206 331.009 250.339C330.555 249.473 330.329 248.486 330.329 247.379ZM339.609 247.399C339.609 246.573 339.442 245.853 339.109 245.239C338.775 244.626 338.322 244.159 337.749 243.839C337.189 243.506 336.569 243.339 335.889 243.339C335.209 243.339 334.589 243.499 334.029 243.819C333.469 244.139 333.022 244.606 332.689 245.219C332.355 245.833 332.189 246.553 332.189 247.379C332.189 248.219 332.355 248.953 332.689 249.579C333.022 250.193 333.469 250.666 334.029 250.999C334.589 251.319 335.209 251.479 335.889 251.479C336.569 251.479 337.189 251.319 337.749 250.999C338.322 250.666 338.775 250.193 339.109 249.579C339.442 248.953 339.609 248.226 339.609 247.399ZM162.538 271.739C163.392 271.739 164.152 271.919 164.818 272.279C165.485 272.626 166.012 273.153 166.398 273.859C166.785 274.566 166.978 275.426 166.978 276.439V282.899H165.178V276.699C165.178 275.606 164.905 274.773 164.358 274.199C163.825 273.613 163.098 273.319 162.178 273.319C161.232 273.319 160.478 273.626 159.918 274.239C159.358 274.839 159.078 275.713 159.078 276.859V282.899H157.278V276.699C157.278 275.606 157.005 274.773 156.458 274.199C155.925 273.613 155.198 273.319 154.278 273.319C153.332 273.319 152.578 273.626 152.018 274.239C151.458 274.839 151.178 275.713 151.178 276.859V282.899H149.358V271.939H151.178V273.519C151.538 272.946 152.018 272.506 152.618 272.199C153.232 271.893 153.905 271.739 154.638 271.739C155.558 271.739 156.372 271.946 157.078 272.359C157.785 272.773 158.312 273.379 158.658 274.179C158.965 273.406 159.472 272.806 160.178 272.379C160.885 271.953 161.672 271.739 162.538 271.739ZM174.744 283.079C173.717 283.079 172.784 282.846 171.944 282.379C171.117 281.913 170.464 281.253 169.984 280.399C169.517 279.533 169.284 278.533 169.284 277.399C169.284 276.279 169.524 275.293 170.004 274.439C170.497 273.573 171.164 272.913 172.004 272.459C172.844 271.993 173.784 271.759 174.824 271.759C175.864 271.759 176.804 271.993 177.644 272.459C178.484 272.913 179.144 273.566 179.624 274.419C180.117 275.273 180.364 276.266 180.364 277.399C180.364 278.533 180.11 279.533 179.604 280.399C179.11 281.253 178.437 281.913 177.584 282.379C176.73 282.846 175.784 283.079 174.744 283.079ZM174.744 281.479C175.397 281.479 176.01 281.326 176.584 281.019C177.157 280.713 177.617 280.253 177.964 279.639C178.324 279.026 178.504 278.279 178.504 277.399C178.504 276.519 178.33 275.773 177.984 275.159C177.637 274.546 177.184 274.093 176.624 273.799C176.064 273.493 175.457 273.339 174.804 273.339C174.137 273.339 173.524 273.493 172.964 273.799C172.417 274.093 171.977 274.546 171.644 275.159C171.31 275.773 171.144 276.519 171.144 277.399C171.144 278.293 171.304 279.046 171.624 279.659C171.957 280.273 172.397 280.733 172.944 281.039C173.49 281.333 174.09 281.479 174.744 281.479ZM192.757 276.999C192.757 277.346 192.737 277.713 192.697 278.099H183.937C184.003 279.179 184.37 280.026 185.037 280.639C185.717 281.239 186.537 281.539 187.497 281.539C188.283 281.539 188.937 281.359 189.457 280.999C189.99 280.626 190.363 280.133 190.577 279.519H192.537C192.243 280.573 191.657 281.433 190.777 282.099C189.897 282.753 188.803 283.079 187.497 283.079C186.457 283.079 185.523 282.846 184.697 282.379C183.883 281.913 183.243 281.253 182.777 280.399C182.31 279.533 182.077 278.533 182.077 277.399C182.077 276.266 182.303 275.273 182.757 274.419C183.21 273.566 183.843 272.913 184.657 272.459C185.483 271.993 186.43 271.759 187.497 271.759C188.537 271.759 189.457 271.986 190.257 272.439C191.057 272.893 191.67 273.519 192.097 274.319C192.537 275.106 192.757 275.999 192.757 276.999ZM190.877 276.619C190.877 275.926 190.723 275.333 190.417 274.839C190.11 274.333 189.69 273.953 189.157 273.699C188.637 273.433 188.057 273.299 187.417 273.299C186.497 273.299 185.71 273.593 185.057 274.179C184.417 274.766 184.05 275.579 183.957 276.619H190.877ZM194.479 277.379C194.479 276.259 194.706 275.279 195.159 274.439C195.612 273.586 196.232 272.926 197.019 272.459C197.819 271.993 198.712 271.759 199.699 271.759C200.552 271.759 201.346 271.959 202.079 272.359C202.812 272.746 203.372 273.259 203.759 273.899V268.099H205.599V282.899H203.759V280.839C203.399 281.493 202.866 282.033 202.159 282.459C201.452 282.873 200.626 283.079 199.679 283.079C198.706 283.079 197.819 282.839 197.019 282.359C196.232 281.879 195.612 281.206 195.159 280.339C194.706 279.473 194.479 278.486 194.479 277.379ZM203.759 277.399C203.759 276.573 203.592 275.853 203.259 275.239C202.926 274.626 202.472 274.159 201.899 273.839C201.339 273.506 200.719 273.339 200.039 273.339C199.359 273.339 198.739 273.499 198.179 273.819C197.619 274.139 197.172 274.606 196.839 275.219C196.506 275.833 196.339 276.553 196.339 277.379C196.339 278.219 196.506 278.953 196.839 279.579C197.172 280.193 197.619 280.666 198.179 280.999C198.739 281.319 199.359 281.479 200.039 281.479C200.719 281.479 201.339 281.319 201.899 280.999C202.472 280.666 202.926 280.193 203.259 279.579C203.592 278.953 203.759 278.226 203.759 277.399ZM207.995 277.379C207.995 276.259 208.221 275.279 208.675 274.439C209.128 273.586 209.748 272.926 210.535 272.459C211.335 271.993 212.221 271.759 213.195 271.759C214.155 271.759 214.988 271.966 215.695 272.379C216.401 272.793 216.928 273.313 217.275 273.939V271.939H219.115V282.899H217.275V280.859C216.915 281.499 216.375 282.033 215.655 282.459C214.948 282.873 214.121 283.079 213.175 283.079C212.201 283.079 211.321 282.839 210.535 282.359C209.748 281.879 209.128 281.206 208.675 280.339C208.221 279.473 207.995 278.486 207.995 277.379ZM217.275 277.399C217.275 276.573 217.108 275.853 216.775 275.239C216.441 274.626 215.988 274.159 215.415 273.839C214.855 273.506 214.235 273.339 213.555 273.339C212.875 273.339 212.255 273.499 211.695 273.819C211.135 274.139 210.688 274.606 210.355 275.219C210.021 275.833 209.855 276.553 209.855 277.379C209.855 278.219 210.021 278.953 210.355 279.579C210.688 280.193 211.135 280.666 211.695 280.999C212.255 281.319 212.875 281.479 213.555 281.479C214.235 281.479 214.855 281.319 215.415 280.999C215.988 280.666 216.441 280.193 216.775 279.579C217.108 278.953 217.275 278.226 217.275 277.399ZM222.77 283.019C222.424 283.019 222.13 282.899 221.89 282.659C221.65 282.419 221.53 282.126 221.53 281.779C221.53 281.433 221.65 281.139 221.89 280.899C222.13 280.659 222.424 280.539 222.77 280.539C223.104 280.539 223.384 280.659 223.61 280.899C223.85 281.139 223.97 281.433 223.97 281.779C223.97 282.126 223.85 282.419 223.61 282.659C223.384 282.899 223.104 283.019 222.77 283.019Z" fill="white"/>
</svg>
