<svg width="378" height="406" viewBox="0 0 378 406" fill="none" xmlns="http://www.w3.org/2000/svg">
<rect width="378" height="406" rx="10" fill="#2D2D2F"/>
<path d="M188.684 41.1053L212.263 54.5789V81.5263L188.684 95L165.105 81.5263V54.5789L188.684 41.1053Z" stroke="#FF5000" stroke-width="6.73684" stroke-linejoin="round"/>
<path d="M188.684 31V41.1053M165.105 54.5789L188.684 68.0526L212.263 54.5789M212.263 81.5263L222.368 86.5789M155 86.5789L165.105 81.5263M188.684 68.0526V95" stroke="#FF5000" stroke-width="6.73684" stroke-linecap="round" stroke-linejoin="round"/>
<path d="M200.474 47.8418L212.263 54.5786V68.0523M176.895 47.8418L165.105 54.5786V68.0523M176.895 88.2628L188.684 94.9997L200.474 88.2628" stroke="#FF5000" stroke-width="6.73684" stroke-linejoin="round"/>
<path d="M66.43 141.312C66.014 140.549 65.442 139.969 64.714 139.57C63.986 139.171 63.1367 138.972 62.166 138.972C61.0913 138.972 60.138 139.215 59.306 139.7C58.474 140.185 57.824 140.879 57.356 141.78C56.888 142.681 56.654 143.721 56.654 144.9C56.654 146.113 56.888 147.171 57.356 148.072C57.8413 148.973 58.5087 149.667 59.358 150.152C60.2073 150.637 61.1953 150.88 62.322 150.88C63.7087 150.88 64.844 150.516 65.728 149.788C66.612 149.043 67.1927 148.011 67.47 146.694H61.23V143.912H71.058V147.084C70.8153 148.349 70.2953 149.519 69.498 150.594C68.7007 151.669 67.6693 152.535 66.404 153.194C65.156 153.835 63.752 154.156 62.192 154.156C60.4413 154.156 58.8553 153.766 57.434 152.986C56.03 152.189 54.9207 151.088 54.106 149.684C53.3087 148.28 52.91 146.685 52.91 144.9C52.91 143.115 53.3087 141.52 54.106 140.116C54.9207 138.695 56.03 137.594 57.434 136.814C58.8553 136.017 60.4327 135.618 62.166 135.618C64.2113 135.618 65.988 136.121 67.496 137.126C69.004 138.114 70.044 139.509 70.616 141.312H66.43ZM87.141 146.486C87.141 147.006 87.1064 147.474 87.037 147.89H76.507C76.5937 148.93 76.9577 149.745 77.599 150.334C78.2404 150.923 79.029 151.218 79.965 151.218C81.317 151.218 82.279 150.637 82.851 149.476H86.777C86.361 150.863 85.5637 152.007 84.385 152.908C83.2064 153.792 81.759 154.234 80.043 154.234C78.6564 154.234 77.4084 153.931 76.299 153.324C75.207 152.7 74.349 151.825 73.725 150.698C73.1184 149.571 72.815 148.271 72.815 146.798C72.815 145.307 73.1184 143.999 73.725 142.872C74.3317 141.745 75.181 140.879 76.273 140.272C77.365 139.665 78.6217 139.362 80.043 139.362C81.4124 139.362 82.6344 139.657 83.709 140.246C84.801 140.835 85.6417 141.676 86.231 142.768C86.8377 143.843 87.141 145.082 87.141 146.486ZM83.371 145.446C83.3537 144.51 83.0157 143.765 82.357 143.21C81.6984 142.638 80.8924 142.352 79.939 142.352C79.0377 142.352 78.275 142.629 77.651 143.184C77.0444 143.721 76.6717 144.475 76.533 145.446H83.371ZM95.3099 154.234C94.1312 154.234 93.0739 154.026 92.1379 153.61C91.2019 153.177 90.4566 152.596 89.9019 151.868C89.3646 151.14 89.0699 150.334 89.0179 149.45H92.6839C92.7532 150.005 93.0219 150.464 93.4899 150.828C93.9752 151.192 94.5732 151.374 95.2839 151.374C95.9772 151.374 96.5146 151.235 96.8959 150.958C97.2946 150.681 97.4939 150.325 97.4939 149.892C97.4939 149.424 97.2512 149.077 96.7659 148.852C96.2979 148.609 95.5439 148.349 94.5039 148.072C93.4292 147.812 92.5452 147.543 91.8519 147.266C91.1759 146.989 90.5866 146.564 90.0839 145.992C89.5986 145.42 89.3559 144.649 89.3559 143.678C89.3559 142.881 89.5812 142.153 90.0319 141.494C90.4999 140.835 91.1586 140.315 92.0079 139.934C92.8746 139.553 93.8886 139.362 95.0499 139.362C96.7659 139.362 98.1352 139.795 99.1579 140.662C100.181 141.511 100.744 142.664 100.848 144.12H97.3639C97.3119 143.548 97.0692 143.097 96.6359 142.768C96.2199 142.421 95.6566 142.248 94.9459 142.248C94.2872 142.248 93.7759 142.369 93.4119 142.612C93.0652 142.855 92.8919 143.193 92.8919 143.626C92.8919 144.111 93.1346 144.484 93.6199 144.744C94.1052 144.987 94.8592 145.238 95.8819 145.498C96.9219 145.758 97.7799 146.027 98.4559 146.304C99.1319 146.581 99.7126 147.015 100.198 147.604C100.701 148.176 100.961 148.939 100.978 149.892C100.978 150.724 100.744 151.469 100.276 152.128C99.8252 152.787 99.1666 153.307 98.2999 153.688C97.4506 154.052 96.4539 154.234 95.3099 154.234ZM108.204 142.586V149.554C108.204 150.039 108.317 150.395 108.542 150.62C108.785 150.828 109.183 150.932 109.738 150.932H111.428V154H109.14C106.072 154 104.538 152.509 104.538 149.528V142.586H102.822V139.596H104.538V136.034H108.204V139.596H111.428V142.586H108.204ZM113.11 146.746C113.11 145.29 113.396 143.999 113.968 142.872C114.557 141.745 115.346 140.879 116.334 140.272C117.339 139.665 118.457 139.362 119.688 139.362C120.763 139.362 121.699 139.579 122.496 140.012C123.311 140.445 123.961 140.991 124.446 141.65V139.596H128.112V154H124.446V151.894C123.978 152.57 123.328 153.133 122.496 153.584C121.681 154.017 120.737 154.234 119.662 154.234C118.449 154.234 117.339 153.922 116.334 153.298C115.346 152.674 114.557 151.799 113.968 150.672C113.396 149.528 113.11 148.219 113.11 146.746ZM124.446 146.798C124.446 145.914 124.273 145.16 123.926 144.536C123.579 143.895 123.111 143.409 122.522 143.08C121.933 142.733 121.3 142.56 120.624 142.56C119.948 142.56 119.324 142.725 118.752 143.054C118.18 143.383 117.712 143.869 117.348 144.51C117.001 145.134 116.828 145.879 116.828 146.746C116.828 147.613 117.001 148.375 117.348 149.034C117.712 149.675 118.18 150.169 118.752 150.516C119.341 150.863 119.965 151.036 120.624 151.036C121.3 151.036 121.933 150.871 122.522 150.542C123.111 150.195 123.579 149.71 123.926 149.086C124.273 148.445 124.446 147.682 124.446 146.798ZM116.438 138.218C116.594 137.074 116.949 136.225 117.504 135.67C118.076 135.098 118.795 134.812 119.662 134.812C120.026 134.812 120.347 134.873 120.624 134.994C120.901 135.098 121.213 135.254 121.56 135.462C122.08 135.791 122.513 135.956 122.86 135.956C123.501 135.956 123.874 135.583 123.978 134.838H125.928C125.772 135.982 125.408 136.84 124.836 137.412C124.281 137.967 123.571 138.244 122.704 138.244C122.34 138.244 122.019 138.192 121.742 138.088C121.465 137.967 121.153 137.802 120.806 137.594C120.303 137.247 119.87 137.074 119.506 137.074C118.865 137.074 118.483 137.455 118.362 138.218H116.438ZM138.063 154.234C136.676 154.234 135.428 153.931 134.319 153.324C133.21 152.7 132.334 151.825 131.693 150.698C131.069 149.571 130.757 148.271 130.757 146.798C130.757 145.325 131.078 144.025 131.719 142.898C132.378 141.771 133.27 140.905 134.397 140.298C135.524 139.674 136.78 139.362 138.167 139.362C139.554 139.362 140.81 139.674 141.937 140.298C143.064 140.905 143.948 141.771 144.589 142.898C145.248 144.025 145.577 145.325 145.577 146.798C145.577 148.271 145.239 149.571 144.563 150.698C143.904 151.825 143.003 152.7 141.859 153.324C140.732 153.931 139.467 154.234 138.063 154.234ZM138.063 151.062C138.722 151.062 139.337 150.906 139.909 150.594C140.498 150.265 140.966 149.779 141.313 149.138C141.66 148.497 141.833 147.717 141.833 146.798C141.833 145.429 141.469 144.38 140.741 143.652C140.03 142.907 139.155 142.534 138.115 142.534C137.075 142.534 136.2 142.907 135.489 143.652C134.796 144.38 134.449 145.429 134.449 146.798C134.449 148.167 134.787 149.225 135.463 149.97C136.156 150.698 137.023 151.062 138.063 151.062ZM153.506 146.798C153.506 145.307 153.81 144.007 154.416 142.898C155.023 141.771 155.864 140.905 156.938 140.298C158.013 139.674 159.244 139.362 160.63 139.362C162.416 139.362 163.889 139.813 165.05 140.714C166.229 141.598 167.018 142.846 167.416 144.458H163.49C163.282 143.834 162.927 143.349 162.424 143.002C161.939 142.638 161.332 142.456 160.604 142.456C159.564 142.456 158.741 142.837 158.134 143.6C157.528 144.345 157.224 145.411 157.224 146.798C157.224 148.167 157.528 149.233 158.134 149.996C158.741 150.741 159.564 151.114 160.604 151.114C162.078 151.114 163.04 150.455 163.49 149.138H167.416C167.018 150.698 166.229 151.937 165.05 152.856C163.872 153.775 162.398 154.234 160.63 154.234C159.244 154.234 158.013 153.931 156.938 153.324C155.864 152.7 155.023 151.833 154.416 150.724C153.81 149.597 153.506 148.289 153.506 146.798ZM183.473 146.486C183.473 147.006 183.438 147.474 183.369 147.89H172.839C172.926 148.93 173.29 149.745 173.931 150.334C174.572 150.923 175.361 151.218 176.297 151.218C177.649 151.218 178.611 150.637 179.183 149.476H183.109C182.693 150.863 181.896 152.007 180.717 152.908C179.538 153.792 178.091 154.234 176.375 154.234C174.988 154.234 173.74 153.931 172.631 153.324C171.539 152.7 170.681 151.825 170.057 150.698C169.45 149.571 169.147 148.271 169.147 146.798C169.147 145.307 169.45 143.999 170.057 142.872C170.664 141.745 171.513 140.879 172.605 140.272C173.697 139.665 174.954 139.362 176.375 139.362C177.744 139.362 178.966 139.657 180.041 140.246C181.133 140.835 181.974 141.676 182.563 142.768C183.17 143.843 183.473 145.082 183.473 146.486ZM179.703 145.446C179.686 144.51 179.348 143.765 178.689 143.21C178.03 142.638 177.224 142.352 176.271 142.352C175.37 142.352 174.607 142.629 173.983 143.184C173.376 143.721 173.004 144.475 172.865 145.446H179.703ZM194.112 139.388C195.828 139.388 197.215 139.934 198.272 141.026C199.329 142.101 199.858 143.609 199.858 145.55V154H196.218V146.044C196.218 144.9 195.932 144.025 195.36 143.418C194.788 142.794 194.008 142.482 193.02 142.482C192.015 142.482 191.217 142.794 190.628 143.418C190.056 144.025 189.77 144.9 189.77 146.044V154H186.13V139.596H189.77V141.39C190.255 140.766 190.871 140.281 191.616 139.934C192.379 139.57 193.211 139.388 194.112 139.388ZM207.557 142.586V149.554C207.557 150.039 207.67 150.395 207.895 150.62C208.138 150.828 208.537 150.932 209.091 150.932H210.781V154H208.493C205.425 154 203.891 152.509 203.891 149.528V142.586H202.175V139.596H203.891V136.034H207.557V139.596H210.781V142.586H207.557ZM217.039 141.832C217.507 141.069 218.114 140.471 218.859 140.038C219.622 139.605 220.489 139.388 221.459 139.388V143.21H220.497C219.353 143.21 218.487 143.479 217.897 144.016C217.325 144.553 217.039 145.489 217.039 146.824V154H213.399V139.596H217.039V141.832ZM222.975 146.746C222.975 145.29 223.261 143.999 223.833 142.872C224.423 141.745 225.211 140.879 226.199 140.272C227.205 139.665 228.323 139.362 229.553 139.362C230.628 139.362 231.564 139.579 232.361 140.012C233.176 140.445 233.826 140.991 234.311 141.65V139.596H237.977V154H234.311V151.894C233.843 152.57 233.193 153.133 232.361 153.584C231.547 154.017 230.602 154.234 229.527 154.234C228.314 154.234 227.205 153.922 226.199 153.298C225.211 152.674 224.423 151.799 223.833 150.672C223.261 149.528 222.975 148.219 222.975 146.746ZM234.311 146.798C234.311 145.914 234.138 145.16 233.791 144.536C233.445 143.895 232.977 143.409 232.387 143.08C231.798 142.733 231.165 142.56 230.489 142.56C229.813 142.56 229.189 142.725 228.617 143.054C228.045 143.383 227.577 143.869 227.213 144.51C226.867 145.134 226.693 145.879 226.693 146.746C226.693 147.613 226.867 148.375 227.213 149.034C227.577 149.675 228.045 150.169 228.617 150.516C229.207 150.863 229.831 151.036 230.489 151.036C231.165 151.036 231.798 150.871 232.387 150.542C232.977 150.195 233.445 149.71 233.791 149.086C234.138 148.445 234.311 147.682 234.311 146.798ZM245.172 134.76V154H241.532V134.76H245.172ZM250.615 137.88C249.973 137.88 249.436 137.681 249.003 137.282C248.587 136.866 248.379 136.355 248.379 135.748C248.379 135.141 248.587 134.639 249.003 134.24C249.436 133.824 249.973 133.616 250.615 133.616C251.256 133.616 251.785 133.824 252.201 134.24C252.634 134.639 252.851 135.141 252.851 135.748C252.851 136.355 252.634 136.866 252.201 137.282C251.785 137.681 251.256 137.88 250.615 137.88ZM252.409 139.596V154H248.769V139.596H252.409ZM259.333 151.01H265.755V154H255.199V151.062L261.491 142.586H255.225V139.596H265.677V142.534L259.333 151.01ZM267.637 146.746C267.637 145.29 267.923 143.999 268.495 142.872C269.085 141.745 269.873 140.879 270.861 140.272C271.867 139.665 272.985 139.362 274.215 139.362C275.29 139.362 276.226 139.579 277.023 140.012C277.838 140.445 278.488 140.991 278.973 141.65V139.596H282.639V154H278.973V151.894C278.505 152.57 277.855 153.133 277.023 153.584C276.209 154.017 275.264 154.234 274.189 154.234C272.976 154.234 271.867 153.922 270.861 153.298C269.873 152.674 269.085 151.799 268.495 150.672C267.923 149.528 267.637 148.219 267.637 146.746ZM278.973 146.798C278.973 145.914 278.8 145.16 278.453 144.536C278.107 143.895 277.639 143.409 277.049 143.08C276.46 142.733 275.827 142.56 275.151 142.56C274.475 142.56 273.851 142.725 273.279 143.054C272.707 143.383 272.239 143.869 271.875 144.51C271.529 145.134 271.355 145.879 271.355 146.746C271.355 147.613 271.529 148.375 271.875 149.034C272.239 149.675 272.707 150.169 273.279 150.516C273.869 150.863 274.493 151.036 275.151 151.036C275.827 151.036 276.46 150.871 277.049 150.542C277.639 150.195 278.107 149.71 278.453 149.086C278.8 148.445 278.973 147.682 278.973 146.798ZM285.258 146.746C285.258 145.29 285.544 143.999 286.116 142.872C286.706 141.745 287.503 140.879 288.508 140.272C289.514 139.665 290.632 139.362 291.862 139.362C292.798 139.362 293.691 139.57 294.54 139.986C295.39 140.385 296.066 140.922 296.568 141.598V134.76H300.26V154H296.568V151.868C296.118 152.579 295.485 153.151 294.67 153.584C293.856 154.017 292.911 154.234 291.836 154.234C290.623 154.234 289.514 153.922 288.508 153.298C287.503 152.674 286.706 151.799 286.116 150.672C285.544 149.528 285.258 148.219 285.258 146.746ZM296.594 146.798C296.594 145.914 296.421 145.16 296.074 144.536C295.728 143.895 295.26 143.409 294.67 143.08C294.081 142.733 293.448 142.56 292.772 142.56C292.096 142.56 291.472 142.725 290.9 143.054C290.328 143.383 289.86 143.869 289.496 144.51C289.15 145.134 288.976 145.879 288.976 146.746C288.976 147.613 289.15 148.375 289.496 149.034C289.86 149.675 290.328 150.169 290.9 150.516C291.49 150.863 292.114 151.036 292.772 151.036C293.448 151.036 294.081 150.871 294.67 150.542C295.26 150.195 295.728 149.71 296.074 149.086C296.421 148.445 296.594 147.682 296.594 146.798ZM302.879 146.746C302.879 145.29 303.165 143.999 303.737 142.872C304.327 141.745 305.115 140.879 306.103 140.272C307.109 139.665 308.227 139.362 309.457 139.362C310.532 139.362 311.468 139.579 312.265 140.012C313.08 140.445 313.73 140.991 314.215 141.65V139.596H317.881V154H314.215V151.894C313.747 152.57 313.097 153.133 312.265 153.584C311.451 154.017 310.506 154.234 309.431 154.234C308.218 154.234 307.109 153.922 306.103 153.298C305.115 152.674 304.327 151.799 303.737 150.672C303.165 149.528 302.879 148.219 302.879 146.746ZM314.215 146.798C314.215 145.914 314.042 145.16 313.695 144.536C313.349 143.895 312.881 143.409 312.291 143.08C311.702 142.733 311.069 142.56 310.393 142.56C309.717 142.56 309.093 142.725 308.521 143.054C307.949 143.383 307.481 143.869 307.117 144.51C306.771 145.134 306.597 145.879 306.597 146.746C306.597 147.613 306.771 148.375 307.117 149.034C307.481 149.675 307.949 150.169 308.521 150.516C309.111 150.863 309.735 151.036 310.393 151.036C311.069 151.036 311.702 150.871 312.291 150.542C312.881 150.195 313.349 149.71 313.695 149.086C314.042 148.445 314.215 147.682 314.215 146.798Z" fill="white"/>
<path d="M64.6549 199.02C64.6549 197.66 64.9616 196.44 65.5749 195.36C66.1883 194.267 67.0216 193.413 68.0749 192.8C69.1416 192.187 70.3216 191.88 71.6149 191.88C73.1349 191.88 74.4616 192.247 75.5949 192.98C76.7283 193.713 77.5549 194.753 78.0749 196.1H75.8949C75.5083 195.26 74.9483 194.613 74.2149 194.16C73.4949 193.707 72.6283 193.48 71.6149 193.48C70.6416 193.48 69.7683 193.707 68.9949 194.16C68.2216 194.613 67.6149 195.26 67.1749 196.1C66.7349 196.927 66.5149 197.9 66.5149 199.02C66.5149 200.127 66.7349 201.1 67.1749 201.94C67.6149 202.767 68.2216 203.407 68.9949 203.86C69.7683 204.313 70.6416 204.54 71.6149 204.54C72.6283 204.54 73.4949 204.32 74.2149 203.88C74.9483 203.427 75.5083 202.78 75.8949 201.94H78.0749C77.5549 203.273 76.7283 204.307 75.5949 205.04C74.4616 205.76 73.1349 206.12 71.6149 206.12C70.3216 206.12 69.1416 205.82 68.0749 205.22C67.0216 204.607 66.1883 203.76 65.5749 202.68C64.9616 201.6 64.6549 200.38 64.6549 199.02ZM85.5641 206.18C84.5375 206.18 83.6041 205.947 82.7641 205.48C81.9375 205.013 81.2841 204.353 80.8041 203.5C80.3375 202.633 80.1041 201.633 80.1041 200.5C80.1041 199.38 80.3441 198.393 80.8241 197.54C81.3175 196.673 81.9841 196.013 82.8241 195.56C83.6641 195.093 84.6041 194.86 85.6441 194.86C86.6841 194.86 87.6241 195.093 88.4641 195.56C89.3041 196.013 89.9641 196.667 90.4441 197.52C90.9375 198.373 91.1841 199.367 91.1841 200.5C91.1841 201.633 90.9308 202.633 90.4241 203.5C89.9308 204.353 89.2575 205.013 88.4041 205.48C87.5508 205.947 86.6041 206.18 85.5641 206.18ZM85.5641 204.58C86.2175 204.58 86.8308 204.427 87.4041 204.12C87.9775 203.813 88.4375 203.353 88.7841 202.74C89.1441 202.127 89.3241 201.38 89.3241 200.5C89.3241 199.62 89.1508 198.873 88.8041 198.26C88.4575 197.647 88.0041 197.193 87.4441 196.9C86.8841 196.593 86.2775 196.44 85.6241 196.44C84.9575 196.44 84.3441 196.593 83.7841 196.9C83.2375 197.193 82.7975 197.647 82.4641 198.26C82.1308 198.873 81.9641 199.62 81.9641 200.5C81.9641 201.393 82.1241 202.147 82.4441 202.76C82.7775 203.373 83.2175 203.833 83.7641 204.14C84.3108 204.433 84.9108 204.58 85.5641 204.58ZM98.9171 194.84C100.25 194.84 101.33 195.247 102.157 196.06C102.984 196.86 103.397 198.02 103.397 199.54V206H101.597V199.8C101.597 198.707 101.324 197.873 100.777 197.3C100.23 196.713 99.4838 196.42 98.5371 196.42C97.5771 196.42 96.8104 196.72 96.2371 197.32C95.6771 197.92 95.3971 198.793 95.3971 199.94V206H93.5771V195.04H95.3971V196.6C95.7571 196.04 96.2438 195.607 96.8571 195.3C97.4838 194.993 98.1704 194.84 98.9171 194.84ZM108.59 196.54V203C108.59 203.533 108.703 203.913 108.93 204.14C109.157 204.353 109.55 204.46 110.11 204.46H111.45V206H109.81C108.797 206 108.037 205.767 107.53 205.3C107.023 204.833 106.77 204.067 106.77 203V196.54H105.35V195.04H106.77V192.28H108.59V195.04H111.45V196.54H108.59ZM115.475 196.82C115.795 196.193 116.249 195.707 116.835 195.36C117.435 195.013 118.162 194.84 119.015 194.84V196.72H118.535C116.495 196.72 115.475 197.827 115.475 200.04V206H113.655V195.04H115.475V196.82ZM125.896 206.18C124.87 206.18 123.936 205.947 123.096 205.48C122.27 205.013 121.616 204.353 121.136 203.5C120.67 202.633 120.436 201.633 120.436 200.5C120.436 199.38 120.676 198.393 121.156 197.54C121.65 196.673 122.316 196.013 123.156 195.56C123.996 195.093 124.936 194.86 125.976 194.86C127.016 194.86 127.956 195.093 128.796 195.56C129.636 196.013 130.296 196.667 130.776 197.52C131.27 198.373 131.516 199.367 131.516 200.5C131.516 201.633 131.263 202.633 130.756 203.5C130.263 204.353 129.59 205.013 128.736 205.48C127.883 205.947 126.936 206.18 125.896 206.18ZM125.896 204.58C126.55 204.58 127.163 204.427 127.736 204.12C128.31 203.813 128.77 203.353 129.116 202.74C129.476 202.127 129.656 201.38 129.656 200.5C129.656 199.62 129.483 198.873 129.136 198.26C128.79 197.647 128.336 197.193 127.776 196.9C127.216 196.593 126.61 196.44 125.956 196.44C125.29 196.44 124.676 196.593 124.116 196.9C123.57 197.193 123.13 197.647 122.796 198.26C122.463 198.873 122.296 199.62 122.296 200.5C122.296 201.393 122.456 202.147 122.776 202.76C123.11 203.373 123.55 203.833 124.096 204.14C124.643 204.433 125.243 204.58 125.896 204.58ZM135.729 191.2V206H133.909V191.2H135.729ZM148.831 200.1C148.831 200.447 148.811 200.813 148.771 201.2H140.011C140.078 202.28 140.444 203.127 141.111 203.74C141.791 204.34 142.611 204.64 143.571 204.64C144.358 204.64 145.011 204.46 145.531 204.1C146.064 203.727 146.438 203.233 146.651 202.62H148.611C148.318 203.673 147.731 204.533 146.851 205.2C145.971 205.853 144.878 206.18 143.571 206.18C142.531 206.18 141.598 205.947 140.771 205.48C139.958 205.013 139.318 204.353 138.851 203.5C138.384 202.633 138.151 201.633 138.151 200.5C138.151 199.367 138.378 198.373 138.831 197.52C139.284 196.667 139.918 196.013 140.731 195.56C141.558 195.093 142.504 194.86 143.571 194.86C144.611 194.86 145.531 195.087 146.331 195.54C147.131 195.993 147.744 196.62 148.171 197.42C148.611 198.207 148.831 199.1 148.831 200.1ZM146.951 199.72C146.951 199.027 146.798 198.433 146.491 197.94C146.184 197.433 145.764 197.053 145.231 196.8C144.711 196.533 144.131 196.4 143.491 196.4C142.571 196.4 141.784 196.693 141.131 197.28C140.491 197.867 140.124 198.68 140.031 199.72H146.951ZM158.785 196.54V203C158.785 203.533 158.899 203.913 159.125 204.14C159.352 204.353 159.745 204.46 160.305 204.46H161.645V206H160.005C158.992 206 158.232 205.767 157.725 205.3C157.219 204.833 156.965 204.067 156.965 203V196.54H155.545V195.04H156.965V192.28H158.785V195.04H161.645V196.54H158.785ZM168.631 206.18C167.604 206.18 166.671 205.947 165.831 205.48C165.004 205.013 164.351 204.353 163.871 203.5C163.404 202.633 163.171 201.633 163.171 200.5C163.171 199.38 163.411 198.393 163.891 197.54C164.384 196.673 165.051 196.013 165.891 195.56C166.731 195.093 167.671 194.86 168.711 194.86C169.751 194.86 170.691 195.093 171.531 195.56C172.371 196.013 173.031 196.667 173.511 197.52C174.004 198.373 174.251 199.367 174.251 200.5C174.251 201.633 173.997 202.633 173.491 203.5C172.997 204.353 172.324 205.013 171.471 205.48C170.617 205.947 169.671 206.18 168.631 206.18ZM168.631 204.58C169.284 204.58 169.897 204.427 170.471 204.12C171.044 203.813 171.504 203.353 171.851 202.74C172.211 202.127 172.391 201.38 172.391 200.5C172.391 199.62 172.217 198.873 171.871 198.26C171.524 197.647 171.071 197.193 170.511 196.9C169.951 196.593 169.344 196.44 168.691 196.44C168.024 196.44 167.411 196.593 166.851 196.9C166.304 197.193 165.864 197.647 165.531 198.26C165.197 198.873 165.031 199.62 165.031 200.5C165.031 201.393 165.191 202.147 165.511 202.76C165.844 203.373 166.284 203.833 166.831 204.14C167.377 204.433 167.977 204.58 168.631 204.58ZM178.864 196.54V203C178.864 203.533 178.977 203.913 179.204 204.14C179.43 204.353 179.824 204.46 180.384 204.46H181.724V206H180.084C179.07 206 178.31 205.767 177.804 205.3C177.297 204.833 177.044 204.067 177.044 203V196.54H175.624V195.04H177.044V192.28H178.864V195.04H181.724V196.54H178.864ZM183.249 200.48C183.249 199.36 183.475 198.38 183.929 197.54C184.382 196.687 185.002 196.027 185.789 195.56C186.589 195.093 187.475 194.86 188.449 194.86C189.409 194.86 190.242 195.067 190.949 195.48C191.655 195.893 192.182 196.413 192.529 197.04V195.04H194.369V206H192.529V203.96C192.169 204.6 191.629 205.133 190.909 205.56C190.202 205.973 189.375 206.18 188.429 206.18C187.455 206.18 186.575 205.94 185.789 205.46C185.002 204.98 184.382 204.307 183.929 203.44C183.475 202.573 183.249 201.587 183.249 200.48ZM192.529 200.5C192.529 199.673 192.362 198.953 192.029 198.34C191.695 197.727 191.242 197.26 190.669 196.94C190.109 196.607 189.489 196.44 188.809 196.44C188.129 196.44 187.509 196.6 186.949 196.92C186.389 197.24 185.942 197.707 185.609 198.32C185.275 198.933 185.109 199.653 185.109 200.48C185.109 201.32 185.275 202.053 185.609 202.68C185.942 203.293 186.389 203.767 186.949 204.1C187.509 204.42 188.129 204.58 188.809 204.58C189.489 204.58 190.109 204.42 190.669 204.1C191.242 203.767 191.695 203.293 192.029 202.68C192.362 202.053 192.529 201.327 192.529 200.5ZM199.264 191.2V206H197.444V191.2H199.264ZM211.578 206.18C210.738 206.18 209.985 206.04 209.318 205.76C208.652 205.467 208.125 205.067 207.738 204.56C207.352 204.04 207.138 203.447 207.098 202.78H208.978C209.032 203.327 209.285 203.773 209.738 204.12C210.205 204.467 210.812 204.64 211.558 204.64C212.252 204.64 212.798 204.487 213.198 204.18C213.598 203.873 213.798 203.487 213.798 203.02C213.798 202.54 213.585 202.187 213.158 201.96C212.732 201.72 212.072 201.487 211.178 201.26C210.365 201.047 209.698 200.833 209.178 200.62C208.672 200.393 208.232 200.067 207.858 199.64C207.498 199.2 207.318 198.627 207.318 197.92C207.318 197.36 207.485 196.847 207.818 196.38C208.152 195.913 208.625 195.547 209.238 195.28C209.852 195 210.552 194.86 211.338 194.86C212.552 194.86 213.532 195.167 214.278 195.78C215.025 196.393 215.425 197.233 215.478 198.3H213.658C213.618 197.727 213.385 197.267 212.958 196.92C212.545 196.573 211.985 196.4 211.278 196.4C210.625 196.4 210.105 196.54 209.718 196.82C209.332 197.1 209.138 197.467 209.138 197.92C209.138 198.28 209.252 198.58 209.478 198.82C209.718 199.047 210.012 199.233 210.358 199.38C210.718 199.513 211.212 199.667 211.838 199.84C212.625 200.053 213.265 200.267 213.758 200.48C214.252 200.68 214.672 200.987 215.018 201.4C215.378 201.813 215.565 202.353 215.578 203.02C215.578 203.62 215.412 204.16 215.078 204.64C214.745 205.12 214.272 205.5 213.658 205.78C213.058 206.047 212.365 206.18 211.578 206.18ZM222.927 206.18C221.901 206.18 220.967 205.947 220.127 205.48C219.301 205.013 218.647 204.353 218.167 203.5C217.701 202.633 217.467 201.633 217.467 200.5C217.467 199.38 217.707 198.393 218.187 197.54C218.681 196.673 219.347 196.013 220.187 195.56C221.027 195.093 221.967 194.86 223.007 194.86C224.047 194.86 224.987 195.093 225.827 195.56C226.667 196.013 227.327 196.667 227.807 197.52C228.301 198.373 228.547 199.367 228.547 200.5C228.547 201.633 228.294 202.633 227.787 203.5C227.294 204.353 226.621 205.013 225.767 205.48C224.914 205.947 223.967 206.18 222.927 206.18ZM222.927 204.58C223.581 204.58 224.194 204.427 224.767 204.12C225.341 203.813 225.801 203.353 226.147 202.74C226.507 202.127 226.687 201.38 226.687 200.5C226.687 199.62 226.514 198.873 226.167 198.26C225.821 197.647 225.367 197.193 224.807 196.9C224.247 196.593 223.641 196.44 222.987 196.44C222.321 196.44 221.707 196.593 221.147 196.9C220.601 197.193 220.161 197.647 219.827 198.26C219.494 198.873 219.327 199.62 219.327 200.5C219.327 201.393 219.487 202.147 219.807 202.76C220.141 203.373 220.581 203.833 221.127 204.14C221.674 204.433 222.274 204.58 222.927 204.58ZM232.76 197.08C233.134 196.427 233.68 195.893 234.4 195.48C235.12 195.067 235.94 194.86 236.86 194.86C237.847 194.86 238.734 195.093 239.52 195.56C240.307 196.027 240.927 196.687 241.38 197.54C241.834 198.38 242.06 199.36 242.06 200.48C242.06 201.587 241.834 202.573 241.38 203.44C240.927 204.307 240.3 204.98 239.5 205.46C238.714 205.94 237.834 206.18 236.86 206.18C235.914 206.18 235.08 205.973 234.36 205.56C233.654 205.147 233.12 204.62 232.76 203.98V206H230.94V191.2H232.76V197.08ZM240.2 200.48C240.2 199.653 240.034 198.933 239.7 198.32C239.367 197.707 238.914 197.24 238.34 196.92C237.78 196.6 237.16 196.44 236.48 196.44C235.814 196.44 235.194 196.607 234.62 196.94C234.06 197.26 233.607 197.733 233.26 198.36C232.927 198.973 232.76 199.687 232.76 200.5C232.76 201.327 232.927 202.053 233.26 202.68C233.607 203.293 234.06 203.767 234.62 204.1C235.194 204.42 235.814 204.58 236.48 204.58C237.16 204.58 237.78 204.42 238.34 204.1C238.914 203.767 239.367 203.293 239.7 202.68C240.034 202.053 240.2 201.32 240.2 200.48ZM246.276 196.82C246.596 196.193 247.049 195.707 247.636 195.36C248.236 195.013 248.963 194.84 249.816 194.84V196.72H249.336C247.296 196.72 246.276 197.827 246.276 200.04V206H244.456V195.04H246.276V196.82ZM261.917 200.1C261.917 200.447 261.897 200.813 261.857 201.2H253.097C253.164 202.28 253.53 203.127 254.197 203.74C254.877 204.34 255.697 204.64 256.657 204.64C257.444 204.64 258.097 204.46 258.617 204.1C259.15 203.727 259.524 203.233 259.737 202.62H261.697C261.404 203.673 260.817 204.533 259.937 205.2C259.057 205.853 257.964 206.18 256.657 206.18C255.617 206.18 254.684 205.947 253.857 205.48C253.044 205.013 252.404 204.353 251.937 203.5C251.47 202.633 251.237 201.633 251.237 200.5C251.237 199.367 251.464 198.373 251.917 197.52C252.37 196.667 253.004 196.013 253.817 195.56C254.644 195.093 255.59 194.86 256.657 194.86C257.697 194.86 258.617 195.087 259.417 195.54C260.217 195.993 260.83 196.62 261.257 197.42C261.697 198.207 261.917 199.1 261.917 200.1ZM260.037 199.72C260.037 199.027 259.884 198.433 259.577 197.94C259.27 197.433 258.85 197.053 258.317 196.8C257.797 196.533 257.217 196.4 256.577 196.4C255.657 196.4 254.87 196.693 254.217 197.28C253.577 197.867 253.21 198.68 253.117 199.72H260.037ZM273.531 206.18C272.691 206.18 271.938 206.04 271.271 205.76C270.605 205.467 270.078 205.067 269.691 204.56C269.305 204.04 269.091 203.447 269.051 202.78H270.931C270.985 203.327 271.238 203.773 271.691 204.12C272.158 204.467 272.765 204.64 273.511 204.64C274.205 204.64 274.751 204.487 275.151 204.18C275.551 203.873 275.751 203.487 275.751 203.02C275.751 202.54 275.538 202.187 275.111 201.96C274.685 201.72 274.025 201.487 273.131 201.26C272.318 201.047 271.651 200.833 271.131 200.62C270.625 200.393 270.185 200.067 269.811 199.64C269.451 199.2 269.271 198.627 269.271 197.92C269.271 197.36 269.438 196.847 269.771 196.38C270.105 195.913 270.578 195.547 271.191 195.28C271.805 195 272.505 194.86 273.291 194.86C274.505 194.86 275.485 195.167 276.231 195.78C276.978 196.393 277.378 197.233 277.431 198.3H275.611C275.571 197.727 275.338 197.267 274.911 196.92C274.498 196.573 273.938 196.4 273.231 196.4C272.578 196.4 272.058 196.54 271.671 196.82C271.285 197.1 271.091 197.467 271.091 197.92C271.091 198.28 271.205 198.58 271.431 198.82C271.671 199.047 271.965 199.233 272.311 199.38C272.671 199.513 273.165 199.667 273.791 199.84C274.578 200.053 275.218 200.267 275.711 200.48C276.205 200.68 276.625 200.987 276.971 201.4C277.331 201.813 277.518 202.353 277.531 203.02C277.531 203.62 277.365 204.16 277.031 204.64C276.698 205.12 276.225 205.5 275.611 205.78C275.011 206.047 274.318 206.18 273.531 206.18ZM290.101 200.1C290.101 200.447 290.081 200.813 290.041 201.2H281.281C281.347 202.28 281.714 203.127 282.381 203.74C283.061 204.34 283.881 204.64 284.841 204.64C285.627 204.64 286.281 204.46 286.801 204.1C287.334 203.727 287.707 203.233 287.921 202.62H289.881C289.587 203.673 289.001 204.533 288.121 205.2C287.241 205.853 286.147 206.18 284.841 206.18C283.801 206.18 282.867 205.947 282.041 205.48C281.227 205.013 280.587 204.353 280.121 203.5C279.654 202.633 279.421 201.633 279.421 200.5C279.421 199.367 279.647 198.373 280.101 197.52C280.554 196.667 281.187 196.013 282.001 195.56C282.827 195.093 283.774 194.86 284.841 194.86C285.881 194.86 286.801 195.087 287.601 195.54C288.401 195.993 289.014 196.62 289.441 197.42C289.881 198.207 290.101 199.1 290.101 200.1ZM288.221 199.72C288.221 199.027 288.067 198.433 287.761 197.94C287.454 197.433 287.034 197.053 286.501 196.8C285.981 196.533 285.401 196.4 284.761 196.4C283.841 196.4 283.054 196.693 282.401 197.28C281.761 197.867 281.394 198.68 281.301 199.72H288.221ZM302.223 195.04V206H300.403V204.38C300.056 204.94 299.57 205.38 298.943 205.7C298.33 206.007 297.65 206.16 296.903 206.16C296.05 206.16 295.283 205.987 294.603 205.64C293.923 205.28 293.383 204.747 292.983 204.04C292.596 203.333 292.403 202.473 292.403 201.46V195.04H294.203V201.22C294.203 202.3 294.476 203.133 295.023 203.72C295.57 204.293 296.316 204.58 297.263 204.58C298.236 204.58 299.003 204.28 299.563 203.68C300.123 203.08 300.403 202.207 300.403 201.06V195.04H302.223ZM309.176 206.18C308.336 206.18 307.583 206.04 306.916 205.76C306.249 205.467 305.723 205.067 305.336 204.56C304.949 204.04 304.736 203.447 304.696 202.78H306.576C306.629 203.327 306.883 203.773 307.336 204.12C307.803 204.467 308.409 204.64 309.156 204.64C309.849 204.64 310.396 204.487 310.796 204.18C311.196 203.873 311.396 203.487 311.396 203.02C311.396 202.54 311.183 202.187 310.756 201.96C310.329 201.72 309.669 201.487 308.776 201.26C307.963 201.047 307.296 200.833 306.776 200.62C306.269 200.393 305.829 200.067 305.456 199.64C305.096 199.2 304.916 198.627 304.916 197.92C304.916 197.36 305.083 196.847 305.416 196.38C305.749 195.913 306.223 195.547 306.836 195.28C307.449 195 308.149 194.86 308.936 194.86C310.149 194.86 311.129 195.167 311.876 195.78C312.623 196.393 313.023 197.233 313.076 198.3H311.256C311.216 197.727 310.983 197.267 310.556 196.92C310.143 196.573 309.583 196.4 308.876 196.4C308.223 196.4 307.703 196.54 307.316 196.82C306.929 197.1 306.736 197.467 306.736 197.92C306.736 198.28 306.849 198.58 307.076 198.82C307.316 199.047 307.609 199.233 307.956 199.38C308.316 199.513 308.809 199.667 309.436 199.84C310.223 200.053 310.863 200.267 311.356 200.48C311.849 200.68 312.269 200.987 312.616 201.4C312.976 201.813 313.163 202.353 313.176 203.02C313.176 203.62 313.009 204.16 312.676 204.64C312.343 205.12 311.869 205.5 311.256 205.78C310.656 206.047 309.963 206.18 309.176 206.18ZM70.3092 230.48C70.3092 229.36 70.5359 228.38 70.9892 227.54C71.4426 226.687 72.0626 226.027 72.8492 225.56C73.6492 225.093 74.5426 224.86 75.5292 224.86C76.3826 224.86 77.1759 225.06 77.9092 225.46C78.6426 225.847 79.2026 226.36 79.5892 227V221.2H81.4292V236H79.5892V233.94C79.2292 234.593 78.6959 235.133 77.9892 235.56C77.2826 235.973 76.4559 236.18 75.5092 236.18C74.5359 236.18 73.6492 235.94 72.8492 235.46C72.0626 234.98 71.4426 234.307 70.9892 233.44C70.5359 232.573 70.3092 231.587 70.3092 230.48ZM79.5892 230.5C79.5892 229.673 79.4226 228.953 79.0892 228.34C78.7559 227.727 78.3026 227.26 77.7292 226.94C77.1692 226.607 76.5492 226.44 75.8692 226.44C75.1892 226.44 74.5692 226.6 74.0092 226.92C73.4492 227.24 73.0026 227.707 72.6692 228.32C72.3359 228.933 72.1692 229.653 72.1692 230.48C72.1692 231.32 72.3359 232.053 72.6692 232.68C73.0026 233.293 73.4492 233.767 74.0092 234.1C74.5692 234.42 75.1892 234.58 75.8692 234.58C76.5492 234.58 77.1692 234.42 77.7292 234.1C78.3026 233.767 78.7559 233.293 79.0892 232.68C79.4226 232.053 79.5892 231.327 79.5892 230.5ZM85.4448 223.26C85.0982 223.26 84.8048 223.14 84.5648 222.9C84.3248 222.66 84.2048 222.367 84.2048 222.02C84.2048 221.673 84.3248 221.38 84.5648 221.14C84.8048 220.9 85.0982 220.78 85.4448 220.78C85.7782 220.78 86.0582 220.9 86.2848 221.14C86.5248 221.38 86.6448 221.673 86.6448 222.02C86.6448 222.367 86.5248 222.66 86.2848 222.9C86.0582 223.14 85.7782 223.26 85.4448 223.26ZM86.3248 225.04V236H84.5048V225.04H86.3248ZM93.3067 236.18C92.4667 236.18 91.7134 236.04 91.0467 235.76C90.3801 235.467 89.8534 235.067 89.4667 234.56C89.0801 234.04 88.8667 233.447 88.8267 232.78H90.7067C90.7601 233.327 91.0134 233.773 91.4667 234.12C91.9334 234.467 92.5401 234.64 93.2867 234.64C93.9801 234.64 94.5267 234.487 94.9267 234.18C95.3267 233.873 95.5267 233.487 95.5267 233.02C95.5267 232.54 95.3134 232.187 94.8867 231.96C94.4601 231.72 93.8001 231.487 92.9067 231.26C92.0934 231.047 91.4267 230.833 90.9067 230.62C90.4001 230.393 89.9601 230.067 89.5867 229.64C89.2267 229.2 89.0467 228.627 89.0467 227.92C89.0467 227.36 89.2134 226.847 89.5467 226.38C89.8801 225.913 90.3534 225.547 90.9667 225.28C91.5801 225 92.2801 224.86 93.0667 224.86C94.2801 224.86 95.2601 225.167 96.0067 225.78C96.7534 226.393 97.1534 227.233 97.2067 228.3H95.3867C95.3467 227.727 95.1134 227.267 94.6867 226.92C94.2734 226.573 93.7134 226.4 93.0067 226.4C92.3534 226.4 91.8334 226.54 91.4467 226.82C91.0601 227.1 90.8667 227.467 90.8667 227.92C90.8667 228.28 90.9801 228.58 91.2067 228.82C91.4467 229.047 91.7401 229.233 92.0867 229.38C92.4467 229.513 92.9401 229.667 93.5667 229.84C94.3534 230.053 94.9934 230.267 95.4867 230.48C95.9801 230.68 96.4001 230.987 96.7467 231.4C97.1067 231.813 97.2934 232.353 97.3067 233.02C97.3067 233.62 97.1401 234.16 96.8067 234.64C96.4734 235.12 96.0001 235.5 95.3867 235.78C94.7867 236.047 94.0934 236.18 93.3067 236.18ZM101.696 227.06C102.056 226.433 102.589 225.913 103.296 225.5C104.016 225.073 104.849 224.86 105.796 224.86C106.769 224.86 107.649 225.093 108.436 225.56C109.236 226.027 109.863 226.687 110.316 227.54C110.769 228.38 110.996 229.36 110.996 230.48C110.996 231.587 110.769 232.573 110.316 233.44C109.863 234.307 109.236 234.98 108.436 235.46C107.649 235.94 106.769 236.18 105.796 236.18C104.863 236.18 104.036 235.973 103.316 235.56C102.609 235.133 102.069 234.607 101.696 233.98V241.2H99.8759V225.04H101.696V227.06ZM109.136 230.48C109.136 229.653 108.969 228.933 108.636 228.32C108.303 227.707 107.849 227.24 107.276 226.92C106.716 226.6 106.096 226.44 105.416 226.44C104.749 226.44 104.129 226.607 103.556 226.94C102.996 227.26 102.543 227.733 102.196 228.36C101.863 228.973 101.696 229.687 101.696 230.5C101.696 231.327 101.863 232.053 102.196 232.68C102.543 233.293 102.996 233.767 103.556 234.1C104.129 234.42 104.749 234.58 105.416 234.58C106.096 234.58 106.716 234.42 107.276 234.1C107.849 233.767 108.303 233.293 108.636 232.68C108.969 232.053 109.136 231.32 109.136 230.48ZM118.172 236.18C117.145 236.18 116.212 235.947 115.372 235.48C114.545 235.013 113.892 234.353 113.412 233.5C112.945 232.633 112.712 231.633 112.712 230.5C112.712 229.38 112.952 228.393 113.432 227.54C113.925 226.673 114.592 226.013 115.432 225.56C116.272 225.093 117.212 224.86 118.252 224.86C119.292 224.86 120.232 225.093 121.072 225.56C121.912 226.013 122.572 226.667 123.052 227.52C123.545 228.373 123.792 229.367 123.792 230.5C123.792 231.633 123.538 232.633 123.032 233.5C122.538 234.353 121.865 235.013 121.012 235.48C120.158 235.947 119.212 236.18 118.172 236.18ZM118.172 234.58C118.825 234.58 119.438 234.427 120.012 234.12C120.585 233.813 121.045 233.353 121.392 232.74C121.752 232.127 121.932 231.38 121.932 230.5C121.932 229.62 121.758 228.873 121.412 228.26C121.065 227.647 120.612 227.193 120.052 226.9C119.492 226.593 118.885 226.44 118.232 226.44C117.565 226.44 116.952 226.593 116.392 226.9C115.845 227.193 115.405 227.647 115.072 228.26C114.738 228.873 114.572 229.62 114.572 230.5C114.572 231.393 114.732 232.147 115.052 232.76C115.385 233.373 115.825 233.833 116.372 234.14C116.918 234.433 117.518 234.58 118.172 234.58ZM130.065 236.18C129.225 236.18 128.471 236.04 127.805 235.76C127.138 235.467 126.611 235.067 126.225 234.56C125.838 234.04 125.625 233.447 125.585 232.78H127.465C127.518 233.327 127.771 233.773 128.225 234.12C128.691 234.467 129.298 234.64 130.045 234.64C130.738 234.64 131.285 234.487 131.685 234.18C132.085 233.873 132.285 233.487 132.285 233.02C132.285 232.54 132.071 232.187 131.645 231.96C131.218 231.72 130.558 231.487 129.665 231.26C128.851 231.047 128.185 230.833 127.665 230.62C127.158 230.393 126.718 230.067 126.345 229.64C125.985 229.2 125.805 228.627 125.805 227.92C125.805 227.36 125.971 226.847 126.305 226.38C126.638 225.913 127.111 225.547 127.725 225.28C128.338 225 129.038 224.86 129.825 224.86C131.038 224.86 132.018 225.167 132.765 225.78C133.511 226.393 133.911 227.233 133.965 228.3H132.145C132.105 227.727 131.871 227.267 131.445 226.92C131.031 226.573 130.471 226.4 129.765 226.4C129.111 226.4 128.591 226.54 128.205 226.82C127.818 227.1 127.625 227.467 127.625 227.92C127.625 228.28 127.738 228.58 127.965 228.82C128.205 229.047 128.498 229.233 128.845 229.38C129.205 229.513 129.698 229.667 130.325 229.84C131.111 230.053 131.751 230.267 132.245 230.48C132.738 230.68 133.158 230.987 133.505 231.4C133.865 231.813 134.051 232.353 134.065 233.02C134.065 233.62 133.898 234.16 133.565 234.64C133.231 235.12 132.758 235.5 132.145 235.78C131.545 236.047 130.851 236.18 130.065 236.18ZM137.574 223.26C137.227 223.26 136.934 223.14 136.694 222.9C136.454 222.66 136.334 222.367 136.334 222.02C136.334 221.673 136.454 221.38 136.694 221.14C136.934 220.9 137.227 220.78 137.574 220.78C137.907 220.78 138.187 220.9 138.414 221.14C138.654 221.38 138.774 221.673 138.774 222.02C138.774 222.367 138.654 222.66 138.414 222.9C138.187 223.14 137.907 223.26 137.574 223.26ZM138.454 225.04V236H136.634V225.04H138.454ZM143.776 226.54V233C143.776 233.533 143.889 233.913 144.116 234.14C144.342 234.353 144.736 234.46 145.296 234.46H146.636V236H144.996C143.982 236 143.222 235.767 142.716 235.3C142.209 234.833 141.956 234.067 141.956 233V226.54H140.536V225.04H141.956V222.28H143.776V225.04H146.636V226.54H143.776ZM149.781 223.26C149.434 223.26 149.141 223.14 148.901 222.9C148.661 222.66 148.541 222.367 148.541 222.02C148.541 221.673 148.661 221.38 148.901 221.14C149.141 220.9 149.434 220.78 149.781 220.78C150.114 220.78 150.394 220.9 150.621 221.14C150.861 221.38 150.981 221.673 150.981 222.02C150.981 222.367 150.861 222.66 150.621 222.9C150.394 223.14 150.114 223.26 149.781 223.26ZM150.661 225.04V236H148.841V225.04H150.661ZM157.843 234.32L161.243 225.04H163.183L158.883 236H156.763L152.463 225.04H154.423L157.843 234.32ZM169.754 236.18C168.727 236.18 167.794 235.947 166.954 235.48C166.127 235.013 165.474 234.353 164.994 233.5C164.527 232.633 164.294 231.633 164.294 230.5C164.294 229.38 164.534 228.393 165.014 227.54C165.507 226.673 166.174 226.013 167.014 225.56C167.854 225.093 168.794 224.86 169.834 224.86C170.874 224.86 171.814 225.093 172.654 225.56C173.494 226.013 174.154 226.667 174.634 227.52C175.127 228.373 175.374 229.367 175.374 230.5C175.374 231.633 175.12 232.633 174.614 233.5C174.12 234.353 173.447 235.013 172.594 235.48C171.74 235.947 170.794 236.18 169.754 236.18ZM169.754 234.58C170.407 234.58 171.02 234.427 171.594 234.12C172.167 233.813 172.627 233.353 172.974 232.74C173.334 232.127 173.514 231.38 173.514 230.5C173.514 229.62 173.34 228.873 172.994 228.26C172.647 227.647 172.194 227.193 171.634 226.9C171.074 226.593 170.467 226.44 169.814 226.44C169.147 226.44 168.534 226.593 167.974 226.9C167.427 227.193 166.987 227.647 166.654 228.26C166.32 228.873 166.154 229.62 166.154 230.5C166.154 231.393 166.314 232.147 166.634 232.76C166.967 233.373 167.407 233.833 167.954 234.14C168.5 234.433 169.1 234.58 169.754 234.58ZM181.647 236.18C180.807 236.18 180.053 236.04 179.387 235.76C178.72 235.467 178.193 235.067 177.807 234.56C177.42 234.04 177.207 233.447 177.167 232.78H179.047C179.1 233.327 179.353 233.773 179.807 234.12C180.273 234.467 180.88 234.64 181.627 234.64C182.32 234.64 182.867 234.487 183.267 234.18C183.667 233.873 183.867 233.487 183.867 233.02C183.867 232.54 183.653 232.187 183.227 231.96C182.8 231.72 182.14 231.487 181.247 231.26C180.433 231.047 179.767 230.833 179.247 230.62C178.74 230.393 178.3 230.067 177.927 229.64C177.567 229.2 177.387 228.627 177.387 227.92C177.387 227.36 177.553 226.847 177.887 226.38C178.22 225.913 178.693 225.547 179.307 225.28C179.92 225 180.62 224.86 181.407 224.86C182.62 224.86 183.6 225.167 184.347 225.78C185.093 226.393 185.493 227.233 185.547 228.3H183.727C183.687 227.727 183.453 227.267 183.027 226.92C182.613 226.573 182.053 226.4 181.347 226.4C180.693 226.4 180.173 226.54 179.787 226.82C179.4 227.1 179.207 227.467 179.207 227.92C179.207 228.28 179.32 228.58 179.547 228.82C179.787 229.047 180.08 229.233 180.427 229.38C180.787 229.513 181.28 229.667 181.907 229.84C182.693 230.053 183.333 230.267 183.827 230.48C184.32 230.68 184.74 230.987 185.087 231.4C185.447 231.813 185.633 232.353 185.647 233.02C185.647 233.62 185.48 234.16 185.147 234.64C184.813 235.12 184.34 235.5 183.727 235.78C183.127 236.047 182.433 236.18 181.647 236.18ZM192.868 230.48C192.868 229.36 193.094 228.38 193.548 227.54C194.001 226.687 194.621 226.027 195.408 225.56C196.208 225.093 197.101 224.86 198.088 224.86C198.941 224.86 199.734 225.06 200.468 225.46C201.201 225.847 201.761 226.36 202.148 227V221.2H203.988V236H202.148V233.94C201.788 234.593 201.254 235.133 200.548 235.56C199.841 235.973 199.014 236.18 198.068 236.18C197.094 236.18 196.208 235.94 195.408 235.46C194.621 234.98 194.001 234.307 193.548 233.44C193.094 232.573 192.868 231.587 192.868 230.48ZM202.148 230.5C202.148 229.673 201.981 228.953 201.648 228.34C201.314 227.727 200.861 227.26 200.288 226.94C199.728 226.607 199.108 226.44 198.428 226.44C197.748 226.44 197.128 226.6 196.568 226.92C196.008 227.24 195.561 227.707 195.228 228.32C194.894 228.933 194.728 229.653 194.728 230.48C194.728 231.32 194.894 232.053 195.228 232.68C195.561 233.293 196.008 233.767 196.568 234.1C197.128 234.42 197.748 234.58 198.428 234.58C199.108 234.58 199.728 234.42 200.288 234.1C200.861 233.767 201.314 233.293 201.648 232.68C201.981 232.053 202.148 231.327 202.148 230.5ZM208.003 223.26C207.657 223.26 207.363 223.14 207.123 222.9C206.883 222.66 206.763 222.367 206.763 222.02C206.763 221.673 206.883 221.38 207.123 221.14C207.363 220.9 207.657 220.78 208.003 220.78C208.337 220.78 208.617 220.9 208.843 221.14C209.083 221.38 209.203 221.673 209.203 222.02C209.203 222.367 209.083 222.66 208.843 222.9C208.617 223.14 208.337 223.26 208.003 223.26ZM208.883 225.04V236H207.063V225.04H208.883ZM215.865 236.18C215.025 236.18 214.272 236.04 213.605 235.76C212.939 235.467 212.412 235.067 212.025 234.56C211.639 234.04 211.425 233.447 211.385 232.78H213.265C213.319 233.327 213.572 233.773 214.025 234.12C214.492 234.467 215.099 234.64 215.845 234.64C216.539 234.64 217.085 234.487 217.485 234.18C217.885 233.873 218.085 233.487 218.085 233.02C218.085 232.54 217.872 232.187 217.445 231.96C217.019 231.72 216.359 231.487 215.465 231.26C214.652 231.047 213.985 230.833 213.465 230.62C212.959 230.393 212.519 230.067 212.145 229.64C211.785 229.2 211.605 228.627 211.605 227.92C211.605 227.36 211.772 226.847 212.105 226.38C212.439 225.913 212.912 225.547 213.525 225.28C214.139 225 214.839 224.86 215.625 224.86C216.839 224.86 217.819 225.167 218.565 225.78C219.312 226.393 219.712 227.233 219.765 228.3H217.945C217.905 227.727 217.672 227.267 217.245 226.92C216.832 226.573 216.272 226.4 215.565 226.4C214.912 226.4 214.392 226.54 214.005 226.82C213.619 227.1 213.425 227.467 213.425 227.92C213.425 228.28 213.539 228.58 213.765 228.82C214.005 229.047 214.299 229.233 214.645 229.38C215.005 229.513 215.499 229.667 216.125 229.84C216.912 230.053 217.552 230.267 218.045 230.48C218.539 230.68 218.959 230.987 219.305 231.4C219.665 231.813 219.852 232.353 219.865 233.02C219.865 233.62 219.699 234.16 219.365 234.64C219.032 235.12 218.559 235.5 217.945 235.78C217.345 236.047 216.652 236.18 215.865 236.18ZM224.655 226.54V233C224.655 233.533 224.768 233.913 224.995 234.14C225.221 234.353 225.615 234.46 226.175 234.46H227.515V236H225.875C224.861 236 224.101 235.767 223.595 235.3C223.088 234.833 222.835 234.067 222.835 233V226.54H221.415V225.04H222.835V222.28H224.655V225.04H227.515V226.54H224.655ZM231.54 226.82C231.86 226.193 232.313 225.707 232.9 225.36C233.5 225.013 234.226 224.84 235.08 224.84V226.72H234.6C232.56 226.72 231.54 227.827 231.54 230.04V236H229.72V225.04H231.54V226.82ZM238.121 223.26C237.774 223.26 237.481 223.14 237.241 222.9C237.001 222.66 236.881 222.367 236.881 222.02C236.881 221.673 237.001 221.38 237.241 221.14C237.481 220.9 237.774 220.78 238.121 220.78C238.454 220.78 238.734 220.9 238.961 221.14C239.201 221.38 239.321 221.673 239.321 222.02C239.321 222.367 239.201 222.66 238.961 222.9C238.734 223.14 238.454 223.26 238.121 223.26ZM239.001 225.04V236H237.181V225.04H239.001ZM243.923 227.08C244.296 226.427 244.843 225.893 245.562 225.48C246.283 225.067 247.103 224.86 248.023 224.86C249.009 224.86 249.896 225.093 250.683 225.56C251.469 226.027 252.089 226.687 252.543 227.54C252.996 228.38 253.223 229.36 253.223 230.48C253.223 231.587 252.996 232.573 252.543 233.44C252.089 234.307 251.462 234.98 250.662 235.46C249.876 235.94 248.996 236.18 248.023 236.18C247.076 236.18 246.243 235.973 245.523 235.56C244.816 235.147 244.283 234.62 243.923 233.98V236H242.103V221.2H243.923V227.08ZM251.363 230.48C251.363 229.653 251.196 228.933 250.863 228.32C250.529 227.707 250.076 227.24 249.503 226.92C248.943 226.6 248.323 226.44 247.643 226.44C246.976 226.44 246.356 226.607 245.783 226.94C245.223 227.26 244.769 227.733 244.423 228.36C244.089 228.973 243.923 229.687 243.923 230.5C243.923 231.327 244.089 232.053 244.423 232.68C244.769 233.293 245.223 233.767 245.783 234.1C246.356 234.42 246.976 234.58 247.643 234.58C248.323 234.58 248.943 234.42 249.503 234.1C250.076 233.767 250.529 233.293 250.863 232.68C251.196 232.053 251.363 231.32 251.363 230.48ZM265.338 225.04V236H263.518V234.38C263.171 234.94 262.685 235.38 262.058 235.7C261.445 236.007 260.765 236.16 260.018 236.16C259.165 236.16 258.398 235.987 257.718 235.64C257.038 235.28 256.498 234.747 256.098 234.04C255.711 233.333 255.518 232.473 255.518 231.46V225.04H257.318V231.22C257.318 232.3 257.591 233.133 258.138 233.72C258.685 234.293 259.431 234.58 260.378 234.58C261.351 234.58 262.118 234.28 262.678 233.68C263.238 233.08 263.518 232.207 263.518 231.06V225.04H265.338ZM270.231 225.04V236H268.411V225.04H270.231ZM271.271 221.94L267.011 224.22V222.86L271.271 220.36V221.94ZM272.653 230.48C272.653 229.36 272.88 228.38 273.333 227.54C273.786 226.687 274.406 226.027 275.193 225.56C275.993 225.093 276.886 224.86 277.873 224.86C278.726 224.86 279.52 225.06 280.253 225.46C280.986 225.847 281.546 226.36 281.933 227V221.2H283.773V236H281.933V233.94C281.573 234.593 281.04 235.133 280.333 235.56C279.626 235.973 278.8 236.18 277.853 236.18C276.88 236.18 275.993 235.94 275.193 235.46C274.406 234.98 273.786 234.307 273.333 233.44C272.88 232.573 272.653 231.587 272.653 230.48ZM281.933 230.5C281.933 229.673 281.766 228.953 281.433 228.34C281.1 227.727 280.646 227.26 280.073 226.94C279.513 226.607 278.893 226.44 278.213 226.44C277.533 226.44 276.913 226.6 276.353 226.92C275.793 227.24 275.346 227.707 275.013 228.32C274.68 228.933 274.513 229.653 274.513 230.48C274.513 231.32 274.68 232.053 275.013 232.68C275.346 233.293 275.793 233.767 276.353 234.1C276.913 234.42 277.533 234.58 278.213 234.58C278.893 234.58 279.513 234.42 280.073 234.1C280.646 233.767 281.1 233.293 281.433 232.68C281.766 232.053 281.933 231.327 281.933 230.5ZM291.629 236.18C290.602 236.18 289.669 235.947 288.829 235.48C288.002 235.013 287.349 234.353 286.869 233.5C286.402 232.633 286.169 231.633 286.169 230.5C286.169 229.38 286.409 228.393 286.889 227.54C287.382 226.673 288.049 226.013 288.889 225.56C289.729 225.093 290.669 224.86 291.709 224.86C292.749 224.86 293.689 225.093 294.529 225.56C295.369 226.013 296.029 226.667 296.509 227.52C297.002 228.373 297.249 229.367 297.249 230.5C297.249 231.633 296.995 232.633 296.489 233.5C295.995 234.353 295.322 235.013 294.469 235.48C293.615 235.947 292.669 236.18 291.629 236.18ZM291.629 234.58C292.282 234.58 292.895 234.427 293.469 234.12C294.042 233.813 294.502 233.353 294.849 232.74C295.209 232.127 295.389 231.38 295.389 230.5C295.389 229.62 295.215 228.873 294.869 228.26C294.522 227.647 294.069 227.193 293.509 226.9C292.949 226.593 292.342 226.44 291.689 226.44C291.022 226.44 290.409 226.593 289.849 226.9C289.302 227.193 288.862 227.647 288.529 228.26C288.195 228.873 288.029 229.62 288.029 230.5C288.029 231.393 288.189 232.147 288.509 232.76C288.842 233.373 289.282 233.833 289.829 234.14C290.375 234.433 290.975 234.58 291.629 234.58ZM303.522 236.18C302.682 236.18 301.928 236.04 301.262 235.76C300.595 235.467 300.068 235.067 299.682 234.56C299.295 234.04 299.082 233.447 299.042 232.78H300.922C300.975 233.327 301.228 233.773 301.682 234.12C302.148 234.467 302.755 234.64 303.502 234.64C304.195 234.64 304.742 234.487 305.142 234.18C305.542 233.873 305.742 233.487 305.742 233.02C305.742 232.54 305.528 232.187 305.102 231.96C304.675 231.72 304.015 231.487 303.122 231.26C302.308 231.047 301.642 230.833 301.122 230.62C300.615 230.393 300.175 230.067 299.802 229.64C299.442 229.2 299.262 228.627 299.262 227.92C299.262 227.36 299.428 226.847 299.762 226.38C300.095 225.913 300.568 225.547 301.182 225.28C301.795 225 302.495 224.86 303.282 224.86C304.495 224.86 305.475 225.167 306.222 225.78C306.968 226.393 307.368 227.233 307.422 228.3H305.602C305.562 227.727 305.328 227.267 304.902 226.92C304.488 226.573 303.928 226.4 303.222 226.4C302.568 226.4 302.048 226.54 301.662 226.82C301.275 227.1 301.082 227.467 301.082 227.92C301.082 228.28 301.195 228.58 301.422 228.82C301.662 229.047 301.955 229.233 302.302 229.38C302.662 229.513 303.155 229.667 303.782 229.84C304.568 230.053 305.208 230.267 305.702 230.48C306.195 230.68 306.615 230.987 306.962 231.4C307.322 231.813 307.508 232.353 307.522 233.02C307.522 233.62 307.355 234.16 307.022 234.64C306.688 235.12 306.215 235.5 305.602 235.78C305.002 236.047 304.308 236.18 303.522 236.18ZM125.958 254.86C126.905 254.86 127.732 255.067 128.438 255.48C129.158 255.893 129.692 256.413 130.038 257.04V255.04H131.878V266.24C131.878 267.24 131.665 268.127 131.238 268.9C130.812 269.687 130.198 270.3 129.398 270.74C128.612 271.18 127.692 271.4 126.638 271.4C125.198 271.4 123.998 271.06 123.038 270.38C122.078 269.7 121.512 268.773 121.338 267.6H123.138C123.338 268.267 123.752 268.8 124.378 269.2C125.005 269.613 125.758 269.82 126.638 269.82C127.638 269.82 128.452 269.507 129.078 268.88C129.718 268.253 130.038 267.373 130.038 266.24V263.94C129.678 264.58 129.145 265.113 128.438 265.54C127.732 265.967 126.905 266.18 125.958 266.18C124.985 266.18 124.098 265.94 123.298 265.46C122.512 264.98 121.892 264.307 121.438 263.44C120.985 262.573 120.758 261.587 120.758 260.48C120.758 259.36 120.985 258.38 121.438 257.54C121.892 256.687 122.512 256.027 123.298 255.56C124.098 255.093 124.985 254.86 125.958 254.86ZM130.038 260.5C130.038 259.673 129.872 258.953 129.538 258.34C129.205 257.727 128.752 257.26 128.178 256.94C127.618 256.607 126.998 256.44 126.318 256.44C125.638 256.44 125.018 256.6 124.458 256.92C123.898 257.24 123.452 257.707 123.118 258.32C122.785 258.933 122.618 259.653 122.618 260.48C122.618 261.32 122.785 262.053 123.118 262.68C123.452 263.293 123.898 263.767 124.458 264.1C125.018 264.42 125.638 264.58 126.318 264.58C126.998 264.58 127.618 264.42 128.178 264.1C128.752 263.767 129.205 263.293 129.538 262.68C129.872 262.053 130.038 261.327 130.038 260.5ZM136.774 251.2V266H134.954V251.2H136.774ZM144.656 266.18C143.629 266.18 142.696 265.947 141.856 265.48C141.029 265.013 140.376 264.353 139.896 263.5C139.429 262.633 139.196 261.633 139.196 260.5C139.196 259.38 139.436 258.393 139.916 257.54C140.409 256.673 141.076 256.013 141.916 255.56C142.756 255.093 143.696 254.86 144.736 254.86C145.776 254.86 146.716 255.093 147.556 255.56C148.396 256.013 149.056 256.667 149.536 257.52C150.029 258.373 150.276 259.367 150.276 260.5C150.276 261.633 150.023 262.633 149.516 263.5C149.023 264.353 148.349 265.013 147.496 265.48C146.643 265.947 145.696 266.18 144.656 266.18ZM144.656 264.58C145.309 264.58 145.923 264.427 146.496 264.12C147.069 263.813 147.529 263.353 147.876 262.74C148.236 262.127 148.416 261.38 148.416 260.5C148.416 259.62 148.243 258.873 147.896 258.26C147.549 257.647 147.096 257.193 146.536 256.9C145.976 256.593 145.369 256.44 144.716 256.44C144.049 256.44 143.436 256.593 142.876 256.9C142.329 257.193 141.889 257.647 141.556 258.26C141.223 258.873 141.056 259.62 141.056 260.5C141.056 261.393 141.216 262.147 141.536 262.76C141.869 263.373 142.309 263.833 142.856 264.14C143.403 264.433 144.003 264.58 144.656 264.58ZM154.489 257.08C154.862 256.427 155.409 255.893 156.129 255.48C156.849 255.067 157.669 254.86 158.589 254.86C159.576 254.86 160.462 255.093 161.249 255.56C162.036 256.027 162.656 256.687 163.109 257.54C163.562 258.38 163.789 259.36 163.789 260.48C163.789 261.587 163.562 262.573 163.109 263.44C162.656 264.307 162.029 264.98 161.229 265.46C160.442 265.94 159.562 266.18 158.589 266.18C157.642 266.18 156.809 265.973 156.089 265.56C155.382 265.147 154.849 264.62 154.489 263.98V266H152.669V251.2H154.489V257.08ZM161.929 260.48C161.929 259.653 161.762 258.933 161.429 258.32C161.096 257.707 160.642 257.24 160.069 256.92C159.509 256.6 158.889 256.44 158.209 256.44C157.542 256.44 156.922 256.607 156.349 256.94C155.789 257.26 155.336 257.733 154.989 258.36C154.656 258.973 154.489 259.687 154.489 260.5C154.489 261.327 154.656 262.053 154.989 262.68C155.336 263.293 155.789 263.767 156.349 264.1C156.922 264.42 157.542 264.58 158.209 264.58C158.889 264.58 159.509 264.42 160.069 264.1C160.642 263.767 161.096 263.293 161.429 262.68C161.762 262.053 161.929 261.32 161.929 260.48ZM165.505 260.48C165.505 259.36 165.731 258.38 166.185 257.54C166.638 256.687 167.258 256.027 168.045 255.56C168.845 255.093 169.731 254.86 170.705 254.86C171.665 254.86 172.498 255.067 173.205 255.48C173.911 255.893 174.438 256.413 174.785 257.04V255.04H176.625V266H174.785V263.96C174.425 264.6 173.885 265.133 173.165 265.56C172.458 265.973 171.631 266.18 170.685 266.18C169.711 266.18 168.831 265.94 168.045 265.46C167.258 264.98 166.638 264.307 166.185 263.44C165.731 262.573 165.505 261.587 165.505 260.48ZM174.785 260.5C174.785 259.673 174.618 258.953 174.285 258.34C173.951 257.727 173.498 257.26 172.925 256.94C172.365 256.607 171.745 256.44 171.065 256.44C170.385 256.44 169.765 256.6 169.205 256.92C168.645 257.24 168.198 257.707 167.865 258.32C167.531 258.933 167.365 259.653 167.365 260.48C167.365 261.32 167.531 262.053 167.865 262.68C168.198 263.293 168.645 263.767 169.205 264.1C169.765 264.42 170.385 264.58 171.065 264.58C171.745 264.58 172.365 264.42 172.925 264.1C173.498 263.767 173.951 263.293 174.285 262.68C174.618 262.053 174.785 261.327 174.785 260.5ZM181.52 251.2V266H179.7V251.2H181.52ZM197.802 254.84C198.655 254.84 199.415 255.02 200.082 255.38C200.749 255.727 201.275 256.253 201.662 256.96C202.049 257.667 202.242 258.527 202.242 259.54V266H200.442V259.8C200.442 258.707 200.169 257.873 199.622 257.3C199.089 256.713 198.362 256.42 197.442 256.42C196.495 256.42 195.742 256.727 195.182 257.34C194.622 257.94 194.342 258.813 194.342 259.96V266H192.542V259.8C192.542 258.707 192.269 257.873 191.722 257.3C191.189 256.713 190.462 256.42 189.542 256.42C188.595 256.42 187.842 256.727 187.282 257.34C186.722 257.94 186.442 258.813 186.442 259.96V266H184.622V255.04H186.442V256.62C186.802 256.047 187.282 255.607 187.882 255.3C188.495 254.993 189.169 254.84 189.902 254.84C190.822 254.84 191.635 255.047 192.342 255.46C193.049 255.873 193.575 256.48 193.922 257.28C194.229 256.507 194.735 255.907 195.442 255.48C196.149 255.053 196.935 254.84 197.802 254.84ZM215.228 260.1C215.228 260.447 215.208 260.813 215.168 261.2H206.408C206.474 262.28 206.841 263.127 207.508 263.74C208.188 264.34 209.008 264.64 209.968 264.64C210.754 264.64 211.408 264.46 211.928 264.1C212.461 263.727 212.834 263.233 213.048 262.62H215.008C214.714 263.673 214.128 264.533 213.248 265.2C212.368 265.853 211.274 266.18 209.968 266.18C208.928 266.18 207.994 265.947 207.168 265.48C206.354 265.013 205.714 264.353 205.248 263.5C204.781 262.633 204.548 261.633 204.548 260.5C204.548 259.367 204.774 258.373 205.228 257.52C205.681 256.667 206.314 256.013 207.128 255.56C207.954 255.093 208.901 254.86 209.968 254.86C211.008 254.86 211.928 255.087 212.728 255.54C213.528 255.993 214.141 256.62 214.568 257.42C215.008 258.207 215.228 259.1 215.228 260.1ZM213.348 259.72C213.348 259.027 213.194 258.433 212.888 257.94C212.581 257.433 212.161 257.053 211.628 256.8C211.108 256.533 210.528 256.4 209.888 256.4C208.968 256.4 208.181 256.693 207.528 257.28C206.888 257.867 206.521 258.68 206.428 259.72H213.348ZM222.97 254.84C224.303 254.84 225.383 255.247 226.21 256.06C227.037 256.86 227.45 258.02 227.45 259.54V266H225.65V259.8C225.65 258.707 225.377 257.873 224.83 257.3C224.283 256.713 223.537 256.42 222.59 256.42C221.63 256.42 220.863 256.72 220.29 257.32C219.73 257.92 219.45 258.793 219.45 259.94V266H217.63V255.04H219.45V256.6C219.81 256.04 220.297 255.607 220.91 255.3C221.537 254.993 222.223 254.84 222.97 254.84ZM232.643 256.54V263C232.643 263.533 232.756 263.913 232.983 264.14C233.209 264.353 233.603 264.46 234.163 264.46H235.503V266H233.863C232.849 266 232.089 265.767 231.583 265.3C231.076 264.833 230.823 264.067 230.823 263V256.54H229.403V255.04H230.823V252.28H232.643V255.04H235.503V256.54H232.643ZM247.708 260.1C247.708 260.447 247.688 260.813 247.648 261.2H238.888C238.955 262.28 239.321 263.127 239.988 263.74C240.668 264.34 241.488 264.64 242.448 264.64C243.235 264.64 243.888 264.46 244.408 264.1C244.941 263.727 245.315 263.233 245.528 262.62H247.488C247.195 263.673 246.608 264.533 245.728 265.2C244.848 265.853 243.755 266.18 242.448 266.18C241.408 266.18 240.475 265.947 239.648 265.48C238.835 265.013 238.195 264.353 237.728 263.5C237.261 262.633 237.028 261.633 237.028 260.5C237.028 259.367 237.255 258.373 237.708 257.52C238.161 256.667 238.795 256.013 239.608 255.56C240.435 255.093 241.381 254.86 242.448 254.86C243.488 254.86 244.408 255.087 245.208 255.54C246.008 255.993 246.621 256.62 247.048 257.42C247.488 258.207 247.708 259.1 247.708 260.1ZM245.828 259.72C245.828 259.027 245.675 258.433 245.368 257.94C245.061 257.433 244.641 257.053 244.108 256.8C243.588 256.533 243.008 256.4 242.368 256.4C241.448 256.4 240.661 256.693 240.008 257.28C239.368 257.867 239.001 258.68 238.908 259.72H245.828ZM250.69 266.12C250.344 266.12 250.05 266 249.81 265.76C249.57 265.52 249.45 265.227 249.45 264.88C249.45 264.533 249.57 264.24 249.81 264C250.05 263.76 250.344 263.64 250.69 263.64C251.024 263.64 251.304 263.76 251.53 264C251.77 264.24 251.89 264.533 251.89 264.88C251.89 265.227 251.77 265.52 251.53 265.76C251.304 266 251.024 266.12 250.69 266.12ZM130.186 282.04L125.066 296H121.666L116.546 282.04H119.546L123.386 293.14L127.206 282.04H130.186ZM131.144 290.42C131.144 289.3 131.364 288.307 131.804 287.44C132.258 286.573 132.864 285.907 133.624 285.44C134.398 284.973 135.258 284.74 136.204 284.74C137.031 284.74 137.751 284.907 138.364 285.24C138.991 285.573 139.491 285.993 139.864 286.5V284.92H142.684V296H139.864V294.38C139.504 294.9 139.004 295.333 138.364 295.68C137.738 296.013 137.011 296.18 136.184 296.18C135.251 296.18 134.398 295.94 133.624 295.46C132.864 294.98 132.258 294.307 131.804 293.44C131.364 292.56 131.144 291.553 131.144 290.42ZM139.864 290.46C139.864 289.78 139.731 289.2 139.464 288.72C139.198 288.227 138.838 287.853 138.384 287.6C137.931 287.333 137.444 287.2 136.924 287.2C136.404 287.2 135.924 287.327 135.484 287.58C135.044 287.833 134.684 288.207 134.404 288.7C134.138 289.18 134.004 289.753 134.004 290.42C134.004 291.087 134.138 291.673 134.404 292.18C134.684 292.673 135.044 293.053 135.484 293.32C135.938 293.587 136.418 293.72 136.924 293.72C137.444 293.72 137.931 293.593 138.384 293.34C138.838 293.073 139.198 292.7 139.464 292.22C139.731 291.727 139.864 291.14 139.864 290.46ZM139.484 282.04L134.884 284.14V282.14L139.484 279.76V282.04ZM148.219 286.64C148.579 286.053 149.046 285.593 149.619 285.26C150.206 284.927 150.872 284.76 151.619 284.76V287.7H150.879C149.999 287.7 149.332 287.907 148.879 288.32C148.439 288.733 148.219 289.453 148.219 290.48V296H145.419V284.92H148.219V286.64ZM154.925 283.6C154.432 283.6 154.018 283.447 153.685 283.14C153.365 282.82 153.205 282.427 153.205 281.96C153.205 281.493 153.365 281.107 153.685 280.8C154.018 280.48 154.432 280.32 154.925 280.32C155.418 280.32 155.825 280.48 156.145 280.8C156.478 281.107 156.645 281.493 156.645 281.96C156.645 282.427 156.478 282.82 156.145 283.14C155.825 283.447 155.418 283.6 154.925 283.6ZM156.305 284.92V296H153.505V284.92H156.305ZM163.991 296.18C162.925 296.18 161.965 295.947 161.111 295.48C160.258 295 159.585 294.327 159.091 293.46C158.611 292.593 158.371 291.593 158.371 290.46C158.371 289.327 158.618 288.327 159.111 287.46C159.618 286.593 160.305 285.927 161.171 285.46C162.038 284.98 163.005 284.74 164.071 284.74C165.138 284.74 166.105 284.98 166.971 285.46C167.838 285.927 168.518 286.593 169.011 287.46C169.518 288.327 169.771 289.327 169.771 290.46C169.771 291.593 169.511 292.593 168.991 293.46C168.485 294.327 167.791 295 166.911 295.48C166.045 295.947 165.071 296.18 163.991 296.18ZM163.991 293.74C164.498 293.74 164.971 293.62 165.411 293.38C165.865 293.127 166.225 292.753 166.491 292.26C166.758 291.767 166.891 291.167 166.891 290.46C166.891 289.407 166.611 288.6 166.051 288.04C165.505 287.467 164.831 287.18 164.031 287.18C163.231 287.18 162.558 287.467 162.011 288.04C161.478 288.6 161.211 289.407 161.211 290.46C161.211 291.513 161.471 292.327 161.991 292.9C162.525 293.46 163.191 293.74 163.991 293.74ZM176.065 296.18C175.159 296.18 174.345 296.02 173.625 295.7C172.905 295.367 172.332 294.92 171.905 294.36C171.492 293.8 171.265 293.18 171.225 292.5H174.045C174.099 292.927 174.305 293.28 174.665 293.56C175.039 293.84 175.499 293.98 176.045 293.98C176.579 293.98 176.992 293.873 177.285 293.66C177.592 293.447 177.745 293.173 177.745 292.84C177.745 292.48 177.559 292.213 177.185 292.04C176.825 291.853 176.245 291.653 175.445 291.44C174.619 291.24 173.939 291.033 173.405 290.82C172.885 290.607 172.432 290.28 172.045 289.84C171.672 289.4 171.485 288.807 171.485 288.06C171.485 287.447 171.659 286.887 172.005 286.38C172.365 285.873 172.872 285.473 173.525 285.18C174.192 284.887 174.972 284.74 175.865 284.74C177.185 284.74 178.239 285.073 179.025 285.74C179.812 286.393 180.245 287.28 180.325 288.4H177.645C177.605 287.96 177.419 287.613 177.085 287.36C176.765 287.093 176.332 286.96 175.785 286.96C175.279 286.96 174.885 287.053 174.605 287.24C174.339 287.427 174.205 287.687 174.205 288.02C174.205 288.393 174.392 288.68 174.765 288.88C175.139 289.067 175.719 289.26 176.505 289.46C177.305 289.66 177.965 289.867 178.485 290.08C179.005 290.293 179.452 290.627 179.825 291.08C180.212 291.52 180.412 292.107 180.425 292.84C180.425 293.48 180.245 294.053 179.885 294.56C179.539 295.067 179.032 295.467 178.365 295.76C177.712 296.04 176.945 296.18 176.065 296.18ZM197.669 286.36C197.669 287.107 197.489 287.807 197.129 288.46C196.783 289.113 196.229 289.64 195.469 290.04C194.723 290.44 193.776 290.64 192.629 290.64H190.289V296H187.489V282.04H192.629C193.709 282.04 194.629 282.227 195.389 282.6C196.149 282.973 196.716 283.487 197.089 284.14C197.476 284.793 197.669 285.533 197.669 286.36ZM192.509 288.38C193.283 288.38 193.856 288.207 194.229 287.86C194.603 287.5 194.789 287 194.789 286.36C194.789 285 194.029 284.32 192.509 284.32H190.289V288.38H192.509ZM198.937 290.42C198.937 289.3 199.157 288.307 199.597 287.44C200.051 286.573 200.657 285.907 201.417 285.44C202.191 284.973 203.051 284.74 203.997 284.74C204.824 284.74 205.544 284.907 206.157 285.24C206.784 285.573 207.284 285.993 207.657 286.5V284.92H210.477V296H207.657V294.38C207.297 294.9 206.797 295.333 206.157 295.68C205.531 296.013 204.804 296.18 203.977 296.18C203.044 296.18 202.191 295.94 201.417 295.46C200.657 294.98 200.051 294.307 199.597 293.44C199.157 292.56 198.937 291.553 198.937 290.42ZM207.657 290.46C207.657 289.78 207.524 289.2 207.257 288.72C206.991 288.227 206.631 287.853 206.177 287.6C205.724 287.333 205.237 287.2 204.717 287.2C204.197 287.2 203.717 287.327 203.277 287.58C202.837 287.833 202.477 288.207 202.197 288.7C201.931 289.18 201.797 289.753 201.797 290.42C201.797 291.087 201.931 291.673 202.197 292.18C202.477 292.673 202.837 293.053 203.277 293.32C203.731 293.587 204.211 293.72 204.717 293.72C205.237 293.72 205.724 293.593 206.177 293.34C206.631 293.073 206.991 292.7 207.257 292.22C207.524 291.727 207.657 291.14 207.657 290.46ZM216.132 284.92V296H213.332V284.92H216.132ZM216.912 282.04L212.312 284.14V282.14L216.912 279.76V282.04ZM223.253 296.18C222.346 296.18 221.533 296.02 220.813 295.7C220.093 295.367 219.519 294.92 219.093 294.36C218.679 293.8 218.453 293.18 218.413 292.5H221.233C221.286 292.927 221.493 293.28 221.853 293.56C222.226 293.84 222.686 293.98 223.233 293.98C223.766 293.98 224.179 293.873 224.473 293.66C224.779 293.447 224.933 293.173 224.933 292.84C224.933 292.48 224.746 292.213 224.373 292.04C224.013 291.853 223.433 291.653 222.633 291.44C221.806 291.24 221.126 291.033 220.593 290.82C220.073 290.607 219.619 290.28 219.233 289.84C218.859 289.4 218.673 288.807 218.673 288.06C218.673 287.447 218.846 286.887 219.193 286.38C219.553 285.873 220.059 285.473 220.713 285.18C221.379 284.887 222.159 284.74 223.053 284.74C224.373 284.74 225.426 285.073 226.213 285.74C226.999 286.393 227.433 287.28 227.513 288.4H224.833C224.793 287.96 224.606 287.613 224.273 287.36C223.953 287.093 223.519 286.96 222.973 286.96C222.466 286.96 222.073 287.053 221.793 287.24C221.526 287.427 221.393 287.687 221.393 288.02C221.393 288.393 221.579 288.68 221.953 288.88C222.326 289.067 222.906 289.26 223.693 289.46C224.493 289.66 225.153 289.867 225.673 290.08C226.193 290.293 226.639 290.627 227.013 291.08C227.399 291.52 227.599 292.107 227.613 292.84C227.613 293.48 227.433 294.053 227.073 294.56C226.726 295.067 226.219 295.467 225.553 295.76C224.899 296.04 224.133 296.18 223.253 296.18ZM240.211 290.22C240.211 290.62 240.185 290.98 240.131 291.3H232.031C232.098 292.1 232.378 292.727 232.871 293.18C233.365 293.633 233.971 293.86 234.691 293.86C235.731 293.86 236.471 293.413 236.911 292.52H239.931C239.611 293.587 238.998 294.467 238.091 295.16C237.185 295.84 236.071 296.18 234.751 296.18C233.685 296.18 232.725 295.947 231.871 295.48C231.031 295 230.371 294.327 229.891 293.46C229.425 292.593 229.191 291.593 229.191 290.46C229.191 289.313 229.425 288.307 229.891 287.44C230.358 286.573 231.011 285.907 231.851 285.44C232.691 284.973 233.658 284.74 234.751 284.74C235.805 284.74 236.745 284.967 237.571 285.42C238.411 285.873 239.058 286.52 239.511 287.36C239.978 288.187 240.211 289.14 240.211 290.22ZM237.311 289.42C237.298 288.7 237.038 288.127 236.531 287.7C236.025 287.26 235.405 287.04 234.671 287.04C233.978 287.04 233.391 287.253 232.911 287.68C232.445 288.093 232.158 288.673 232.051 289.42H237.311ZM246.495 296.18C245.588 296.18 244.775 296.02 244.055 295.7C243.335 295.367 242.762 294.92 242.335 294.36C241.922 293.8 241.695 293.18 241.655 292.5H244.475C244.528 292.927 244.735 293.28 245.095 293.56C245.468 293.84 245.928 293.98 246.475 293.98C247.008 293.98 247.422 293.873 247.715 293.66C248.022 293.447 248.175 293.173 248.175 292.84C248.175 292.48 247.988 292.213 247.615 292.04C247.255 291.853 246.675 291.653 245.875 291.44C245.048 291.24 244.368 291.033 243.835 290.82C243.315 290.607 242.862 290.28 242.475 289.84C242.102 289.4 241.915 288.807 241.915 288.06C241.915 287.447 242.088 286.887 242.435 286.38C242.795 285.873 243.302 285.473 243.955 285.18C244.622 284.887 245.402 284.74 246.295 284.74C247.615 284.74 248.668 285.073 249.455 285.74C250.242 286.393 250.675 287.28 250.755 288.4H248.075C248.035 287.96 247.848 287.613 247.515 287.36C247.195 287.093 246.762 286.96 246.215 286.96C245.708 286.96 245.315 287.053 245.035 287.24C244.768 287.427 244.635 287.687 244.635 288.02C244.635 288.393 244.822 288.68 245.195 288.88C245.568 289.067 246.148 289.26 246.935 289.46C247.735 289.66 248.395 289.867 248.915 290.08C249.435 290.293 249.882 290.627 250.255 291.08C250.642 291.52 250.842 292.107 250.855 292.84C250.855 293.48 250.675 294.053 250.315 294.56C249.968 295.067 249.462 295.467 248.795 295.76C248.142 296.04 247.375 296.18 246.495 296.18ZM254.393 296.14C253.887 296.14 253.467 295.987 253.133 295.68C252.813 295.36 252.653 294.967 252.653 294.5C252.653 294.033 252.813 293.647 253.133 293.34C253.467 293.02 253.887 292.86 254.393 292.86C254.887 292.86 255.293 293.02 255.613 293.34C255.933 293.647 256.093 294.033 256.093 294.5C256.093 294.967 255.933 295.36 255.613 295.68C255.293 295.987 254.887 296.14 254.393 296.14ZM146.138 312.04V320.68C146.138 321.627 146.385 322.353 146.878 322.86C147.371 323.353 148.065 323.6 148.958 323.6C149.865 323.6 150.565 323.353 151.058 322.86C151.551 322.353 151.798 321.627 151.798 320.68V312.04H154.618V320.66C154.618 321.847 154.358 322.853 153.838 323.68C153.331 324.493 152.645 325.107 151.778 325.52C150.925 325.933 149.971 326.14 148.918 326.14C147.878 326.14 146.931 325.933 146.078 325.52C145.238 325.107 144.571 324.493 144.078 323.68C143.585 322.853 143.338 321.847 143.338 320.66V312.04H146.138ZM171.083 314.76C172.443 314.76 173.537 315.18 174.363 316.02C175.203 316.847 175.623 318.007 175.623 319.5V326H172.823V319.88C172.823 319.013 172.603 318.353 172.163 317.9C171.723 317.433 171.123 317.2 170.363 317.2C169.603 317.2 168.997 317.433 168.543 317.9C168.103 318.353 167.883 319.013 167.883 319.88V326H165.083V319.88C165.083 319.013 164.863 318.353 164.423 317.9C163.983 317.433 163.383 317.2 162.623 317.2C161.85 317.2 161.237 317.433 160.783 317.9C160.343 318.353 160.123 319.013 160.123 319.88V326H157.323V314.92H160.123V316.26C160.483 315.793 160.943 315.427 161.503 315.16C162.077 314.893 162.703 314.76 163.383 314.76C164.25 314.76 165.023 314.947 165.703 315.32C166.383 315.68 166.91 316.2 167.283 316.88C167.643 316.24 168.163 315.727 168.843 315.34C169.537 314.953 170.283 314.76 171.083 314.76ZM182.326 320.46C182.326 319.313 182.559 318.313 183.026 317.46C183.493 316.593 184.139 315.927 184.966 315.46C185.793 314.98 186.739 314.74 187.806 314.74C189.179 314.74 190.313 315.087 191.206 315.78C192.113 316.46 192.719 317.42 193.026 318.66H190.006C189.846 318.18 189.573 317.807 189.186 317.54C188.813 317.26 188.346 317.12 187.786 317.12C186.986 317.12 186.353 317.413 185.886 318C185.419 318.573 185.186 319.393 185.186 320.46C185.186 321.513 185.419 322.333 185.886 322.92C186.353 323.493 186.986 323.78 187.786 323.78C188.919 323.78 189.659 323.273 190.006 322.26H193.026C192.719 323.46 192.113 324.413 191.206 325.12C190.299 325.827 189.166 326.18 187.806 326.18C186.739 326.18 185.793 325.947 184.966 325.48C184.139 325 183.493 324.333 183.026 323.48C182.559 322.613 182.326 321.607 182.326 320.46ZM201.317 314.76C202.157 314.76 202.904 314.947 203.557 315.32C204.211 315.68 204.717 316.22 205.077 316.94C205.451 317.647 205.637 318.5 205.637 319.5V326H202.837V319.88C202.837 319 202.617 318.327 202.177 317.86C201.737 317.38 201.137 317.14 200.377 317.14C199.604 317.14 198.991 317.38 198.537 317.86C198.097 318.327 197.877 319 197.877 319.88V326H195.077V311.2H197.877V316.3C198.237 315.82 198.717 315.447 199.317 315.18C199.917 314.9 200.584 314.76 201.317 314.76ZM209.72 313.6C209.227 313.6 208.813 313.447 208.48 313.14C208.16 312.82 208 312.427 208 311.96C208 311.493 208.16 311.107 208.48 310.8C208.813 310.48 209.227 310.32 209.72 310.32C210.213 310.32 210.62 310.48 210.94 310.8C211.273 311.107 211.44 311.493 211.44 311.96C211.44 312.427 211.273 312.82 210.94 313.14C210.62 313.447 210.213 313.6 209.72 313.6ZM211.1 314.92V326H208.3V314.92H211.1ZM216.666 316.52C217.026 316.013 217.52 315.593 218.146 315.26C218.786 314.913 219.513 314.74 220.326 314.74C221.273 314.74 222.126 314.973 222.886 315.44C223.66 315.907 224.266 316.573 224.706 317.44C225.16 318.293 225.386 319.287 225.386 320.42C225.386 321.553 225.16 322.56 224.706 323.44C224.266 324.307 223.66 324.98 222.886 325.46C222.126 325.94 221.273 326.18 220.326 326.18C219.513 326.18 218.793 326.013 218.166 325.68C217.553 325.347 217.053 324.927 216.666 324.42V331.28H213.866V314.92H216.666V316.52ZM222.526 320.42C222.526 319.753 222.386 319.18 222.106 318.7C221.84 318.207 221.48 317.833 221.026 317.58C220.586 317.327 220.106 317.2 219.586 317.2C219.08 317.2 218.6 317.333 218.146 317.6C217.706 317.853 217.346 318.227 217.066 318.72C216.8 319.213 216.666 319.793 216.666 320.46C216.666 321.127 216.8 321.707 217.066 322.2C217.346 322.693 217.706 323.073 218.146 323.34C218.6 323.593 219.08 323.72 219.586 323.72C220.106 323.72 220.586 323.587 221.026 323.32C221.48 323.053 221.84 322.673 222.106 322.18C222.386 321.687 222.526 321.1 222.526 320.42ZM228.661 326.14C228.154 326.14 227.734 325.987 227.401 325.68C227.081 325.36 226.921 324.967 226.921 324.5C226.921 324.033 227.081 323.647 227.401 323.34C227.734 323.02 228.154 322.86 228.661 322.86C229.154 322.86 229.561 323.02 229.881 323.34C230.201 323.647 230.361 324.033 230.361 324.5C230.361 324.967 230.201 325.36 229.881 325.68C229.561 325.987 229.154 326.14 228.661 326.14ZM131.89 342.04V350.68C131.89 351.627 132.137 352.353 132.63 352.86C133.123 353.353 133.817 353.6 134.71 353.6C135.617 353.6 136.317 353.353 136.81 352.86C137.303 352.353 137.55 351.627 137.55 350.68V342.04H140.37V350.66C140.37 351.847 140.11 352.853 139.59 353.68C139.083 354.493 138.397 355.107 137.53 355.52C136.677 355.933 135.723 356.14 134.67 356.14C133.63 356.14 132.683 355.933 131.83 355.52C130.99 355.107 130.323 354.493 129.83 353.68C129.337 352.853 129.09 351.847 129.09 350.66V342.04H131.89ZM156.835 344.76C158.195 344.76 159.289 345.18 160.115 346.02C160.955 346.847 161.375 348.007 161.375 349.5V356H158.575V349.88C158.575 349.013 158.355 348.353 157.915 347.9C157.475 347.433 156.875 347.2 156.115 347.2C155.355 347.2 154.749 347.433 154.295 347.9C153.855 348.353 153.635 349.013 153.635 349.88V356H150.835V349.88C150.835 349.013 150.615 348.353 150.175 347.9C149.735 347.433 149.135 347.2 148.375 347.2C147.602 347.2 146.989 347.433 146.535 347.9C146.095 348.353 145.875 349.013 145.875 349.88V356H143.075V344.92H145.875V346.26C146.235 345.793 146.695 345.427 147.255 345.16C147.829 344.893 148.455 344.76 149.135 344.76C150.002 344.76 150.775 344.947 151.455 345.32C152.135 345.68 152.662 346.2 153.035 346.88C153.395 346.24 153.915 345.727 154.595 345.34C155.289 344.953 156.035 344.76 156.835 344.76ZM163.312 350.42C163.312 349.3 163.532 348.307 163.972 347.44C164.426 346.573 165.032 345.907 165.792 345.44C166.566 344.973 167.426 344.74 168.372 344.74C169.199 344.74 169.919 344.907 170.532 345.24C171.159 345.573 171.659 345.993 172.032 346.5V344.92H174.852V356H172.032V354.38C171.672 354.9 171.172 355.333 170.532 355.68C169.906 356.013 169.179 356.18 168.352 356.18C167.419 356.18 166.566 355.94 165.792 355.46C165.032 354.98 164.426 354.307 163.972 353.44C163.532 352.56 163.312 351.553 163.312 350.42ZM172.032 350.46C172.032 349.78 171.899 349.2 171.632 348.72C171.366 348.227 171.006 347.853 170.552 347.6C170.099 347.333 169.612 347.2 169.092 347.2C168.572 347.2 168.092 347.327 167.652 347.58C167.212 347.833 166.852 348.207 166.572 348.7C166.306 349.18 166.172 349.753 166.172 350.42C166.172 351.087 166.306 351.673 166.572 352.18C166.852 352.673 167.212 353.053 167.652 353.32C168.106 353.587 168.586 353.72 169.092 353.72C169.612 353.72 170.099 353.593 170.552 353.34C171.006 353.073 171.366 352.7 171.632 352.22C171.899 351.727 172.032 351.14 172.032 350.46ZM181.633 350.46C181.633 349.313 181.866 348.313 182.333 347.46C182.799 346.593 183.446 345.927 184.273 345.46C185.099 344.98 186.046 344.74 187.113 344.74C188.486 344.74 189.619 345.087 190.513 345.78C191.419 346.46 192.026 347.42 192.333 348.66H189.313C189.153 348.18 188.879 347.807 188.493 347.54C188.119 347.26 187.653 347.12 187.093 347.12C186.293 347.12 185.659 347.413 185.193 348C184.726 348.573 184.493 349.393 184.493 350.46C184.493 351.513 184.726 352.333 185.193 352.92C185.659 353.493 186.293 353.78 187.093 353.78C188.226 353.78 188.966 353.273 189.313 352.26H192.333C192.026 353.46 191.419 354.413 190.513 355.12C189.606 355.827 188.473 356.18 187.113 356.18C186.046 356.18 185.099 355.947 184.273 355.48C183.446 355 182.799 354.333 182.333 353.48C181.866 352.613 181.633 351.607 181.633 350.46ZM199.304 356.18C198.237 356.18 197.277 355.947 196.424 355.48C195.571 355 194.897 354.327 194.404 353.46C193.924 352.593 193.684 351.593 193.684 350.46C193.684 349.327 193.931 348.327 194.424 347.46C194.931 346.593 195.617 345.927 196.484 345.46C197.351 344.98 198.317 344.74 199.384 344.74C200.451 344.74 201.417 344.98 202.284 345.46C203.151 345.927 203.831 346.593 204.324 347.46C204.831 348.327 205.084 349.327 205.084 350.46C205.084 351.593 204.824 352.593 204.304 353.46C203.797 354.327 203.104 355 202.224 355.48C201.357 355.947 200.384 356.18 199.304 356.18ZM199.304 353.74C199.811 353.74 200.284 353.62 200.724 353.38C201.177 353.127 201.537 352.753 201.804 352.26C202.071 351.767 202.204 351.167 202.204 350.46C202.204 349.407 201.924 348.6 201.364 348.04C200.817 347.467 200.144 347.18 199.344 347.18C198.544 347.18 197.871 347.467 197.324 348.04C196.791 348.6 196.524 349.407 196.524 350.46C196.524 351.513 196.784 352.327 197.304 352.9C197.837 353.46 198.504 353.74 199.304 353.74ZM213.278 344.76C214.598 344.76 215.664 345.18 216.478 346.02C217.291 346.847 217.698 348.007 217.698 349.5V356H214.898V349.88C214.898 349 214.678 348.327 214.238 347.86C213.798 347.38 213.198 347.14 212.438 347.14C211.664 347.14 211.051 347.38 210.598 347.86C210.158 348.327 209.938 349 209.938 349.88V356H207.138V344.92H209.938V346.3C210.311 345.82 210.784 345.447 211.358 345.18C211.944 344.9 212.584 344.76 213.278 344.76ZM223.62 347.22V352.58C223.62 352.953 223.707 353.227 223.88 353.4C224.067 353.56 224.374 353.64 224.8 353.64H226.1V356H224.34C221.98 356 220.8 354.853 220.8 352.56V347.22H219.48V344.92H220.8V342.18H223.62V344.92H226.1V347.22H223.62ZM227.394 350.42C227.394 349.3 227.614 348.307 228.054 347.44C228.508 346.573 229.114 345.907 229.874 345.44C230.648 344.973 231.508 344.74 232.454 344.74C233.281 344.74 234.001 344.907 234.614 345.24C235.241 345.573 235.741 345.993 236.114 346.5V344.92H238.934V356H236.114V354.38C235.754 354.9 235.254 355.333 234.614 355.68C233.988 356.013 233.261 356.18 232.434 356.18C231.501 356.18 230.648 355.94 229.874 355.46C229.114 354.98 228.508 354.307 228.054 353.44C227.614 352.56 227.394 351.553 227.394 350.42ZM236.114 350.46C236.114 349.78 235.981 349.2 235.714 348.72C235.448 348.227 235.088 347.853 234.634 347.6C234.181 347.333 233.694 347.2 233.174 347.2C232.654 347.2 232.174 347.327 231.734 347.58C231.294 347.833 230.934 348.207 230.654 348.7C230.388 349.18 230.254 349.753 230.254 350.42C230.254 351.087 230.388 351.673 230.654 352.18C230.934 352.673 231.294 353.053 231.734 353.32C232.188 353.587 232.668 353.72 233.174 353.72C233.694 353.72 234.181 353.593 234.634 353.34C235.088 353.073 235.448 352.7 235.714 352.22C235.981 351.727 236.114 351.14 236.114 350.46ZM242.909 356.14C242.402 356.14 241.982 355.987 241.649 355.68C241.329 355.36 241.169 354.967 241.169 354.5C241.169 354.033 241.329 353.647 241.649 353.34C241.982 353.02 242.402 352.86 242.909 352.86C243.402 352.86 243.809 353.02 244.129 353.34C244.449 353.647 244.609 354.033 244.609 354.5C244.609 354.967 244.449 355.36 244.129 355.68C243.809 355.987 243.402 356.14 242.909 356.14Z" fill="white"/>
</svg>
