<svg width="378" height="406" viewBox="0 0 378 406" fill="none" xmlns="http://www.w3.org/2000/svg">
<rect width="378" height="406" rx="10" fill="#2D2D2F"/>
<path d="M158 57.625C158 55.6027 158.803 53.6633 160.233 52.2333C161.663 50.8033 163.603 50 165.625 50H211.375C213.397 50 215.337 50.8033 216.767 52.2333C218.197 53.6633 219 55.6027 219 57.625V88.125C219 90.1473 218.197 92.0867 216.767 93.5167C215.337 94.9467 213.397 95.75 211.375 95.75H165.625C163.603 95.75 161.663 94.9467 160.233 93.5167C158.803 92.0867 158 90.1473 158 88.125V57.625ZM165.625 53.8125C164.614 53.8125 163.644 54.2142 162.929 54.9292C162.214 55.6441 161.812 56.6139 161.812 57.625V61.4375H215.188V57.625C215.188 56.6139 214.786 55.6441 214.071 54.9292C213.356 54.2142 212.386 53.8125 211.375 53.8125H165.625ZM215.188 69.0625H161.812V88.125C161.812 89.1361 162.214 90.1059 162.929 90.8208C163.644 91.5358 164.614 91.9375 165.625 91.9375H211.375C212.386 91.9375 213.356 91.5358 214.071 90.8208C214.786 90.1059 215.188 89.1361 215.188 88.125V69.0625Z" fill="#FF5000"/>
<path d="M169 79.8125C169 78.8014 169.402 77.8316 170.117 77.1167C170.832 76.4017 171.801 76 172.812 76H176.625C177.636 76 178.606 76.4017 179.321 77.1167C180.036 77.8316 180.438 78.8014 180.438 79.8125V83.625C180.438 84.6361 180.036 85.6059 179.321 86.3208C178.606 87.0358 177.636 87.4375 176.625 87.4375H172.812C171.801 87.4375 170.832 87.0358 170.117 86.3208C169.402 85.6059 169 84.6361 169 83.625V79.8125Z" fill="#FF5000"/>
<path d="M124.028 141.468C124.028 142.439 123.794 143.349 123.326 144.198C122.875 145.047 122.156 145.732 121.168 146.252C120.197 146.772 118.967 147.032 117.476 147.032H114.434V154H110.794V135.852H117.476C118.88 135.852 120.076 136.095 121.064 136.58C122.052 137.065 122.789 137.733 123.274 138.582C123.777 139.431 124.028 140.393 124.028 141.468ZM117.32 144.094C118.325 144.094 119.071 143.869 119.556 143.418C120.041 142.95 120.284 142.3 120.284 141.468C120.284 139.7 119.296 138.816 117.32 138.816H114.434V144.094H117.32ZM125.676 146.746C125.676 145.29 125.962 143.999 126.534 142.872C127.124 141.745 127.912 140.879 128.9 140.272C129.906 139.665 131.024 139.362 132.254 139.362C133.329 139.362 134.265 139.579 135.062 140.012C135.877 140.445 136.527 140.991 137.012 141.65V139.596H140.678V154H137.012V151.894C136.544 152.57 135.894 153.133 135.062 153.584C134.248 154.017 133.303 154.234 132.228 154.234C131.015 154.234 129.906 153.922 128.9 153.298C127.912 152.674 127.124 151.799 126.534 150.672C125.962 149.528 125.676 148.219 125.676 146.746ZM137.012 146.798C137.012 145.914 136.839 145.16 136.492 144.536C136.146 143.895 135.678 143.409 135.088 143.08C134.499 142.733 133.866 142.56 133.19 142.56C132.514 142.56 131.89 142.725 131.318 143.054C130.746 143.383 130.278 143.869 129.914 144.51C129.568 145.134 129.394 145.879 129.394 146.746C129.394 147.613 129.568 148.375 129.914 149.034C130.278 149.675 130.746 150.169 131.318 150.516C131.908 150.863 132.532 151.036 133.19 151.036C133.866 151.036 134.499 150.871 135.088 150.542C135.678 150.195 136.146 149.71 136.492 149.086C136.839 148.445 137.012 147.682 137.012 146.798ZM158.013 139.596L149.095 160.812H145.221L148.341 153.636L142.569 139.596H146.651L150.369 149.658L154.139 139.596H158.013ZM169.811 141.676C170.279 141.017 170.92 140.471 171.735 140.038C172.567 139.587 173.512 139.362 174.569 139.362C175.8 139.362 176.909 139.665 177.897 140.272C178.902 140.879 179.691 141.745 180.263 142.872C180.852 143.981 181.147 145.273 181.147 146.746C181.147 148.219 180.852 149.528 180.263 150.672C179.691 151.799 178.902 152.674 177.897 153.298C176.909 153.922 175.8 154.234 174.569 154.234C173.512 154.234 172.576 154.017 171.761 153.584C170.964 153.151 170.314 152.605 169.811 151.946V160.864H166.171V139.596H169.811V141.676ZM177.429 146.746C177.429 145.879 177.247 145.134 176.883 144.51C176.536 143.869 176.068 143.383 175.479 143.054C174.907 142.725 174.283 142.56 173.607 142.56C172.948 142.56 172.324 142.733 171.735 143.08C171.163 143.409 170.695 143.895 170.331 144.536C169.984 145.177 169.811 145.931 169.811 146.798C169.811 147.665 169.984 148.419 170.331 149.06C170.695 149.701 171.163 150.195 171.735 150.542C172.324 150.871 172.948 151.036 173.607 151.036C174.283 151.036 174.907 150.863 175.479 150.516C176.068 150.169 176.536 149.675 176.883 149.034C177.247 148.393 177.429 147.63 177.429 146.746ZM197.182 146.486C197.182 147.006 197.147 147.474 197.078 147.89H186.548C186.635 148.93 186.999 149.745 187.64 150.334C188.281 150.923 189.07 151.218 190.006 151.218C191.358 151.218 192.32 150.637 192.892 149.476H196.818C196.402 150.863 195.605 152.007 194.426 152.908C193.247 153.792 191.8 154.234 190.084 154.234C188.697 154.234 187.449 153.931 186.34 153.324C185.248 152.7 184.39 151.825 183.766 150.698C183.159 149.571 182.856 148.271 182.856 146.798C182.856 145.307 183.159 143.999 183.766 142.872C184.373 141.745 185.222 140.879 186.314 140.272C187.406 139.665 188.663 139.362 190.084 139.362C191.453 139.362 192.675 139.657 193.75 140.246C194.842 140.835 195.683 141.676 196.272 142.768C196.879 143.843 197.182 145.082 197.182 146.486ZM193.412 145.446C193.395 144.51 193.057 143.765 192.398 143.21C191.739 142.638 190.933 142.352 189.98 142.352C189.079 142.352 188.316 142.629 187.692 143.184C187.085 143.721 186.713 144.475 186.574 145.446H193.412ZM203.479 141.832C203.947 141.069 204.554 140.471 205.299 140.038C206.062 139.605 206.928 139.388 207.899 139.388V143.21H206.937C205.793 143.21 204.926 143.479 204.337 144.016C203.765 144.553 203.479 145.489 203.479 146.824V154H199.839V139.596H203.479V141.832ZM230.144 139.596V154H226.478V152.18C226.01 152.804 225.395 153.298 224.632 153.662C223.887 154.009 223.072 154.182 222.188 154.182C221.061 154.182 220.065 153.948 219.198 153.48C218.331 152.995 217.647 152.293 217.144 151.374C216.659 150.438 216.416 149.329 216.416 148.046V139.596H220.056V147.526C220.056 148.67 220.342 149.554 220.914 150.178C221.486 150.785 222.266 151.088 223.254 151.088C224.259 151.088 225.048 150.785 225.62 150.178C226.192 149.554 226.478 148.67 226.478 147.526V139.596H230.144ZM239.247 154.234C238.069 154.234 237.011 154.026 236.075 153.61C235.139 153.177 234.394 152.596 233.839 151.868C233.302 151.14 233.007 150.334 232.955 149.45H236.621C236.691 150.005 236.959 150.464 237.427 150.828C237.913 151.192 238.511 151.374 239.221 151.374C239.915 151.374 240.452 151.235 240.833 150.958C241.232 150.681 241.431 150.325 241.431 149.892C241.431 149.424 241.189 149.077 240.703 148.852C240.235 148.609 239.481 148.349 238.441 148.072C237.367 147.812 236.483 147.543 235.789 147.266C235.113 146.989 234.524 146.564 234.021 145.992C233.536 145.42 233.293 144.649 233.293 143.678C233.293 142.881 233.519 142.153 233.969 141.494C234.437 140.835 235.096 140.315 235.945 139.934C236.812 139.553 237.826 139.362 238.987 139.362C240.703 139.362 242.073 139.795 243.095 140.662C244.118 141.511 244.681 142.664 244.785 144.12H241.301C241.249 143.548 241.007 143.097 240.573 142.768C240.157 142.421 239.594 142.248 238.883 142.248C238.225 142.248 237.713 142.369 237.349 142.612C237.003 142.855 236.829 143.193 236.829 143.626C236.829 144.111 237.072 144.484 237.557 144.744C238.043 144.987 238.797 145.238 239.819 145.498C240.859 145.758 241.717 146.027 242.393 146.304C243.069 146.581 243.65 147.015 244.135 147.604C244.638 148.176 244.898 148.939 244.915 149.892C244.915 150.724 244.681 151.469 244.213 152.128C243.763 152.787 243.104 153.307 242.237 153.688C241.388 154.052 240.391 154.234 239.247 154.234ZM261.293 146.486C261.293 147.006 261.259 147.474 261.189 147.89H250.659C250.746 148.93 251.11 149.745 251.751 150.334C252.393 150.923 253.181 151.218 254.117 151.218C255.469 151.218 256.431 150.637 257.003 149.476H260.929C260.513 150.863 259.716 152.007 258.537 152.908C257.359 153.792 255.911 154.234 254.195 154.234C252.809 154.234 251.561 153.931 250.451 153.324C249.359 152.7 248.501 151.825 247.877 150.698C247.271 149.571 246.967 148.271 246.967 146.798C246.967 145.307 247.271 143.999 247.877 142.872C248.484 141.745 249.333 140.879 250.425 140.272C251.517 139.665 252.774 139.362 254.195 139.362C255.565 139.362 256.787 139.657 257.861 140.246C258.953 140.835 259.794 141.676 260.383 142.768C260.99 143.843 261.293 145.082 261.293 146.486ZM257.523 145.446C257.506 144.51 257.168 143.765 256.509 143.21C255.851 142.638 255.045 142.352 254.091 142.352C253.19 142.352 252.427 142.629 251.803 143.184C251.197 143.721 250.824 144.475 250.685 145.446H257.523Z" fill="white"/>
<path d="M49.2936 193.54V198.2H54.3736V199.7H49.2936V204.5H54.9736V206H47.4736V192.04H54.9736V193.54H49.2936ZM63.4475 206L60.8475 201.92L58.3475 206H56.4475L59.9875 200.56L56.4475 195.04H58.5075L61.1075 199.1L63.5875 195.04H65.4875L61.9675 200.46L65.5075 206H63.4475ZM69.1178 197.06C69.4778 196.433 70.0111 195.913 70.7178 195.5C71.4378 195.073 72.2711 194.86 73.2178 194.86C74.1911 194.86 75.0711 195.093 75.8578 195.56C76.6578 196.027 77.2845 196.687 77.7378 197.54C78.1911 198.38 78.4178 199.36 78.4178 200.48C78.4178 201.587 78.1911 202.573 77.7378 203.44C77.2845 204.307 76.6578 204.98 75.8578 205.46C75.0711 205.94 74.1911 206.18 73.2178 206.18C72.2845 206.18 71.4578 205.973 70.7378 205.56C70.0311 205.133 69.4911 204.607 69.1178 203.98V211.2H67.2978V195.04H69.1178V197.06ZM76.5578 200.48C76.5578 199.653 76.3911 198.933 76.0578 198.32C75.7245 197.707 75.2711 197.24 74.6978 196.92C74.1378 196.6 73.5178 196.44 72.8378 196.44C72.1711 196.44 71.5511 196.607 70.9778 196.94C70.4178 197.26 69.9645 197.733 69.6178 198.36C69.2845 198.973 69.1178 199.687 69.1178 200.5C69.1178 201.327 69.2845 202.053 69.6178 202.68C69.9645 203.293 70.4178 203.767 70.9778 204.1C71.5511 204.42 72.1711 204.58 72.8378 204.58C73.5178 204.58 74.1378 204.42 74.6978 204.1C75.2711 203.767 75.7245 203.293 76.0578 202.68C76.3911 202.053 76.5578 201.32 76.5578 200.48ZM80.1334 200.48C80.1334 199.36 80.3601 198.38 80.8134 197.54C81.2668 196.687 81.8868 196.027 82.6734 195.56C83.4734 195.093 84.3601 194.86 85.3334 194.86C86.2934 194.86 87.1268 195.067 87.8334 195.48C88.5401 195.893 89.0668 196.413 89.4134 197.04V195.04H91.2534V206H89.4134V203.96C89.0534 204.6 88.5134 205.133 87.7934 205.56C87.0868 205.973 86.2601 206.18 85.3134 206.18C84.3401 206.18 83.4601 205.94 82.6734 205.46C81.8868 204.98 81.2668 204.307 80.8134 203.44C80.3601 202.573 80.1334 201.587 80.1334 200.48ZM89.4134 200.5C89.4134 199.673 89.2468 198.953 88.9134 198.34C88.5801 197.727 88.1268 197.26 87.5534 196.94C86.9934 196.607 86.3734 196.44 85.6934 196.44C85.0134 196.44 84.3934 196.6 83.8334 196.92C83.2734 197.24 82.8268 197.707 82.4934 198.32C82.1601 198.933 81.9934 199.653 81.9934 200.48C81.9934 201.32 82.1601 202.053 82.4934 202.68C82.8268 203.293 83.2734 203.767 83.8334 204.1C84.3934 204.42 85.0134 204.58 85.6934 204.58C86.3734 204.58 86.9934 204.42 87.5534 204.1C88.1268 203.767 88.5801 203.293 88.9134 202.68C89.2468 202.053 89.4134 201.327 89.4134 200.5ZM99.6691 194.84C101.002 194.84 102.082 195.247 102.909 196.06C103.736 196.86 104.149 198.02 104.149 199.54V206H102.349V199.8C102.349 198.707 102.076 197.873 101.529 197.3C100.982 196.713 100.236 196.42 99.2891 196.42C98.3291 196.42 97.5624 196.72 96.9891 197.32C96.4291 197.92 96.1491 198.793 96.1491 199.94V206H94.3291V195.04H96.1491V196.6C96.5091 196.04 96.9957 195.607 97.6091 195.3C98.2357 194.993 98.9224 194.84 99.6691 194.84ZM106.442 200.48C106.442 199.36 106.669 198.38 107.122 197.54C107.575 196.687 108.195 196.027 108.982 195.56C109.782 195.093 110.675 194.86 111.662 194.86C112.515 194.86 113.309 195.06 114.042 195.46C114.775 195.847 115.335 196.36 115.722 197V191.2H117.562V206H115.722V203.94C115.362 204.593 114.829 205.133 114.122 205.56C113.415 205.973 112.589 206.18 111.642 206.18C110.669 206.18 109.782 205.94 108.982 205.46C108.195 204.98 107.575 204.307 107.122 203.44C106.669 202.573 106.442 201.587 106.442 200.48ZM115.722 200.5C115.722 199.673 115.555 198.953 115.222 198.34C114.889 197.727 114.435 197.26 113.862 196.94C113.302 196.607 112.682 196.44 112.002 196.44C111.322 196.44 110.702 196.6 110.142 196.92C109.582 197.24 109.135 197.707 108.802 198.32C108.469 198.933 108.302 199.653 108.302 200.48C108.302 201.32 108.469 202.053 108.802 202.68C109.135 203.293 109.582 203.767 110.142 204.1C110.702 204.42 111.322 204.58 112.002 204.58C112.682 204.58 113.302 204.42 113.862 204.1C114.435 203.767 114.889 203.293 115.222 202.68C115.555 202.053 115.722 201.327 115.722 200.5ZM119.958 200.48C119.958 199.36 120.184 198.38 120.638 197.54C121.091 196.687 121.711 196.027 122.498 195.56C123.298 195.093 124.184 194.86 125.158 194.86C126.118 194.86 126.951 195.067 127.658 195.48C128.364 195.893 128.891 196.413 129.238 197.04V195.04H131.078V206H129.238V203.96C128.878 204.6 128.338 205.133 127.618 205.56C126.911 205.973 126.084 206.18 125.138 206.18C124.164 206.18 123.284 205.94 122.498 205.46C121.711 204.98 121.091 204.307 120.638 203.44C120.184 202.573 119.958 201.587 119.958 200.48ZM129.238 200.5C129.238 199.673 129.071 198.953 128.738 198.34C128.404 197.727 127.951 197.26 127.378 196.94C126.818 196.607 126.198 196.44 125.518 196.44C124.838 196.44 124.218 196.6 123.658 196.92C123.098 197.24 122.651 197.707 122.318 198.32C121.984 198.933 121.818 199.653 121.818 200.48C121.818 201.32 121.984 202.053 122.318 202.68C122.651 203.293 123.098 203.767 123.658 204.1C124.218 204.42 124.838 204.58 125.518 204.58C126.198 204.58 126.818 204.42 127.378 204.1C127.951 203.767 128.404 203.293 128.738 202.68C129.071 202.053 129.238 201.327 129.238 200.5ZM143.365 206.18C142.525 206.18 141.772 206.04 141.105 205.76C140.439 205.467 139.912 205.067 139.525 204.56C139.139 204.04 138.925 203.447 138.885 202.78H140.765C140.819 203.327 141.072 203.773 141.525 204.12C141.992 204.467 142.599 204.64 143.345 204.64C144.039 204.64 144.585 204.487 144.985 204.18C145.385 203.873 145.585 203.487 145.585 203.02C145.585 202.54 145.372 202.187 144.945 201.96C144.519 201.72 143.859 201.487 142.965 201.26C142.152 201.047 141.485 200.833 140.965 200.62C140.459 200.393 140.019 200.067 139.645 199.64C139.285 199.2 139.105 198.627 139.105 197.92C139.105 197.36 139.272 196.847 139.605 196.38C139.939 195.913 140.412 195.547 141.025 195.28C141.639 195 142.339 194.86 143.125 194.86C144.339 194.86 145.319 195.167 146.065 195.78C146.812 196.393 147.212 197.233 147.265 198.3H145.445C145.405 197.727 145.172 197.267 144.745 196.92C144.332 196.573 143.772 196.4 143.065 196.4C142.412 196.4 141.892 196.54 141.505 196.82C141.119 197.1 140.925 197.467 140.925 197.92C140.925 198.28 141.039 198.58 141.265 198.82C141.505 199.047 141.799 199.233 142.145 199.38C142.505 199.513 142.999 199.667 143.625 199.84C144.412 200.053 145.052 200.267 145.545 200.48C146.039 200.68 146.459 200.987 146.805 201.4C147.165 201.813 147.352 202.353 147.365 203.02C147.365 203.62 147.199 204.16 146.865 204.64C146.532 205.12 146.059 205.5 145.445 205.78C144.845 206.047 144.152 206.18 143.365 206.18ZM159.935 200.1C159.935 200.447 159.915 200.813 159.875 201.2H151.115C151.181 202.28 151.548 203.127 152.215 203.74C152.895 204.34 153.715 204.64 154.675 204.64C155.461 204.64 156.115 204.46 156.635 204.1C157.168 203.727 157.541 203.233 157.755 202.62H159.715C159.421 203.673 158.835 204.533 157.955 205.2C157.075 205.853 155.981 206.18 154.675 206.18C153.635 206.18 152.701 205.947 151.875 205.48C151.061 205.013 150.421 204.353 149.955 203.5C149.488 202.633 149.255 201.633 149.255 200.5C149.255 199.367 149.481 198.373 149.935 197.52C150.388 196.667 151.021 196.013 151.835 195.56C152.661 195.093 153.608 194.86 154.675 194.86C155.715 194.86 156.635 195.087 157.435 195.54C158.235 195.993 158.848 196.62 159.275 197.42C159.715 198.207 159.935 199.1 159.935 200.1ZM158.055 199.72C158.055 199.027 157.901 198.433 157.595 197.94C157.288 197.433 156.868 197.053 156.335 196.8C155.815 196.533 155.235 196.4 154.595 196.4C153.675 196.4 152.888 196.693 152.235 197.28C151.595 197.867 151.228 198.68 151.135 199.72H158.055ZM172.057 195.04V206H170.237V204.38C169.89 204.94 169.404 205.38 168.777 205.7C168.164 206.007 167.484 206.16 166.737 206.16C165.884 206.16 165.117 205.987 164.437 205.64C163.757 205.28 163.217 204.747 162.817 204.04C162.43 203.333 162.237 202.473 162.237 201.46V195.04H164.037V201.22C164.037 202.3 164.31 203.133 164.857 203.72C165.404 204.293 166.15 204.58 167.097 204.58C168.07 204.58 168.837 204.28 169.397 203.68C169.957 203.08 170.237 202.207 170.237 201.06V195.04H172.057ZM179.01 206.18C178.17 206.18 177.417 206.04 176.75 205.76C176.083 205.467 175.557 205.067 175.17 204.56C174.783 204.04 174.57 203.447 174.53 202.78H176.41C176.463 203.327 176.717 203.773 177.17 204.12C177.637 204.467 178.243 204.64 178.99 204.64C179.683 204.64 180.23 204.487 180.63 204.18C181.03 203.873 181.23 203.487 181.23 203.02C181.23 202.54 181.017 202.187 180.59 201.96C180.163 201.72 179.503 201.487 178.61 201.26C177.797 201.047 177.13 200.833 176.61 200.62C176.103 200.393 175.663 200.067 175.29 199.64C174.93 199.2 174.75 198.627 174.75 197.92C174.75 197.36 174.917 196.847 175.25 196.38C175.583 195.913 176.057 195.547 176.67 195.28C177.283 195 177.983 194.86 178.77 194.86C179.983 194.86 180.963 195.167 181.71 195.78C182.457 196.393 182.857 197.233 182.91 198.3H181.09C181.05 197.727 180.817 197.267 180.39 196.92C179.977 196.573 179.417 196.4 178.71 196.4C178.057 196.4 177.537 196.54 177.15 196.82C176.763 197.1 176.57 197.467 176.57 197.92C176.57 198.28 176.683 198.58 176.91 198.82C177.15 199.047 177.443 199.233 177.79 199.38C178.15 199.513 178.643 199.667 179.27 199.84C180.057 200.053 180.697 200.267 181.19 200.48C181.683 200.68 182.103 200.987 182.45 201.4C182.81 201.813 182.997 202.353 183.01 203.02C183.01 203.62 182.843 204.16 182.51 204.64C182.177 205.12 181.703 205.5 181.09 205.78C180.49 206.047 179.797 206.18 179.01 206.18ZM196.251 194.84C197.584 194.84 198.664 195.247 199.491 196.06C200.318 196.86 200.731 198.02 200.731 199.54V206H198.931V199.8C198.931 198.707 198.658 197.873 198.111 197.3C197.564 196.713 196.818 196.42 195.871 196.42C194.911 196.42 194.144 196.72 193.571 197.32C193.011 197.92 192.731 198.793 192.731 199.94V206H190.911V195.04H192.731V196.6C193.091 196.04 193.578 195.607 194.191 195.3C194.818 194.993 195.504 194.84 196.251 194.84ZM213.704 200.1C213.704 200.447 213.684 200.813 213.644 201.2H204.884C204.951 202.28 205.317 203.127 205.984 203.74C206.664 204.34 207.484 204.64 208.444 204.64C209.231 204.64 209.884 204.46 210.404 204.1C210.937 203.727 211.311 203.233 211.524 202.62H213.484C213.191 203.673 212.604 204.533 211.724 205.2C210.844 205.853 209.751 206.18 208.444 206.18C207.404 206.18 206.471 205.947 205.644 205.48C204.831 205.013 204.191 204.353 203.724 203.5C203.257 202.633 203.024 201.633 203.024 200.5C203.024 199.367 203.251 198.373 203.704 197.52C204.157 196.667 204.791 196.013 205.604 195.56C206.431 195.093 207.377 194.86 208.444 194.86C209.484 194.86 210.404 195.087 211.204 195.54C212.004 195.993 212.617 196.62 213.044 197.42C213.484 198.207 213.704 199.1 213.704 200.1ZM211.824 199.72C211.824 199.027 211.671 198.433 211.364 197.94C211.057 197.433 210.637 197.053 210.104 196.8C209.584 196.533 209.004 196.4 208.364 196.4C207.444 196.4 206.657 196.693 206.004 197.28C205.364 197.867 204.997 198.68 204.904 199.72H211.824ZM220.626 194.86C221.573 194.86 222.4 195.067 223.106 195.48C223.826 195.893 224.36 196.413 224.706 197.04V195.04H226.546V206.24C226.546 207.24 226.333 208.127 225.906 208.9C225.48 209.687 224.866 210.3 224.066 210.74C223.28 211.18 222.36 211.4 221.306 211.4C219.866 211.4 218.666 211.06 217.706 210.38C216.746 209.7 216.18 208.773 216.006 207.6H217.806C218.006 208.267 218.42 208.8 219.046 209.2C219.673 209.613 220.426 209.82 221.306 209.82C222.306 209.82 223.12 209.507 223.746 208.88C224.386 208.253 224.706 207.373 224.706 206.24V203.94C224.346 204.58 223.813 205.113 223.106 205.54C222.4 205.967 221.573 206.18 220.626 206.18C219.653 206.18 218.766 205.94 217.966 205.46C217.18 204.98 216.56 204.307 216.106 203.44C215.653 202.573 215.426 201.587 215.426 200.48C215.426 199.36 215.653 198.38 216.106 197.54C216.56 196.687 217.18 196.027 217.966 195.56C218.766 195.093 219.653 194.86 220.626 194.86ZM224.706 200.5C224.706 199.673 224.54 198.953 224.206 198.34C223.873 197.727 223.42 197.26 222.846 196.94C222.286 196.607 221.666 196.44 220.986 196.44C220.306 196.44 219.686 196.6 219.126 196.92C218.566 197.24 218.12 197.707 217.786 198.32C217.453 198.933 217.286 199.653 217.286 200.48C217.286 201.32 217.453 202.053 217.786 202.68C218.12 203.293 218.566 203.767 219.126 204.1C219.686 204.42 220.306 204.58 220.986 204.58C221.666 204.58 222.286 204.42 222.846 204.1C223.42 203.767 223.873 203.293 224.206 202.68C224.54 202.053 224.706 201.327 224.706 200.5ZM234.402 206.18C233.375 206.18 232.442 205.947 231.602 205.48C230.775 205.013 230.122 204.353 229.642 203.5C229.175 202.633 228.942 201.633 228.942 200.5C228.942 199.38 229.182 198.393 229.662 197.54C230.155 196.673 230.822 196.013 231.662 195.56C232.502 195.093 233.442 194.86 234.482 194.86C235.522 194.86 236.462 195.093 237.302 195.56C238.142 196.013 238.802 196.667 239.282 197.52C239.775 198.373 240.022 199.367 240.022 200.5C240.022 201.633 239.769 202.633 239.262 203.5C238.769 204.353 238.095 205.013 237.242 205.48C236.389 205.947 235.442 206.18 234.402 206.18ZM234.402 204.58C235.055 204.58 235.669 204.427 236.242 204.12C236.815 203.813 237.275 203.353 237.622 202.74C237.982 202.127 238.162 201.38 238.162 200.5C238.162 199.62 237.989 198.873 237.642 198.26C237.295 197.647 236.842 197.193 236.282 196.9C235.722 196.593 235.115 196.44 234.462 196.44C233.795 196.44 233.182 196.593 232.622 196.9C232.075 197.193 231.635 197.647 231.302 198.26C230.969 198.873 230.802 199.62 230.802 200.5C230.802 201.393 230.962 202.147 231.282 202.76C231.615 203.373 232.055 203.833 232.602 204.14C233.149 204.433 233.749 204.58 234.402 204.58ZM236.442 191.8L232.182 194.08V192.72L236.442 190.22V191.8ZM241.735 200.5C241.735 199.367 241.962 198.38 242.415 197.54C242.868 196.687 243.495 196.027 244.295 195.56C245.108 195.093 246.035 194.86 247.075 194.86C248.422 194.86 249.528 195.187 250.395 195.84C251.275 196.493 251.855 197.4 252.135 198.56H250.175C249.988 197.893 249.622 197.367 249.075 196.98C248.542 196.593 247.875 196.4 247.075 196.4C246.035 196.4 245.195 196.76 244.555 197.48C243.915 198.187 243.595 199.193 243.595 200.5C243.595 201.82 243.915 202.84 244.555 203.56C245.195 204.28 246.035 204.64 247.075 204.64C247.875 204.64 248.542 204.453 249.075 204.08C249.608 203.707 249.975 203.173 250.175 202.48H252.135C251.842 203.6 251.255 204.5 250.375 205.18C249.495 205.847 248.395 206.18 247.075 206.18C246.035 206.18 245.108 205.947 244.295 205.48C243.495 205.013 242.868 204.353 242.415 203.5C241.962 202.647 241.735 201.647 241.735 200.5ZM255.503 193.26C255.157 193.26 254.863 193.14 254.623 192.9C254.383 192.66 254.263 192.367 254.263 192.02C254.263 191.673 254.383 191.38 254.623 191.14C254.863 190.9 255.157 190.78 255.503 190.78C255.837 190.78 256.117 190.9 256.343 191.14C256.583 191.38 256.703 191.673 256.703 192.02C256.703 192.367 256.583 192.66 256.343 192.9C256.117 193.14 255.837 193.26 255.503 193.26ZM256.383 195.04V206H254.563V195.04H256.383ZM264.265 206.18C263.239 206.18 262.305 205.947 261.465 205.48C260.639 205.013 259.985 204.353 259.505 203.5C259.039 202.633 258.805 201.633 258.805 200.5C258.805 199.38 259.045 198.393 259.525 197.54C260.019 196.673 260.685 196.013 261.525 195.56C262.365 195.093 263.305 194.86 264.345 194.86C265.385 194.86 266.325 195.093 267.165 195.56C268.005 196.013 268.665 196.667 269.145 197.52C269.639 198.373 269.885 199.367 269.885 200.5C269.885 201.633 269.632 202.633 269.125 203.5C268.632 204.353 267.959 205.013 267.105 205.48C266.252 205.947 265.305 206.18 264.265 206.18ZM264.265 204.58C264.919 204.58 265.532 204.427 266.105 204.12C266.679 203.813 267.139 203.353 267.485 202.74C267.845 202.127 268.025 201.38 268.025 200.5C268.025 199.62 267.852 198.873 267.505 198.26C267.159 197.647 266.705 197.193 266.145 196.9C265.585 196.593 264.979 196.44 264.325 196.44C263.659 196.44 263.045 196.593 262.485 196.9C261.939 197.193 261.499 197.647 261.165 198.26C260.832 198.873 260.665 199.62 260.665 200.5C260.665 201.393 260.825 202.147 261.145 202.76C261.479 203.373 261.919 203.833 262.465 204.14C263.012 204.433 263.612 204.58 264.265 204.58ZM276.158 206.18C275.318 206.18 274.565 206.04 273.898 205.76C273.232 205.467 272.705 205.067 272.318 204.56C271.932 204.04 271.718 203.447 271.678 202.78H273.558C273.612 203.327 273.865 203.773 274.318 204.12C274.785 204.467 275.392 204.64 276.138 204.64C276.832 204.64 277.378 204.487 277.778 204.18C278.178 203.873 278.378 203.487 278.378 203.02C278.378 202.54 278.165 202.187 277.738 201.96C277.312 201.72 276.652 201.487 275.758 201.26C274.945 201.047 274.278 200.833 273.758 200.62C273.252 200.393 272.812 200.067 272.438 199.64C272.078 199.2 271.898 198.627 271.898 197.92C271.898 197.36 272.065 196.847 272.398 196.38C272.732 195.913 273.205 195.547 273.818 195.28C274.432 195 275.132 194.86 275.918 194.86C277.132 194.86 278.112 195.167 278.858 195.78C279.605 196.393 280.005 197.233 280.058 198.3H278.238C278.198 197.727 277.965 197.267 277.538 196.92C277.125 196.573 276.565 196.4 275.858 196.4C275.205 196.4 274.685 196.54 274.298 196.82C273.912 197.1 273.718 197.467 273.718 197.92C273.718 198.28 273.832 198.58 274.058 198.82C274.298 199.047 274.592 199.233 274.938 199.38C275.298 199.513 275.792 199.667 276.418 199.84C277.205 200.053 277.845 200.267 278.338 200.48C278.832 200.68 279.252 200.987 279.598 201.4C279.958 201.813 280.145 202.353 280.158 203.02C280.158 203.62 279.992 204.16 279.658 204.64C279.325 205.12 278.852 205.5 278.238 205.78C277.638 206.047 276.945 206.18 276.158 206.18ZM287.38 200.5C287.38 199.367 287.606 198.38 288.06 197.54C288.513 196.687 289.14 196.027 289.94 195.56C290.753 195.093 291.68 194.86 292.72 194.86C294.066 194.86 295.173 195.187 296.04 195.84C296.92 196.493 297.5 197.4 297.78 198.56H295.82C295.633 197.893 295.266 197.367 294.72 196.98C294.186 196.593 293.52 196.4 292.72 196.4C291.68 196.4 290.84 196.76 290.2 197.48C289.56 198.187 289.24 199.193 289.24 200.5C289.24 201.82 289.56 202.84 290.2 203.56C290.84 204.28 291.68 204.64 292.72 204.64C293.52 204.64 294.186 204.453 294.72 204.08C295.253 203.707 295.62 203.173 295.82 202.48H297.78C297.486 203.6 296.9 204.5 296.02 205.18C295.14 205.847 294.04 206.18 292.72 206.18C291.68 206.18 290.753 205.947 289.94 205.48C289.14 205.013 288.513 204.353 288.06 203.5C287.606 202.647 287.38 201.647 287.38 200.5ZM304.988 206.18C303.961 206.18 303.028 205.947 302.188 205.48C301.361 205.013 300.708 204.353 300.228 203.5C299.761 202.633 299.528 201.633 299.528 200.5C299.528 199.38 299.768 198.393 300.248 197.54C300.741 196.673 301.408 196.013 302.248 195.56C303.088 195.093 304.028 194.86 305.068 194.86C306.108 194.86 307.048 195.093 307.888 195.56C308.728 196.013 309.388 196.667 309.868 197.52C310.361 198.373 310.608 199.367 310.608 200.5C310.608 201.633 310.355 202.633 309.848 203.5C309.355 204.353 308.681 205.013 307.828 205.48C306.975 205.947 306.028 206.18 304.988 206.18ZM304.988 204.58C305.641 204.58 306.255 204.427 306.828 204.12C307.401 203.813 307.861 203.353 308.208 202.74C308.568 202.127 308.748 201.38 308.748 200.5C308.748 199.62 308.575 198.873 308.228 198.26C307.881 197.647 307.428 197.193 306.868 196.9C306.308 196.593 305.701 196.44 305.048 196.44C304.381 196.44 303.768 196.593 303.208 196.9C302.661 197.193 302.221 197.647 301.888 198.26C301.555 198.873 301.388 199.62 301.388 200.5C301.388 201.393 301.548 202.147 301.868 202.76C302.201 203.373 302.641 203.833 303.188 204.14C303.735 204.433 304.335 204.58 304.988 204.58ZM326.181 194.84C327.034 194.84 327.794 195.02 328.461 195.38C329.128 195.727 329.654 196.253 330.041 196.96C330.428 197.667 330.621 198.527 330.621 199.54V206H328.821V199.8C328.821 198.707 328.548 197.873 328.001 197.3C327.468 196.713 326.741 196.42 325.821 196.42C324.874 196.42 324.121 196.727 323.561 197.34C323.001 197.94 322.721 198.813 322.721 199.96V206H320.921V199.8C320.921 198.707 320.648 197.873 320.101 197.3C319.568 196.713 318.841 196.42 317.921 196.42C316.974 196.42 316.221 196.727 315.661 197.34C315.101 197.94 314.821 198.813 314.821 199.96V206H313.001V195.04H314.821V196.62C315.181 196.047 315.661 195.607 316.261 195.3C316.874 194.993 317.548 194.84 318.281 194.84C319.201 194.84 320.014 195.047 320.721 195.46C321.428 195.873 321.954 196.48 322.301 197.28C322.608 196.507 323.114 195.907 323.821 195.48C324.528 195.053 325.314 194.84 326.181 194.84ZM41.6471 227.06C42.0071 226.433 42.5404 225.913 43.2471 225.5C43.9671 225.073 44.8004 224.86 45.7471 224.86C46.7204 224.86 47.6004 225.093 48.3871 225.56C49.1871 226.027 49.8138 226.687 50.2671 227.54C50.7204 228.38 50.9471 229.36 50.9471 230.48C50.9471 231.587 50.7204 232.573 50.2671 233.44C49.8138 234.307 49.1871 234.98 48.3871 235.46C47.6004 235.94 46.7204 236.18 45.7471 236.18C44.8138 236.18 43.9871 235.973 43.2671 235.56C42.5604 235.133 42.0204 234.607 41.6471 233.98V241.2H39.8271V225.04H41.6471V227.06ZM49.0871 230.48C49.0871 229.653 48.9204 228.933 48.5871 228.32C48.2538 227.707 47.8004 227.24 47.2271 226.92C46.6671 226.6 46.0471 226.44 45.3671 226.44C44.7004 226.44 44.0804 226.607 43.5071 226.94C42.9471 227.26 42.4938 227.733 42.1471 228.36C41.8138 228.973 41.6471 229.687 41.6471 230.5C41.6471 231.327 41.8138 232.053 42.1471 232.68C42.4938 233.293 42.9471 233.767 43.5071 234.1C44.0804 234.42 44.7004 234.58 45.3671 234.58C46.0471 234.58 46.6671 234.42 47.2271 234.1C47.8004 233.767 48.2538 233.293 48.5871 232.68C48.9204 232.053 49.0871 231.32 49.0871 230.48ZM55.1627 226.82C55.4827 226.193 55.9361 225.707 56.5227 225.36C57.1227 225.013 57.8494 224.84 58.7027 224.84V226.72H58.2227C56.1827 226.72 55.1627 227.827 55.1627 230.04V236H53.3427V225.04H55.1627V226.82ZM70.8037 230.1C70.8037 230.447 70.7837 230.813 70.7437 231.2H61.9837C62.0503 232.28 62.417 233.127 63.0837 233.74C63.7637 234.34 64.5837 234.64 65.5437 234.64C66.3303 234.64 66.9837 234.46 67.5037 234.1C68.037 233.727 68.4103 233.233 68.6237 232.62H70.5837C70.2903 233.673 69.7037 234.533 68.8237 235.2C67.9437 235.853 66.8503 236.18 65.5437 236.18C64.5037 236.18 63.5703 235.947 62.7437 235.48C61.9303 235.013 61.2903 234.353 60.8237 233.5C60.357 232.633 60.1237 231.633 60.1237 230.5C60.1237 229.367 60.3503 228.373 60.8037 227.52C61.257 226.667 61.8903 226.013 62.7037 225.56C63.5303 225.093 64.477 224.86 65.5437 224.86C66.5837 224.86 67.5037 225.087 68.3037 225.54C69.1037 225.993 69.717 226.62 70.1437 227.42C70.5837 228.207 70.8037 229.1 70.8037 230.1ZM68.9237 229.72C68.9237 229.027 68.7703 228.433 68.4637 227.94C68.157 227.433 67.737 227.053 67.2037 226.8C66.6837 226.533 66.1037 226.4 65.4637 226.4C64.5437 226.4 63.757 226.693 63.1037 227.28C62.4637 227.867 62.097 228.68 62.0037 229.72H68.9237ZM77.866 234.64C78.666 234.64 79.3327 234.453 79.866 234.08C80.3993 233.707 80.766 233.173 80.966 232.48H82.926C82.6593 233.52 82.1327 234.373 81.346 235.04C80.5727 235.693 79.5993 236.067 78.426 236.16V237.16C79.2127 237.147 79.8393 237.313 80.306 237.66C80.7727 238.007 81.006 238.5 81.006 239.14C81.006 239.767 80.7793 240.267 80.326 240.64C79.8727 241.013 79.286 241.2 78.566 241.2H76.266V240.02H78.206C78.646 240.02 78.966 239.953 79.166 239.82C79.3793 239.687 79.486 239.46 79.486 239.14C79.486 238.833 79.3793 238.613 79.166 238.48C78.966 238.347 78.646 238.28 78.206 238.28H77.206V236.14C76.286 236.047 75.4727 235.76 74.766 235.28C74.0593 234.787 73.506 234.133 73.106 233.32C72.7193 232.493 72.526 231.553 72.526 230.5C72.526 229.367 72.7527 228.38 73.206 227.54C73.6593 226.687 74.286 226.027 75.086 225.56C75.8993 225.093 76.826 224.86 77.866 224.86C79.2127 224.86 80.3193 225.187 81.186 225.84C82.066 226.493 82.646 227.4 82.926 228.56H80.966C80.7793 227.893 80.4127 227.367 79.866 226.98C79.3327 226.593 78.666 226.4 77.866 226.4C76.826 226.4 75.986 226.76 75.346 227.48C74.706 228.187 74.386 229.193 74.386 230.5C74.386 231.82 74.706 232.84 75.346 233.56C75.986 234.28 76.826 234.64 77.866 234.64ZM90.1345 236.18C89.1078 236.18 88.1745 235.947 87.3345 235.48C86.5078 235.013 85.8545 234.353 85.3745 233.5C84.9078 232.633 84.6745 231.633 84.6745 230.5C84.6745 229.38 84.9145 228.393 85.3945 227.54C85.8878 226.673 86.5545 226.013 87.3945 225.56C88.2345 225.093 89.1745 224.86 90.2145 224.86C91.2545 224.86 92.1945 225.093 93.0345 225.56C93.8745 226.013 94.5345 226.667 95.0145 227.52C95.5078 228.373 95.7545 229.367 95.7545 230.5C95.7545 231.633 95.5011 232.633 94.9945 233.5C94.5011 234.353 93.8278 235.013 92.9745 235.48C92.1211 235.947 91.1745 236.18 90.1345 236.18ZM90.1345 234.58C90.7878 234.58 91.4011 234.427 91.9745 234.12C92.5478 233.813 93.0078 233.353 93.3545 232.74C93.7145 232.127 93.8945 231.38 93.8945 230.5C93.8945 229.62 93.7211 228.873 93.3745 228.26C93.0278 227.647 92.5745 227.193 92.0145 226.9C91.4545 226.593 90.8478 226.44 90.1945 226.44C89.5278 226.44 88.9145 226.593 88.3545 226.9C87.8078 227.193 87.3678 227.647 87.0345 228.26C86.7011 228.873 86.5345 229.62 86.5345 230.5C86.5345 231.393 86.6945 232.147 87.0145 232.76C87.3478 233.373 87.7878 233.833 88.3345 234.14C88.8811 234.433 89.4811 234.58 90.1345 234.58ZM102.027 236.18C101.187 236.18 100.434 236.04 99.7674 235.76C99.1008 235.467 98.5741 235.067 98.1874 234.56C97.8008 234.04 97.5874 233.447 97.5474 232.78H99.4274C99.4808 233.327 99.7341 233.773 100.187 234.12C100.654 234.467 101.261 234.64 102.007 234.64C102.701 234.64 103.247 234.487 103.647 234.18C104.047 233.873 104.247 233.487 104.247 233.02C104.247 232.54 104.034 232.187 103.607 231.96C103.181 231.72 102.521 231.487 101.627 231.26C100.814 231.047 100.147 230.833 99.6274 230.62C99.1208 230.393 98.6808 230.067 98.3074 229.64C97.9474 229.2 97.7674 228.627 97.7674 227.92C97.7674 227.36 97.9341 226.847 98.2674 226.38C98.6008 225.913 99.0741 225.547 99.6874 225.28C100.301 225 101.001 224.86 101.787 224.86C103.001 224.86 103.981 225.167 104.727 225.78C105.474 226.393 105.874 227.233 105.927 228.3H104.107C104.067 227.727 103.834 227.267 103.407 226.92C102.994 226.573 102.434 226.4 101.727 226.4C101.074 226.4 100.554 226.54 100.167 226.82C99.7808 227.1 99.5874 227.467 99.5874 227.92C99.5874 228.28 99.7008 228.58 99.9274 228.82C100.167 229.047 100.461 229.233 100.807 229.38C101.167 229.513 101.661 229.667 102.287 229.84C103.074 230.053 103.714 230.267 104.207 230.48C104.701 230.68 105.121 230.987 105.467 231.4C105.827 231.813 106.014 232.353 106.027 233.02C106.027 233.62 105.861 234.16 105.527 234.64C105.194 235.12 104.721 235.5 104.107 235.78C103.507 236.047 102.814 236.18 102.027 236.18ZM116.149 226.54V233C116.149 233.533 116.262 233.913 116.489 234.14C116.715 234.353 117.109 234.46 117.669 234.46H119.009V236H117.369C116.355 236 115.595 235.767 115.089 235.3C114.582 234.833 114.329 234.067 114.329 233V226.54H112.909V225.04H114.329V222.28H116.149V225.04H119.009V226.54H116.149ZM123.034 226.82C123.354 226.193 123.807 225.707 124.394 225.36C124.994 225.013 125.72 224.84 126.574 224.84V226.72H126.094C124.054 226.72 123.034 227.827 123.034 230.04V236H121.214V225.04H123.034V226.82ZM127.995 230.48C127.995 229.36 128.221 228.38 128.675 227.54C129.128 226.687 129.748 226.027 130.535 225.56C131.335 225.093 132.221 224.86 133.195 224.86C134.155 224.86 134.988 225.067 135.695 225.48C136.401 225.893 136.928 226.413 137.275 227.04V225.04H139.115V236H137.275V233.96C136.915 234.6 136.375 235.133 135.655 235.56C134.948 235.973 134.121 236.18 133.175 236.18C132.201 236.18 131.321 235.94 130.535 235.46C129.748 234.98 129.128 234.307 128.675 233.44C128.221 232.573 127.995 231.587 127.995 230.48ZM137.275 230.5C137.275 229.673 137.108 228.953 136.775 228.34C136.441 227.727 135.988 227.26 135.415 226.94C134.855 226.607 134.235 226.44 133.555 226.44C132.875 226.44 132.255 226.6 131.695 226.92C131.135 227.24 130.688 227.707 130.355 228.32C130.021 228.933 129.855 229.653 129.855 230.48C129.855 231.32 130.021 232.053 130.355 232.68C130.688 233.293 131.135 233.767 131.695 234.1C132.255 234.42 132.875 234.58 133.555 234.58C134.235 234.58 134.855 234.42 135.415 234.1C135.988 233.767 136.441 233.293 136.775 232.68C137.108 232.053 137.275 231.327 137.275 230.5ZM147.53 224.84C148.864 224.84 149.944 225.247 150.77 226.06C151.597 226.86 152.01 228.02 152.01 229.54V236H150.21V229.8C150.21 228.707 149.937 227.873 149.39 227.3C148.844 226.713 148.097 226.42 147.15 226.42C146.19 226.42 145.424 226.72 144.85 227.32C144.29 227.92 144.01 228.793 144.01 229.94V236H142.19V225.04H144.01V226.6C144.37 226.04 144.857 225.607 145.47 225.3C146.097 224.993 146.784 224.84 147.53 224.84ZM158.863 236.18C158.023 236.18 157.27 236.04 156.603 235.76C155.937 235.467 155.41 235.067 155.023 234.56C154.637 234.04 154.423 233.447 154.383 232.78H156.263C156.317 233.327 156.57 233.773 157.023 234.12C157.49 234.467 158.097 234.64 158.843 234.64C159.537 234.64 160.083 234.487 160.483 234.18C160.883 233.873 161.083 233.487 161.083 233.02C161.083 232.54 160.87 232.187 160.443 231.96C160.017 231.72 159.357 231.487 158.463 231.26C157.65 231.047 156.983 230.833 156.463 230.62C155.957 230.393 155.517 230.067 155.143 229.64C154.783 229.2 154.603 228.627 154.603 227.92C154.603 227.36 154.77 226.847 155.103 226.38C155.437 225.913 155.91 225.547 156.523 225.28C157.137 225 157.837 224.86 158.623 224.86C159.837 224.86 160.817 225.167 161.563 225.78C162.31 226.393 162.71 227.233 162.763 228.3H160.943C160.903 227.727 160.67 227.267 160.243 226.92C159.83 226.573 159.27 226.4 158.563 226.4C157.91 226.4 157.39 226.54 157.003 226.82C156.617 227.1 156.423 227.467 156.423 227.92C156.423 228.28 156.537 228.58 156.763 228.82C157.003 229.047 157.297 229.233 157.643 229.38C158.003 229.513 158.497 229.667 159.123 229.84C159.91 230.053 160.55 230.267 161.043 230.48C161.537 230.68 161.957 230.987 162.303 231.4C162.663 231.813 162.85 232.353 162.863 233.02C162.863 233.62 162.697 234.16 162.363 234.64C162.03 235.12 161.557 235.5 160.943 235.78C160.343 236.047 159.65 236.18 158.863 236.18ZM167.253 227.06C167.613 226.433 168.146 225.913 168.853 225.5C169.573 225.073 170.406 224.86 171.353 224.86C172.326 224.86 173.206 225.093 173.993 225.56C174.793 226.027 175.419 226.687 175.873 227.54C176.326 228.38 176.553 229.36 176.553 230.48C176.553 231.587 176.326 232.573 175.873 233.44C175.419 234.307 174.793 234.98 173.993 235.46C173.206 235.94 172.326 236.18 171.353 236.18C170.419 236.18 169.593 235.973 168.873 235.56C168.166 235.133 167.626 234.607 167.253 233.98V241.2H165.433V225.04H167.253V227.06ZM174.693 230.48C174.693 229.653 174.526 228.933 174.193 228.32C173.859 227.707 173.406 227.24 172.833 226.92C172.273 226.6 171.653 226.44 170.973 226.44C170.306 226.44 169.686 226.607 169.113 226.94C168.553 227.26 168.099 227.733 167.753 228.36C167.419 228.973 167.253 229.687 167.253 230.5C167.253 231.327 167.419 232.053 167.753 232.68C168.099 233.293 168.553 233.767 169.113 234.1C169.686 234.42 170.306 234.58 170.973 234.58C171.653 234.58 172.273 234.42 172.833 234.1C173.406 233.767 173.859 233.293 174.193 232.68C174.526 232.053 174.693 231.32 174.693 230.48ZM178.268 230.48C178.268 229.36 178.495 228.38 178.948 227.54C179.402 226.687 180.022 226.027 180.808 225.56C181.608 225.093 182.495 224.86 183.468 224.86C184.428 224.86 185.262 225.067 185.968 225.48C186.675 225.893 187.202 226.413 187.548 227.04V225.04H189.388V236H187.548V233.96C187.188 234.6 186.648 235.133 185.928 235.56C185.222 235.973 184.395 236.18 183.448 236.18C182.475 236.18 181.595 235.94 180.808 235.46C180.022 234.98 179.402 234.307 178.948 233.44C178.495 232.573 178.268 231.587 178.268 230.48ZM187.548 230.5C187.548 229.673 187.382 228.953 187.048 228.34C186.715 227.727 186.262 227.26 185.688 226.94C185.128 226.607 184.508 226.44 183.828 226.44C183.148 226.44 182.528 226.6 181.968 226.92C181.408 227.24 180.962 227.707 180.628 228.32C180.295 228.933 180.128 229.653 180.128 230.48C180.128 231.32 180.295 232.053 180.628 232.68C180.962 233.293 181.408 233.767 181.968 234.1C182.528 234.42 183.148 234.58 183.828 234.58C184.508 234.58 185.128 234.42 185.688 234.1C186.262 233.767 186.715 233.293 187.048 232.68C187.382 232.053 187.548 231.327 187.548 230.5ZM194.284 226.82C194.604 226.193 195.057 225.707 195.644 225.36C196.244 225.013 196.97 224.84 197.824 224.84V226.72H197.344C195.304 226.72 194.284 227.827 194.284 230.04V236H192.464V225.04H194.284V226.82ZM209.925 230.1C209.925 230.447 209.905 230.813 209.865 231.2H201.105C201.171 232.28 201.538 233.127 202.205 233.74C202.885 234.34 203.705 234.64 204.665 234.64C205.451 234.64 206.105 234.46 206.625 234.1C207.158 233.727 207.531 233.233 207.745 232.62H209.705C209.411 233.673 208.825 234.533 207.945 235.2C207.065 235.853 205.971 236.18 204.665 236.18C203.625 236.18 202.691 235.947 201.865 235.48C201.051 235.013 200.411 234.353 199.945 233.5C199.478 232.633 199.245 231.633 199.245 230.5C199.245 229.367 199.471 228.373 199.925 227.52C200.378 226.667 201.011 226.013 201.825 225.56C202.651 225.093 203.598 224.86 204.665 224.86C205.705 224.86 206.625 225.087 207.425 225.54C208.225 225.993 208.838 226.62 209.265 227.42C209.705 228.207 209.925 229.1 209.925 230.1ZM208.045 229.72C208.045 229.027 207.891 228.433 207.585 227.94C207.278 227.433 206.858 227.053 206.325 226.8C205.805 226.533 205.225 226.4 204.585 226.4C203.665 226.4 202.878 226.693 202.225 227.28C201.585 227.867 201.218 228.68 201.125 229.72H208.045ZM217.667 224.84C219 224.84 220.08 225.247 220.907 226.06C221.734 226.86 222.147 228.02 222.147 229.54V236H220.347V229.8C220.347 228.707 220.074 227.873 219.527 227.3C218.98 226.713 218.234 226.42 217.287 226.42C216.327 226.42 215.56 226.72 214.987 227.32C214.427 227.92 214.147 228.793 214.147 229.94V236H212.327V225.04H214.147V226.6C214.507 226.04 214.994 225.607 215.607 225.3C216.234 224.993 216.92 224.84 217.667 224.84ZM227.34 226.54V233C227.34 233.533 227.453 233.913 227.68 234.14C227.907 234.353 228.3 234.46 228.86 234.46H230.2V236H228.56C227.547 236 226.787 235.767 226.28 235.3C225.773 234.833 225.52 234.067 225.52 233V226.54H224.1V225.04H225.52V222.28H227.34V225.04H230.2V226.54H227.34ZM242.405 230.1C242.405 230.447 242.385 230.813 242.345 231.2H233.585C233.652 232.28 234.019 233.127 234.685 233.74C235.365 234.34 236.185 234.64 237.145 234.64C237.932 234.64 238.585 234.46 239.105 234.1C239.639 233.727 240.012 233.233 240.225 232.62H242.185C241.892 233.673 241.305 234.533 240.425 235.2C239.545 235.853 238.452 236.18 237.145 236.18C236.105 236.18 235.172 235.947 234.345 235.48C233.532 235.013 232.892 234.353 232.425 233.5C231.959 232.633 231.725 231.633 231.725 230.5C231.725 229.367 231.952 228.373 232.405 227.52C232.859 226.667 233.492 226.013 234.305 225.56C235.132 225.093 236.079 224.86 237.145 224.86C238.185 224.86 239.105 225.087 239.905 225.54C240.705 225.993 241.319 226.62 241.745 227.42C242.185 228.207 242.405 229.1 242.405 230.1ZM240.525 229.72C240.525 229.027 240.372 228.433 240.065 227.94C239.759 227.433 239.339 227.053 238.805 226.8C238.285 226.533 237.705 226.4 237.065 226.4C236.145 226.4 235.359 226.693 234.705 227.28C234.065 227.867 233.699 228.68 233.605 229.72H240.525ZM248.688 236.18C247.848 236.18 247.094 236.04 246.428 235.76C245.761 235.467 245.234 235.067 244.848 234.56C244.461 234.04 244.248 233.447 244.208 232.78H246.088C246.141 233.327 246.394 233.773 246.848 234.12C247.314 234.467 247.921 234.64 248.668 234.64C249.361 234.64 249.908 234.487 250.308 234.18C250.708 233.873 250.908 233.487 250.908 233.02C250.908 232.54 250.694 232.187 250.268 231.96C249.841 231.72 249.181 231.487 248.288 231.26C247.474 231.047 246.808 230.833 246.288 230.62C245.781 230.393 245.341 230.067 244.968 229.64C244.608 229.2 244.428 228.627 244.428 227.92C244.428 227.36 244.594 226.847 244.928 226.38C245.261 225.913 245.734 225.547 246.348 225.28C246.961 225 247.661 224.86 248.448 224.86C249.661 224.86 250.641 225.167 251.388 225.78C252.134 226.393 252.534 227.233 252.588 228.3H250.768C250.728 227.727 250.494 227.267 250.068 226.92C249.654 226.573 249.094 226.4 248.388 226.4C247.734 226.4 247.214 226.54 246.828 226.82C246.441 227.1 246.248 227.467 246.248 227.92C246.248 228.28 246.361 228.58 246.588 228.82C246.828 229.047 247.121 229.233 247.468 229.38C247.828 229.513 248.321 229.667 248.948 229.84C249.734 230.053 250.374 230.267 250.868 230.48C251.361 230.68 251.781 230.987 252.128 231.4C252.488 231.813 252.674 232.353 252.688 233.02C252.688 233.62 252.521 234.16 252.188 234.64C251.854 235.12 251.381 235.5 250.768 235.78C250.168 236.047 249.474 236.18 248.688 236.18ZM270.589 230.1C270.589 230.447 270.569 230.813 270.529 231.2H261.769C261.835 232.28 262.202 233.127 262.869 233.74C263.549 234.34 264.369 234.64 265.329 234.64C266.115 234.64 266.769 234.46 267.289 234.1C267.822 233.727 268.195 233.233 268.409 232.62H270.369C270.075 233.673 269.489 234.533 268.609 235.2C267.729 235.853 266.635 236.18 265.329 236.18C264.289 236.18 263.355 235.947 262.529 235.48C261.715 235.013 261.075 234.353 260.609 233.5C260.142 232.633 259.909 231.633 259.909 230.5C259.909 229.367 260.135 228.373 260.589 227.52C261.042 226.667 261.675 226.013 262.489 225.56C263.315 225.093 264.262 224.86 265.329 224.86C266.369 224.86 267.289 225.087 268.089 225.54C268.889 225.993 269.502 226.62 269.929 227.42C270.369 228.207 270.589 229.1 270.589 230.1ZM268.709 229.72C268.709 229.027 268.555 228.433 268.249 227.94C267.942 227.433 267.522 227.053 266.989 226.8C266.469 226.533 265.889 226.4 265.249 226.4C264.329 226.4 263.542 226.693 262.889 227.28C262.249 227.867 261.882 228.68 261.789 229.72H268.709ZM279.303 223.26C278.957 223.26 278.663 223.14 278.423 222.9C278.197 222.66 278.083 222.367 278.083 222.02C278.083 221.673 278.197 221.38 278.423 221.14C278.663 220.9 278.957 220.78 279.303 220.78C279.65 220.78 279.937 220.9 280.163 221.14C280.403 221.38 280.523 221.673 280.523 222.02C280.523 222.367 280.403 222.66 280.163 222.9C279.937 223.14 279.65 223.26 279.303 223.26ZM280.203 238.38C280.203 239.353 279.957 240.067 279.463 240.52C278.97 240.973 278.25 241.2 277.303 241.2H276.243V239.66H277.003C277.51 239.66 277.863 239.56 278.063 239.36C278.277 239.16 278.383 238.82 278.383 238.34V225.04H280.203V238.38ZM293.004 225.04V236H291.184V234.38C290.837 234.94 290.351 235.38 289.724 235.7C289.111 236.007 288.431 236.16 287.684 236.16C286.831 236.16 286.064 235.987 285.384 235.64C284.704 235.28 284.164 234.747 283.764 234.04C283.377 233.333 283.184 232.473 283.184 231.46V225.04H284.984V231.22C284.984 232.3 285.257 233.133 285.804 233.72C286.351 234.293 287.097 234.58 288.044 234.58C289.017 234.58 289.784 234.28 290.344 233.68C290.904 233.08 291.184 232.207 291.184 231.06V225.04H293.004ZM299.957 236.18C299.117 236.18 298.364 236.04 297.697 235.76C297.03 235.467 296.504 235.067 296.117 234.56C295.73 234.04 295.517 233.447 295.477 232.78H297.357C297.41 233.327 297.664 233.773 298.117 234.12C298.584 234.467 299.19 234.64 299.937 234.64C300.63 234.64 301.177 234.487 301.577 234.18C301.977 233.873 302.177 233.487 302.177 233.02C302.177 232.54 301.964 232.187 301.537 231.96C301.11 231.72 300.45 231.487 299.557 231.26C298.744 231.047 298.077 230.833 297.557 230.62C297.05 230.393 296.61 230.067 296.237 229.64C295.877 229.2 295.697 228.627 295.697 227.92C295.697 227.36 295.864 226.847 296.197 226.38C296.53 225.913 297.004 225.547 297.617 225.28C298.23 225 298.93 224.86 299.717 224.86C300.93 224.86 301.91 225.167 302.657 225.78C303.404 226.393 303.804 227.233 303.857 228.3H302.037C301.997 227.727 301.764 227.267 301.337 226.92C300.924 226.573 300.364 226.4 299.657 226.4C299.004 226.4 298.484 226.54 298.097 226.82C297.71 227.1 297.517 227.467 297.517 227.92C297.517 228.28 297.63 228.58 297.857 228.82C298.097 229.047 298.39 229.233 298.737 229.38C299.097 229.513 299.59 229.667 300.217 229.84C301.004 230.053 301.644 230.267 302.137 230.48C302.63 230.68 303.05 230.987 303.397 231.4C303.757 231.813 303.944 232.353 303.957 233.02C303.957 233.62 303.79 234.16 303.457 234.64C303.124 235.12 302.65 235.5 302.037 235.78C301.437 236.047 300.744 236.18 299.957 236.18ZM308.746 226.54V233C308.746 233.533 308.86 233.913 309.086 234.14C309.313 234.353 309.706 234.46 310.266 234.46H311.606V236H309.966C308.953 236 308.193 235.767 307.686 235.3C307.18 234.833 306.926 234.067 306.926 233V226.54H305.506V225.04H306.926V222.28H308.746V225.04H311.606V226.54H308.746ZM318.591 236.18C317.565 236.18 316.631 235.947 315.791 235.48C314.965 235.013 314.311 234.353 313.831 233.5C313.365 232.633 313.131 231.633 313.131 230.5C313.131 229.38 313.371 228.393 313.851 227.54C314.345 226.673 315.011 226.013 315.851 225.56C316.691 225.093 317.631 224.86 318.671 224.86C319.711 224.86 320.651 225.093 321.491 225.56C322.331 226.013 322.991 226.667 323.471 227.52C323.965 228.373 324.211 229.367 324.211 230.5C324.211 231.633 323.958 232.633 323.451 233.5C322.958 234.353 322.285 235.013 321.431 235.48C320.578 235.947 319.631 236.18 318.591 236.18ZM318.591 234.58C319.245 234.58 319.858 234.427 320.431 234.12C321.005 233.813 321.465 233.353 321.811 232.74C322.171 232.127 322.351 231.38 322.351 230.5C322.351 229.62 322.178 228.873 321.831 228.26C321.485 227.647 321.031 227.193 320.471 226.9C319.911 226.593 319.305 226.44 318.651 226.44C317.985 226.44 317.371 226.593 316.811 226.9C316.265 227.193 315.825 227.647 315.491 228.26C315.158 228.873 314.991 229.62 314.991 230.5C314.991 231.393 315.151 232.147 315.471 232.76C315.805 233.373 316.245 233.833 316.791 234.14C317.338 234.433 317.938 234.58 318.591 234.58ZM330.484 236.18C329.644 236.18 328.891 236.04 328.224 235.76C327.558 235.467 327.031 235.067 326.644 234.56C326.258 234.04 326.044 233.447 326.004 232.78H327.884C327.938 233.327 328.191 233.773 328.644 234.12C329.111 234.467 329.718 234.64 330.464 234.64C331.158 234.64 331.704 234.487 332.104 234.18C332.504 233.873 332.704 233.487 332.704 233.02C332.704 232.54 332.491 232.187 332.064 231.96C331.638 231.72 330.978 231.487 330.084 231.26C329.271 231.047 328.604 230.833 328.084 230.62C327.578 230.393 327.138 230.067 326.764 229.64C326.404 229.2 326.224 228.627 326.224 227.92C326.224 227.36 326.391 226.847 326.724 226.38C327.058 225.913 327.531 225.547 328.144 225.28C328.758 225 329.458 224.86 330.244 224.86C331.458 224.86 332.438 225.167 333.184 225.78C333.931 226.393 334.331 227.233 334.384 228.3H332.564C332.524 227.727 332.291 227.267 331.864 226.92C331.451 226.573 330.891 226.4 330.184 226.4C329.531 226.4 329.011 226.54 328.624 226.82C328.238 227.1 328.044 227.467 328.044 227.92C328.044 228.28 328.158 228.58 328.384 228.82C328.624 229.047 328.918 229.233 329.264 229.38C329.624 229.513 330.118 229.667 330.744 229.84C331.531 230.053 332.171 230.267 332.664 230.48C333.158 230.68 333.578 230.987 333.924 231.4C334.284 231.813 334.471 232.353 334.484 233.02C334.484 233.62 334.318 234.16 333.984 234.64C333.651 235.12 333.178 235.5 332.564 235.78C331.964 236.047 331.271 236.18 330.484 236.18ZM337.634 236.12C337.287 236.12 336.994 236 336.754 235.76C336.514 235.52 336.394 235.227 336.394 234.88C336.394 234.533 336.514 234.24 336.754 234C336.994 233.76 337.287 233.64 337.634 233.64C337.967 233.64 338.247 233.76 338.474 234C338.714 234.24 338.834 234.533 338.834 234.88C338.834 235.227 338.714 235.52 338.474 235.76C338.247 236 337.967 236.12 337.634 236.12ZM125.936 252.06V253.54H122.136V266H120.316V253.54H116.496V252.06H125.936ZM127.497 260.48C127.497 259.36 127.723 258.38 128.177 257.54C128.63 256.687 129.25 256.027 130.037 255.56C130.837 255.093 131.723 254.86 132.697 254.86C133.657 254.86 134.49 255.067 135.197 255.48C135.903 255.893 136.43 256.413 136.777 257.04V255.04H138.617V266H136.777V263.96C136.417 264.6 135.877 265.133 135.157 265.56C134.45 265.973 133.623 266.18 132.677 266.18C131.703 266.18 130.823 265.94 130.037 265.46C129.25 264.98 128.63 264.307 128.177 263.44C127.723 262.573 127.497 261.587 127.497 260.48ZM136.777 260.5C136.777 259.673 136.61 258.953 136.277 258.34C135.943 257.727 135.49 257.26 134.917 256.94C134.357 256.607 133.737 256.44 133.057 256.44C132.377 256.44 131.757 256.6 131.197 256.92C130.637 257.24 130.19 257.707 129.857 258.32C129.523 258.933 129.357 259.653 129.357 260.48C129.357 261.32 129.523 262.053 129.857 262.68C130.19 263.293 130.637 263.767 131.197 264.1C131.757 264.42 132.377 264.58 133.057 264.58C133.737 264.58 134.357 264.42 134.917 264.1C135.49 263.767 135.943 263.293 136.277 262.68C136.61 262.053 136.777 261.327 136.777 260.5ZM147.412 266L144.812 261.92L142.312 266H140.412L143.952 260.56L140.412 255.04H142.472L145.072 259.1L147.552 255.04H149.452L145.932 260.46L149.472 266H147.412ZM150.583 260.48C150.583 259.36 150.809 258.38 151.263 257.54C151.716 256.687 152.336 256.027 153.123 255.56C153.923 255.093 154.809 254.86 155.783 254.86C156.743 254.86 157.576 255.067 158.283 255.48C158.989 255.893 159.516 256.413 159.863 257.04V255.04H161.703V266H159.863V263.96C159.503 264.6 158.963 265.133 158.243 265.56C157.536 265.973 156.709 266.18 155.763 266.18C154.789 266.18 153.909 265.94 153.123 265.46C152.336 264.98 151.716 264.307 151.263 263.44C150.809 262.573 150.583 261.587 150.583 260.48ZM159.863 260.5C159.863 259.673 159.696 258.953 159.363 258.34C159.029 257.727 158.576 257.26 158.003 256.94C157.443 256.607 156.823 256.44 156.143 256.44C155.463 256.44 154.843 256.6 154.283 256.92C153.723 257.24 153.276 257.707 152.943 258.32C152.609 258.933 152.443 259.653 152.443 260.48C152.443 261.32 152.609 262.053 152.943 262.68C153.276 263.293 153.723 263.767 154.283 264.1C154.843 264.42 155.463 264.58 156.143 264.58C156.823 264.58 157.443 264.42 158.003 264.1C158.576 263.767 159.029 263.293 159.363 262.68C159.696 262.053 159.863 261.327 159.863 260.5ZM168.658 266.18C167.818 266.18 167.065 266.04 166.398 265.76C165.732 265.467 165.205 265.067 164.818 264.56C164.432 264.04 164.218 263.447 164.178 262.78H166.058C166.112 263.327 166.365 263.773 166.818 264.12C167.285 264.467 167.892 264.64 168.638 264.64C169.332 264.64 169.878 264.487 170.278 264.18C170.678 263.873 170.878 263.487 170.878 263.02C170.878 262.54 170.665 262.187 170.238 261.96C169.812 261.72 169.152 261.487 168.258 261.26C167.445 261.047 166.778 260.833 166.258 260.62C165.752 260.393 165.312 260.067 164.938 259.64C164.578 259.2 164.398 258.627 164.398 257.92C164.398 257.36 164.565 256.847 164.898 256.38C165.232 255.913 165.705 255.547 166.318 255.28C166.932 255 167.632 254.86 168.418 254.86C169.632 254.86 170.612 255.167 171.358 255.78C172.105 256.393 172.505 257.233 172.558 258.3H170.738C170.698 257.727 170.465 257.267 170.038 256.92C169.625 256.573 169.065 256.4 168.358 256.4C167.705 256.4 167.185 256.54 166.798 256.82C166.412 257.1 166.218 257.467 166.218 257.92C166.218 258.28 166.332 258.58 166.558 258.82C166.798 259.047 167.092 259.233 167.438 259.38C167.798 259.513 168.292 259.667 168.918 259.84C169.705 260.053 170.345 260.267 170.838 260.48C171.332 260.68 171.752 260.987 172.098 261.4C172.458 261.813 172.645 262.353 172.658 263.02C172.658 263.62 172.492 264.16 172.158 264.64C171.825 265.12 171.352 265.5 170.738 265.78C170.138 266.047 169.445 266.18 168.658 266.18ZM185.08 254.86C186.026 254.86 186.853 255.067 187.56 255.48C188.28 255.893 188.813 256.413 189.16 257.04V255.04H191V266.24C191 267.24 190.786 268.127 190.36 268.9C189.933 269.687 189.32 270.3 188.52 270.74C187.733 271.18 186.813 271.4 185.76 271.4C184.32 271.4 183.12 271.06 182.16 270.38C181.2 269.7 180.633 268.773 180.46 267.6H182.26C182.46 268.267 182.873 268.8 183.5 269.2C184.126 269.613 184.88 269.82 185.76 269.82C186.76 269.82 187.573 269.507 188.2 268.88C188.84 268.253 189.16 267.373 189.16 266.24V263.94C188.8 264.58 188.266 265.113 187.56 265.54C186.853 265.967 186.026 266.18 185.08 266.18C184.106 266.18 183.22 265.94 182.42 265.46C181.633 264.98 181.013 264.307 180.56 263.44C180.106 262.573 179.88 261.587 179.88 260.48C179.88 259.36 180.106 258.38 180.56 257.54C181.013 256.687 181.633 256.027 182.42 255.56C183.22 255.093 184.106 254.86 185.08 254.86ZM189.16 260.5C189.16 259.673 188.993 258.953 188.66 258.34C188.326 257.727 187.873 257.26 187.3 256.94C186.74 256.607 186.12 256.44 185.44 256.44C184.76 256.44 184.14 256.6 183.58 256.92C183.02 257.24 182.573 257.707 182.24 258.32C181.906 258.933 181.74 259.653 181.74 260.48C181.74 261.32 181.906 262.053 182.24 262.68C182.573 263.293 183.02 263.767 183.58 264.1C184.14 264.42 184.76 264.58 185.44 264.58C186.12 264.58 186.74 264.42 187.3 264.1C187.873 263.767 188.326 263.293 188.66 262.68C188.993 262.053 189.16 261.327 189.16 260.5ZM195.895 251.2V266H194.075V251.2H195.895ZM203.777 266.18C202.75 266.18 201.817 265.947 200.977 265.48C200.15 265.013 199.497 264.353 199.017 263.5C198.55 262.633 198.317 261.633 198.317 260.5C198.317 259.38 198.557 258.393 199.037 257.54C199.53 256.673 200.197 256.013 201.037 255.56C201.877 255.093 202.817 254.86 203.857 254.86C204.897 254.86 205.837 255.093 206.677 255.56C207.517 256.013 208.177 256.667 208.657 257.52C209.15 258.373 209.397 259.367 209.397 260.5C209.397 261.633 209.144 262.633 208.637 263.5C208.144 264.353 207.47 265.013 206.617 265.48C205.764 265.947 204.817 266.18 203.777 266.18ZM203.777 264.58C204.43 264.58 205.044 264.427 205.617 264.12C206.19 263.813 206.65 263.353 206.997 262.74C207.357 262.127 207.537 261.38 207.537 260.5C207.537 259.62 207.364 258.873 207.017 258.26C206.67 257.647 206.217 257.193 205.657 256.9C205.097 256.593 204.49 256.44 203.837 256.44C203.17 256.44 202.557 256.593 201.997 256.9C201.45 257.193 201.01 257.647 200.677 258.26C200.344 258.873 200.177 259.62 200.177 260.5C200.177 261.393 200.337 262.147 200.657 262.76C200.99 263.373 201.43 263.833 201.977 264.14C202.524 264.433 203.124 264.58 203.777 264.58ZM213.61 257.08C213.983 256.427 214.53 255.893 215.25 255.48C215.97 255.067 216.79 254.86 217.71 254.86C218.697 254.86 219.583 255.093 220.37 255.56C221.157 256.027 221.777 256.687 222.23 257.54C222.683 258.38 222.91 259.36 222.91 260.48C222.91 261.587 222.683 262.573 222.23 263.44C221.777 264.307 221.15 264.98 220.35 265.46C219.563 265.94 218.683 266.18 217.71 266.18C216.763 266.18 215.93 265.973 215.21 265.56C214.503 265.147 213.97 264.62 213.61 263.98V266H211.79V251.2H213.61V257.08ZM221.05 260.48C221.05 259.653 220.883 258.933 220.55 258.32C220.217 257.707 219.763 257.24 219.19 256.92C218.63 256.6 218.01 256.44 217.33 256.44C216.663 256.44 216.043 256.607 215.47 256.94C214.91 257.26 214.457 257.733 214.11 258.36C213.777 258.973 213.61 259.687 213.61 260.5C213.61 261.327 213.777 262.053 214.11 262.68C214.457 263.293 214.91 263.767 215.47 264.1C216.043 264.42 216.663 264.58 217.33 264.58C218.01 264.58 218.63 264.42 219.19 264.1C219.763 263.767 220.217 263.293 220.55 262.68C220.883 262.053 221.05 261.32 221.05 260.48ZM224.626 260.48C224.626 259.36 224.852 258.38 225.306 257.54C225.759 256.687 226.379 256.027 227.166 255.56C227.966 255.093 228.852 254.86 229.826 254.86C230.786 254.86 231.619 255.067 232.326 255.48C233.032 255.893 233.559 256.413 233.906 257.04V255.04H235.746V266H233.906V263.96C233.546 264.6 233.006 265.133 232.286 265.56C231.579 265.973 230.752 266.18 229.806 266.18C228.832 266.18 227.952 265.94 227.166 265.46C226.379 264.98 225.759 264.307 225.306 263.44C224.852 262.573 224.626 261.587 224.626 260.48ZM233.906 260.5C233.906 259.673 233.739 258.953 233.406 258.34C233.072 257.727 232.619 257.26 232.046 256.94C231.486 256.607 230.866 256.44 230.186 256.44C229.506 256.44 228.886 256.6 228.326 256.92C227.766 257.24 227.319 257.707 226.986 258.32C226.652 258.933 226.486 259.653 226.486 260.48C226.486 261.32 226.652 262.053 226.986 262.68C227.319 263.293 227.766 263.767 228.326 264.1C228.886 264.42 229.506 264.58 230.186 264.58C230.866 264.58 231.486 264.42 232.046 264.1C232.619 263.767 233.072 263.293 233.406 262.68C233.739 262.053 233.906 261.327 233.906 260.5ZM239.761 253.26C239.415 253.26 239.121 253.14 238.881 252.9C238.641 252.66 238.521 252.367 238.521 252.02C238.521 251.673 238.641 251.38 238.881 251.14C239.121 250.9 239.415 250.78 239.761 250.78C240.095 250.78 240.375 250.9 240.601 251.14C240.841 251.38 240.961 251.673 240.961 252.02C240.961 252.367 240.841 252.66 240.601 252.9C240.375 253.14 240.095 253.26 239.761 253.26ZM240.641 255.04V266H238.821V255.04H240.641ZM247.623 266.18C246.783 266.18 246.03 266.04 245.363 265.76C244.696 265.467 244.17 265.067 243.783 264.56C243.396 264.04 243.183 263.447 243.143 262.78H245.023C245.076 263.327 245.33 263.773 245.783 264.12C246.25 264.467 246.856 264.64 247.603 264.64C248.296 264.64 248.843 264.487 249.243 264.18C249.643 263.873 249.843 263.487 249.843 263.02C249.843 262.54 249.63 262.187 249.203 261.96C248.776 261.72 248.116 261.487 247.223 261.26C246.41 261.047 245.743 260.833 245.223 260.62C244.716 260.393 244.276 260.067 243.903 259.64C243.543 259.2 243.363 258.627 243.363 257.92C243.363 257.36 243.53 256.847 243.863 256.38C244.196 255.913 244.67 255.547 245.283 255.28C245.896 255 246.596 254.86 247.383 254.86C248.596 254.86 249.576 255.167 250.323 255.78C251.07 256.393 251.47 257.233 251.523 258.3H249.703C249.663 257.727 249.43 257.267 249.003 256.92C248.59 256.573 248.03 256.4 247.323 256.4C246.67 256.4 246.15 256.54 245.763 256.82C245.376 257.1 245.183 257.467 245.183 257.92C245.183 258.28 245.296 258.58 245.523 258.82C245.763 259.047 246.056 259.233 246.403 259.38C246.763 259.513 247.256 259.667 247.883 259.84C248.67 260.053 249.31 260.267 249.803 260.48C250.296 260.68 250.716 260.987 251.063 261.4C251.423 261.813 251.61 262.353 251.623 263.02C251.623 263.62 251.456 264.16 251.123 264.64C250.79 265.12 250.316 265.5 249.703 265.78C249.103 266.047 248.41 266.18 247.623 266.18ZM254.772 266.12C254.426 266.12 254.132 266 253.892 265.76C253.652 265.52 253.532 265.227 253.532 264.88C253.532 264.533 253.652 264.24 253.892 264C254.132 263.76 254.426 263.64 254.772 263.64C255.106 263.64 255.386 263.76 255.612 264C255.852 264.24 255.972 264.533 255.972 264.88C255.972 265.227 255.852 265.52 255.612 265.76C255.386 266 255.106 266.12 254.772 266.12ZM89.5475 286.14C89.5475 287.3 89.1475 288.267 88.3475 289.04C87.5608 289.8 86.3542 290.18 84.7275 290.18H82.0475V296H80.2275V282.06H84.7275C86.3008 282.06 87.4942 282.44 88.3075 283.2C89.1342 283.96 89.5475 284.94 89.5475 286.14ZM84.7275 288.68C85.7408 288.68 86.4875 288.46 86.9675 288.02C87.4475 287.58 87.6875 286.953 87.6875 286.14C87.6875 284.42 86.7008 283.56 84.7275 283.56H82.0475V288.68H84.7275ZM91.1295 290.48C91.1295 289.36 91.3562 288.38 91.8095 287.54C92.2629 286.687 92.8829 286.027 93.6695 285.56C94.4695 285.093 95.3562 284.86 96.3295 284.86C97.2895 284.86 98.1229 285.067 98.8295 285.48C99.5362 285.893 100.063 286.413 100.41 287.04V285.04H102.25V296H100.41V293.96C100.05 294.6 99.5095 295.133 98.7895 295.56C98.0829 295.973 97.2562 296.18 96.3095 296.18C95.3362 296.18 94.4562 295.94 93.6695 295.46C92.8829 294.98 92.2629 294.307 91.8095 293.44C91.3562 292.573 91.1295 291.587 91.1295 290.48ZM100.41 290.5C100.41 289.673 100.243 288.953 99.9095 288.34C99.5762 287.727 99.1229 287.26 98.5495 286.94C97.9895 286.607 97.3695 286.44 96.6895 286.44C96.0095 286.44 95.3895 286.6 94.8295 286.92C94.2695 287.24 93.8229 287.707 93.4895 288.32C93.1562 288.933 92.9895 289.653 92.9895 290.48C92.9895 291.32 93.1562 292.053 93.4895 292.68C93.8229 293.293 94.2695 293.767 94.8295 294.1C95.3895 294.42 96.0095 294.58 96.6895 294.58C97.3695 294.58 97.9895 294.42 98.5495 294.1C99.1229 293.767 99.5762 293.293 99.9095 292.68C100.243 292.053 100.41 291.327 100.41 290.5ZM109.845 284.86C110.792 284.86 111.618 285.067 112.325 285.48C113.045 285.893 113.578 286.413 113.925 287.04V285.04H115.765V296.24C115.765 297.24 115.552 298.127 115.125 298.9C114.698 299.687 114.085 300.3 113.285 300.74C112.498 301.18 111.578 301.4 110.525 301.4C109.085 301.4 107.885 301.06 106.925 300.38C105.965 299.7 105.398 298.773 105.225 297.6H107.025C107.225 298.267 107.638 298.8 108.265 299.2C108.892 299.613 109.645 299.82 110.525 299.82C111.525 299.82 112.338 299.507 112.965 298.88C113.605 298.253 113.925 297.373 113.925 296.24V293.94C113.565 294.58 113.032 295.113 112.325 295.54C111.618 295.967 110.792 296.18 109.845 296.18C108.872 296.18 107.985 295.94 107.185 295.46C106.398 294.98 105.778 294.307 105.325 293.44C104.872 292.573 104.645 291.587 104.645 290.48C104.645 289.36 104.872 288.38 105.325 287.54C105.778 286.687 106.398 286.027 107.185 285.56C107.985 285.093 108.872 284.86 109.845 284.86ZM113.925 290.5C113.925 289.673 113.758 288.953 113.425 288.34C113.092 287.727 112.638 287.26 112.065 286.94C111.505 286.607 110.885 286.44 110.205 286.44C109.525 286.44 108.905 286.6 108.345 286.92C107.785 287.24 107.338 287.707 107.005 288.32C106.672 288.933 106.505 289.653 106.505 290.48C106.505 291.32 106.672 292.053 107.005 292.68C107.338 293.293 107.785 293.767 108.345 294.1C108.905 294.42 109.525 294.58 110.205 294.58C110.885 294.58 111.505 294.42 112.065 294.1C112.638 293.767 113.092 293.293 113.425 292.68C113.758 292.053 113.925 291.327 113.925 290.5ZM128.561 285.04V296H126.741V294.38C126.394 294.94 125.907 295.38 125.281 295.7C124.667 296.007 123.987 296.16 123.241 296.16C122.387 296.16 121.621 295.987 120.941 295.64C120.261 295.28 119.721 294.747 119.321 294.04C118.934 293.333 118.741 292.473 118.741 291.46V285.04H120.541V291.22C120.541 292.3 120.814 293.133 121.361 293.72C121.907 294.293 122.654 294.58 123.601 294.58C124.574 294.58 125.341 294.28 125.901 293.68C126.461 293.08 126.741 292.207 126.741 291.06V285.04H128.561ZM141.634 290.1C141.634 290.447 141.614 290.813 141.574 291.2H132.814C132.88 292.28 133.247 293.127 133.914 293.74C134.594 294.34 135.414 294.64 136.374 294.64C137.16 294.64 137.814 294.46 138.334 294.1C138.867 293.727 139.24 293.233 139.454 292.62H141.414C141.12 293.673 140.534 294.533 139.654 295.2C138.774 295.853 137.68 296.18 136.374 296.18C135.334 296.18 134.4 295.947 133.574 295.48C132.76 295.013 132.12 294.353 131.654 293.5C131.187 292.633 130.954 291.633 130.954 290.5C130.954 289.367 131.18 288.373 131.634 287.52C132.087 286.667 132.72 286.013 133.534 285.56C134.36 285.093 135.307 284.86 136.374 284.86C137.414 284.86 138.334 285.087 139.134 285.54C139.934 285.993 140.547 286.62 140.974 287.42C141.414 288.207 141.634 289.1 141.634 290.1ZM139.754 289.72C139.754 289.027 139.6 288.433 139.294 287.94C138.987 287.433 138.567 287.053 138.034 286.8C137.514 286.533 136.934 286.4 136.294 286.4C135.374 286.4 134.587 286.693 133.934 287.28C133.294 287.867 132.927 288.68 132.834 289.72H139.754ZM153.248 296.18C152.408 296.18 151.655 296.04 150.988 295.76C150.321 295.467 149.795 295.067 149.408 294.56C149.021 294.04 148.808 293.447 148.768 292.78H150.648C150.701 293.327 150.955 293.773 151.408 294.12C151.875 294.467 152.481 294.64 153.228 294.64C153.921 294.64 154.468 294.487 154.868 294.18C155.268 293.873 155.468 293.487 155.468 293.02C155.468 292.54 155.255 292.187 154.828 291.96C154.401 291.72 153.741 291.487 152.848 291.26C152.035 291.047 151.368 290.833 150.848 290.62C150.341 290.393 149.901 290.067 149.528 289.64C149.168 289.2 148.988 288.627 148.988 287.92C148.988 287.36 149.155 286.847 149.488 286.38C149.821 285.913 150.295 285.547 150.908 285.28C151.521 285 152.221 284.86 153.008 284.86C154.221 284.86 155.201 285.167 155.948 285.78C156.695 286.393 157.095 287.233 157.148 288.3H155.328C155.288 287.727 155.055 287.267 154.628 286.92C154.215 286.573 153.655 286.4 152.948 286.4C152.295 286.4 151.775 286.54 151.388 286.82C151.001 287.1 150.808 287.467 150.808 287.92C150.808 288.28 150.921 288.58 151.148 288.82C151.388 289.047 151.681 289.233 152.028 289.38C152.388 289.513 152.881 289.667 153.508 289.84C154.295 290.053 154.935 290.267 155.428 290.48C155.921 290.68 156.341 290.987 156.688 291.4C157.048 291.813 157.235 292.353 157.248 293.02C157.248 293.62 157.081 294.16 156.748 294.64C156.415 295.12 155.941 295.5 155.328 295.78C154.728 296.047 154.035 296.18 153.248 296.18ZM164.597 296.18C163.571 296.18 162.637 295.947 161.797 295.48C160.971 295.013 160.317 294.353 159.837 293.5C159.371 292.633 159.137 291.633 159.137 290.5C159.137 289.38 159.377 288.393 159.857 287.54C160.351 286.673 161.017 286.013 161.857 285.56C162.697 285.093 163.637 284.86 164.677 284.86C165.717 284.86 166.657 285.093 167.497 285.56C168.337 286.013 168.997 286.667 169.477 287.52C169.971 288.373 170.217 289.367 170.217 290.5C170.217 291.633 169.964 292.633 169.457 293.5C168.964 294.353 168.291 295.013 167.437 295.48C166.584 295.947 165.637 296.18 164.597 296.18ZM164.597 294.58C165.251 294.58 165.864 294.427 166.437 294.12C167.011 293.813 167.471 293.353 167.817 292.74C168.177 292.127 168.357 291.38 168.357 290.5C168.357 289.62 168.184 288.873 167.837 288.26C167.491 287.647 167.037 287.193 166.477 286.9C165.917 286.593 165.311 286.44 164.657 286.44C163.991 286.44 163.377 286.593 162.817 286.9C162.271 287.193 161.831 287.647 161.497 288.26C161.164 288.873 160.997 289.62 160.997 290.5C160.997 291.393 161.157 292.147 161.477 292.76C161.811 293.373 162.251 293.833 162.797 294.14C163.344 294.433 163.944 294.58 164.597 294.58ZM174.43 287.08C174.804 286.427 175.35 285.893 176.07 285.48C176.79 285.067 177.61 284.86 178.53 284.86C179.517 284.86 180.404 285.093 181.19 285.56C181.977 286.027 182.597 286.687 183.05 287.54C183.504 288.38 183.73 289.36 183.73 290.48C183.73 291.587 183.504 292.573 183.05 293.44C182.597 294.307 181.97 294.98 181.17 295.46C180.384 295.94 179.504 296.18 178.53 296.18C177.584 296.18 176.75 295.973 176.03 295.56C175.324 295.147 174.79 294.62 174.43 293.98V296H172.61V281.2H174.43V287.08ZM181.87 290.48C181.87 289.653 181.704 288.933 181.37 288.32C181.037 287.707 180.584 287.24 180.01 286.92C179.45 286.6 178.83 286.44 178.15 286.44C177.484 286.44 176.864 286.607 176.29 286.94C175.73 287.26 175.277 287.733 174.93 288.36C174.597 288.973 174.43 289.687 174.43 290.5C174.43 291.327 174.597 292.053 174.93 292.68C175.277 293.293 175.73 293.767 176.29 294.1C176.864 294.42 177.484 294.58 178.15 294.58C178.83 294.58 179.45 294.42 180.01 294.1C180.584 293.767 181.037 293.293 181.37 292.68C181.704 292.053 181.87 291.32 181.87 290.48ZM190.778 290.48C190.778 289.36 191.005 288.38 191.458 287.54C191.911 286.687 192.531 286.027 193.318 285.56C194.118 285.093 195.011 284.86 195.998 284.86C196.851 284.86 197.645 285.06 198.378 285.46C199.111 285.847 199.671 286.36 200.058 287V281.2H201.898V296H200.058V293.94C199.698 294.593 199.165 295.133 198.458 295.56C197.751 295.973 196.925 296.18 195.978 296.18C195.005 296.18 194.118 295.94 193.318 295.46C192.531 294.98 191.911 294.307 191.458 293.44C191.005 292.573 190.778 291.587 190.778 290.48ZM200.058 290.5C200.058 289.673 199.891 288.953 199.558 288.34C199.225 287.727 198.771 287.26 198.198 286.94C197.638 286.607 197.018 286.44 196.338 286.44C195.658 286.44 195.038 286.6 194.478 286.92C193.918 287.24 193.471 287.707 193.138 288.32C192.805 288.933 192.638 289.653 192.638 290.48C192.638 291.32 192.805 292.053 193.138 292.68C193.471 293.293 193.918 293.767 194.478 294.1C195.038 294.42 195.658 294.58 196.338 294.58C197.018 294.58 197.638 294.42 198.198 294.1C198.771 293.767 199.225 293.293 199.558 292.68C199.891 292.053 200.058 291.327 200.058 290.5ZM214.974 290.1C214.974 290.447 214.954 290.813 214.914 291.2H206.154C206.22 292.28 206.587 293.127 207.254 293.74C207.934 294.34 208.754 294.64 209.714 294.64C210.5 294.64 211.154 294.46 211.674 294.1C212.207 293.727 212.58 293.233 212.794 292.62H214.754C214.46 293.673 213.874 294.533 212.994 295.2C212.114 295.853 211.02 296.18 209.714 296.18C208.674 296.18 207.74 295.947 206.914 295.48C206.1 295.013 205.46 294.353 204.994 293.5C204.527 292.633 204.294 291.633 204.294 290.5C204.294 289.367 204.52 288.373 204.974 287.52C205.427 286.667 206.06 286.013 206.874 285.56C207.7 285.093 208.647 284.86 209.714 284.86C210.754 284.86 211.674 285.087 212.474 285.54C213.274 285.993 213.887 286.62 214.314 287.42C214.754 288.207 214.974 289.1 214.974 290.1ZM213.094 289.72C213.094 289.027 212.94 288.433 212.634 287.94C212.327 287.433 211.907 287.053 211.374 286.8C210.854 286.533 210.274 286.4 209.634 286.4C208.714 286.4 207.927 286.693 207.274 287.28C206.634 287.867 206.267 288.68 206.174 289.72H213.094ZM230.556 284.84C231.409 284.84 232.169 285.02 232.836 285.38C233.503 285.727 234.029 286.253 234.416 286.96C234.803 287.667 234.996 288.527 234.996 289.54V296H233.196V289.8C233.196 288.707 232.923 287.873 232.376 287.3C231.843 286.713 231.116 286.42 230.196 286.42C229.249 286.42 228.496 286.727 227.936 287.34C227.376 287.94 227.096 288.813 227.096 289.96V296H225.296V289.8C225.296 288.707 225.023 287.873 224.476 287.3C223.943 286.713 223.216 286.42 222.296 286.42C221.349 286.42 220.596 286.727 220.036 287.34C219.476 287.94 219.196 288.813 219.196 289.96V296H217.376V285.04H219.196V286.62C219.556 286.047 220.036 285.607 220.636 285.3C221.249 284.993 221.923 284.84 222.656 284.84C223.576 284.84 224.389 285.047 225.096 285.46C225.803 285.873 226.329 286.48 226.676 287.28C226.983 286.507 227.489 285.907 228.196 285.48C228.903 285.053 229.689 284.84 230.556 284.84ZM237.301 290.48C237.301 289.36 237.528 288.38 237.981 287.54C238.435 286.687 239.055 286.027 239.841 285.56C240.641 285.093 241.528 284.86 242.501 284.86C243.461 284.86 244.295 285.067 245.001 285.48C245.708 285.893 246.235 286.413 246.581 287.04V285.04H248.421V296H246.581V293.96C246.221 294.6 245.681 295.133 244.961 295.56C244.255 295.973 243.428 296.18 242.481 296.18C241.508 296.18 240.628 295.94 239.841 295.46C239.055 294.98 238.435 294.307 237.981 293.44C237.528 292.573 237.301 291.587 237.301 290.48ZM246.581 290.5C246.581 289.673 246.415 288.953 246.081 288.34C245.748 287.727 245.295 287.26 244.721 286.94C244.161 286.607 243.541 286.44 242.861 286.44C242.181 286.44 241.561 286.6 241.001 286.92C240.441 287.24 239.995 287.707 239.661 288.32C239.328 288.933 239.161 289.653 239.161 290.48C239.161 291.32 239.328 292.053 239.661 292.68C239.995 293.293 240.441 293.767 241.001 294.1C241.561 294.42 242.181 294.58 242.861 294.58C243.541 294.58 244.161 294.42 244.721 294.1C245.295 293.767 245.748 293.293 246.081 292.68C246.415 292.053 246.581 291.327 246.581 290.5ZM256.837 284.84C258.17 284.84 259.25 285.247 260.077 286.06C260.904 286.86 261.317 288.02 261.317 289.54V296H259.517V289.8C259.517 288.707 259.244 287.873 258.697 287.3C258.15 286.713 257.404 286.42 256.457 286.42C255.497 286.42 254.73 286.72 254.157 287.32C253.597 287.92 253.317 288.793 253.317 289.94V296H251.497V285.04H253.317V286.6C253.677 286.04 254.164 285.607 254.777 285.3C255.404 284.993 256.09 284.84 256.837 284.84ZM263.61 290.48C263.61 289.36 263.837 288.38 264.29 287.54C264.743 286.687 265.363 286.027 266.15 285.56C266.95 285.093 267.843 284.86 268.83 284.86C269.683 284.86 270.477 285.06 271.21 285.46C271.943 285.847 272.503 286.36 272.89 287V281.2H274.73V296H272.89V293.94C272.53 294.593 271.997 295.133 271.29 295.56C270.583 295.973 269.757 296.18 268.81 296.18C267.837 296.18 266.95 295.94 266.15 295.46C265.363 294.98 264.743 294.307 264.29 293.44C263.837 292.573 263.61 291.587 263.61 290.48ZM272.89 290.5C272.89 289.673 272.723 288.953 272.39 288.34C272.057 287.727 271.603 287.26 271.03 286.94C270.47 286.607 269.85 286.44 269.17 286.44C268.49 286.44 267.87 286.6 267.31 286.92C266.75 287.24 266.303 287.707 265.97 288.32C265.637 288.933 265.47 289.653 265.47 290.48C265.47 291.32 265.637 292.053 265.97 292.68C266.303 293.293 266.75 293.767 267.31 294.1C267.87 294.42 268.49 294.58 269.17 294.58C269.85 294.58 270.47 294.42 271.03 294.1C271.603 293.767 272.057 293.293 272.39 292.68C272.723 292.053 272.89 291.327 272.89 290.5ZM277.126 290.48C277.126 289.36 277.352 288.38 277.806 287.54C278.259 286.687 278.879 286.027 279.666 285.56C280.466 285.093 281.352 284.86 282.326 284.86C283.286 284.86 284.119 285.067 284.826 285.48C285.532 285.893 286.059 286.413 286.406 287.04V285.04H288.246V296H286.406V293.96C286.046 294.6 285.506 295.133 284.786 295.56C284.079 295.973 283.252 296.18 282.306 296.18C281.332 296.18 280.452 295.94 279.666 295.46C278.879 294.98 278.259 294.307 277.806 293.44C277.352 292.573 277.126 291.587 277.126 290.48ZM286.406 290.5C286.406 289.673 286.239 288.953 285.906 288.34C285.572 287.727 285.119 287.26 284.546 286.94C283.986 286.607 283.366 286.44 282.686 286.44C282.006 286.44 281.386 286.6 280.826 286.92C280.266 287.24 279.819 287.707 279.486 288.32C279.152 288.933 278.986 289.653 278.986 290.48C278.986 291.32 279.152 292.053 279.486 292.68C279.819 293.293 280.266 293.767 280.826 294.1C281.386 294.42 282.006 294.58 282.686 294.58C283.366 294.58 283.986 294.42 284.546 294.1C285.119 293.767 285.572 293.293 285.906 292.68C286.239 292.053 286.406 291.327 286.406 290.5ZM291.901 296.12C291.555 296.12 291.261 296 291.021 295.76C290.781 295.52 290.661 295.227 290.661 294.88C290.661 294.533 290.781 294.24 291.021 294C291.261 293.76 291.555 293.64 291.901 293.64C292.235 293.64 292.515 293.76 292.741 294C292.981 294.24 293.101 294.533 293.101 294.88C293.101 295.227 292.981 295.52 292.741 295.76C292.515 296 292.235 296.12 291.901 296.12Z" fill="white"/>
</svg>
