<svg width="378" height="406" viewBox="0 0 378 406" fill="none" xmlns="http://www.w3.org/2000/svg">
<rect width="378" height="406" rx="10" fill="#2D2D2F"/>
<path d="M208.667 76.3333V36.6667C208.667 35.1638 208.07 33.7224 207.007 32.6597C205.944 31.597 204.503 31 203 31H185.513C184.01 31.0003 182.569 31.5976 181.506 32.6603L170.66 43.5063C169.598 44.5688 169 46.0099 169 47.5127V76.3333C169 79.4642 171.53 82 174.658 82H203.003C204.505 81.9992 205.946 81.4019 207.008 80.3393C208.07 79.2766 208.667 77.8357 208.667 76.3333Z" stroke="#FF5000" stroke-width="5.66667" stroke-linecap="round" stroke-linejoin="round"/>
<path d="M86.41 131.9C86.41 130.115 86.8087 128.52 87.606 127.116C88.4207 125.695 89.5213 124.594 90.908 123.814C92.312 123.017 93.8807 122.618 95.614 122.618C97.642 122.618 99.4187 123.138 100.944 124.178C102.469 125.218 103.535 126.657 104.142 128.494H99.956C99.54 127.627 98.9507 126.977 98.188 126.544C97.4427 126.111 96.576 125.894 95.588 125.894C94.5307 125.894 93.586 126.145 92.754 126.648C91.9393 127.133 91.298 127.827 90.83 128.728C90.3793 129.629 90.154 130.687 90.154 131.9C90.154 133.096 90.3793 134.153 90.83 135.072C91.298 135.973 91.9393 136.675 92.754 137.178C93.586 137.663 94.5307 137.906 95.588 137.906C96.576 137.906 97.4427 137.689 98.188 137.256C98.9507 136.805 99.54 136.147 99.956 135.28H104.142C103.535 137.135 102.469 138.582 100.944 139.622C99.436 140.645 97.6593 141.156 95.614 141.156C93.8807 141.156 92.312 140.766 90.908 139.986C89.5213 139.189 88.4207 138.088 87.606 136.684C86.8087 135.28 86.41 133.685 86.41 131.9ZM115.363 126.388C116.455 126.388 117.426 126.631 118.275 127.116C119.124 127.584 119.783 128.286 120.251 129.222C120.736 130.141 120.979 131.25 120.979 132.55V141H117.339V133.044C117.339 131.9 117.053 131.025 116.481 130.418C115.909 129.794 115.129 129.482 114.141 129.482C113.136 129.482 112.338 129.794 111.749 130.418C111.177 131.025 110.891 131.9 110.891 133.044V141H107.251V121.76H110.891V128.39C111.359 127.766 111.983 127.281 112.763 126.934C113.543 126.57 114.41 126.388 115.363 126.388ZM126.286 124.88C125.645 124.88 125.108 124.681 124.674 124.282C124.258 123.866 124.05 123.355 124.05 122.748C124.05 122.141 124.258 121.639 124.674 121.24C125.108 120.824 125.645 120.616 126.286 120.616C126.928 120.616 127.456 120.824 127.872 121.24C128.306 121.639 128.522 122.141 128.522 122.748C128.522 123.355 128.306 123.866 127.872 124.282C127.456 124.681 126.928 124.88 126.286 124.88ZM128.08 126.596V141H124.44V126.596H128.08ZM135.317 128.676C135.785 128.017 136.426 127.471 137.241 127.038C138.073 126.587 139.017 126.362 140.075 126.362C141.305 126.362 142.415 126.665 143.403 127.272C144.408 127.879 145.197 128.745 145.769 129.872C146.358 130.981 146.653 132.273 146.653 133.746C146.653 135.219 146.358 136.528 145.769 137.672C145.197 138.799 144.408 139.674 143.403 140.298C142.415 140.922 141.305 141.234 140.075 141.234C139.017 141.234 138.081 141.017 137.267 140.584C136.469 140.151 135.819 139.605 135.317 138.946V147.864H131.677V126.596H135.317V128.676ZM142.935 133.746C142.935 132.879 142.753 132.134 142.389 131.51C142.042 130.869 141.574 130.383 140.985 130.054C140.413 129.725 139.789 129.56 139.113 129.56C138.454 129.56 137.83 129.733 137.241 130.08C136.669 130.409 136.201 130.895 135.837 131.536C135.49 132.177 135.317 132.931 135.317 133.798C135.317 134.665 135.49 135.419 135.837 136.06C136.201 136.701 136.669 137.195 137.241 137.542C137.83 137.871 138.454 138.036 139.113 138.036C139.789 138.036 140.413 137.863 140.985 137.516C141.574 137.169 142.042 136.675 142.389 136.034C142.753 135.393 142.935 134.63 142.935 133.746ZM166.621 137.542H159.393L158.197 141H154.375L160.901 122.826H165.139L171.665 141H167.817L166.621 137.542ZM165.633 134.63L163.007 127.038L160.381 134.63H165.633ZM173.169 133.746C173.169 132.29 173.455 130.999 174.027 129.872C174.616 128.745 175.413 127.879 176.419 127.272C177.424 126.665 178.542 126.362 179.773 126.362C180.709 126.362 181.601 126.57 182.451 126.986C183.3 127.385 183.976 127.922 184.479 128.598V121.76H188.171V141H184.479V138.868C184.028 139.579 183.395 140.151 182.581 140.584C181.766 141.017 180.821 141.234 179.747 141.234C178.533 141.234 177.424 140.922 176.419 140.298C175.413 139.674 174.616 138.799 174.027 137.672C173.455 136.528 173.169 135.219 173.169 133.746ZM184.505 133.798C184.505 132.914 184.331 132.16 183.985 131.536C183.638 130.895 183.17 130.409 182.581 130.08C181.991 129.733 181.359 129.56 180.683 129.56C180.007 129.56 179.383 129.725 178.811 130.054C178.239 130.383 177.771 130.869 177.407 131.51C177.06 132.134 176.887 132.879 176.887 133.746C176.887 134.613 177.06 135.375 177.407 136.034C177.771 136.675 178.239 137.169 178.811 137.516C179.4 137.863 180.024 138.036 180.683 138.036C181.359 138.036 181.991 137.871 182.581 137.542C183.17 137.195 183.638 136.71 183.985 136.086C184.331 135.445 184.505 134.682 184.505 133.798ZM190.79 133.746C190.79 132.29 191.076 130.999 191.648 129.872C192.237 128.745 193.026 127.879 194.014 127.272C195.019 126.665 196.137 126.362 197.368 126.362C198.442 126.362 199.378 126.579 200.176 127.012C200.99 127.445 201.64 127.991 202.126 128.65V126.596H205.792V141H202.126V138.894C201.658 139.57 201.008 140.133 200.176 140.584C199.361 141.017 198.416 141.234 197.342 141.234C196.128 141.234 195.019 140.922 194.014 140.298C193.026 139.674 192.237 138.799 191.648 137.672C191.076 136.528 190.79 135.219 190.79 133.746ZM202.126 133.798C202.126 132.914 201.952 132.16 201.606 131.536C201.259 130.895 200.791 130.409 200.202 130.08C199.612 129.733 198.98 129.56 198.304 129.56C197.628 129.56 197.004 129.725 196.432 130.054C195.86 130.383 195.392 130.869 195.028 131.51C194.681 132.134 194.508 132.879 194.508 133.746C194.508 134.613 194.681 135.375 195.028 136.034C195.392 136.675 195.86 137.169 196.432 137.516C197.021 137.863 197.645 138.036 198.304 138.036C198.98 138.036 199.612 137.871 200.202 137.542C200.791 137.195 201.259 136.71 201.606 136.086C201.952 135.445 202.126 134.682 202.126 133.798ZM212.987 128.676C213.455 128.017 214.096 127.471 214.911 127.038C215.743 126.587 216.687 126.362 217.745 126.362C218.975 126.362 220.085 126.665 221.073 127.272C222.078 127.879 222.867 128.745 223.439 129.872C224.028 130.981 224.323 132.273 224.323 133.746C224.323 135.219 224.028 136.528 223.439 137.672C222.867 138.799 222.078 139.674 221.073 140.298C220.085 140.922 218.975 141.234 217.745 141.234C216.687 141.234 215.751 141.017 214.937 140.584C214.139 140.151 213.489 139.605 212.987 138.946V147.864H209.347V126.596H212.987V128.676ZM220.605 133.746C220.605 132.879 220.423 132.134 220.059 131.51C219.712 130.869 219.244 130.383 218.655 130.054C218.083 129.725 217.459 129.56 216.783 129.56C216.124 129.56 215.5 129.733 214.911 130.08C214.339 130.409 213.871 130.895 213.507 131.536C213.16 132.177 212.987 132.931 212.987 133.798C212.987 134.665 213.16 135.419 213.507 136.06C213.871 136.701 214.339 137.195 214.911 137.542C215.5 137.871 216.124 138.036 216.783 138.036C217.459 138.036 218.083 137.863 218.655 137.516C219.244 137.169 219.712 136.675 220.059 136.034C220.423 135.393 220.605 134.63 220.605 133.746ZM231.206 129.586V136.554C231.206 137.039 231.318 137.395 231.544 137.62C231.786 137.828 232.185 137.932 232.74 137.932H234.43V141H232.142C229.074 141 227.54 139.509 227.54 136.528V129.586H225.824V126.596H227.54V123.034H231.206V126.596H234.43V129.586H231.206ZM236.112 133.746C236.112 132.29 236.398 130.999 236.97 129.872C237.559 128.745 238.348 127.879 239.336 127.272C240.341 126.665 241.459 126.362 242.69 126.362C243.765 126.362 244.701 126.579 245.498 127.012C246.313 127.445 246.963 127.991 247.448 128.65V126.596H251.114V141H247.448V138.894C246.98 139.57 246.33 140.133 245.498 140.584C244.683 141.017 243.739 141.234 242.664 141.234C241.451 141.234 240.341 140.922 239.336 140.298C238.348 139.674 237.559 138.799 236.97 137.672C236.398 136.528 236.112 135.219 236.112 133.746ZM247.448 133.798C247.448 132.914 247.275 132.16 246.928 131.536C246.581 130.895 246.113 130.409 245.524 130.08C244.935 129.733 244.302 129.56 243.626 129.56C242.95 129.56 242.326 129.725 241.754 130.054C241.182 130.383 240.714 130.869 240.35 131.51C240.003 132.134 239.83 132.879 239.83 133.746C239.83 134.613 240.003 135.375 240.35 136.034C240.714 136.675 241.182 137.169 241.754 137.516C242.343 137.863 242.967 138.036 243.626 138.036C244.302 138.036 244.935 137.871 245.524 137.542C246.113 137.195 246.581 136.71 246.928 136.086C247.275 135.445 247.448 134.682 247.448 133.798ZM246.954 122.852L240.974 125.582V122.982L246.954 119.888V122.852ZM260.675 137.646L264.315 126.596H268.189L262.859 141H258.439L253.135 126.596H257.035L260.675 137.646ZM283.623 133.486C283.623 134.006 283.589 134.474 283.519 134.89H272.989C273.076 135.93 273.44 136.745 274.081 137.334C274.723 137.923 275.511 138.218 276.447 138.218C277.799 138.218 278.761 137.637 279.333 136.476H283.259C282.843 137.863 282.046 139.007 280.867 139.908C279.689 140.792 278.241 141.234 276.525 141.234C275.139 141.234 273.891 140.931 272.781 140.324C271.689 139.7 270.831 138.825 270.207 137.698C269.601 136.571 269.297 135.271 269.297 133.798C269.297 132.307 269.601 130.999 270.207 129.872C270.814 128.745 271.663 127.879 272.755 127.272C273.847 126.665 275.104 126.362 276.525 126.362C277.895 126.362 279.117 126.657 280.191 127.246C281.283 127.835 282.124 128.676 282.713 129.768C283.32 130.843 283.623 132.082 283.623 133.486ZM279.853 132.446C279.836 131.51 279.498 130.765 278.839 130.21C278.181 129.638 277.375 129.352 276.421 129.352C275.52 129.352 274.757 129.629 274.133 130.184C273.527 130.721 273.154 131.475 273.015 132.446H279.853ZM289.92 121.76V141H286.28V121.76H289.92Z" fill="white"/>
<path d="M31.9596 186.02C31.9596 184.66 32.2663 183.44 32.8796 182.36C33.4929 181.267 34.3263 180.413 35.3796 179.8C36.4463 179.187 37.6263 178.88 38.9196 178.88C40.4396 178.88 41.7663 179.247 42.8996 179.98C44.0329 180.713 44.8596 181.753 45.3796 183.1H43.1996C42.8129 182.26 42.2529 181.613 41.5196 181.16C40.7996 180.707 39.9329 180.48 38.9196 180.48C37.9463 180.48 37.0729 180.707 36.2996 181.16C35.5263 181.613 34.9196 182.26 34.4796 183.1C34.0396 183.927 33.8196 184.9 33.8196 186.02C33.8196 187.127 34.0396 188.1 34.4796 188.94C34.9196 189.767 35.5263 190.407 36.2996 190.86C37.0729 191.313 37.9463 191.54 38.9196 191.54C39.9329 191.54 40.7996 191.32 41.5196 190.88C42.2529 190.427 42.8129 189.78 43.1996 188.94H45.3796C44.8596 190.273 44.0329 191.307 42.8996 192.04C41.7663 192.76 40.4396 193.12 38.9196 193.12C37.6263 193.12 36.4463 192.82 35.3796 192.22C34.3263 191.607 33.4929 190.76 32.8796 189.68C32.2663 188.6 31.9596 187.38 31.9596 186.02ZM47.4088 187.48C47.4088 186.36 47.6355 185.38 48.0888 184.54C48.5422 183.687 49.1622 183.027 49.9488 182.56C50.7488 182.093 51.6355 181.86 52.6088 181.86C53.5688 181.86 54.4022 182.067 55.1088 182.48C55.8155 182.893 56.3422 183.413 56.6888 184.04V182.04H58.5288V193H56.6888V190.96C56.3288 191.6 55.7888 192.133 55.0688 192.56C54.3622 192.973 53.5355 193.18 52.5888 193.18C51.6155 193.18 50.7355 192.94 49.9488 192.46C49.1622 191.98 48.5422 191.307 48.0888 190.44C47.6355 189.573 47.4088 188.587 47.4088 187.48ZM56.6888 187.5C56.6888 186.673 56.5222 185.953 56.1888 185.34C55.8555 184.727 55.4022 184.26 54.8288 183.94C54.2688 183.607 53.6488 183.44 52.9688 183.44C52.2888 183.44 51.6688 183.6 51.1088 183.92C50.5488 184.24 50.1022 184.707 49.7688 185.32C49.4355 185.933 49.2688 186.653 49.2688 187.48C49.2688 188.32 49.4355 189.053 49.7688 189.68C50.1022 190.293 50.5488 190.767 51.1088 191.1C51.6688 191.42 52.2888 191.58 52.9688 191.58C53.6488 191.58 54.2688 191.42 54.8288 191.1C55.4022 190.767 55.8555 190.293 56.1888 189.68C56.5222 189.053 56.6888 188.327 56.6888 187.5ZM63.4245 183.82C63.7445 183.193 64.1978 182.707 64.7845 182.36C65.3845 182.013 66.1111 181.84 66.9645 181.84V183.72H66.4845C64.4445 183.72 63.4245 184.827 63.4245 187.04V193H61.6045V182.04H63.4245V183.82ZM71.2854 183.54V190C71.2854 190.533 71.3987 190.913 71.6254 191.14C71.8521 191.353 72.2454 191.46 72.8054 191.46H74.1454V193H72.5054C71.4921 193 70.7321 192.767 70.2254 192.3C69.7187 191.833 69.4654 191.067 69.4654 190V183.54H68.0454V182.04H69.4654V179.28H71.2854V182.04H74.1454V183.54H71.2854ZM75.6705 187.48C75.6705 186.36 75.8972 185.38 76.3505 184.54C76.8039 183.687 77.4239 183.027 78.2105 182.56C79.0105 182.093 79.8972 181.86 80.8705 181.86C81.8305 181.86 82.6639 182.067 83.3705 182.48C84.0772 182.893 84.6039 183.413 84.9505 184.04V182.04H86.7905V193H84.9505V190.96C84.5905 191.6 84.0505 192.133 83.3305 192.56C82.6239 192.973 81.7972 193.18 80.8505 193.18C79.8772 193.18 78.9972 192.94 78.2105 192.46C77.4239 191.98 76.8039 191.307 76.3505 190.44C75.8972 189.573 75.6705 188.587 75.6705 187.48ZM84.9505 187.5C84.9505 186.673 84.7839 185.953 84.4505 185.34C84.1172 184.727 83.6639 184.26 83.0905 183.94C82.5305 183.607 81.9105 183.44 81.2305 183.44C80.5505 183.44 79.9305 183.6 79.3705 183.92C78.8105 184.24 78.3639 184.707 78.0305 185.32C77.6972 185.933 77.5305 186.653 77.5305 187.48C77.5305 188.32 77.6972 189.053 78.0305 189.68C78.3639 190.293 78.8105 190.767 79.3705 191.1C79.9305 191.42 80.5505 191.58 81.2305 191.58C81.9105 191.58 82.5305 191.42 83.0905 191.1C83.6639 190.767 84.1172 190.293 84.4505 189.68C84.7839 189.053 84.9505 188.327 84.9505 187.5ZM78.6505 180.86C78.7439 180.18 78.9639 179.66 79.3105 179.3C79.6705 178.94 80.1172 178.76 80.6505 178.76C80.9039 178.76 81.1172 178.807 81.2905 178.9C81.4772 178.98 81.6972 179.1 81.9505 179.26C82.1372 179.393 82.3039 179.5 82.4505 179.58C82.5972 179.647 82.7572 179.68 82.9305 179.68C83.1572 179.68 83.3505 179.607 83.5105 179.46C83.6705 179.313 83.7705 179.1 83.8105 178.82H84.8505C84.7705 179.487 84.5505 180 84.1905 180.36C83.8305 180.72 83.3839 180.9 82.8505 180.9C82.5972 180.9 82.3705 180.86 82.1705 180.78C81.9839 180.687 81.7705 180.553 81.5305 180.38C81.3172 180.247 81.1439 180.147 81.0105 180.08C80.8905 180.013 80.7439 179.98 80.5705 179.98C80.3439 179.98 80.1505 180.053 79.9905 180.2C79.8439 180.347 79.7505 180.567 79.7105 180.86H78.6505ZM94.6462 193.18C93.6195 193.18 92.6862 192.947 91.8462 192.48C91.0195 192.013 90.3662 191.353 89.8862 190.5C89.4195 189.633 89.1862 188.633 89.1862 187.5C89.1862 186.38 89.4262 185.393 89.9062 184.54C90.3995 183.673 91.0662 183.013 91.9062 182.56C92.7462 182.093 93.6862 181.86 94.7262 181.86C95.7662 181.86 96.7062 182.093 97.5462 182.56C98.3862 183.013 99.0462 183.667 99.5262 184.52C100.02 185.373 100.266 186.367 100.266 187.5C100.266 188.633 100.013 189.633 99.5062 190.5C99.0128 191.353 98.3395 192.013 97.4862 192.48C96.6328 192.947 95.6862 193.18 94.6462 193.18ZM94.6462 191.58C95.2995 191.58 95.9128 191.427 96.4862 191.12C97.0595 190.813 97.5195 190.353 97.8662 189.74C98.2262 189.127 98.4062 188.38 98.4062 187.5C98.4062 186.62 98.2328 185.873 97.8862 185.26C97.5395 184.647 97.0862 184.193 96.5262 183.9C95.9662 183.593 95.3595 183.44 94.7062 183.44C94.0395 183.44 93.4262 183.593 92.8662 183.9C92.3195 184.193 91.8795 184.647 91.5462 185.26C91.2128 185.873 91.0462 186.62 91.0462 187.5C91.0462 188.393 91.2062 189.147 91.5262 189.76C91.8595 190.373 92.2995 190.833 92.8462 191.14C93.3928 191.433 93.9928 191.58 94.6462 191.58ZM112.411 193.14C111.491 193.14 110.665 192.98 109.931 192.66C109.211 192.327 108.645 191.873 108.231 191.3C107.818 190.713 107.605 190.04 107.591 189.28H109.531C109.598 189.933 109.865 190.487 110.331 190.94C110.811 191.38 111.505 191.6 112.411 191.6C113.278 191.6 113.958 191.387 114.451 190.96C114.958 190.52 115.211 189.96 115.211 189.28C115.211 188.747 115.065 188.313 114.771 187.98C114.478 187.647 114.111 187.393 113.671 187.22C113.231 187.047 112.638 186.86 111.891 186.66C110.971 186.42 110.231 186.18 109.671 185.94C109.125 185.7 108.651 185.327 108.251 184.82C107.865 184.3 107.671 183.607 107.671 182.74C107.671 181.98 107.865 181.307 108.251 180.72C108.638 180.133 109.178 179.68 109.871 179.36C110.578 179.04 111.385 178.88 112.291 178.88C113.598 178.88 114.665 179.207 115.491 179.86C116.331 180.513 116.805 181.38 116.911 182.46H114.911C114.845 181.927 114.565 181.46 114.071 181.06C113.578 180.647 112.925 180.44 112.111 180.44C111.351 180.44 110.731 180.64 110.251 181.04C109.771 181.427 109.531 181.973 109.531 182.68C109.531 183.187 109.671 183.6 109.951 183.92C110.245 184.24 110.598 184.487 111.011 184.66C111.438 184.82 112.031 185.007 112.791 185.22C113.711 185.473 114.451 185.727 115.011 185.98C115.571 186.22 116.051 186.6 116.451 187.12C116.851 187.627 117.051 188.32 117.051 189.2C117.051 189.88 116.871 190.52 116.511 191.12C116.151 191.72 115.618 192.207 114.911 192.58C114.205 192.953 113.371 193.14 112.411 193.14ZM121.549 179.06V193H119.729V179.06H121.549ZM138.791 179.16V193H136.971V182.68L132.371 193H131.091L126.471 182.66V193H124.651V179.16H126.611L131.731 190.6L136.851 179.16H138.791ZM151.67 183.54H149.37V193H147.55V183.54H146.13V182.04H147.55V181.26C147.55 180.033 147.863 179.14 148.49 178.58C149.13 178.007 150.15 177.72 151.55 177.72V179.24C150.75 179.24 150.183 179.4 149.85 179.72C149.53 180.027 149.37 180.54 149.37 181.26V182.04H151.67V183.54ZM155.612 178.2V193H153.792V178.2H155.612ZM168.714 187.1C168.714 187.447 168.694 187.813 168.654 188.2H159.894C159.96 189.28 160.327 190.127 160.994 190.74C161.674 191.34 162.494 191.64 163.454 191.64C164.24 191.64 164.894 191.46 165.414 191.1C165.947 190.727 166.32 190.233 166.534 189.62H168.494C168.2 190.673 167.614 191.533 166.734 192.2C165.854 192.853 164.76 193.18 163.454 193.18C162.414 193.18 161.48 192.947 160.654 192.48C159.84 192.013 159.2 191.353 158.734 190.5C158.267 189.633 158.034 188.633 158.034 187.5C158.034 186.367 158.26 185.373 158.714 184.52C159.167 183.667 159.8 183.013 160.614 182.56C161.44 182.093 162.387 181.86 163.454 181.86C164.494 181.86 165.414 182.087 166.214 182.54C167.014 182.993 167.627 183.62 168.054 184.42C168.494 185.207 168.714 186.1 168.714 187.1ZM166.834 186.72C166.834 186.027 166.68 185.433 166.374 184.94C166.067 184.433 165.647 184.053 165.114 183.8C164.594 183.533 164.014 183.4 163.374 183.4C162.454 183.4 161.667 183.693 161.014 184.28C160.374 184.867 160.007 185.68 159.914 186.72H166.834ZM176.836 193L174.236 188.92L171.736 193H169.836L173.376 187.56L169.836 182.04H171.896L174.496 186.1L176.976 182.04H178.876L175.356 187.46L178.896 193H176.836ZM182.506 182.04V193H180.686V182.04H182.506ZM183.546 178.94L179.286 181.22V179.86L183.546 177.36V178.94ZM189.688 191.32L193.088 182.04H195.028L190.728 193H188.608L184.308 182.04H186.268L189.688 191.32ZM206.819 187.1C206.819 187.447 206.799 187.813 206.759 188.2H197.999C198.066 189.28 198.433 190.127 199.099 190.74C199.779 191.34 200.599 191.64 201.559 191.64C202.346 191.64 202.999 191.46 203.519 191.1C204.053 190.727 204.426 190.233 204.639 189.62H206.599C206.306 190.673 205.719 191.533 204.839 192.2C203.959 192.853 202.866 193.18 201.559 193.18C200.519 193.18 199.586 192.947 198.759 192.48C197.946 192.013 197.306 191.353 196.839 190.5C196.373 189.633 196.139 188.633 196.139 187.5C196.139 186.367 196.366 185.373 196.819 184.52C197.273 183.667 197.906 183.013 198.719 182.56C199.546 182.093 200.493 181.86 201.559 181.86C202.599 181.86 203.519 182.087 204.319 182.54C205.119 182.993 205.733 183.62 206.159 184.42C206.599 185.207 206.819 186.1 206.819 187.1ZM204.939 186.72C204.939 186.027 204.786 185.433 204.479 184.94C204.173 184.433 203.753 184.053 203.219 183.8C202.699 183.533 202.119 183.4 201.479 183.4C200.559 183.4 199.773 183.693 199.119 184.28C198.479 184.867 198.113 185.68 198.019 186.72H204.939ZM211.042 178.2V193H209.222V178.2H211.042ZM229.476 187.1C229.476 187.447 229.456 187.813 229.416 188.2H220.656C220.722 189.28 221.089 190.127 221.756 190.74C222.436 191.34 223.256 191.64 224.216 191.64C225.002 191.64 225.656 191.46 226.176 191.1C226.709 190.727 227.082 190.233 227.296 189.62H229.256C228.962 190.673 228.376 191.533 227.496 192.2C226.616 192.853 225.522 193.18 224.216 193.18C223.176 193.18 222.242 192.947 221.416 192.48C220.602 192.013 219.962 191.353 219.496 190.5C219.029 189.633 218.796 188.633 218.796 187.5C218.796 186.367 219.022 185.373 219.476 184.52C219.929 183.667 220.562 183.013 221.376 182.56C222.202 182.093 223.149 181.86 224.216 181.86C225.256 181.86 226.176 182.087 226.976 182.54C227.776 182.993 228.389 183.62 228.816 184.42C229.256 185.207 229.476 186.1 229.476 187.1ZM227.596 186.72C227.596 186.027 227.442 185.433 227.136 184.94C226.829 184.433 226.409 184.053 225.876 183.8C225.356 183.533 224.776 183.4 224.136 183.4C223.216 183.4 222.429 183.693 221.776 184.28C221.136 184.867 220.769 185.68 220.676 186.72H227.596ZM236.53 187.5C236.53 186.367 236.757 185.38 237.21 184.54C237.663 183.687 238.29 183.027 239.09 182.56C239.903 182.093 240.83 181.86 241.87 181.86C243.217 181.86 244.323 182.187 245.19 182.84C246.07 183.493 246.65 184.4 246.93 185.56H244.97C244.783 184.893 244.417 184.367 243.87 183.98C243.337 183.593 242.67 183.4 241.87 183.4C240.83 183.4 239.99 183.76 239.35 184.48C238.71 185.187 238.39 186.193 238.39 187.5C238.39 188.82 238.71 189.84 239.35 190.56C239.99 191.28 240.83 191.64 241.87 191.64C242.67 191.64 243.337 191.453 243.87 191.08C244.403 190.707 244.77 190.173 244.97 189.48H246.93C246.637 190.6 246.05 191.5 245.17 192.18C244.29 192.847 243.19 193.18 241.87 193.18C240.83 193.18 239.903 192.947 239.09 192.48C238.29 192.013 237.663 191.353 237.21 190.5C236.757 189.647 236.53 188.647 236.53 187.5ZM254.138 193.18C253.112 193.18 252.178 192.947 251.338 192.48C250.512 192.013 249.858 191.353 249.378 190.5C248.912 189.633 248.678 188.633 248.678 187.5C248.678 186.38 248.918 185.393 249.398 184.54C249.892 183.673 250.558 183.013 251.398 182.56C252.238 182.093 253.178 181.86 254.218 181.86C255.258 181.86 256.198 182.093 257.038 182.56C257.878 183.013 258.538 183.667 259.018 184.52C259.512 185.373 259.758 186.367 259.758 187.5C259.758 188.633 259.505 189.633 258.998 190.5C258.505 191.353 257.832 192.013 256.978 192.48C256.125 192.947 255.178 193.18 254.138 193.18ZM254.138 191.58C254.792 191.58 255.405 191.427 255.978 191.12C256.552 190.813 257.012 190.353 257.358 189.74C257.718 189.127 257.898 188.38 257.898 187.5C257.898 186.62 257.725 185.873 257.378 185.26C257.032 184.647 256.578 184.193 256.018 183.9C255.458 183.593 254.852 183.44 254.198 183.44C253.532 183.44 252.918 183.593 252.358 183.9C251.812 184.193 251.372 184.647 251.038 185.26C250.705 185.873 250.538 186.62 250.538 187.5C250.538 188.393 250.698 189.147 251.018 189.76C251.352 190.373 251.792 190.833 252.338 191.14C252.885 191.433 253.485 191.58 254.138 191.58ZM275.331 181.84C276.185 181.84 276.945 182.02 277.611 182.38C278.278 182.727 278.805 183.253 279.191 183.96C279.578 184.667 279.771 185.527 279.771 186.54V193H277.971V186.8C277.971 185.707 277.698 184.873 277.151 184.3C276.618 183.713 275.891 183.42 274.971 183.42C274.025 183.42 273.271 183.727 272.711 184.34C272.151 184.94 271.871 185.813 271.871 186.96V193H270.071V186.8C270.071 185.707 269.798 184.873 269.251 184.3C268.718 183.713 267.991 183.42 267.071 183.42C266.125 183.42 265.371 183.727 264.811 184.34C264.251 184.94 263.971 185.813 263.971 186.96V193H262.151V182.04H263.971V183.62C264.331 183.047 264.811 182.607 265.411 182.3C266.025 181.993 266.698 181.84 267.431 181.84C268.351 181.84 269.165 182.047 269.871 182.46C270.578 182.873 271.105 183.48 271.451 184.28C271.758 183.507 272.265 182.907 272.971 182.48C273.678 182.053 274.465 181.84 275.331 181.84ZM292.169 191.32L295.569 182.04H297.509L293.209 193H291.089L286.789 182.04H288.749L292.169 191.32ZM298.62 187.48C298.62 186.36 298.846 185.38 299.3 184.54C299.753 183.687 300.373 183.027 301.16 182.56C301.96 182.093 302.846 181.86 303.82 181.86C304.78 181.86 305.613 182.067 306.32 182.48C307.026 182.893 307.553 183.413 307.9 184.04V182.04H309.74V193H307.9V190.96C307.54 191.6 307 192.133 306.28 192.56C305.573 192.973 304.746 193.18 303.8 193.18C302.826 193.18 301.946 192.94 301.16 192.46C300.373 191.98 299.753 191.307 299.3 190.44C298.846 189.573 298.62 188.587 298.62 187.48ZM307.9 187.5C307.9 186.673 307.733 185.953 307.4 185.34C307.066 184.727 306.613 184.26 306.04 183.94C305.48 183.607 304.86 183.44 304.18 183.44C303.5 183.44 302.88 183.6 302.32 183.92C301.76 184.24 301.313 184.707 300.98 185.32C300.646 185.933 300.48 186.653 300.48 187.48C300.48 188.32 300.646 189.053 300.98 189.68C301.313 190.293 301.76 190.767 302.32 191.1C302.88 191.42 303.5 191.58 304.18 191.58C304.86 191.58 305.48 191.42 306.04 191.1C306.613 190.767 307.066 190.293 307.4 189.68C307.733 189.053 307.9 188.327 307.9 187.5ZM306.48 178.94L302.22 181.22V179.86L306.48 177.36V178.94ZM314.635 183.82C314.955 183.193 315.409 182.707 315.995 182.36C316.595 182.013 317.322 181.84 318.175 181.84V183.72H317.695C315.655 183.72 314.635 184.827 314.635 187.04V193H312.815V182.04H314.635V183.82ZM321.216 180.26C320.87 180.26 320.576 180.14 320.336 179.9C320.096 179.66 319.976 179.367 319.976 179.02C319.976 178.673 320.096 178.38 320.336 178.14C320.576 177.9 320.87 177.78 321.216 177.78C321.55 177.78 321.83 177.9 322.056 178.14C322.296 178.38 322.416 178.673 322.416 179.02C322.416 179.367 322.296 179.66 322.056 179.9C321.83 180.14 321.55 180.26 321.216 180.26ZM322.096 182.04V193H320.276V182.04H322.096ZM329.978 193.18C328.952 193.18 328.018 192.947 327.178 192.48C326.352 192.013 325.698 191.353 325.218 190.5C324.752 189.633 324.518 188.633 324.518 187.5C324.518 186.38 324.758 185.393 325.238 184.54C325.732 183.673 326.398 183.013 327.238 182.56C328.078 182.093 329.018 181.86 330.058 181.86C331.098 181.86 332.038 182.093 332.878 182.56C333.718 183.013 334.378 183.667 334.858 184.52C335.352 185.373 335.598 186.367 335.598 187.5C335.598 188.633 335.345 189.633 334.838 190.5C334.345 191.353 333.672 192.013 332.818 192.48C331.965 192.947 331.018 193.18 329.978 193.18ZM329.978 191.58C330.632 191.58 331.245 191.427 331.818 191.12C332.392 190.813 332.852 190.353 333.198 189.74C333.558 189.127 333.738 188.38 333.738 187.5C333.738 186.62 333.565 185.873 333.218 185.26C332.872 184.647 332.418 184.193 331.858 183.9C331.298 183.593 330.692 183.44 330.038 183.44C329.372 183.44 328.758 183.593 328.198 183.9C327.652 184.193 327.212 184.647 326.878 185.26C326.545 185.873 326.378 186.62 326.378 187.5C326.378 188.393 326.538 189.147 326.858 189.76C327.192 190.373 327.632 190.833 328.178 191.14C328.725 191.433 329.325 191.58 329.978 191.58ZM341.871 193.18C341.031 193.18 340.278 193.04 339.611 192.76C338.945 192.467 338.418 192.067 338.031 191.56C337.645 191.04 337.431 190.447 337.391 189.78H339.271C339.325 190.327 339.578 190.773 340.031 191.12C340.498 191.467 341.105 191.64 341.851 191.64C342.545 191.64 343.091 191.487 343.491 191.18C343.891 190.873 344.091 190.487 344.091 190.02C344.091 189.54 343.878 189.187 343.451 188.96C343.025 188.72 342.365 188.487 341.471 188.26C340.658 188.047 339.991 187.833 339.471 187.62C338.965 187.393 338.525 187.067 338.151 186.64C337.791 186.2 337.611 185.627 337.611 184.92C337.611 184.36 337.778 183.847 338.111 183.38C338.445 182.913 338.918 182.547 339.531 182.28C340.145 182 340.845 181.86 341.631 181.86C342.845 181.86 343.825 182.167 344.571 182.78C345.318 183.393 345.718 184.233 345.771 185.3H343.951C343.911 184.727 343.678 184.267 343.251 183.92C342.838 183.573 342.278 183.4 341.571 183.4C340.918 183.4 340.398 183.54 340.011 183.82C339.625 184.1 339.431 184.467 339.431 184.92C339.431 185.28 339.545 185.58 339.771 185.82C340.011 186.047 340.305 186.233 340.651 186.38C341.011 186.513 341.505 186.667 342.131 186.84C342.918 187.053 343.558 187.267 344.051 187.48C344.545 187.68 344.965 187.987 345.311 188.4C345.671 188.813 345.858 189.353 345.871 190.02C345.871 190.62 345.705 191.16 345.371 191.64C345.038 192.12 344.565 192.5 343.951 192.78C343.351 193.047 342.658 193.18 341.871 193.18ZM52.8223 213.54H50.5223V223H48.7023V213.54H47.2823V212.04H48.7023V211.26C48.7023 210.033 49.0156 209.14 49.6423 208.58C50.2823 208.007 51.3023 207.72 52.7023 207.72V209.24C51.9023 209.24 51.3356 209.4 51.0023 209.72C50.6823 210.027 50.5223 210.54 50.5223 211.26V212.04H52.8223V213.54ZM59.7243 223.18C58.6976 223.18 57.7643 222.947 56.9243 222.48C56.0976 222.013 55.4443 221.353 54.9643 220.5C54.4976 219.633 54.2643 218.633 54.2643 217.5C54.2643 216.38 54.5043 215.393 54.9843 214.54C55.4776 213.673 56.1443 213.013 56.9843 212.56C57.8243 212.093 58.7643 211.86 59.8043 211.86C60.8443 211.86 61.7843 212.093 62.6243 212.56C63.4643 213.013 64.1243 213.667 64.6043 214.52C65.0976 215.373 65.3443 216.367 65.3443 217.5C65.3443 218.633 65.091 219.633 64.5843 220.5C64.091 221.353 63.4176 222.013 62.5643 222.48C61.711 222.947 60.7643 223.18 59.7243 223.18ZM59.7243 221.58C60.3776 221.58 60.991 221.427 61.5643 221.12C62.1376 220.813 62.5976 220.353 62.9443 219.74C63.3043 219.127 63.4843 218.38 63.4843 217.5C63.4843 216.62 63.311 215.873 62.9643 215.26C62.6176 214.647 62.1643 214.193 61.6043 213.9C61.0443 213.593 60.4376 213.44 59.7843 213.44C59.1176 213.44 58.5043 213.593 57.9443 213.9C57.3976 214.193 56.9576 214.647 56.6243 215.26C56.291 215.873 56.1243 216.62 56.1243 217.5C56.1243 218.393 56.2843 219.147 56.6043 219.76C56.9376 220.373 57.3776 220.833 57.9243 221.14C58.471 221.433 59.071 221.58 59.7243 221.58ZM69.5573 213.82C69.8773 213.193 70.3306 212.707 70.9173 212.36C71.5173 212.013 72.2439 211.84 73.0973 211.84V213.72H72.6173C70.5773 213.72 69.5573 214.827 69.5573 217.04V223H67.7373V212.04H69.5573V213.82ZM88.3782 211.84C89.2315 211.84 89.9915 212.02 90.6582 212.38C91.3249 212.727 91.8515 213.253 92.2382 213.96C92.6249 214.667 92.8182 215.527 92.8182 216.54V223H91.0182V216.8C91.0182 215.707 90.7449 214.873 90.1982 214.3C89.6649 213.713 88.9382 213.42 88.0182 213.42C87.0715 213.42 86.3182 213.727 85.7582 214.34C85.1982 214.94 84.9182 215.813 84.9182 216.96V223H83.1182V216.8C83.1182 215.707 82.8449 214.873 82.2982 214.3C81.7649 213.713 81.0382 213.42 80.1182 213.42C79.1715 213.42 78.4182 213.727 77.8582 214.34C77.2982 214.94 77.0182 215.813 77.0182 216.96V223H75.1982V212.04H77.0182V213.62C77.3782 213.047 77.8582 212.607 78.4582 212.3C79.0715 211.993 79.7449 211.84 80.4782 211.84C81.3982 211.84 82.2115 212.047 82.9182 212.46C83.6249 212.873 84.1515 213.48 84.4982 214.28C84.8049 213.507 85.3115 212.907 86.0182 212.48C86.7249 212.053 87.5115 211.84 88.3782 211.84ZM95.1237 217.48C95.1237 216.36 95.3503 215.38 95.8037 214.54C96.257 213.687 96.877 213.027 97.6637 212.56C98.4637 212.093 99.3503 211.86 100.324 211.86C101.284 211.86 102.117 212.067 102.824 212.48C103.53 212.893 104.057 213.413 104.404 214.04V212.04H106.244V223H104.404V220.96C104.044 221.6 103.504 222.133 102.784 222.56C102.077 222.973 101.25 223.18 100.304 223.18C99.3303 223.18 98.4503 222.94 97.6637 222.46C96.877 221.98 96.257 221.307 95.8037 220.44C95.3503 219.573 95.1237 218.587 95.1237 217.48ZM104.404 217.5C104.404 216.673 104.237 215.953 103.904 215.34C103.57 214.727 103.117 214.26 102.544 213.94C101.984 213.607 101.364 213.44 100.684 213.44C100.004 213.44 99.3837 213.6 98.8237 213.92C98.2637 214.24 97.817 214.707 97.4837 215.32C97.1503 215.933 96.9837 216.653 96.9837 217.48C96.9837 218.32 97.1503 219.053 97.4837 219.68C97.817 220.293 98.2637 220.767 98.8237 221.1C99.3837 221.42 100.004 221.58 100.684 221.58C101.364 221.58 101.984 221.42 102.544 221.1C103.117 220.767 103.57 220.293 103.904 219.68C104.237 219.053 104.404 218.327 104.404 217.5ZM111.539 213.54V220C111.539 220.533 111.653 220.913 111.879 221.14C112.106 221.353 112.499 221.46 113.059 221.46H114.399V223H112.759C111.746 223 110.986 222.767 110.479 222.3C109.973 221.833 109.719 221.067 109.719 220V213.54H108.299V212.04H109.719V209.28H111.539V212.04H114.399V213.54H111.539ZM121.384 223.18C120.358 223.18 119.424 222.947 118.584 222.48C117.758 222.013 117.104 221.353 116.624 220.5C116.158 219.633 115.924 218.633 115.924 217.5C115.924 216.38 116.164 215.393 116.644 214.54C117.138 213.673 117.804 213.013 118.644 212.56C119.484 212.093 120.424 211.86 121.464 211.86C122.504 211.86 123.444 212.093 124.284 212.56C125.124 213.013 125.784 213.667 126.264 214.52C126.758 215.373 127.004 216.367 127.004 217.5C127.004 218.633 126.751 219.633 126.244 220.5C125.751 221.353 125.078 222.013 124.224 222.48C123.371 222.947 122.424 223.18 121.384 223.18ZM121.384 221.58C122.038 221.58 122.651 221.427 123.224 221.12C123.798 220.813 124.258 220.353 124.604 219.74C124.964 219.127 125.144 218.38 125.144 217.5C125.144 216.62 124.971 215.873 124.624 215.26C124.278 214.647 123.824 214.193 123.264 213.9C122.704 213.593 122.098 213.44 121.444 213.44C120.778 213.44 120.164 213.593 119.604 213.9C119.058 214.193 118.618 214.647 118.284 215.26C117.951 215.873 117.784 216.62 117.784 217.5C117.784 218.393 117.944 219.147 118.264 219.76C118.598 220.373 119.038 220.833 119.584 221.14C120.131 221.433 120.731 221.58 121.384 221.58ZM133.277 223.18C132.437 223.18 131.684 223.04 131.017 222.76C130.351 222.467 129.824 222.067 129.437 221.56C129.051 221.04 128.837 220.447 128.797 219.78H130.677C130.731 220.327 130.984 220.773 131.437 221.12C131.904 221.467 132.511 221.64 133.257 221.64C133.951 221.64 134.497 221.487 134.897 221.18C135.297 220.873 135.497 220.487 135.497 220.02C135.497 219.54 135.284 219.187 134.857 218.96C134.431 218.72 133.771 218.487 132.877 218.26C132.064 218.047 131.397 217.833 130.877 217.62C130.371 217.393 129.931 217.067 129.557 216.64C129.197 216.2 129.017 215.627 129.017 214.92C129.017 214.36 129.184 213.847 129.517 213.38C129.851 212.913 130.324 212.547 130.937 212.28C131.551 212 132.251 211.86 133.037 211.86C134.251 211.86 135.231 212.167 135.977 212.78C136.724 213.393 137.124 214.233 137.177 215.3H135.357C135.317 214.727 135.084 214.267 134.657 213.92C134.244 213.573 133.684 213.4 132.977 213.4C132.324 213.4 131.804 213.54 131.417 213.82C131.031 214.1 130.837 214.467 130.837 214.92C130.837 215.28 130.951 215.58 131.177 215.82C131.417 216.047 131.711 216.233 132.057 216.38C132.417 216.513 132.911 216.667 133.537 216.84C134.324 217.053 134.964 217.267 135.457 217.48C135.951 217.68 136.371 217.987 136.717 218.4C137.077 218.813 137.264 219.353 137.277 220.02C137.277 220.62 137.111 221.16 136.777 221.64C136.444 222.12 135.971 222.5 135.357 222.78C134.757 223.047 134.064 223.18 133.277 223.18ZM140.427 223.12C140.08 223.12 139.787 223 139.547 222.76C139.307 222.52 139.187 222.227 139.187 221.88C139.187 221.533 139.307 221.24 139.547 221C139.787 220.76 140.08 220.64 140.427 220.64C140.76 220.64 141.04 220.76 141.267 221C141.507 221.24 141.627 221.533 141.627 221.88C141.627 222.227 141.507 222.52 141.267 222.76C141.04 223 140.76 223.12 140.427 223.12ZM153.718 209.06C155.238 209.06 156.551 209.347 157.658 209.92C158.778 210.48 159.631 211.287 160.218 212.34C160.818 213.393 161.118 214.633 161.118 216.06C161.118 217.487 160.818 218.727 160.218 219.78C159.631 220.82 158.778 221.62 157.658 222.18C156.551 222.727 155.238 223 153.718 223H149.378V209.06H153.718ZM153.718 221.5C155.518 221.5 156.891 221.027 157.838 220.08C158.785 219.12 159.258 217.78 159.258 216.06C159.258 214.327 158.778 212.973 157.818 212C156.871 211.027 155.505 210.54 153.718 210.54H151.198V221.5H153.718ZM164.459 210.26C164.112 210.26 163.819 210.14 163.579 209.9C163.339 209.66 163.219 209.367 163.219 209.02C163.219 208.673 163.339 208.38 163.579 208.14C163.819 207.9 164.112 207.78 164.459 207.78C164.792 207.78 165.072 207.9 165.299 208.14C165.539 208.38 165.659 208.673 165.659 209.02C165.659 209.367 165.539 209.66 165.299 209.9C165.072 210.14 164.792 210.26 164.459 210.26ZM165.339 212.04V223H163.519V212.04H165.339ZM172.32 223.18C171.48 223.18 170.727 223.04 170.06 222.76C169.394 222.467 168.867 222.067 168.48 221.56C168.094 221.04 167.88 220.447 167.84 219.78H169.72C169.774 220.327 170.027 220.773 170.48 221.12C170.947 221.467 171.554 221.64 172.3 221.64C172.994 221.64 173.54 221.487 173.94 221.18C174.34 220.873 174.54 220.487 174.54 220.02C174.54 219.54 174.327 219.187 173.9 218.96C173.474 218.72 172.814 218.487 171.92 218.26C171.107 218.047 170.44 217.833 169.92 217.62C169.414 217.393 168.974 217.067 168.6 216.64C168.24 216.2 168.06 215.627 168.06 214.92C168.06 214.36 168.227 213.847 168.56 213.38C168.894 212.913 169.367 212.547 169.98 212.28C170.594 212 171.294 211.86 172.08 211.86C173.294 211.86 174.274 212.167 175.02 212.78C175.767 213.393 176.167 214.233 176.22 215.3H174.4C174.36 214.727 174.127 214.267 173.7 213.92C173.287 213.573 172.727 213.4 172.02 213.4C171.367 213.4 170.847 213.54 170.46 213.82C170.074 214.1 169.88 214.467 169.88 214.92C169.88 215.28 169.994 215.58 170.22 215.82C170.46 216.047 170.754 216.233 171.1 216.38C171.46 216.513 171.954 216.667 172.58 216.84C173.367 217.053 174.007 217.267 174.5 217.48C174.994 217.68 175.414 217.987 175.76 218.4C176.12 218.813 176.307 219.353 176.32 220.02C176.32 220.62 176.154 221.16 175.82 221.64C175.487 222.12 175.014 222.5 174.4 222.78C173.8 223.047 173.107 223.18 172.32 223.18ZM180.71 214.06C181.07 213.433 181.603 212.913 182.31 212.5C183.03 212.073 183.863 211.86 184.81 211.86C185.783 211.86 186.663 212.093 187.45 212.56C188.25 213.027 188.876 213.687 189.33 214.54C189.783 215.38 190.01 216.36 190.01 217.48C190.01 218.587 189.783 219.573 189.33 220.44C188.876 221.307 188.25 221.98 187.45 222.46C186.663 222.94 185.783 223.18 184.81 223.18C183.876 223.18 183.05 222.973 182.33 222.56C181.623 222.133 181.083 221.607 180.71 220.98V228.2H178.89V212.04H180.71V214.06ZM188.15 217.48C188.15 216.653 187.983 215.933 187.65 215.32C187.316 214.707 186.863 214.24 186.29 213.92C185.73 213.6 185.11 213.44 184.43 213.44C183.763 213.44 183.143 213.607 182.57 213.94C182.01 214.26 181.556 214.733 181.21 215.36C180.876 215.973 180.71 216.687 180.71 217.5C180.71 218.327 180.876 219.053 181.21 219.68C181.556 220.293 182.01 220.767 182.57 221.1C183.143 221.42 183.763 221.58 184.43 221.58C185.11 221.58 185.73 221.42 186.29 221.1C186.863 220.767 187.316 220.293 187.65 219.68C187.983 219.053 188.15 218.32 188.15 217.48ZM197.185 223.18C196.159 223.18 195.225 222.947 194.385 222.48C193.559 222.013 192.905 221.353 192.425 220.5C191.959 219.633 191.725 218.633 191.725 217.5C191.725 216.38 191.965 215.393 192.445 214.54C192.939 213.673 193.605 213.013 194.445 212.56C195.285 212.093 196.225 211.86 197.265 211.86C198.305 211.86 199.245 212.093 200.085 212.56C200.925 213.013 201.585 213.667 202.065 214.52C202.559 215.373 202.805 216.367 202.805 217.5C202.805 218.633 202.552 219.633 202.045 220.5C201.552 221.353 200.879 222.013 200.025 222.48C199.172 222.947 198.225 223.18 197.185 223.18ZM197.185 221.58C197.839 221.58 198.452 221.427 199.025 221.12C199.599 220.813 200.059 220.353 200.405 219.74C200.765 219.127 200.945 218.38 200.945 217.5C200.945 216.62 200.772 215.873 200.425 215.26C200.079 214.647 199.625 214.193 199.065 213.9C198.505 213.593 197.899 213.44 197.245 213.44C196.579 213.44 195.965 213.593 195.405 213.9C194.859 214.193 194.419 214.647 194.085 215.26C193.752 215.873 193.585 216.62 193.585 217.5C193.585 218.393 193.745 219.147 194.065 219.76C194.399 220.373 194.839 220.833 195.385 221.14C195.932 221.433 196.532 221.58 197.185 221.58ZM210.538 211.84C211.872 211.84 212.952 212.247 213.778 213.06C214.605 213.86 215.018 215.02 215.018 216.54V223H213.218V216.8C213.218 215.707 212.945 214.873 212.398 214.3C211.852 213.713 211.105 213.42 210.158 213.42C209.198 213.42 208.432 213.72 207.858 214.32C207.298 214.92 207.018 215.793 207.018 216.94V223H205.198V212.04H207.018V213.6C207.378 213.04 207.865 212.607 208.478 212.3C209.105 211.993 209.792 211.84 210.538 211.84ZM219.811 212.04V223H217.991V212.04H219.811ZM220.851 208.94L216.591 211.22V209.86L220.851 207.36V208.94ZM226.993 221.32L230.393 212.04H232.333L228.033 223H225.913L221.613 212.04H223.573L226.993 221.32ZM244.124 217.1C244.124 217.447 244.104 217.813 244.064 218.2H235.304C235.371 219.28 235.737 220.127 236.404 220.74C237.084 221.34 237.904 221.64 238.864 221.64C239.651 221.64 240.304 221.46 240.824 221.1C241.357 220.727 241.731 220.233 241.944 219.62H243.904C243.611 220.673 243.024 221.533 242.144 222.2C241.264 222.853 240.171 223.18 238.864 223.18C237.824 223.18 236.891 222.947 236.064 222.48C235.251 222.013 234.611 221.353 234.144 220.5C233.677 219.633 233.444 218.633 233.444 217.5C233.444 216.367 233.671 215.373 234.124 214.52C234.577 213.667 235.211 213.013 236.024 212.56C236.851 212.093 237.797 211.86 238.864 211.86C239.904 211.86 240.824 212.087 241.624 212.54C242.424 212.993 243.037 213.62 243.464 214.42C243.904 215.207 244.124 216.1 244.124 217.1ZM242.244 216.72C242.244 216.027 242.091 215.433 241.784 214.94C241.477 214.433 241.057 214.053 240.524 213.8C240.004 213.533 239.424 213.4 238.784 213.4C237.864 213.4 237.077 213.693 236.424 214.28C235.784 214.867 235.417 215.68 235.324 216.72H242.244ZM248.346 208.2V223H246.526V208.2H248.346ZM266.78 217.1C266.78 217.447 266.76 217.813 266.72 218.2H257.96C258.027 219.28 258.394 220.127 259.06 220.74C259.74 221.34 260.56 221.64 261.52 221.64C262.307 221.64 262.96 221.46 263.48 221.1C264.014 220.727 264.387 220.233 264.6 219.62H266.56C266.267 220.673 265.68 221.533 264.8 222.2C263.92 222.853 262.827 223.18 261.52 223.18C260.48 223.18 259.547 222.947 258.72 222.48C257.907 222.013 257.267 221.353 256.8 220.5C256.334 219.633 256.1 218.633 256.1 217.5C256.1 216.367 256.327 215.373 256.78 214.52C257.234 213.667 257.867 213.013 258.68 212.56C259.507 212.093 260.454 211.86 261.52 211.86C262.56 211.86 263.48 212.087 264.28 212.54C265.08 212.993 265.694 213.62 266.12 214.42C266.56 215.207 266.78 216.1 266.78 217.1ZM264.9 216.72C264.9 216.027 264.747 215.433 264.44 214.94C264.134 214.433 263.714 214.053 263.18 213.8C262.66 213.533 262.08 213.4 261.44 213.4C260.52 213.4 259.734 213.693 259.08 214.28C258.44 214.867 258.074 215.68 257.98 216.72H264.9ZM282.363 211.84C283.216 211.84 283.976 212.02 284.643 212.38C285.309 212.727 285.836 213.253 286.223 213.96C286.609 214.667 286.803 215.527 286.803 216.54V223H285.003V216.8C285.003 215.707 284.729 214.873 284.183 214.3C283.649 213.713 282.923 213.42 282.003 213.42C281.056 213.42 280.303 213.727 279.743 214.34C279.183 214.94 278.903 215.813 278.903 216.96V223H277.103V216.8C277.103 215.707 276.829 214.873 276.283 214.3C275.749 213.713 275.023 213.42 274.103 213.42C273.156 213.42 272.403 213.727 271.843 214.34C271.283 214.94 271.003 215.813 271.003 216.96V223H269.183V212.04H271.003V213.62C271.363 213.047 271.843 212.607 272.443 212.3C273.056 211.993 273.729 211.84 274.463 211.84C275.383 211.84 276.196 212.047 276.903 212.46C277.609 212.873 278.136 213.48 278.483 214.28C278.789 213.507 279.296 212.907 280.003 212.48C280.709 212.053 281.496 211.84 282.363 211.84ZM297.34 213.54V220C297.34 220.533 297.453 220.913 297.68 221.14C297.907 221.353 298.3 221.46 298.86 221.46H300.2V223H298.56C297.547 223 296.787 222.767 296.28 222.3C295.773 221.833 295.52 221.067 295.52 220V213.54H294.1V212.04H295.52V209.28H297.34V212.04H300.2V213.54H297.34ZM304.225 213.82C304.545 213.193 304.999 212.707 305.585 212.36C306.185 212.013 306.912 211.84 307.765 211.84V213.72H307.285C305.245 213.72 304.225 214.827 304.225 217.04V223H302.405V212.04H304.225V213.82ZM319.866 217.1C319.866 217.447 319.846 217.813 319.806 218.2H311.046C311.113 219.28 311.48 220.127 312.146 220.74C312.826 221.34 313.646 221.64 314.606 221.64C315.393 221.64 316.046 221.46 316.566 221.1C317.1 220.727 317.473 220.233 317.686 219.62H319.646C319.353 220.673 318.766 221.533 317.886 222.2C317.006 222.853 315.913 223.18 314.606 223.18C313.566 223.18 312.633 222.947 311.806 222.48C310.993 222.013 310.353 221.353 309.886 220.5C309.42 219.633 309.186 218.633 309.186 217.5C309.186 216.367 309.413 215.373 309.866 214.52C310.32 213.667 310.953 213.013 311.766 212.56C312.593 212.093 313.54 211.86 314.606 211.86C315.646 211.86 316.566 212.087 317.366 212.54C318.166 212.993 318.78 213.62 319.206 214.42C319.646 215.207 319.866 216.1 319.866 217.1ZM317.986 216.72C317.986 216.027 317.833 215.433 317.526 214.94C317.22 214.433 316.8 214.053 316.266 213.8C315.746 213.533 315.166 213.4 314.526 213.4C313.606 213.4 312.82 213.693 312.166 214.28C311.526 214.867 311.16 215.68 311.066 216.72H317.986ZM314.546 209.36L311.766 211.06V209.62L314.546 207.96L317.306 209.62V211.06L314.546 209.36ZM326.149 223.18C325.309 223.18 324.555 223.04 323.889 222.76C323.222 222.467 322.695 222.067 322.309 221.56C321.922 221.04 321.709 220.447 321.669 219.78H323.549C323.602 220.327 323.855 220.773 324.309 221.12C324.775 221.467 325.382 221.64 326.129 221.64C326.822 221.64 327.369 221.487 327.769 221.18C328.169 220.873 328.369 220.487 328.369 220.02C328.369 219.54 328.155 219.187 327.729 218.96C327.302 218.72 326.642 218.487 325.749 218.26C324.935 218.047 324.269 217.833 323.749 217.62C323.242 217.393 322.802 217.067 322.429 216.64C322.069 216.2 321.889 215.627 321.889 214.92C321.889 214.36 322.055 213.847 322.389 213.38C322.722 212.913 323.195 212.547 323.809 212.28C324.422 212 325.122 211.86 325.909 211.86C327.122 211.86 328.102 212.167 328.849 212.78C329.595 213.393 329.995 214.233 330.049 215.3H328.229C328.189 214.727 327.955 214.267 327.529 213.92C327.115 213.573 326.555 213.4 325.849 213.4C325.195 213.4 324.675 213.54 324.289 213.82C323.902 214.1 323.709 214.467 323.709 214.92C323.709 215.28 323.822 215.58 324.049 215.82C324.289 216.047 324.582 216.233 324.929 216.38C325.289 216.513 325.782 216.667 326.409 216.84C327.195 217.053 327.835 217.267 328.329 217.48C328.822 217.68 329.242 217.987 329.589 218.4C329.949 218.813 330.135 219.353 330.149 220.02C330.149 220.62 329.982 221.16 329.649 221.64C329.315 222.12 328.842 222.5 328.229 222.78C327.629 223.047 326.935 223.18 326.149 223.18ZM52.4707 243.54H50.1707V253H48.3507V243.54H46.9307V242.04H48.3507V241.26C48.3507 240.033 48.664 239.14 49.2907 238.58C49.9307 238.007 50.9507 237.72 52.3507 237.72V239.24C51.5507 239.24 50.984 239.4 50.6507 239.72C50.3307 240.027 50.1707 240.54 50.1707 241.26V242.04H52.4707V243.54ZM59.3727 253.18C58.3461 253.18 57.4127 252.947 56.5727 252.48C55.7461 252.013 55.0927 251.353 54.6127 250.5C54.1461 249.633 53.9127 248.633 53.9127 247.5C53.9127 246.38 54.1527 245.393 54.6327 244.54C55.1261 243.673 55.7927 243.013 56.6327 242.56C57.4727 242.093 58.4127 241.86 59.4527 241.86C60.4927 241.86 61.4327 242.093 62.2727 242.56C63.1127 243.013 63.7727 243.667 64.2527 244.52C64.7461 245.373 64.9927 246.367 64.9927 247.5C64.9927 248.633 64.7394 249.633 64.2327 250.5C63.7394 251.353 63.0661 252.013 62.2127 252.48C61.3594 252.947 60.4127 253.18 59.3727 253.18ZM59.3727 251.58C60.0261 251.58 60.6394 251.427 61.2127 251.12C61.7861 250.813 62.2461 250.353 62.5927 249.74C62.9527 249.127 63.1327 248.38 63.1327 247.5C63.1327 246.62 62.9594 245.873 62.6127 245.26C62.2661 244.647 61.8127 244.193 61.2527 243.9C60.6927 243.593 60.0861 243.44 59.4327 243.44C58.7661 243.44 58.1527 243.593 57.5927 243.9C57.0461 244.193 56.6061 244.647 56.2727 245.26C55.9394 245.873 55.7727 246.62 55.7727 247.5C55.7727 248.393 55.9327 249.147 56.2527 249.76C56.5861 250.373 57.0261 250.833 57.5727 251.14C58.1194 251.433 58.7194 251.58 59.3727 251.58ZM69.2057 243.82C69.5257 243.193 69.979 242.707 70.5657 242.36C71.1657 242.013 71.8924 241.84 72.7457 241.84V243.72H72.2657C70.2257 243.72 69.2057 244.827 69.2057 247.04V253H67.3857V242.04H69.2057V243.82ZM88.0266 241.84C88.88 241.84 89.64 242.02 90.3066 242.38C90.9733 242.727 91.5 243.253 91.8866 243.96C92.2733 244.667 92.4666 245.527 92.4666 246.54V253H90.6666V246.8C90.6666 245.707 90.3933 244.873 89.8466 244.3C89.3133 243.713 88.5866 243.42 87.6666 243.42C86.72 243.42 85.9666 243.727 85.4066 244.34C84.8466 244.94 84.5666 245.813 84.5666 246.96V253H82.7666V246.8C82.7666 245.707 82.4933 244.873 81.9466 244.3C81.4133 243.713 80.6866 243.42 79.7666 243.42C78.82 243.42 78.0666 243.727 77.5066 244.34C76.9466 244.94 76.6666 245.813 76.6666 246.96V253H74.8466V242.04H76.6666V243.62C77.0266 243.047 77.5066 242.607 78.1066 242.3C78.72 241.993 79.3933 241.84 80.1266 241.84C81.0466 241.84 81.86 242.047 82.5666 242.46C83.2733 242.873 83.8 243.48 84.1466 244.28C84.4533 243.507 84.96 242.907 85.6666 242.48C86.3733 242.053 87.16 241.84 88.0266 241.84ZM94.7721 247.48C94.7721 246.36 94.9988 245.38 95.4521 244.54C95.9054 243.687 96.5254 243.027 97.3121 242.56C98.1121 242.093 98.9988 241.86 99.9721 241.86C100.932 241.86 101.765 242.067 102.472 242.48C103.179 242.893 103.705 243.413 104.052 244.04V242.04H105.892V253H104.052V250.96C103.692 251.6 103.152 252.133 102.432 252.56C101.725 252.973 100.899 253.18 99.9521 253.18C98.9788 253.18 98.0988 252.94 97.3121 252.46C96.5254 251.98 95.9054 251.307 95.4521 250.44C94.9988 249.573 94.7721 248.587 94.7721 247.48ZM104.052 247.5C104.052 246.673 103.885 245.953 103.552 245.34C103.219 244.727 102.765 244.26 102.192 243.94C101.632 243.607 101.012 243.44 100.332 243.44C99.6521 243.44 99.0321 243.6 98.4721 243.92C97.9121 244.24 97.4654 244.707 97.1321 245.32C96.7988 245.933 96.6321 246.653 96.6321 247.48C96.6321 248.32 96.7988 249.053 97.1321 249.68C97.4654 250.293 97.9121 250.767 98.4721 251.1C99.0321 251.42 99.6521 251.58 100.332 251.58C101.012 251.58 101.632 251.42 102.192 251.1C102.765 250.767 103.219 250.293 103.552 249.68C103.885 249.053 104.052 248.327 104.052 247.5ZM111.188 243.54V250C111.188 250.533 111.301 250.913 111.528 251.14C111.754 251.353 112.148 251.46 112.708 251.46H114.048V253H112.408C111.394 253 110.634 252.767 110.128 252.3C109.621 251.833 109.368 251.067 109.368 250V243.54H107.948V242.04H109.368V239.28H111.188V242.04H114.048V243.54H111.188ZM121.033 253.18C120.006 253.18 119.073 252.947 118.233 252.48C117.406 252.013 116.753 251.353 116.273 250.5C115.806 249.633 115.573 248.633 115.573 247.5C115.573 246.38 115.813 245.393 116.293 244.54C116.786 243.673 117.453 243.013 118.293 242.56C119.133 242.093 120.073 241.86 121.113 241.86C122.153 241.86 123.093 242.093 123.933 242.56C124.773 243.013 125.433 243.667 125.913 244.52C126.406 245.373 126.653 246.367 126.653 247.5C126.653 248.633 126.4 249.633 125.893 250.5C125.4 251.353 124.726 252.013 123.873 252.48C123.02 252.947 122.073 253.18 121.033 253.18ZM121.033 251.58C121.686 251.58 122.3 251.427 122.873 251.12C123.446 250.813 123.906 250.353 124.253 249.74C124.613 249.127 124.793 248.38 124.793 247.5C124.793 246.62 124.62 245.873 124.273 245.26C123.926 244.647 123.473 244.193 122.913 243.9C122.353 243.593 121.746 243.44 121.093 243.44C120.426 243.44 119.813 243.593 119.253 243.9C118.706 244.193 118.266 244.647 117.933 245.26C117.6 245.873 117.433 246.62 117.433 247.5C117.433 248.393 117.593 249.147 117.913 249.76C118.246 250.373 118.686 250.833 119.233 251.14C119.78 251.433 120.38 251.58 121.033 251.58ZM132.926 253.18C132.086 253.18 131.333 253.04 130.666 252.76C129.999 252.467 129.473 252.067 129.086 251.56C128.699 251.04 128.486 250.447 128.446 249.78H130.326C130.379 250.327 130.633 250.773 131.086 251.12C131.553 251.467 132.159 251.64 132.906 251.64C133.599 251.64 134.146 251.487 134.546 251.18C134.946 250.873 135.146 250.487 135.146 250.02C135.146 249.54 134.933 249.187 134.506 248.96C134.079 248.72 133.419 248.487 132.526 248.26C131.713 248.047 131.046 247.833 130.526 247.62C130.019 247.393 129.579 247.067 129.206 246.64C128.846 246.2 128.666 245.627 128.666 244.92C128.666 244.36 128.833 243.847 129.166 243.38C129.499 242.913 129.973 242.547 130.586 242.28C131.199 242 131.899 241.86 132.686 241.86C133.899 241.86 134.879 242.167 135.626 242.78C136.373 243.393 136.773 244.233 136.826 245.3H135.006C134.966 244.727 134.733 244.267 134.306 243.92C133.893 243.573 133.333 243.4 132.626 243.4C131.973 243.4 131.453 243.54 131.066 243.82C130.679 244.1 130.486 244.467 130.486 244.92C130.486 245.28 130.599 245.58 130.826 245.82C131.066 246.047 131.359 246.233 131.706 246.38C132.066 246.513 132.559 246.667 133.186 246.84C133.973 247.053 134.613 247.267 135.106 247.48C135.599 247.68 136.019 247.987 136.366 248.4C136.726 248.813 136.913 249.353 136.926 250.02C136.926 250.62 136.759 251.16 136.426 251.64C136.093 252.12 135.619 252.5 135.006 252.78C134.406 253.047 133.713 253.18 132.926 253.18ZM140.075 253.12C139.728 253.12 139.435 253 139.195 252.76C138.955 252.52 138.835 252.227 138.835 251.88C138.835 251.533 138.955 251.24 139.195 251C139.435 250.76 139.728 250.64 140.075 250.64C140.408 250.64 140.688 250.76 140.915 251C141.155 251.24 141.275 251.533 141.275 251.88C141.275 252.227 141.155 252.52 140.915 252.76C140.688 253 140.408 253.12 140.075 253.12ZM140.075 244.56C139.728 244.56 139.435 244.44 139.195 244.2C138.955 243.96 138.835 243.667 138.835 243.32C138.835 242.973 138.955 242.68 139.195 242.44C139.435 242.2 139.728 242.08 140.075 242.08C140.408 242.08 140.688 242.2 140.915 242.44C141.155 242.68 141.275 242.973 141.275 243.32C141.275 243.667 141.155 243.96 140.915 244.2C140.688 244.44 140.408 244.56 140.075 244.56ZM148.565 251.54C150.258 250.18 151.585 249.067 152.545 248.2C153.505 247.32 154.312 246.407 154.965 245.46C155.632 244.5 155.965 243.56 155.965 242.64C155.965 241.773 155.752 241.093 155.325 240.6C154.912 240.093 154.238 239.84 153.305 239.84C152.398 239.84 151.692 240.127 151.185 240.7C150.692 241.26 150.425 242.013 150.385 242.96H148.625C148.678 241.467 149.132 240.313 149.985 239.5C150.838 238.687 151.938 238.28 153.285 238.28C154.658 238.28 155.745 238.66 156.545 239.42C157.358 240.18 157.765 241.227 157.765 242.56C157.765 243.667 157.432 244.747 156.765 245.8C156.112 246.84 155.365 247.76 154.525 248.56C153.685 249.347 152.612 250.267 151.305 251.32H158.185V252.84H148.565V251.54ZM168.469 239.06V240.54H162.409V245.24H167.329V246.72H162.409V253H160.589V239.06H168.469ZM178.547 239.06V240.54H172.487V245.24H177.407V246.72H172.487V253H170.667V239.06H178.547ZM182.625 250.48L180.385 255.86H179.165L180.625 250.48H182.625ZM189.702 242.18C189.795 240.953 190.269 239.993 191.122 239.3C191.975 238.607 193.082 238.26 194.442 238.26C195.349 238.26 196.129 238.427 196.782 238.76C197.449 239.08 197.949 239.52 198.282 240.08C198.629 240.64 198.802 241.273 198.802 241.98C198.802 242.807 198.562 243.52 198.082 244.12C197.615 244.72 197.002 245.107 196.242 245.28V245.38C197.109 245.593 197.795 246.013 198.302 246.64C198.809 247.267 199.062 248.087 199.062 249.1C199.062 249.86 198.889 250.547 198.542 251.16C198.195 251.76 197.675 252.233 196.982 252.58C196.289 252.927 195.455 253.1 194.482 253.1C193.069 253.1 191.909 252.733 191.002 252C190.095 251.253 189.589 250.2 189.482 248.84H191.242C191.335 249.64 191.662 250.293 192.222 250.8C192.782 251.307 193.529 251.56 194.462 251.56C195.395 251.56 196.102 251.32 196.582 250.84C197.075 250.347 197.322 249.713 197.322 248.94C197.322 247.94 196.989 247.22 196.322 246.78C195.655 246.34 194.649 246.12 193.302 246.12H192.842V244.6H193.322C194.549 244.587 195.475 244.387 196.102 244C196.729 243.6 197.042 242.987 197.042 242.16C197.042 241.453 196.809 240.887 196.342 240.46C195.889 240.033 195.235 239.82 194.382 239.82C193.555 239.82 192.889 240.033 192.382 240.46C191.875 240.887 191.575 241.46 191.482 242.18H189.702ZM209.699 239.06V240.54H203.639V245.24H208.559V246.72H203.639V253H201.819V239.06H209.699ZM219.777 239.06V240.54H213.717V245.24H218.637V246.72H213.717V253H211.897V239.06H219.777ZM223.856 250.48L221.616 255.86H220.396L221.856 250.48H223.856ZM230.532 249.78V248.4L237.552 238.68H239.732V248.2H241.732V249.78H239.732V253H237.932V249.78H230.532ZM238.012 240.58L232.632 248.2H238.012V240.58ZM251.731 239.06V240.54H245.671V245.24H250.591V246.72H245.671V253H243.851V239.06H251.731ZM261.809 239.06V240.54H255.749V245.24H260.669V246.72H255.749V253H253.929V239.06H261.809ZM276.139 234.16L270.659 256.4H268.859L274.319 234.16H276.139ZM298.323 239.16V253H296.503V242.68L291.903 253H290.623L286.003 242.66V253H284.183V239.16H286.143L291.263 250.6L296.383 239.16H298.323ZM309.289 239.06V240.54H303.229V245.24H308.149V246.72H303.229V253H301.409V239.06H309.289ZM319.367 239.06V240.54H313.307V245.24H318.227V246.72H313.307V253H311.487V239.06H319.367ZM321.045 251.54C322.739 250.18 324.065 249.067 325.025 248.2C325.985 247.32 326.792 246.407 327.445 245.46C328.112 244.5 328.445 243.56 328.445 242.64C328.445 241.773 328.232 241.093 327.805 240.6C327.392 240.093 326.719 239.84 325.785 239.84C324.879 239.84 324.172 240.127 323.665 240.7C323.172 241.26 322.905 242.013 322.865 242.96H321.105C321.159 241.467 321.612 240.313 322.465 239.5C323.319 238.687 324.419 238.28 325.765 238.28C327.139 238.28 328.225 238.66 329.025 239.42C329.839 240.18 330.245 241.227 330.245 242.56C330.245 243.667 329.912 244.747 329.245 245.8C328.592 246.84 327.845 247.76 327.005 248.56C326.165 249.347 325.092 250.267 323.785 251.32H330.665V252.84H321.045V251.54ZM126.715 269.06V277.88C126.715 279.12 127.015 280.04 127.615 280.64C128.228 281.24 129.075 281.54 130.155 281.54C131.221 281.54 132.055 281.24 132.655 280.64C133.268 280.04 133.575 279.12 133.575 277.88V269.06H135.395V277.86C135.395 279.02 135.161 280 134.695 280.8C134.228 281.587 133.595 282.173 132.795 282.56C132.008 282.947 131.121 283.14 130.135 283.14C129.148 283.14 128.255 282.947 127.455 282.56C126.668 282.173 126.041 281.587 125.575 280.8C125.121 280 124.895 279.02 124.895 277.86V269.06H126.715ZM140.251 269.06V283H138.431V269.06H140.251ZM142.673 276.02C142.673 274.66 142.979 273.44 143.593 272.36C144.206 271.267 145.039 270.413 146.093 269.8C147.159 269.187 148.339 268.88 149.633 268.88C151.153 268.88 152.479 269.247 153.613 269.98C154.746 270.713 155.573 271.753 156.093 273.1H153.913C153.526 272.26 152.966 271.613 152.233 271.16C151.513 270.707 150.646 270.48 149.633 270.48C148.659 270.48 147.786 270.707 147.013 271.16C146.239 271.613 145.633 272.26 145.193 273.1C144.753 273.927 144.533 274.9 144.533 276.02C144.533 277.127 144.753 278.1 145.193 278.94C145.633 279.767 146.239 280.407 147.013 280.86C147.786 281.313 148.659 281.54 149.633 281.54C150.646 281.54 151.513 281.32 152.233 280.88C152.966 280.427 153.526 279.78 153.913 278.94H156.093C155.573 280.273 154.746 281.307 153.613 282.04C152.479 282.76 151.153 283.12 149.633 283.12C148.339 283.12 147.159 282.82 146.093 282.22C145.039 281.607 144.206 280.76 143.593 279.68C142.979 278.6 142.673 277.38 142.673 276.02ZM158.122 276.02C158.122 274.66 158.428 273.44 159.042 272.36C159.655 271.267 160.488 270.413 161.542 269.8C162.608 269.187 163.788 268.88 165.082 268.88C166.602 268.88 167.928 269.247 169.062 269.98C170.195 270.713 171.022 271.753 171.542 273.1H169.362C168.975 272.26 168.415 271.613 167.682 271.16C166.962 270.707 166.095 270.48 165.082 270.48C164.108 270.48 163.235 270.707 162.462 271.16C161.688 271.613 161.082 272.26 160.642 273.1C160.202 273.927 159.982 274.9 159.982 276.02C159.982 277.127 160.202 278.1 160.642 278.94C161.082 279.767 161.688 280.407 162.462 280.86C163.235 281.313 164.108 281.54 165.082 281.54C166.095 281.54 166.962 281.32 167.682 280.88C168.415 280.427 168.975 279.78 169.362 278.94H171.542C171.022 280.273 170.195 281.307 169.062 282.04C167.928 282.76 166.602 283.12 165.082 283.12C163.788 283.12 162.608 282.82 161.542 282.22C160.488 281.607 159.655 280.76 159.042 279.68C158.428 278.6 158.122 277.38 158.122 276.02ZM186.383 264.16L180.903 286.4H179.103L184.563 264.16H186.383ZM204.427 277.1C204.427 277.447 204.407 277.813 204.367 278.2H195.607C195.673 279.28 196.04 280.127 196.707 280.74C197.387 281.34 198.207 281.64 199.167 281.64C199.953 281.64 200.607 281.46 201.127 281.1C201.66 280.727 202.033 280.233 202.247 279.62H204.207C203.913 280.673 203.327 281.533 202.447 282.2C201.567 282.853 200.473 283.18 199.167 283.18C198.127 283.18 197.193 282.947 196.367 282.48C195.553 282.013 194.913 281.353 194.447 280.5C193.98 279.633 193.747 278.633 193.747 277.5C193.747 276.367 193.973 275.373 194.427 274.52C194.88 273.667 195.513 273.013 196.327 272.56C197.153 272.093 198.1 271.86 199.167 271.86C200.207 271.86 201.127 272.087 201.927 272.54C202.727 272.993 203.34 273.62 203.767 274.42C204.207 275.207 204.427 276.1 204.427 277.1ZM202.547 276.72C202.547 276.027 202.393 275.433 202.087 274.94C201.78 274.433 201.36 274.053 200.827 273.8C200.307 273.533 199.727 273.4 199.087 273.4C198.167 273.4 197.38 273.693 196.727 274.28C196.087 274.867 195.72 275.68 195.627 276.72H202.547ZM208.609 269.06V277.88C208.609 279.12 208.909 280.04 209.509 280.64C210.122 281.24 210.969 281.54 212.049 281.54C213.116 281.54 213.949 281.24 214.549 280.64C215.162 280.04 215.469 279.12 215.469 277.88V269.06H217.289V277.86C217.289 279.02 217.056 280 216.589 280.8C216.122 281.587 215.489 282.173 214.689 282.56C213.902 282.947 213.016 283.14 212.029 283.14C211.042 283.14 210.149 282.947 209.349 282.56C208.562 282.173 207.936 281.587 207.469 280.8C207.016 280 206.789 279.02 206.789 277.86V269.06H208.609ZM222.145 269.06V283H220.325V269.06H222.145ZM224.567 276.02C224.567 274.66 224.874 273.44 225.487 272.36C226.1 271.267 226.934 270.413 227.987 269.8C229.054 269.187 230.234 268.88 231.527 268.88C233.047 268.88 234.374 269.247 235.507 269.98C236.64 270.713 237.467 271.753 237.987 273.1H235.807C235.42 272.26 234.86 271.613 234.127 271.16C233.407 270.707 232.54 270.48 231.527 270.48C230.554 270.48 229.68 270.707 228.907 271.16C228.134 271.613 227.527 272.26 227.087 273.1C226.647 273.927 226.427 274.9 226.427 276.02C226.427 277.127 226.647 278.1 227.087 278.94C227.527 279.767 228.134 280.407 228.907 280.86C229.68 281.313 230.554 281.54 231.527 281.54C232.54 281.54 233.407 281.32 234.127 280.88C234.86 280.427 235.42 279.78 235.807 278.94H237.987C237.467 280.273 236.64 281.307 235.507 282.04C234.374 282.76 233.047 283.12 231.527 283.12C230.234 283.12 229.054 282.82 227.987 282.22C226.934 281.607 226.1 280.76 225.487 279.68C224.874 278.6 224.567 277.38 224.567 276.02ZM240.016 276.02C240.016 274.66 240.323 273.44 240.936 272.36C241.55 271.267 242.383 270.413 243.436 269.8C244.503 269.187 245.683 268.88 246.976 268.88C248.496 268.88 249.823 269.247 250.956 269.98C252.09 270.713 252.916 271.753 253.436 273.1H251.256C250.87 272.26 250.31 271.613 249.576 271.16C248.856 270.707 247.99 270.48 246.976 270.48C246.003 270.48 245.13 270.707 244.356 271.16C243.583 271.613 242.976 272.26 242.536 273.1C242.096 273.927 241.876 274.9 241.876 276.02C241.876 277.127 242.096 278.1 242.536 278.94C242.976 279.767 243.583 280.407 244.356 280.86C245.13 281.313 246.003 281.54 246.976 281.54C247.99 281.54 248.856 281.32 249.576 280.88C250.31 280.427 250.87 279.78 251.256 278.94H253.436C252.916 280.273 252.09 281.307 250.956 282.04C249.823 282.76 248.496 283.12 246.976 283.12C245.683 283.12 244.503 282.82 243.436 282.22C242.383 281.607 241.55 280.76 240.936 279.68C240.323 278.6 240.016 277.38 240.016 276.02Z" fill="white"/>
</svg>
