<svg width="928" height="834" viewBox="0 0 928 834" fill="none" xmlns="http://www.w3.org/2000/svg">
<g clip-path="url(#clip0_1_2)">
<g filter="url(#filter0_f_1_2)">
<path d="M488 559C605.637 559 701 495.424 701 417C701 338.576 605.637 275 488 275C370.363 275 275 338.576 275 417C275 495.424 370.363 559 488 559Z" fill="url(#paint0_radial_1_2)" fill-opacity="0.4"/>
</g>
<path d="M495.3 317.487L309.158 424.956C301.891 429.152 301.891 435.956 309.158 440.152L422.657 505.68C429.925 509.876 441.708 509.876 448.976 505.68L666.104 380.321C673.371 376.125 673.371 369.322 666.104 365.126L582.826 317.046C579.279 314.998 574.45 313.863 569.434 313.899L508.227 314.341C503.372 314.376 498.733 315.505 495.3 317.487Z" fill="url(#paint1_radial_1_2)" fill-opacity="0.3" stroke="white" stroke-width="3.3223" stroke-linejoin="round" stroke-dasharray="6.64 6.64"/>
<g filter="url(#filter1_f_1_2)">
<path d="M495.297 347.487L309.155 454.956C301.888 459.152 301.888 465.955 309.155 470.151L422.654 535.68C429.922 539.876 441.705 539.876 448.973 535.68L666.101 410.321C673.369 406.125 673.369 399.322 666.101 395.126L582.823 347.045C579.276 344.997 574.447 343.863 569.431 343.899L508.224 344.341C503.369 344.376 498.73 345.505 495.297 347.487Z" fill="url(#paint2_radial_1_2)" fill-opacity="0.3"/>
<path d="M495.297 347.487L309.155 454.956C301.888 459.152 301.888 465.955 309.155 470.151L422.654 535.68C429.922 539.876 441.705 539.876 448.973 535.68L666.101 410.321C673.369 406.125 673.369 399.322 666.101 395.126L582.823 347.045C579.276 344.997 574.447 343.863 569.431 343.899L508.224 344.341C503.369 344.376 498.73 345.505 495.297 347.487Z" stroke="black" stroke-width="3.3223" stroke-linejoin="round" stroke-dasharray="6.64 6.64"/>
</g>
<g filter="url(#filter2_i_1_2)">
<path d="M481.174 304.887C479.507 303.924 478.626 302.838 478.53 301.628C478.483 300.445 479.221 299.413 480.746 298.533C482.27 297.653 484.033 297.24 486.034 297.295C488.13 297.35 490.012 297.859 491.679 298.822C493.347 299.785 494.205 300.858 494.252 302.04C494.395 303.223 493.704 304.255 492.18 305.135C490.655 306.015 488.845 306.428 486.749 306.373C484.7 306.345 482.842 305.85 481.174 304.887ZM435.652 325.888L471.098 305.424L480.245 310.705L444.8 331.169L435.652 325.888ZM477.144 350.834C472.142 347.945 468.854 344.782 467.282 341.344C465.758 337.933 465.853 334.495 467.568 331.029C469.378 327.563 472.832 324.359 477.93 321.416C483.028 318.473 488.554 316.492 494.51 315.474C500.56 314.457 506.539 314.388 512.447 315.268C518.402 316.176 523.881 318.074 528.883 320.962C533.838 323.823 537.102 326.972 538.674 330.41C540.246 333.849 540.127 337.301 538.316 340.766C536.554 344.205 533.123 347.395 528.026 350.338C522.928 353.282 517.378 355.276 511.375 356.321C505.42 357.339 499.464 357.394 493.509 356.486C487.554 355.578 482.099 353.694 477.144 350.834ZM485.362 346.089C490.126 348.839 495.486 350.118 501.441 349.926C507.444 349.761 513.185 348.097 518.664 344.933C524.143 341.77 527.025 338.456 527.311 334.99C527.645 331.552 525.429 328.457 520.665 325.707C515.901 322.956 510.517 321.663 504.514 321.828C498.511 321.993 492.771 323.657 487.292 326.821C481.813 329.984 478.931 333.298 478.645 336.764C478.359 340.23 480.598 343.338 485.362 346.089ZM520.924 375.12L563.588 350.488L549.009 342.071L556.37 337.821L594.746 359.978L587.385 364.227L572.735 355.769L530.071 380.401L520.924 375.12Z" fill="#FF5000"/>
<path d="M481.174 304.887C479.507 303.924 478.626 302.838 478.53 301.628C478.483 300.445 479.221 299.413 480.746 298.533C482.27 297.653 484.033 297.24 486.034 297.295C488.13 297.35 490.012 297.859 491.679 298.822C493.347 299.785 494.205 300.858 494.252 302.04C494.395 303.223 493.704 304.255 492.18 305.135C490.655 306.015 488.845 306.428 486.749 306.373C484.7 306.345 482.842 305.85 481.174 304.887ZM435.652 325.888L471.098 305.424L480.245 310.705L444.8 331.169L435.652 325.888ZM477.144 350.834C472.142 347.945 468.854 344.782 467.282 341.344C465.758 337.933 465.853 334.495 467.568 331.029C469.378 327.563 472.832 324.359 477.93 321.416C483.028 318.473 488.554 316.492 494.51 315.474C500.56 314.457 506.539 314.388 512.447 315.268C518.402 316.176 523.881 318.074 528.883 320.962C533.838 323.823 537.102 326.972 538.674 330.41C540.246 333.849 540.127 337.301 538.316 340.766C536.554 344.205 533.123 347.395 528.026 350.338C522.928 353.282 517.378 355.276 511.375 356.321C505.42 357.339 499.464 357.394 493.509 356.486C487.554 355.578 482.099 353.694 477.144 350.834ZM485.362 346.089C490.126 348.839 495.486 350.118 501.441 349.926C507.444 349.761 513.185 348.097 518.664 344.933C524.143 341.77 527.025 338.456 527.311 334.99C527.645 331.552 525.429 328.457 520.665 325.707C515.901 322.956 510.517 321.663 504.514 321.828C498.511 321.993 492.771 323.657 487.292 326.821C481.813 329.984 478.931 333.298 478.645 336.764C478.359 340.23 480.598 343.338 485.362 346.089ZM520.924 375.12L563.588 350.488L549.009 342.071L556.37 337.821L594.746 359.978L587.385 364.227L572.735 355.769L530.071 380.401L520.924 375.12Z" fill="url(#paint3_radial_1_2)" fill-opacity="0.35"/>
<path d="M481.174 304.887C479.507 303.924 478.626 302.838 478.53 301.628C478.483 300.445 479.221 299.413 480.746 298.533C482.27 297.653 484.033 297.24 486.034 297.295C488.13 297.35 490.012 297.859 491.679 298.822C493.347 299.785 494.205 300.858 494.252 302.04C494.395 303.223 493.704 304.255 492.18 305.135C490.655 306.015 488.845 306.428 486.749 306.373C484.7 306.345 482.842 305.85 481.174 304.887ZM435.652 325.888L471.098 305.424L480.245 310.705L444.8 331.169L435.652 325.888ZM477.144 350.834C472.142 347.945 468.854 344.782 467.282 341.344C465.758 337.933 465.853 334.495 467.568 331.029C469.378 327.563 472.832 324.359 477.93 321.416C483.028 318.473 488.554 316.492 494.51 315.474C500.56 314.457 506.539 314.388 512.447 315.268C518.402 316.176 523.881 318.074 528.883 320.962C533.838 323.823 537.102 326.972 538.674 330.41C540.246 333.849 540.127 337.301 538.316 340.766C536.554 344.205 533.123 347.395 528.026 350.338C522.928 353.282 517.378 355.276 511.375 356.321C505.42 357.339 499.464 357.394 493.509 356.486C487.554 355.578 482.099 353.694 477.144 350.834ZM485.362 346.089C490.126 348.839 495.486 350.118 501.441 349.926C507.444 349.761 513.185 348.097 518.664 344.933C524.143 341.77 527.025 338.456 527.311 334.99C527.645 331.552 525.429 328.457 520.665 325.707C515.901 322.956 510.517 321.663 504.514 321.828C498.511 321.993 492.771 323.657 487.292 326.821C481.813 329.984 478.931 333.298 478.645 336.764C478.359 340.23 480.598 343.338 485.362 346.089ZM520.924 375.12L563.588 350.488L549.009 342.071L556.37 337.821L594.746 359.978L587.385 364.227L572.735 355.769L530.071 380.401L520.924 375.12Z" fill="url(#paint4_radial_1_2)" fill-opacity="0.2"/>
<path d="M478.53 301.628L477.742 301.638V301.643V301.648L478.53 301.628ZM486.034 297.295L485.996 297.75H485.998L486.034 297.295ZM494.252 302.04L493.464 302.051V302.061L493.465 302.072L494.252 302.04ZM486.749 306.373L486.784 305.918L486.776 305.917H486.767L486.749 306.373ZM435.652 325.888L435.095 325.566L434.537 325.888L435.095 326.21L435.652 325.888ZM471.098 305.424L471.656 305.102L471.098 304.78L470.54 305.102L471.098 305.424ZM480.245 310.705L480.803 311.027L481.361 310.705L480.803 310.383L480.245 310.705ZM444.8 331.169L444.242 331.491L444.8 331.813L445.357 331.491L444.8 331.169ZM481.732 304.565C480.185 303.672 479.403 302.69 479.318 301.607L477.742 301.648C477.848 302.986 478.829 304.177 480.617 305.209L481.732 304.565ZM479.319 301.617C479.276 300.566 479.922 299.653 481.303 298.855L480.188 298.211C478.52 299.174 477.689 300.324 477.742 301.638L479.319 301.617ZM481.303 298.855C482.684 298.058 484.236 297.702 485.996 297.75L486.071 296.841C483.83 296.779 481.856 297.248 480.188 298.211L481.303 298.855ZM485.998 297.75C487.873 297.8 489.575 298.251 491.122 299.144L492.237 298.5C490.449 297.468 488.387 296.901 486.07 296.841L485.998 297.75ZM491.122 299.144C492.669 300.037 493.421 301.003 493.464 302.051L495.041 302.03C494.988 300.712 494.025 299.532 492.237 298.5L491.122 299.144ZM493.465 302.072C493.591 303.116 492.994 304.02 491.622 304.813L492.737 305.457C494.414 304.489 495.199 303.33 495.039 302.009L493.465 302.072ZM491.622 304.813C490.249 305.605 488.652 305.967 486.784 305.918L486.713 306.827C489.037 306.888 491.061 306.425 492.737 305.457L491.622 304.813ZM486.767 305.917C484.952 305.893 483.279 305.459 481.732 304.565L480.617 305.209C482.404 306.241 484.448 306.797 486.73 306.828L486.767 305.917ZM436.21 326.21L471.656 305.746L470.54 305.102L435.095 325.566L436.21 326.21ZM470.54 305.746L479.688 311.027L480.803 310.383L471.656 305.102L470.54 305.746ZM479.688 310.383L444.242 330.847L445.357 331.491L480.803 311.027L479.688 310.383ZM445.357 330.847L436.21 325.566L435.095 326.21L444.242 331.491L445.357 330.847ZM467.282 341.344L466.518 341.458L466.519 341.46L467.282 341.344ZM467.568 331.029L466.813 330.898L466.81 330.904L467.568 331.029ZM494.51 315.474L494.289 315.037L494.286 315.038L494.51 315.474ZM512.447 315.268L512.648 314.828L512.644 314.827L512.447 315.268ZM538.674 330.41L539.436 330.294L538.674 330.41ZM538.316 340.766L537.561 340.635L537.56 340.637L538.316 340.766ZM511.375 356.321L511.599 356.758L511.603 356.757L511.375 356.321ZM493.509 356.486L493.308 356.926L493.509 356.486ZM501.441 349.926L501.404 349.471H501.397L501.441 349.926ZM527.311 334.99L526.524 334.965L526.523 334.968L527.311 334.99ZM504.514 321.828L504.552 322.283L504.514 321.828ZM478.645 336.764L479.433 336.786L478.645 336.764ZM477.702 350.512C472.783 347.672 469.576 344.577 468.045 341.228L466.519 341.46C468.132 344.987 471.5 348.219 476.586 351.156L477.702 350.512ZM468.046 341.23C466.557 337.9 466.649 334.544 468.326 331.154L466.81 330.904C465.057 334.446 464.958 337.967 466.518 341.458L468.046 341.23ZM468.323 331.161C470.091 327.777 473.468 324.636 478.488 321.738L477.372 321.094C472.197 324.082 468.666 327.35 466.813 330.898L468.323 331.161ZM478.488 321.738C483.508 318.84 488.923 316.904 494.733 315.911L494.286 315.038C488.185 316.08 482.548 318.106 477.372 321.094L478.488 321.738ZM494.73 315.912C500.649 314.916 506.484 314.85 512.25 315.709L512.644 314.827C506.594 313.926 500.471 313.997 494.289 315.037L494.73 315.912ZM512.245 315.708C518.047 316.593 523.407 318.444 528.326 321.284L529.441 320.64C524.355 317.703 518.757 315.759 512.648 314.828L512.245 315.708ZM528.326 321.284C533.196 324.096 536.379 327.176 537.911 330.526L539.436 330.294C537.824 326.768 534.481 323.549 529.441 320.64L528.326 321.284ZM537.911 330.526C539.445 333.882 539.33 337.248 537.561 340.635L539.072 340.898C540.923 337.353 541.046 333.815 539.436 330.294L537.911 330.526ZM537.56 340.637C535.84 343.992 532.488 347.118 527.468 350.016L528.583 350.66C533.759 347.672 537.267 344.418 539.073 340.896L537.56 340.637ZM527.468 350.016C522.448 352.915 517.008 354.865 511.147 355.885L511.603 356.757C517.748 355.687 523.408 353.649 528.583 350.66L527.468 350.016ZM511.151 355.884C505.333 356.879 499.525 356.932 493.71 356.046L493.308 356.926C499.404 357.856 505.506 357.799 511.599 356.758L511.151 355.884ZM493.71 356.046C487.908 355.161 482.572 353.323 477.702 350.512L476.586 351.156C481.626 354.065 487.2 355.995 493.308 356.926L493.71 356.046ZM484.805 346.411C489.705 349.24 495.276 350.581 501.486 350.381L501.397 349.471C495.697 349.656 490.548 348.439 485.92 345.767L484.805 346.411ZM501.479 350.381C507.729 350.209 513.646 348.475 519.222 345.255L518.106 344.611C512.725 347.718 507.159 349.313 501.404 349.471L501.479 350.381ZM519.222 345.255C524.798 342.036 527.801 338.62 528.099 335.012L526.523 334.968C526.249 338.291 523.488 341.504 518.106 344.611L519.222 345.255ZM528.099 335.015C528.446 331.43 526.123 328.214 521.223 325.385L520.107 326.029C524.736 328.701 526.843 331.673 526.524 334.965L528.099 335.015ZM521.223 325.385C516.323 322.556 510.73 321.202 504.477 321.373L504.552 322.283C510.305 322.125 515.479 323.357 520.107 326.029L521.223 325.385ZM504.477 321.373C498.226 321.545 492.31 323.279 486.734 326.499L487.849 327.143C493.231 324.036 498.796 322.441 504.552 322.283L504.477 321.373ZM486.734 326.499C481.158 329.718 478.155 333.134 477.857 336.742L479.433 336.786C479.707 333.463 482.468 330.25 487.849 327.143L486.734 326.499ZM477.857 336.742C477.559 340.353 479.904 343.582 484.805 346.411L485.92 345.767C481.292 343.095 479.159 340.107 479.433 336.786L477.857 336.742ZM520.924 375.12L520.366 374.798L519.809 375.12L520.366 375.442L520.924 375.12ZM563.588 350.488L564.145 350.81L564.703 350.488L564.145 350.166L563.588 350.488ZM549.009 342.071L548.451 341.749L547.894 342.071L548.451 342.393L549.009 342.071ZM556.37 337.821L556.928 337.499L556.37 337.177L555.812 337.499L556.37 337.821ZM594.746 359.978L595.303 360.3L595.861 359.978L595.303 359.656L594.746 359.978ZM587.385 364.227L586.827 364.549L587.385 364.871L587.943 364.549L587.385 364.227ZM572.735 355.769L573.293 355.447L572.735 355.125L572.177 355.447L572.735 355.769ZM530.071 380.401L529.514 380.723L530.071 381.045L530.629 380.723L530.071 380.401ZM521.482 375.442L564.145 350.81L563.03 350.166L520.366 374.798L521.482 375.442ZM564.145 350.166L549.567 341.749L548.451 342.393L563.03 350.81L564.145 350.166ZM549.567 342.393L556.928 338.143L555.812 337.499L548.451 341.749L549.567 342.393ZM555.812 338.143L594.188 360.3L595.303 359.656L556.928 337.499L555.812 338.143ZM594.188 359.656L586.827 363.905L587.943 364.549L595.303 360.3L594.188 359.656ZM587.943 363.905L573.293 355.447L572.177 356.091L586.827 364.549L587.943 363.905ZM572.177 355.447L529.514 380.079L530.629 380.723L573.293 356.091L572.177 355.447ZM530.629 380.079L521.482 374.798L520.366 375.442L529.514 380.723L530.629 380.079Z" fill="url(#paint5_radial_1_2)"/>
<path d="M478.53 301.628L477.742 301.638V301.643V301.648L478.53 301.628ZM486.034 297.295L485.996 297.75H485.998L486.034 297.295ZM494.252 302.04L493.464 302.051V302.061L493.465 302.072L494.252 302.04ZM486.749 306.373L486.784 305.918L486.776 305.917H486.767L486.749 306.373ZM435.652 325.888L435.095 325.566L434.537 325.888L435.095 326.21L435.652 325.888ZM471.098 305.424L471.656 305.102L471.098 304.78L470.54 305.102L471.098 305.424ZM480.245 310.705L480.803 311.027L481.361 310.705L480.803 310.383L480.245 310.705ZM444.8 331.169L444.242 331.491L444.8 331.813L445.357 331.491L444.8 331.169ZM481.732 304.565C480.185 303.672 479.403 302.69 479.318 301.607L477.742 301.648C477.848 302.986 478.829 304.177 480.617 305.209L481.732 304.565ZM479.319 301.617C479.276 300.566 479.922 299.653 481.303 298.855L480.188 298.211C478.52 299.174 477.689 300.324 477.742 301.638L479.319 301.617ZM481.303 298.855C482.684 298.058 484.236 297.702 485.996 297.75L486.071 296.841C483.83 296.779 481.856 297.248 480.188 298.211L481.303 298.855ZM485.998 297.75C487.873 297.8 489.575 298.251 491.122 299.144L492.237 298.5C490.449 297.468 488.387 296.901 486.07 296.841L485.998 297.75ZM491.122 299.144C492.669 300.037 493.421 301.003 493.464 302.051L495.041 302.03C494.988 300.712 494.025 299.532 492.237 298.5L491.122 299.144ZM493.465 302.072C493.591 303.116 492.994 304.02 491.622 304.813L492.737 305.457C494.414 304.489 495.199 303.33 495.039 302.009L493.465 302.072ZM491.622 304.813C490.249 305.605 488.652 305.967 486.784 305.918L486.713 306.827C489.037 306.888 491.061 306.425 492.737 305.457L491.622 304.813ZM486.767 305.917C484.952 305.893 483.279 305.459 481.732 304.565L480.617 305.209C482.404 306.241 484.448 306.797 486.73 306.828L486.767 305.917ZM436.21 326.21L471.656 305.746L470.54 305.102L435.095 325.566L436.21 326.21ZM470.54 305.746L479.688 311.027L480.803 310.383L471.656 305.102L470.54 305.746ZM479.688 310.383L444.242 330.847L445.357 331.491L480.803 311.027L479.688 310.383ZM445.357 330.847L436.21 325.566L435.095 326.21L444.242 331.491L445.357 330.847ZM467.282 341.344L466.518 341.458L466.519 341.46L467.282 341.344ZM467.568 331.029L466.813 330.898L466.81 330.904L467.568 331.029ZM494.51 315.474L494.289 315.037L494.286 315.038L494.51 315.474ZM512.447 315.268L512.648 314.828L512.644 314.827L512.447 315.268ZM538.674 330.41L539.436 330.294L538.674 330.41ZM538.316 340.766L537.561 340.635L537.56 340.637L538.316 340.766ZM511.375 356.321L511.599 356.758L511.603 356.757L511.375 356.321ZM493.509 356.486L493.308 356.926L493.509 356.486ZM501.441 349.926L501.404 349.471H501.397L501.441 349.926ZM527.311 334.99L526.524 334.965L526.523 334.968L527.311 334.99ZM504.514 321.828L504.552 322.283L504.514 321.828ZM478.645 336.764L479.433 336.786L478.645 336.764ZM477.702 350.512C472.783 347.672 469.576 344.577 468.045 341.228L466.519 341.46C468.132 344.987 471.5 348.219 476.586 351.156L477.702 350.512ZM468.046 341.23C466.557 337.9 466.649 334.544 468.326 331.154L466.81 330.904C465.057 334.446 464.958 337.967 466.518 341.458L468.046 341.23ZM468.323 331.161C470.091 327.777 473.468 324.636 478.488 321.738L477.372 321.094C472.197 324.082 468.666 327.35 466.813 330.898L468.323 331.161ZM478.488 321.738C483.508 318.84 488.923 316.904 494.733 315.911L494.286 315.038C488.185 316.08 482.548 318.106 477.372 321.094L478.488 321.738ZM494.73 315.912C500.649 314.916 506.484 314.85 512.25 315.709L512.644 314.827C506.594 313.926 500.471 313.997 494.289 315.037L494.73 315.912ZM512.245 315.708C518.047 316.593 523.407 318.444 528.326 321.284L529.441 320.64C524.355 317.703 518.757 315.759 512.648 314.828L512.245 315.708ZM528.326 321.284C533.196 324.096 536.379 327.176 537.911 330.526L539.436 330.294C537.824 326.768 534.481 323.549 529.441 320.64L528.326 321.284ZM537.911 330.526C539.445 333.882 539.33 337.248 537.561 340.635L539.072 340.898C540.923 337.353 541.046 333.815 539.436 330.294L537.911 330.526ZM537.56 340.637C535.84 343.992 532.488 347.118 527.468 350.016L528.583 350.66C533.759 347.672 537.267 344.418 539.073 340.896L537.56 340.637ZM527.468 350.016C522.448 352.915 517.008 354.865 511.147 355.885L511.603 356.757C517.748 355.687 523.408 353.649 528.583 350.66L527.468 350.016ZM511.151 355.884C505.333 356.879 499.525 356.932 493.71 356.046L493.308 356.926C499.404 357.856 505.506 357.799 511.599 356.758L511.151 355.884ZM493.71 356.046C487.908 355.161 482.572 353.323 477.702 350.512L476.586 351.156C481.626 354.065 487.2 355.995 493.308 356.926L493.71 356.046ZM484.805 346.411C489.705 349.24 495.276 350.581 501.486 350.381L501.397 349.471C495.697 349.656 490.548 348.439 485.92 345.767L484.805 346.411ZM501.479 350.381C507.729 350.209 513.646 348.475 519.222 345.255L518.106 344.611C512.725 347.718 507.159 349.313 501.404 349.471L501.479 350.381ZM519.222 345.255C524.798 342.036 527.801 338.62 528.099 335.012L526.523 334.968C526.249 338.291 523.488 341.504 518.106 344.611L519.222 345.255ZM528.099 335.015C528.446 331.43 526.123 328.214 521.223 325.385L520.107 326.029C524.736 328.701 526.843 331.673 526.524 334.965L528.099 335.015ZM521.223 325.385C516.323 322.556 510.73 321.202 504.477 321.373L504.552 322.283C510.305 322.125 515.479 323.357 520.107 326.029L521.223 325.385ZM504.477 321.373C498.226 321.545 492.31 323.279 486.734 326.499L487.849 327.143C493.231 324.036 498.796 322.441 504.552 322.283L504.477 321.373ZM486.734 326.499C481.158 329.718 478.155 333.134 477.857 336.742L479.433 336.786C479.707 333.463 482.468 330.25 487.849 327.143L486.734 326.499ZM477.857 336.742C477.559 340.353 479.904 343.582 484.805 346.411L485.92 345.767C481.292 343.095 479.159 340.107 479.433 336.786L477.857 336.742ZM520.924 375.12L520.366 374.798L519.809 375.12L520.366 375.442L520.924 375.12ZM563.588 350.488L564.145 350.81L564.703 350.488L564.145 350.166L563.588 350.488ZM549.009 342.071L548.451 341.749L547.894 342.071L548.451 342.393L549.009 342.071ZM556.37 337.821L556.928 337.499L556.37 337.177L555.812 337.499L556.37 337.821ZM594.746 359.978L595.303 360.3L595.861 359.978L595.303 359.656L594.746 359.978ZM587.385 364.227L586.827 364.549L587.385 364.871L587.943 364.549L587.385 364.227ZM572.735 355.769L573.293 355.447L572.735 355.125L572.177 355.447L572.735 355.769ZM530.071 380.401L529.514 380.723L530.071 381.045L530.629 380.723L530.071 380.401ZM521.482 375.442L564.145 350.81L563.03 350.166L520.366 374.798L521.482 375.442ZM564.145 350.166L549.567 341.749L548.451 342.393L563.03 350.81L564.145 350.166ZM549.567 342.393L556.928 338.143L555.812 337.499L548.451 341.749L549.567 342.393ZM555.812 338.143L594.188 360.3L595.303 359.656L556.928 337.499L555.812 338.143ZM594.188 359.656L586.827 363.905L587.943 364.549L595.303 360.3L594.188 359.656ZM587.943 363.905L573.293 355.447L572.177 356.091L586.827 364.549L587.943 363.905ZM572.177 355.447L529.514 380.079L530.629 380.723L573.293 356.091L572.177 355.447ZM530.629 380.079L521.482 374.798L520.366 375.442L529.514 380.723L530.629 380.079Z" fill="url(#paint6_radial_1_2)"/>
<path d="M478.53 301.628L477.742 301.638V301.643V301.648L478.53 301.628ZM486.034 297.295L485.996 297.75H485.998L486.034 297.295ZM494.252 302.04L493.464 302.051V302.061L493.465 302.072L494.252 302.04ZM486.749 306.373L486.784 305.918L486.776 305.917H486.767L486.749 306.373ZM435.652 325.888L435.095 325.566L434.537 325.888L435.095 326.21L435.652 325.888ZM471.098 305.424L471.656 305.102L471.098 304.78L470.54 305.102L471.098 305.424ZM480.245 310.705L480.803 311.027L481.361 310.705L480.803 310.383L480.245 310.705ZM444.8 331.169L444.242 331.491L444.8 331.813L445.357 331.491L444.8 331.169ZM481.732 304.565C480.185 303.672 479.403 302.69 479.318 301.607L477.742 301.648C477.848 302.986 478.829 304.177 480.617 305.209L481.732 304.565ZM479.319 301.617C479.276 300.566 479.922 299.653 481.303 298.855L480.188 298.211C478.52 299.174 477.689 300.324 477.742 301.638L479.319 301.617ZM481.303 298.855C482.684 298.058 484.236 297.702 485.996 297.75L486.071 296.841C483.83 296.779 481.856 297.248 480.188 298.211L481.303 298.855ZM485.998 297.75C487.873 297.8 489.575 298.251 491.122 299.144L492.237 298.5C490.449 297.468 488.387 296.901 486.07 296.841L485.998 297.75ZM491.122 299.144C492.669 300.037 493.421 301.003 493.464 302.051L495.041 302.03C494.988 300.712 494.025 299.532 492.237 298.5L491.122 299.144ZM493.465 302.072C493.591 303.116 492.994 304.02 491.622 304.813L492.737 305.457C494.414 304.489 495.199 303.33 495.039 302.009L493.465 302.072ZM491.622 304.813C490.249 305.605 488.652 305.967 486.784 305.918L486.713 306.827C489.037 306.888 491.061 306.425 492.737 305.457L491.622 304.813ZM486.767 305.917C484.952 305.893 483.279 305.459 481.732 304.565L480.617 305.209C482.404 306.241 484.448 306.797 486.73 306.828L486.767 305.917ZM436.21 326.21L471.656 305.746L470.54 305.102L435.095 325.566L436.21 326.21ZM470.54 305.746L479.688 311.027L480.803 310.383L471.656 305.102L470.54 305.746ZM479.688 310.383L444.242 330.847L445.357 331.491L480.803 311.027L479.688 310.383ZM445.357 330.847L436.21 325.566L435.095 326.21L444.242 331.491L445.357 330.847ZM467.282 341.344L466.518 341.458L466.519 341.46L467.282 341.344ZM467.568 331.029L466.813 330.898L466.81 330.904L467.568 331.029ZM494.51 315.474L494.289 315.037L494.286 315.038L494.51 315.474ZM512.447 315.268L512.648 314.828L512.644 314.827L512.447 315.268ZM538.674 330.41L539.436 330.294L538.674 330.41ZM538.316 340.766L537.561 340.635L537.56 340.637L538.316 340.766ZM511.375 356.321L511.599 356.758L511.603 356.757L511.375 356.321ZM493.509 356.486L493.308 356.926L493.509 356.486ZM501.441 349.926L501.404 349.471H501.397L501.441 349.926ZM527.311 334.99L526.524 334.965L526.523 334.968L527.311 334.99ZM504.514 321.828L504.552 322.283L504.514 321.828ZM478.645 336.764L479.433 336.786L478.645 336.764ZM477.702 350.512C472.783 347.672 469.576 344.577 468.045 341.228L466.519 341.46C468.132 344.987 471.5 348.219 476.586 351.156L477.702 350.512ZM468.046 341.23C466.557 337.9 466.649 334.544 468.326 331.154L466.81 330.904C465.057 334.446 464.958 337.967 466.518 341.458L468.046 341.23ZM468.323 331.161C470.091 327.777 473.468 324.636 478.488 321.738L477.372 321.094C472.197 324.082 468.666 327.35 466.813 330.898L468.323 331.161ZM478.488 321.738C483.508 318.84 488.923 316.904 494.733 315.911L494.286 315.038C488.185 316.08 482.548 318.106 477.372 321.094L478.488 321.738ZM494.73 315.912C500.649 314.916 506.484 314.85 512.25 315.709L512.644 314.827C506.594 313.926 500.471 313.997 494.289 315.037L494.73 315.912ZM512.245 315.708C518.047 316.593 523.407 318.444 528.326 321.284L529.441 320.64C524.355 317.703 518.757 315.759 512.648 314.828L512.245 315.708ZM528.326 321.284C533.196 324.096 536.379 327.176 537.911 330.526L539.436 330.294C537.824 326.768 534.481 323.549 529.441 320.64L528.326 321.284ZM537.911 330.526C539.445 333.882 539.33 337.248 537.561 340.635L539.072 340.898C540.923 337.353 541.046 333.815 539.436 330.294L537.911 330.526ZM537.56 340.637C535.84 343.992 532.488 347.118 527.468 350.016L528.583 350.66C533.759 347.672 537.267 344.418 539.073 340.896L537.56 340.637ZM527.468 350.016C522.448 352.915 517.008 354.865 511.147 355.885L511.603 356.757C517.748 355.687 523.408 353.649 528.583 350.66L527.468 350.016ZM511.151 355.884C505.333 356.879 499.525 356.932 493.71 356.046L493.308 356.926C499.404 357.856 505.506 357.799 511.599 356.758L511.151 355.884ZM493.71 356.046C487.908 355.161 482.572 353.323 477.702 350.512L476.586 351.156C481.626 354.065 487.2 355.995 493.308 356.926L493.71 356.046ZM484.805 346.411C489.705 349.24 495.276 350.581 501.486 350.381L501.397 349.471C495.697 349.656 490.548 348.439 485.92 345.767L484.805 346.411ZM501.479 350.381C507.729 350.209 513.646 348.475 519.222 345.255L518.106 344.611C512.725 347.718 507.159 349.313 501.404 349.471L501.479 350.381ZM519.222 345.255C524.798 342.036 527.801 338.62 528.099 335.012L526.523 334.968C526.249 338.291 523.488 341.504 518.106 344.611L519.222 345.255ZM528.099 335.015C528.446 331.43 526.123 328.214 521.223 325.385L520.107 326.029C524.736 328.701 526.843 331.673 526.524 334.965L528.099 335.015ZM521.223 325.385C516.323 322.556 510.73 321.202 504.477 321.373L504.552 322.283C510.305 322.125 515.479 323.357 520.107 326.029L521.223 325.385ZM504.477 321.373C498.226 321.545 492.31 323.279 486.734 326.499L487.849 327.143C493.231 324.036 498.796 322.441 504.552 322.283L504.477 321.373ZM486.734 326.499C481.158 329.718 478.155 333.134 477.857 336.742L479.433 336.786C479.707 333.463 482.468 330.25 487.849 327.143L486.734 326.499ZM477.857 336.742C477.559 340.353 479.904 343.582 484.805 346.411L485.92 345.767C481.292 343.095 479.159 340.107 479.433 336.786L477.857 336.742ZM520.924 375.12L520.366 374.798L519.809 375.12L520.366 375.442L520.924 375.12ZM563.588 350.488L564.145 350.81L564.703 350.488L564.145 350.166L563.588 350.488ZM549.009 342.071L548.451 341.749L547.894 342.071L548.451 342.393L549.009 342.071ZM556.37 337.821L556.928 337.499L556.37 337.177L555.812 337.499L556.37 337.821ZM594.746 359.978L595.303 360.3L595.861 359.978L595.303 359.656L594.746 359.978ZM587.385 364.227L586.827 364.549L587.385 364.871L587.943 364.549L587.385 364.227ZM572.735 355.769L573.293 355.447L572.735 355.125L572.177 355.447L572.735 355.769ZM530.071 380.401L529.514 380.723L530.071 381.045L530.629 380.723L530.071 380.401ZM521.482 375.442L564.145 350.81L563.03 350.166L520.366 374.798L521.482 375.442ZM564.145 350.166L549.567 341.749L548.451 342.393L563.03 350.81L564.145 350.166ZM549.567 342.393L556.928 338.143L555.812 337.499L548.451 341.749L549.567 342.393ZM555.812 338.143L594.188 360.3L595.303 359.656L556.928 337.499L555.812 338.143ZM594.188 359.656L586.827 363.905L587.943 364.549L595.303 360.3L594.188 359.656ZM587.943 363.905L573.293 355.447L572.177 356.091L586.827 364.549L587.943 363.905ZM572.177 355.447L529.514 380.079L530.629 380.723L573.293 356.091L572.177 355.447ZM530.629 380.079L521.482 374.798L520.366 375.442L529.514 380.723L530.629 380.079Z" fill="url(#paint7_radial_1_2)"/>
<path d="M478.53 301.628L477.742 301.638V301.643V301.648L478.53 301.628ZM486.034 297.295L485.996 297.75H485.998L486.034 297.295ZM494.252 302.04L493.464 302.051V302.061L493.465 302.072L494.252 302.04ZM486.749 306.373L486.784 305.918L486.776 305.917H486.767L486.749 306.373ZM435.652 325.888L435.095 325.566L434.537 325.888L435.095 326.21L435.652 325.888ZM471.098 305.424L471.656 305.102L471.098 304.78L470.54 305.102L471.098 305.424ZM480.245 310.705L480.803 311.027L481.361 310.705L480.803 310.383L480.245 310.705ZM444.8 331.169L444.242 331.491L444.8 331.813L445.357 331.491L444.8 331.169ZM481.732 304.565C480.185 303.672 479.403 302.69 479.318 301.607L477.742 301.648C477.848 302.986 478.829 304.177 480.617 305.209L481.732 304.565ZM479.319 301.617C479.276 300.566 479.922 299.653 481.303 298.855L480.188 298.211C478.52 299.174 477.689 300.324 477.742 301.638L479.319 301.617ZM481.303 298.855C482.684 298.058 484.236 297.702 485.996 297.75L486.071 296.841C483.83 296.779 481.856 297.248 480.188 298.211L481.303 298.855ZM485.998 297.75C487.873 297.8 489.575 298.251 491.122 299.144L492.237 298.5C490.449 297.468 488.387 296.901 486.07 296.841L485.998 297.75ZM491.122 299.144C492.669 300.037 493.421 301.003 493.464 302.051L495.041 302.03C494.988 300.712 494.025 299.532 492.237 298.5L491.122 299.144ZM493.465 302.072C493.591 303.116 492.994 304.02 491.622 304.813L492.737 305.457C494.414 304.489 495.199 303.33 495.039 302.009L493.465 302.072ZM491.622 304.813C490.249 305.605 488.652 305.967 486.784 305.918L486.713 306.827C489.037 306.888 491.061 306.425 492.737 305.457L491.622 304.813ZM486.767 305.917C484.952 305.893 483.279 305.459 481.732 304.565L480.617 305.209C482.404 306.241 484.448 306.797 486.73 306.828L486.767 305.917ZM436.21 326.21L471.656 305.746L470.54 305.102L435.095 325.566L436.21 326.21ZM470.54 305.746L479.688 311.027L480.803 310.383L471.656 305.102L470.54 305.746ZM479.688 310.383L444.242 330.847L445.357 331.491L480.803 311.027L479.688 310.383ZM445.357 330.847L436.21 325.566L435.095 326.21L444.242 331.491L445.357 330.847ZM467.282 341.344L466.518 341.458L466.519 341.46L467.282 341.344ZM467.568 331.029L466.813 330.898L466.81 330.904L467.568 331.029ZM494.51 315.474L494.289 315.037L494.286 315.038L494.51 315.474ZM512.447 315.268L512.648 314.828L512.644 314.827L512.447 315.268ZM538.674 330.41L539.436 330.294L538.674 330.41ZM538.316 340.766L537.561 340.635L537.56 340.637L538.316 340.766ZM511.375 356.321L511.599 356.758L511.603 356.757L511.375 356.321ZM493.509 356.486L493.308 356.926L493.509 356.486ZM501.441 349.926L501.404 349.471H501.397L501.441 349.926ZM527.311 334.99L526.524 334.965L526.523 334.968L527.311 334.99ZM504.514 321.828L504.552 322.283L504.514 321.828ZM478.645 336.764L479.433 336.786L478.645 336.764ZM477.702 350.512C472.783 347.672 469.576 344.577 468.045 341.228L466.519 341.46C468.132 344.987 471.5 348.219 476.586 351.156L477.702 350.512ZM468.046 341.23C466.557 337.9 466.649 334.544 468.326 331.154L466.81 330.904C465.057 334.446 464.958 337.967 466.518 341.458L468.046 341.23ZM468.323 331.161C470.091 327.777 473.468 324.636 478.488 321.738L477.372 321.094C472.197 324.082 468.666 327.35 466.813 330.898L468.323 331.161ZM478.488 321.738C483.508 318.84 488.923 316.904 494.733 315.911L494.286 315.038C488.185 316.08 482.548 318.106 477.372 321.094L478.488 321.738ZM494.73 315.912C500.649 314.916 506.484 314.85 512.25 315.709L512.644 314.827C506.594 313.926 500.471 313.997 494.289 315.037L494.73 315.912ZM512.245 315.708C518.047 316.593 523.407 318.444 528.326 321.284L529.441 320.64C524.355 317.703 518.757 315.759 512.648 314.828L512.245 315.708ZM528.326 321.284C533.196 324.096 536.379 327.176 537.911 330.526L539.436 330.294C537.824 326.768 534.481 323.549 529.441 320.64L528.326 321.284ZM537.911 330.526C539.445 333.882 539.33 337.248 537.561 340.635L539.072 340.898C540.923 337.353 541.046 333.815 539.436 330.294L537.911 330.526ZM537.56 340.637C535.84 343.992 532.488 347.118 527.468 350.016L528.583 350.66C533.759 347.672 537.267 344.418 539.073 340.896L537.56 340.637ZM527.468 350.016C522.448 352.915 517.008 354.865 511.147 355.885L511.603 356.757C517.748 355.687 523.408 353.649 528.583 350.66L527.468 350.016ZM511.151 355.884C505.333 356.879 499.525 356.932 493.71 356.046L493.308 356.926C499.404 357.856 505.506 357.799 511.599 356.758L511.151 355.884ZM493.71 356.046C487.908 355.161 482.572 353.323 477.702 350.512L476.586 351.156C481.626 354.065 487.2 355.995 493.308 356.926L493.71 356.046ZM484.805 346.411C489.705 349.24 495.276 350.581 501.486 350.381L501.397 349.471C495.697 349.656 490.548 348.439 485.92 345.767L484.805 346.411ZM501.479 350.381C507.729 350.209 513.646 348.475 519.222 345.255L518.106 344.611C512.725 347.718 507.159 349.313 501.404 349.471L501.479 350.381ZM519.222 345.255C524.798 342.036 527.801 338.62 528.099 335.012L526.523 334.968C526.249 338.291 523.488 341.504 518.106 344.611L519.222 345.255ZM528.099 335.015C528.446 331.43 526.123 328.214 521.223 325.385L520.107 326.029C524.736 328.701 526.843 331.673 526.524 334.965L528.099 335.015ZM521.223 325.385C516.323 322.556 510.73 321.202 504.477 321.373L504.552 322.283C510.305 322.125 515.479 323.357 520.107 326.029L521.223 325.385ZM504.477 321.373C498.226 321.545 492.31 323.279 486.734 326.499L487.849 327.143C493.231 324.036 498.796 322.441 504.552 322.283L504.477 321.373ZM486.734 326.499C481.158 329.718 478.155 333.134 477.857 336.742L479.433 336.786C479.707 333.463 482.468 330.25 487.849 327.143L486.734 326.499ZM477.857 336.742C477.559 340.353 479.904 343.582 484.805 346.411L485.92 345.767C481.292 343.095 479.159 340.107 479.433 336.786L477.857 336.742ZM520.924 375.12L520.366 374.798L519.809 375.12L520.366 375.442L520.924 375.12ZM563.588 350.488L564.145 350.81L564.703 350.488L564.145 350.166L563.588 350.488ZM549.009 342.071L548.451 341.749L547.894 342.071L548.451 342.393L549.009 342.071ZM556.37 337.821L556.928 337.499L556.37 337.177L555.812 337.499L556.37 337.821ZM594.746 359.978L595.303 360.3L595.861 359.978L595.303 359.656L594.746 359.978ZM587.385 364.227L586.827 364.549L587.385 364.871L587.943 364.549L587.385 364.227ZM572.735 355.769L573.293 355.447L572.735 355.125L572.177 355.447L572.735 355.769ZM530.071 380.401L529.514 380.723L530.071 381.045L530.629 380.723L530.071 380.401ZM521.482 375.442L564.145 350.81L563.03 350.166L520.366 374.798L521.482 375.442ZM564.145 350.166L549.567 341.749L548.451 342.393L563.03 350.81L564.145 350.166ZM549.567 342.393L556.928 338.143L555.812 337.499L548.451 341.749L549.567 342.393ZM555.812 338.143L594.188 360.3L595.303 359.656L556.928 337.499L555.812 338.143ZM594.188 359.656L586.827 363.905L587.943 364.549L595.303 360.3L594.188 359.656ZM587.943 363.905L573.293 355.447L572.177 356.091L586.827 364.549L587.943 363.905ZM572.177 355.447L529.514 380.079L530.629 380.723L573.293 356.091L572.177 355.447ZM530.629 380.079L521.482 374.798L520.366 375.442L529.514 380.723L530.629 380.079Z" fill="url(#paint8_radial_1_2)"/>
</g>
<g filter="url(#filter3_f_1_2)">
<path d="M217 333.192C240.302 333.192 259.192 314.302 259.192 291C259.192 267.698 240.302 248.808 217 248.808C193.698 248.808 174.808 267.698 174.808 291C174.808 314.302 193.698 333.192 217 333.192Z" stroke="white" stroke-width="4.38356"/>
</g>
<path d="M217 330.178C238.637 330.178 256.178 312.637 256.178 291C256.178 269.363 238.637 251.822 217 251.822C195.363 251.822 177.822 269.363 177.822 291C177.822 312.637 195.363 330.178 217 330.178Z" stroke="white" stroke-width="1.64384"/>
<path d="M217 330.178C238.637 330.178 256.178 312.637 256.178 291C256.178 269.363 238.637 251.822 217 251.822C195.363 251.822 177.822 269.363 177.822 291C177.822 312.637 195.363 330.178 217 330.178Z" stroke="white" stroke-width="1.64384"/>
<path d="M196.178 279.288C196.178 278.252 196.589 277.259 197.321 276.527C198.053 275.795 199.046 275.384 200.082 275.384H223.507C224.542 275.384 225.535 275.795 226.267 276.527C226.999 277.259 227.411 278.252 227.411 279.288V283.192H230.065C230.65 283.192 231.228 283.324 231.755 283.578C232.282 283.832 232.745 284.2 233.111 284.657L236.965 289.472C237.52 290.165 237.822 291.026 237.822 291.914V297.507C237.822 298.542 237.41 299.535 236.678 300.267C235.946 301 234.953 301.411 233.917 301.411H232.616C232.616 302.792 232.068 304.116 231.091 305.092C230.115 306.068 228.791 306.616 227.411 306.616C226.03 306.616 224.706 306.068 223.73 305.092C222.754 304.116 222.205 302.792 222.205 301.411H209.191C209.193 302.105 209.056 302.792 208.788 303.432C208.52 304.072 208.127 304.652 207.631 305.138C207.136 305.624 206.549 306.006 205.904 306.262C205.259 306.517 204.569 306.641 203.875 306.626C203.182 306.612 202.498 306.458 201.864 306.176C201.231 305.893 200.66 305.486 200.186 304.98C199.712 304.473 199.343 303.877 199.103 303.226C198.863 302.575 198.755 301.883 198.786 301.19C198.023 300.921 197.363 300.423 196.896 299.763C196.429 299.104 196.178 298.315 196.178 297.507V279.288ZM199.546 298.694C200.016 297.923 200.679 297.289 201.469 296.852C202.26 296.415 203.15 296.192 204.052 296.203C204.955 296.215 205.839 296.461 206.618 296.918C207.397 297.374 208.043 298.026 208.494 298.808H222.903C223.36 298.018 224.017 297.361 224.808 296.903V279.288C224.808 278.943 224.671 278.612 224.427 278.367C224.183 278.123 223.852 277.986 223.507 277.986H200.082C199.737 277.986 199.406 278.123 199.162 278.367C198.918 278.612 198.78 278.943 198.78 279.288V297.507C198.78 297.757 198.852 298.003 198.988 298.213C199.124 298.424 199.317 298.59 199.546 298.694ZM227.411 296.205C228.324 296.205 229.222 296.446 230.013 296.903C230.805 297.36 231.462 298.017 231.919 298.808H233.917C234.263 298.808 234.594 298.671 234.838 298.427C235.082 298.183 235.219 297.852 235.219 297.507V291.911C235.218 291.616 235.117 291.329 234.933 291.099L231.08 286.284C230.959 286.131 230.804 286.008 230.629 285.924C230.453 285.839 230.26 285.795 230.065 285.795H227.411V296.205ZM203.986 298.808C203.296 298.808 202.634 299.082 202.146 299.571C201.657 300.059 201.383 300.721 201.383 301.411C201.383 302.101 201.657 302.763 202.146 303.251C202.634 303.739 203.296 304.014 203.986 304.014C204.676 304.014 205.338 303.739 205.826 303.251C206.314 302.763 206.589 302.101 206.589 301.411C206.589 300.721 206.314 300.059 205.826 299.571C205.338 299.082 204.676 298.808 203.986 298.808ZM227.411 298.808C226.72 298.808 226.058 299.082 225.57 299.571C225.082 300.059 224.808 300.721 224.808 301.411C224.808 302.101 225.082 302.763 225.57 303.251C226.058 303.739 226.72 304.014 227.411 304.014C228.101 304.014 228.763 303.739 229.251 303.251C229.739 302.763 230.013 302.101 230.013 301.411C230.013 300.721 229.739 300.059 229.251 299.571C228.763 299.082 228.101 298.808 227.411 298.808Z" fill="white"/>
<path d="M307 434.5H223V330" stroke="white" stroke-dasharray="2 2"/>
<g filter="url(#filter4_f_1_2)">
<path d="M759 280.192C735.698 280.192 716.808 261.302 716.808 238C716.808 214.698 735.698 195.808 759 195.808C782.302 195.808 801.192 214.698 801.192 238C801.192 261.302 782.302 280.192 759 280.192Z" stroke="white" stroke-width="4.38356"/>
</g>
<path d="M759 277.178C737.363 277.178 719.822 259.637 719.822 238C719.822 216.363 737.363 198.822 759 198.822C780.637 198.822 798.178 216.363 798.178 238C798.178 259.637 780.637 277.178 759 277.178Z" stroke="white" stroke-width="1.64384"/>
<path d="M669 381.5H753V277" stroke="white" stroke-dasharray="2 2"/>
<path d="M776.333 233.667H772L761.621 226.083C762.145 225.717 762.573 225.231 762.87 224.665C763.168 224.1 763.327 223.472 763.333 222.833C763.322 222.078 763.118 221.338 762.738 220.685C762.359 220.032 761.817 219.488 761.166 219.105V216.333H759V220.667C759.428 220.667 759.847 220.794 760.203 221.032C760.56 221.27 760.837 221.608 761.001 222.004C761.165 222.4 761.208 222.836 761.125 223.256C761.041 223.676 760.835 224.062 760.532 224.365C760.229 224.668 759.843 224.875 759.422 224.958C759.002 225.042 758.566 224.999 758.171 224.835C757.775 224.671 757.436 224.393 757.198 224.037C756.96 223.681 756.833 223.262 756.833 222.833H754.666C754.673 223.474 754.833 224.103 755.133 224.668C755.433 225.234 755.864 225.719 756.391 226.083L746 233.667H741.666C740.517 233.668 739.416 234.125 738.603 234.937C737.791 235.75 737.334 236.851 737.333 238V255.333C737.334 256.482 737.791 257.584 738.603 258.396C739.416 259.209 740.517 259.666 741.666 259.667H776.333C776.902 259.668 777.466 259.556 777.992 259.339C778.518 259.121 778.996 258.802 779.399 258.399C779.802 257.997 780.121 257.519 780.338 256.993C780.556 256.467 780.667 255.903 780.666 255.333V238C780.665 236.851 780.208 235.75 779.396 234.937C778.583 234.125 777.482 233.668 776.333 233.667ZM759 227.167C759.013 227.167 767.666 233.667 767.666 233.667H750.333L759 227.167ZM776.333 255.333H741.666V238H776.333V255.333Z" fill="white"/>
<path d="M763.333 253.167C763.908 253.167 764.459 252.938 764.865 252.532C765.271 252.126 765.5 251.575 765.5 251V242.333C765.5 241.759 765.271 241.208 764.865 240.801C764.459 240.395 763.908 240.167 763.333 240.167C762.758 240.167 762.207 240.395 761.801 240.801C761.395 241.208 761.166 241.759 761.166 242.333V251C761.166 251.575 761.395 252.126 761.801 252.532C762.207 252.938 762.758 253.167 763.333 253.167ZM772 253.167C772.574 253.167 773.125 252.938 773.532 252.532C773.938 252.126 774.166 251.575 774.166 251V242.333C774.166 241.759 773.938 241.208 773.532 240.801C773.125 240.395 772.574 240.167 772 240.167C771.425 240.167 770.874 240.395 770.468 240.801C770.061 241.208 769.833 241.759 769.833 242.333V251C769.833 251.575 770.061 252.126 770.468 252.532C770.874 252.938 771.425 253.167 772 253.167ZM746 253.167C746.574 253.167 747.125 252.938 747.532 252.532C747.938 252.126 748.166 251.575 748.166 251V242.333C748.166 241.759 747.938 241.208 747.532 240.801C747.125 240.395 746.574 240.167 746 240.167C745.425 240.167 744.874 240.395 744.468 240.801C744.061 241.208 743.833 241.759 743.833 242.333V251C743.833 251.575 744.061 252.126 744.468 252.532C744.874 252.938 745.425 253.167 746 253.167ZM754.666 253.167C755.241 253.167 755.792 252.938 756.198 252.532C756.605 252.126 756.833 251.575 756.833 251V242.333C756.833 241.759 756.605 241.208 756.198 240.801C755.792 240.395 755.241 240.167 754.666 240.167C754.092 240.167 753.541 240.395 753.134 240.801C752.728 241.208 752.5 241.759 752.5 242.333V251C752.5 251.575 752.728 252.126 753.134 252.532C753.541 252.938 754.092 253.167 754.666 253.167Z" fill="white"/>
<g filter="url(#filter5_f_1_2)">
<path d="M593 625.192C569.698 625.192 550.808 606.302 550.808 583C550.808 559.698 569.698 540.808 593 540.808C616.302 540.808 635.192 559.698 635.192 583C635.192 606.302 616.302 625.192 593 625.192Z" stroke="white" stroke-width="4.38356"/>
</g>
<path d="M593 622.178C571.363 622.178 553.822 604.637 553.822 583C553.822 561.363 571.363 543.822 593 543.822C614.637 543.822 632.178 561.363 632.178 583C632.178 604.637 614.637 622.178 593 622.178Z" stroke="white" stroke-width="1.64384"/>
<path d="M509 471H593V543" stroke="white" stroke-dasharray="2 2"/>
<path fill-rule="evenodd" clip-rule="evenodd" d="M592.497 560.188C593.004 560.187 593.498 560.348 593.907 560.646C594.317 560.945 594.621 561.366 594.776 561.848L605.25 594.581L609.349 581.773C609.503 581.291 609.807 580.869 610.216 580.57C610.625 580.271 611.118 580.11 611.625 580.109H615.609C616.243 580.109 616.851 580.361 617.3 580.81C617.748 581.258 618 581.866 618 582.5C618 583.134 617.748 583.742 617.3 584.19C616.851 584.639 616.243 584.891 615.609 584.891H613.369L607.526 603.152C607.371 603.634 607.067 604.054 606.658 604.352C606.249 604.65 605.756 604.811 605.25 604.811C604.744 604.811 604.251 604.65 603.842 604.352C603.433 604.054 603.129 603.634 602.974 603.152L592.516 570.47L585.217 593.58C585.066 594.056 584.77 594.473 584.37 594.772C583.971 595.072 583.487 595.238 582.988 595.249C582.488 595.26 581.998 595.113 581.586 594.831C581.174 594.549 580.861 594.145 580.69 593.675L576.661 582.596L576.438 583.259C576.28 583.734 575.976 584.148 575.569 584.442C575.162 584.735 574.673 584.893 574.172 584.894H569.391C568.757 584.894 568.149 584.642 567.7 584.194C567.252 583.745 567 583.137 567 582.503C567 581.869 567.252 581.261 567.7 580.813C568.149 580.364 568.757 580.113 569.391 580.113H572.451L574.293 574.576C574.449 574.104 574.748 573.693 575.149 573.399C575.55 573.106 576.032 572.944 576.529 572.937C577.025 572.93 577.512 573.078 577.921 573.36C578.33 573.643 578.64 574.045 578.81 574.512L582.778 585.429L590.221 561.861C590.373 561.376 590.676 560.953 591.085 560.652C591.494 560.351 591.989 560.188 592.497 560.188Z" fill="white"/>
<g filter="url(#filter6_f_1_2)">
<path d="M443.859 189.835C442.667 213.106 460.566 232.938 483.838 234.13C507.109 235.322 526.941 217.423 528.133 194.151C529.324 170.88 511.426 151.048 488.154 149.856C464.883 148.664 445.051 166.563 443.859 189.835Z" stroke="white" stroke-width="4.38356"/>
</g>
<path d="M446.869 189.989C445.762 211.598 462.383 230.013 483.992 231.12C505.601 232.227 524.016 215.606 525.123 193.997C526.23 172.388 509.609 153.973 488 152.866C466.391 151.759 447.976 168.38 446.869 189.989Z" stroke="white" stroke-width="1.64384"/>
<path d="M585 319V216H517" stroke="white" stroke-dasharray="2 2"/>
<path d="M472.246 170.85C470.856 170.85 469.394 171.051 467.856 171.5C467.852 171.502 467.847 171.503 467.843 171.505C467.827 171.51 467.811 171.515 467.796 171.521C467.784 171.525 467.772 171.53 467.76 171.535C467.745 171.542 467.73 171.548 467.715 171.556C467.703 171.561 467.691 171.567 467.679 171.574C467.665 171.582 467.65 171.59 467.636 171.599C467.625 171.606 467.615 171.613 467.604 171.62C467.59 171.63 467.576 171.64 467.563 171.65C467.553 171.658 467.543 171.666 467.533 171.674C467.52 171.685 467.508 171.696 467.496 171.707C467.486 171.716 467.477 171.725 467.468 171.735C467.456 171.747 467.444 171.76 467.433 171.773C467.425 171.782 467.417 171.791 467.41 171.8C467.399 171.814 467.388 171.829 467.378 171.844C467.371 171.853 467.364 171.863 467.358 171.873C467.348 171.888 467.34 171.902 467.331 171.917C467.325 171.928 467.319 171.939 467.313 171.95C467.305 171.966 467.298 171.981 467.291 171.997C467.286 172.008 467.281 172.02 467.277 172.031C467.271 172.047 467.265 172.063 467.26 172.079C467.256 172.091 467.252 172.104 467.249 172.116C467.242 172.137 467.237 172.158 467.233 172.18L465.133 182.677C465.093 182.878 465.124 183.087 465.22 183.268C465.316 183.449 465.472 183.592 465.661 183.672L473.35 186.913L476.315 202.113L465.39 204.486C465.193 204.529 465.016 204.637 464.888 204.793C464.76 204.949 464.689 205.143 464.687 205.345L464.587 212.514C464.585 212.655 464.617 212.794 464.679 212.921C464.742 213.047 464.833 213.157 464.947 213.241C465.06 213.325 465.192 213.381 465.331 213.405C465.47 213.428 465.613 213.418 465.747 213.375L479.479 208.986L481.74 208.548C481.757 208.548 481.773 208.549 481.79 208.549C482.723 208.549 483.602 208.105 484.216 207.38C484.829 206.656 485.15 205.712 485.149 204.74V204.738C485.15 204.121 485.021 203.515 484.77 202.97L482.401 190.729L494.192 195.7C494.197 195.701 494.202 195.703 494.207 195.705C494.223 195.712 494.241 195.718 494.258 195.724C494.269 195.727 494.28 195.731 494.291 195.734C494.307 195.739 494.324 195.743 494.341 195.747C494.354 195.75 494.367 195.752 494.38 195.755C494.396 195.757 494.411 195.76 494.426 195.762C494.441 195.764 494.456 195.765 494.471 195.766C494.484 195.767 494.498 195.768 494.511 195.768C494.528 195.769 494.545 195.769 494.562 195.769C494.573 195.769 494.585 195.768 494.596 195.768L502.415 195.273C502.574 195.262 502.727 195.209 502.858 195.12C502.99 195.03 503.095 194.907 503.162 194.763L507.899 184.736L507.9 184.735V184.734C507.9 184.733 507.901 184.731 507.901 184.73C507.956 184.616 507.987 184.492 507.99 184.366C507.993 184.24 507.97 184.114 507.921 183.998C507.872 183.881 507.799 183.776 507.707 183.69C507.614 183.604 507.505 183.539 507.385 183.498C506.679 183.111 505.924 182.822 505.139 182.641L476.276 171.44C476.251 171.43 476.226 171.422 476.201 171.414C474.952 171.054 473.635 170.851 472.246 170.85ZM469.776 172.137C469.894 172.136 470.012 172.159 470.121 172.204L497.379 183.129C497.574 183.207 497.735 183.351 497.834 183.536C497.933 183.721 497.963 183.935 497.92 184.141C497.894 184.184 497.872 184.23 497.854 184.277L497.775 184.471C497.66 184.635 497.492 184.755 497.3 184.811C497.108 184.868 496.903 184.859 496.717 184.784L469.459 173.857C469.267 173.781 469.106 173.641 469.006 173.46C468.905 173.28 468.871 173.07 468.908 172.866C468.946 172.663 469.053 172.479 469.211 172.346C469.369 172.213 469.569 172.139 469.776 172.137ZM503.273 184.171C503.686 184.175 504.094 184.219 504.498 184.303L505.88 184.839L503.661 189.537C503.747 189.157 503.79 188.78 503.786 188.426C503.777 187.607 503.511 186.931 503.051 186.592C502.591 186.253 501.955 186.266 501.328 186.615C501.174 186.701 501.018 186.809 500.868 186.932C500.926 186.855 500.98 186.77 501.026 186.68C501.159 186.421 501.237 186.122 501.235 185.857C501.232 185.591 501.146 185.365 500.994 185.25C500.921 185.193 500.83 185.163 500.737 185.165C500.642 185.167 500.539 185.196 500.441 185.253C500.243 185.367 500.058 185.583 499.925 185.842C499.792 186.101 499.714 186.4 499.717 186.665C499.72 186.931 499.806 187.157 499.957 187.272C500.109 187.387 500.313 187.379 500.511 187.266C500.191 187.6 499.897 188.006 499.659 188.458C499.227 189.275 498.981 190.221 498.991 191.039C499 191.858 499.272 192.537 499.732 192.876C500.192 193.215 500.822 193.2 501.448 192.85C501.84 192.631 502.226 192.286 502.565 191.858L501.777 193.527L495.894 193.902L499.386 185.24C500.758 184.514 502.037 184.161 503.273 184.171ZM475.328 187.747L476.83 188.38L479.617 201.464C479.333 201.376 479.038 201.332 478.741 201.331C478.486 201.331 478.235 201.366 477.993 201.429L475.328 187.747ZM478.83 189.224L480.426 189.896L482.582 201.037C482.324 200.965 482.058 200.929 481.79 200.928C481.636 200.928 481.484 200.941 481.334 200.965L478.83 189.223V189.224ZM481.79 202.716C482.152 202.716 482.564 202.901 482.865 203.257C483.167 203.613 483.375 204.184 483.374 204.738C483.374 204.738 483.374 204.739 483.374 204.74C483.375 205.294 483.167 205.865 482.866 206.221C482.73 206.381 482.565 206.513 482.379 206.609L481.803 206.721C482.001 206.226 482.102 205.689 482.101 205.143V205.141C482.102 204.79 482.059 204.44 481.975 204.1C481.978 204.029 481.972 203.958 481.957 203.889L481.708 202.721C481.735 202.719 481.763 202.716 481.79 202.716ZM478.741 203.119C479.104 203.119 479.516 203.304 479.817 203.66C480.118 204.016 480.326 204.587 480.325 205.141C480.325 205.142 480.325 205.142 480.325 205.143C480.326 205.697 480.118 206.268 479.817 206.624C479.516 206.98 479.104 207.165 478.741 207.165C478.379 207.165 477.969 206.98 477.668 206.624C477.367 206.268 477.156 205.697 477.157 205.143C477.157 205.142 477.157 205.142 477.157 205.141C477.156 204.587 477.367 204.016 477.668 203.66C477.969 203.304 478.379 203.119 478.741 203.119ZM475.507 204.112C475.425 204.448 475.384 204.794 475.384 205.141V205.143C475.383 206.115 475.704 207.059 476.317 207.783C476.396 207.876 476.479 207.964 476.566 208.047L466.386 211.301L466.459 206.077L475.507 204.112Z" fill="white"/>
</g>
<defs>
<filter id="filter0_f_1_2" x="0" y="0" width="976" height="834" filterUnits="userSpaceOnUse" color-interpolation-filters="sRGB">
<feFlood flood-opacity="0" result="BackgroundImageFix"/>
<feBlend mode="normal" in="SourceGraphic" in2="BackgroundImageFix" result="shape"/>
<feGaussianBlur stdDeviation="137.5" result="effect1_foregroundBlur_1_2"/>
</filter>
<filter id="filter1_f_1_2" x="284.705" y="323.237" width="405.847" height="236.251" filterUnits="userSpaceOnUse" color-interpolation-filters="sRGB">
<feFlood flood-opacity="0" result="BackgroundImageFix"/>
<feBlend mode="normal" in="SourceGraphic" in2="BackgroundImageFix" result="shape"/>
<feGaussianBlur stdDeviation="9.5" result="effect1_foregroundBlur_1_2"/>
</filter>
<filter id="filter2_i_1_2" x="423.537" y="296.836" width="172.324" height="95.2094" filterUnits="userSpaceOnUse" color-interpolation-filters="sRGB">
<feFlood flood-opacity="0" result="BackgroundImageFix"/>
<feBlend mode="normal" in="SourceGraphic" in2="BackgroundImageFix" result="shape"/>
<feColorMatrix in="SourceAlpha" type="matrix" values="0 0 0 0 0 0 0 0 0 0 0 0 0 0 0 0 0 0 127 0" result="hardAlpha"/>
<feOffset dx="-43" dy="74"/>
<feGaussianBlur stdDeviation="5.5"/>
<feComposite in2="hardAlpha" operator="arithmetic" k2="-1" k3="1"/>
<feColorMatrix type="matrix" values="0 0 0 0 0 0 0 0 0 0 0 0 0 0 0 0 0 0 0.25 0"/>
<feBlend mode="normal" in2="shape" result="effect1_innerShadow_1_2"/>
</filter>
<filter id="filter3_f_1_2" x="160.562" y="234.562" width="112.877" height="112.877" filterUnits="userSpaceOnUse" color-interpolation-filters="sRGB">
<feFlood flood-opacity="0" result="BackgroundImageFix"/>
<feBlend mode="normal" in="SourceGraphic" in2="BackgroundImageFix" result="shape"/>
<feGaussianBlur stdDeviation="6.0274" result="effect1_foregroundBlur_1_2"/>
</filter>
<filter id="filter4_f_1_2" x="702.562" y="181.562" width="112.877" height="112.877" filterUnits="userSpaceOnUse" color-interpolation-filters="sRGB">
<feFlood flood-opacity="0" result="BackgroundImageFix"/>
<feBlend mode="normal" in="SourceGraphic" in2="BackgroundImageFix" result="shape"/>
<feGaussianBlur stdDeviation="6.0274" result="effect1_foregroundBlur_1_2"/>
</filter>
<filter id="filter5_f_1_2" x="536.562" y="526.562" width="112.877" height="112.877" filterUnits="userSpaceOnUse" color-interpolation-filters="sRGB">
<feFlood flood-opacity="0" result="BackgroundImageFix"/>
<feBlend mode="normal" in="SourceGraphic" in2="BackgroundImageFix" result="shape"/>
<feGaussianBlur stdDeviation="6.0274" result="effect1_foregroundBlur_1_2"/>
</filter>
<filter id="filter6_f_1_2" x="429.557" y="135.554" width="112.879" height="112.879" filterUnits="userSpaceOnUse" color-interpolation-filters="sRGB">
<feFlood flood-opacity="0" result="BackgroundImageFix"/>
<feBlend mode="normal" in="SourceGraphic" in2="BackgroundImageFix" result="shape"/>
<feGaussianBlur stdDeviation="6.0274" result="effect1_foregroundBlur_1_2"/>
</filter>
<radialGradient id="paint0_radial_1_2" cx="0" cy="0" r="1" gradientUnits="userSpaceOnUse" gradientTransform="translate(653 239.5) rotate(126.517) scale(520.11 208.267)">
<stop stop-color="white"/>
<stop offset="1" stop-color="#9E9E9E" stop-opacity="0"/>
</radialGradient>
<radialGradient id="paint1_radial_1_2" cx="0" cy="0" r="1" gradientUnits="userSpaceOnUse" gradientTransform="translate(431.413 320.635) rotate(-2.20423) scale(277.855 141.312)">
<stop stop-color="white"/>
<stop offset="1" stop-color="white" stop-opacity="0"/>
</radialGradient>
<radialGradient id="paint2_radial_1_2" cx="0" cy="0" r="1" gradientUnits="userSpaceOnUse" gradientTransform="translate(431.41 350.635) rotate(-2.20423) scale(277.855 141.312)">
<stop/>
<stop offset="1" stop-color="white" stop-opacity="0"/>
</radialGradient>
<radialGradient id="paint3_radial_1_2" cx="0" cy="0" r="1" gradientUnits="userSpaceOnUse" gradientTransform="translate(550.143 316.941) rotate(144.301) scale(119.988 125.76)">
<stop stop-color="white"/>
<stop offset="1" stop-color="white" stop-opacity="0"/>
</radialGradient>
<radialGradient id="paint4_radial_1_2" cx="0" cy="0" r="1" gradientUnits="userSpaceOnUse" gradientTransform="translate(486 354.5) rotate(73.8866) scale(23.4201 25.4004)">
<stop stop-color="white"/>
<stop offset="1" stop-color="white" stop-opacity="0"/>
</radialGradient>
<radialGradient id="paint5_radial_1_2" cx="0" cy="0" r="1" gradientUnits="userSpaceOnUse" gradientTransform="translate(525.918 310.141) rotate(70.4661) scale(71.2424 141.491)">
<stop stop-color="white"/>
<stop offset="0.241129" stop-color="white" stop-opacity="0"/>
</radialGradient>
<radialGradient id="paint6_radial_1_2" cx="0" cy="0" r="1" gradientUnits="userSpaceOnUse" gradientTransform="translate(496 337) rotate(136.364) scale(29.7069 6.7586)">
<stop stop-color="white"/>
<stop offset="1" stop-color="white" stop-opacity="0"/>
</radialGradient>
<radialGradient id="paint7_radial_1_2" cx="0" cy="0" r="1" gradientUnits="userSpaceOnUse" gradientTransform="translate(520.5 367.5) rotate(175.135) scale(23.585 17.2642)">
<stop stop-color="white"/>
<stop offset="1" stop-color="white" stop-opacity="0"/>
</radialGradient>
<radialGradient id="paint8_radial_1_2" cx="0" cy="0" r="1" gradientUnits="userSpaceOnUse" gradientTransform="translate(498 297.5) rotate(-124.695) scale(23.7171 12.0296)">
<stop stop-color="white"/>
<stop offset="1" stop-color="white" stop-opacity="0"/>
</radialGradient>
<clipPath id="clip0_1_2">
<rect width="928" height="834" fill="white"/>
</clipPath>
</defs>
</svg>
