<svg width="43" height="43" viewBox="0 0 43 43" fill="none" xmlns="http://www.w3.org/2000/svg">
<path d="M23.3438 18.918C22.2813 18.6523 21.2188 18.1211 20.4219 17.3242C19.625 17.0586 19.3594 16.2617 19.3594 15.7305C19.3594 15.1992 19.625 14.4023 20.1562 14.1367C20.9531 13.6055 21.75 13.0742 22.5469 13.3398C24.1406 13.3398 25.4688 14.1367 26.2656 15.1992L28.6563 12.0117C27.8594 11.2148 27.0625 10.6836 26.2656 10.1523C25.4688 9.62109 24.4063 9.35547 23.3438 9.35547V5.63672H20.1562V9.35547C18.8281 9.62109 17.5 10.418 16.4375 11.4805C15.375 12.8086 14.5781 14.4023 14.8438 15.9961C14.8438 17.5898 15.375 19.1836 16.4375 20.2461C17.7656 21.5742 19.625 22.3711 21.2188 23.168C22.0156 23.4336 23.0781 23.9648 23.875 24.4961C24.4062 25.0273 24.6719 25.8242 24.6719 26.6211C24.6719 27.418 24.4062 28.2148 23.875 29.0117C23.0781 29.8086 22.0156 30.0742 21.2188 30.0742C20.1562 30.0742 18.8281 29.8086 18.0313 29.0117C17.2344 28.4805 16.4375 27.6836 15.9063 26.8867L13.25 29.8086C14.0469 30.8711 14.8438 31.668 15.9063 32.4648C17.2344 33.2617 18.8281 34.0586 20.4219 34.0586V37.5117H23.3438V33.5273C24.9375 33.2617 26.2656 32.4648 27.3281 31.4023C28.6563 30.0742 29.4531 27.9492 29.4531 26.0898C29.4531 24.4961 28.9219 22.6367 27.5938 21.5742C26.2656 20.2461 24.9375 19.4492 23.3438 18.918ZM21.75 0.324219C10.0625 0.324219 0.5 9.88672 0.5 21.5742C0.5 33.2617 10.0625 42.8242 21.75 42.8242C33.4375 42.8242 43 33.2617 43 21.5742C43 9.88672 33.4375 0.324219 21.75 0.324219ZM21.75 39.9023C11.6562 39.9023 3.42187 31.668 3.42187 21.5742C3.42187 11.4805 11.6562 3.24609 21.75 3.24609C31.8438 3.24609 40.0781 11.4805 40.0781 21.5742C40.0781 31.668 31.8438 39.9023 21.75 39.9023Z" fill="#FF5000"/>
</svg>
