<svg width="24" height="17" viewBox="0 0 24 17" fill="none" xmlns="http://www.w3.org/2000/svg">
<path d="M23.418 0.337158L12.9024 10.8094C12.6318 11.0784 12.2657 11.2294 11.8841 11.2294C11.5025 11.2294 11.1364 11.0784 10.8658 10.8094L0.44411 0.416603C0.412072 0.534354 0.395085 0.655691 0.393555 0.777714V15.2222C0.393555 15.6052 0.545737 15.9726 0.816623 16.2435C1.08751 16.5144 1.45491 16.6666 1.838 16.6666H22.0602C22.4433 16.6666 22.8107 16.5144 23.0816 16.2435C23.3525 15.9726 23.5047 15.6052 23.5047 15.2222V0.777714C23.4989 0.627242 23.4697 0.478595 23.418 0.337158ZM2.82744 15.2222H1.82355V14.1894L7.07411 8.98216L8.09244 10.0005L2.82744 15.2222ZM22.0458 15.2222H21.0347L15.7697 10.0005L16.788 8.98216L22.0386 14.1894L22.0458 15.2222Z" fill="white"/>
</svg>
