<svg width="27" height="26" viewBox="0 0 27 26" fill="none" xmlns="http://www.w3.org/2000/svg">
<g clip-path="url(#clip0_1093_1027)">
<path d="M23.8494 4.33329C23.7509 4.32315 23.6517 4.32315 23.5532 4.33329H3.33102C3.20141 4.33529 3.07266 4.35472 2.94824 4.39107L13.3844 14.7838L23.8494 4.33329Z" fill="white"/>
<path d="M24.918 5.33716L14.4024 15.8094C14.1318 16.0784 13.7657 16.2294 13.3841 16.2294C13.0025 16.2294 12.6364 16.0784 12.3658 15.8094L1.94411 5.4166C1.91207 5.53435 1.89508 5.65569 1.89355 5.77771V20.2222C1.89355 20.6052 2.04574 20.9726 2.31662 21.2435C2.58751 21.5144 2.95491 21.6666 3.338 21.6666H23.5602C23.9433 21.6666 24.3107 21.5144 24.5816 21.2435C24.8525 20.9726 25.0047 20.6052 25.0047 20.2222V5.77771C24.9989 5.62724 24.9697 5.47859 24.918 5.33716V5.33716ZM4.32744 20.2222H3.32355V19.1894L8.57411 13.9822L9.59244 15.0005L4.32744 20.2222ZM23.5458 20.2222H22.5347L17.2697 15.0005L18.288 13.9822L23.5386 19.1894L23.5458 20.2222Z" fill="white"/>
</g>
<defs>
<clipPath id="clip0_1093_1027">
<rect width="26" height="26" fill="white" transform="translate(0.5)"/>
</clipPath>
</defs>
</svg>
