<svg width="359" height="47" viewBox="0 0 359 47" fill="none" xmlns="http://www.w3.org/2000/svg">
<path d="M9 2.436V4.47H3.762V7.692H7.776V9.69H3.762V15H1.242V2.436H9ZM12.0649 3.84C11.6209 3.84 11.2489 3.702 10.9489 3.426C10.6609 3.138 10.5169 2.784 10.5169 2.364C10.5169 1.944 10.6609 1.596 10.9489 1.32C11.2489 1.032 11.6209 0.887999 12.0649 0.887999C12.5089 0.887999 12.8749 1.032 13.1629 1.32C13.4629 1.596 13.6129 1.944 13.6129 2.364C13.6129 2.784 13.4629 3.138 13.1629 3.426C12.8749 3.702 12.5089 3.84 12.0649 3.84ZM13.3069 5.028V15H10.7869V5.028H13.3069ZM15.1487 9.996C15.1487 9 15.3527 8.118 15.7607 7.35C16.1807 6.57 16.7447 5.964 17.4527 5.532C18.1607 5.1 18.9407 4.884 19.7927 4.884C20.5007 4.884 21.1247 5.022 21.6647 5.298C22.2167 5.562 22.6607 5.904 22.9967 6.324V5.028H25.5347V19.752H22.9967V13.632C22.6607 14.064 22.2107 14.424 21.6467 14.712C21.0827 15 20.4467 15.144 19.7387 15.144C18.8987 15.144 18.1247 14.928 17.4167 14.496C16.7207 14.052 16.1687 13.44 15.7607 12.66C15.3527 11.88 15.1487 10.992 15.1487 9.996ZM22.9967 10.014C22.9967 9.402 22.8707 8.874 22.6187 8.43C22.3667 7.986 22.0367 7.65 21.6287 7.422C21.2327 7.194 20.8067 7.08 20.3507 7.08C19.9067 7.08 19.4807 7.194 19.0727 7.422C18.6767 7.65 18.3527 7.986 18.1007 8.43C17.8487 8.862 17.7227 9.384 17.7227 9.996C17.7227 10.608 17.8487 11.142 18.1007 11.598C18.3527 12.042 18.6767 12.378 19.0727 12.606C19.4807 12.834 19.9067 12.948 20.3507 12.948C20.8067 12.948 21.2327 12.834 21.6287 12.606C22.0367 12.378 22.3667 12.042 22.6187 11.598C22.8707 11.154 22.9967 10.626 22.9967 10.014ZM37.4099 5.028V15H34.8719V13.74C34.5479 14.172 34.1219 14.514 33.5939 14.766C33.0779 15.006 32.5139 15.126 31.9019 15.126C31.1219 15.126 30.4319 14.964 29.8319 14.64C29.2319 14.304 28.7579 13.818 28.4099 13.182C28.0739 12.534 27.9059 11.766 27.9059 10.878V5.028H30.4259V10.518C30.4259 11.31 30.6239 11.922 31.0199 12.354C31.4159 12.774 31.9559 12.984 32.6399 12.984C33.3359 12.984 33.8819 12.774 34.2779 12.354C34.6739 11.922 34.8719 11.31 34.8719 10.518V5.028H37.4099ZM49.1663 9.798C49.1663 10.158 49.1423 10.482 49.0943 10.77H41.8043C41.8643 11.49 42.1163 12.054 42.5603 12.462C43.0043 12.87 43.5503 13.074 44.1983 13.074C45.1343 13.074 45.8003 12.672 46.1963 11.868H48.9143C48.6263 12.828 48.0743 13.62 47.2583 14.244C46.4423 14.856 45.4403 15.162 44.2523 15.162C43.2923 15.162 42.4283 14.952 41.6603 14.532C40.9043 14.1 40.3103 13.494 39.8783 12.714C39.4583 11.934 39.2483 11.034 39.2483 10.014C39.2483 8.982 39.4583 8.076 39.8783 7.296C40.2983 6.516 40.8863 5.916 41.6423 5.496C42.3983 5.076 43.2683 4.866 44.2523 4.866C45.2003 4.866 46.0463 5.07 46.7903 5.478C47.5463 5.886 48.1283 6.468 48.5363 7.224C48.9563 7.968 49.1663 8.826 49.1663 9.798ZM46.5563 9.078C46.5443 8.43 46.3103 7.914 45.8543 7.53C45.3983 7.134 44.8403 6.936 44.1803 6.936C43.5563 6.936 43.0283 7.128 42.5963 7.512C42.1763 7.884 41.9183 8.406 41.8223 9.078H46.5563ZM54.6467 10.014C54.6467 8.982 54.8567 8.082 55.2767 7.314C55.6967 6.534 56.2787 5.934 57.0227 5.514C57.7667 5.082 58.6187 4.866 59.5787 4.866C60.8147 4.866 61.8347 5.178 62.6387 5.802C63.4547 6.414 64.0007 7.278 64.2767 8.394H61.5587C61.4147 7.962 61.1687 7.626 60.8207 7.386C60.4847 7.134 60.0647 7.008 59.5607 7.008C58.8407 7.008 58.2707 7.272 57.8507 7.8C57.4307 8.316 57.2207 9.054 57.2207 10.014C57.2207 10.962 57.4307 11.7 57.8507 12.228C58.2707 12.744 58.8407 13.002 59.5607 13.002C60.5807 13.002 61.2467 12.546 61.5587 11.634H64.2767C64.0007 12.714 63.4547 13.572 62.6387 14.208C61.8227 14.844 60.8027 15.162 59.5787 15.162C58.6187 15.162 57.7667 14.952 57.0227 14.532C56.2787 14.1 55.6967 13.5 55.2767 12.732C54.8567 11.952 54.6467 11.046 54.6467 10.014ZM70.5509 15.162C69.5909 15.162 68.7269 14.952 67.9589 14.532C67.1909 14.1 66.5849 13.494 66.1409 12.714C65.7089 11.934 65.4929 11.034 65.4929 10.014C65.4929 8.994 65.7149 8.094 66.1589 7.314C66.6149 6.534 67.2329 5.934 68.0129 5.514C68.7929 5.082 69.6629 4.866 70.6229 4.866C71.5829 4.866 72.4529 5.082 73.2329 5.514C74.0129 5.934 74.6249 6.534 75.0689 7.314C75.5249 8.094 75.7529 8.994 75.7529 10.014C75.7529 11.034 75.5189 11.934 75.0509 12.714C74.5949 13.494 73.9709 14.1 73.1789 14.532C72.3989 14.952 71.5229 15.162 70.5509 15.162ZM70.5509 12.966C71.0069 12.966 71.4329 12.858 71.8289 12.642C72.2369 12.414 72.5609 12.078 72.8009 11.634C73.0409 11.19 73.1609 10.65 73.1609 10.014C73.1609 9.066 72.9089 8.34 72.4049 7.836C71.9129 7.32 71.3069 7.062 70.5869 7.062C69.8669 7.062 69.2609 7.32 68.7689 7.836C68.2889 8.34 68.0489 9.066 68.0489 10.014C68.0489 10.962 68.2829 11.694 68.7509 12.21C69.2309 12.714 69.8309 12.966 70.5509 12.966ZM83.1274 4.884C84.3154 4.884 85.2754 5.262 86.0074 6.018C86.7394 6.762 87.1054 7.806 87.1054 9.15V15H84.5854V9.492C84.5854 8.7 84.3874 8.094 83.9914 7.674C83.5954 7.242 83.0554 7.026 82.3714 7.026C81.6754 7.026 81.1234 7.242 80.7154 7.674C80.3194 8.094 80.1214 8.7 80.1214 9.492V15H77.6014V5.028H80.1214V6.27C80.4574 5.838 80.8834 5.502 81.3994 5.262C81.9274 5.01 82.5034 4.884 83.1274 4.884ZM98.7718 9.798C98.7718 10.158 98.7478 10.482 98.6998 10.77H91.4098C91.4698 11.49 91.7218 12.054 92.1658 12.462C92.6098 12.87 93.1558 13.074 93.8038 13.074C94.7398 13.074 95.4058 12.672 95.8018 11.868H98.5198C98.2318 12.828 97.6798 13.62 96.8638 14.244C96.0478 14.856 95.0458 15.162 93.8578 15.162C92.8978 15.162 92.0338 14.952 91.2658 14.532C90.5098 14.1 89.9158 13.494 89.4838 12.714C89.0638 11.934 88.8538 11.034 88.8538 10.014C88.8538 8.982 89.0638 8.076 89.4838 7.296C89.9038 6.516 90.4918 5.916 91.2478 5.496C92.0038 5.076 92.8738 4.866 93.8578 4.866C94.8058 4.866 95.6518 5.07 96.3958 5.478C97.1518 5.886 97.7338 6.468 98.1418 7.224C98.5618 7.968 98.7718 8.826 98.7718 9.798ZM96.1618 9.078C96.1498 8.43 95.9158 7.914 95.4598 7.53C95.0038 7.134 94.4458 6.936 93.7858 6.936C93.1618 6.936 92.6338 7.128 92.2018 7.512C91.7818 7.884 91.5238 8.406 91.4278 9.078H96.1618ZM99.9631 10.014C99.9631 8.982 100.173 8.082 100.593 7.314C101.013 6.534 101.595 5.934 102.339 5.514C103.083 5.082 103.935 4.866 104.895 4.866C106.131 4.866 107.151 5.178 107.955 5.802C108.771 6.414 109.317 7.278 109.593 8.394H106.875C106.731 7.962 106.485 7.626 106.137 7.386C105.801 7.134 105.381 7.008 104.877 7.008C104.157 7.008 103.587 7.272 103.167 7.8C102.747 8.316 102.537 9.054 102.537 10.014C102.537 10.962 102.747 11.7 103.167 12.228C103.587 12.744 104.157 13.002 104.877 13.002C105.897 13.002 106.563 12.546 106.875 11.634H109.593C109.317 12.714 108.771 13.572 107.955 14.208C107.139 14.844 106.119 15.162 104.895 15.162C103.935 15.162 103.083 14.952 102.339 14.532C101.595 14.1 101.013 13.5 100.593 12.732C100.173 11.952 99.9631 11.046 99.9631 10.014ZM114.373 7.098V11.922C114.373 12.258 114.451 12.504 114.607 12.66C114.775 12.804 115.051 12.876 115.435 12.876H116.605V15H115.021C112.897 15 111.835 13.968 111.835 11.904V7.098H110.647V5.028H111.835V2.562H114.373V5.028H116.605V7.098H114.373ZM117.77 9.978C117.77 8.97 117.968 8.076 118.364 7.296C118.772 6.516 119.318 5.916 120.002 5.496C120.698 5.076 121.472 4.866 122.324 4.866C123.068 4.866 123.716 5.016 124.268 5.316C124.832 5.616 125.282 5.994 125.618 6.45V5.028H128.156V15H125.618V13.542C125.294 14.01 124.844 14.4 124.268 14.712C123.704 15.012 123.05 15.162 122.306 15.162C121.466 15.162 120.698 14.946 120.002 14.514C119.318 14.082 118.772 13.476 118.364 12.696C117.968 11.904 117.77 10.998 117.77 9.978ZM125.618 10.014C125.618 9.402 125.498 8.88 125.258 8.448C125.018 8.004 124.694 7.668 124.286 7.44C123.878 7.2 123.44 7.08 122.972 7.08C122.504 7.08 122.072 7.194 121.676 7.422C121.28 7.65 120.956 7.986 120.704 8.43C120.464 8.862 120.344 9.378 120.344 9.978C120.344 10.578 120.464 11.106 120.704 11.562C120.956 12.006 121.28 12.348 121.676 12.588C122.084 12.828 122.516 12.948 122.972 12.948C123.44 12.948 123.878 12.834 124.286 12.606C124.694 12.366 125.018 12.03 125.258 11.598C125.498 11.154 125.618 10.626 125.618 10.014ZM129.969 9.978C129.969 8.97 130.167 8.076 130.563 7.296C130.971 6.516 131.523 5.916 132.219 5.496C132.915 5.076 133.689 4.866 134.541 4.866C135.189 4.866 135.807 5.01 136.395 5.298C136.983 5.574 137.451 5.946 137.799 6.414V1.68H140.355V15H137.799V13.524C137.487 14.016 137.049 14.412 136.485 14.712C135.921 15.012 135.267 15.162 134.523 15.162C133.683 15.162 132.915 14.946 132.219 14.514C131.523 14.082 130.971 13.476 130.563 12.696C130.167 11.904 129.969 10.998 129.969 9.978ZM137.817 10.014C137.817 9.402 137.697 8.88 137.457 8.448C137.217 8.004 136.893 7.668 136.485 7.44C136.077 7.2 135.639 7.08 135.171 7.08C134.703 7.08 134.271 7.194 133.875 7.422C133.479 7.65 133.155 7.986 132.903 8.43C132.663 8.862 132.543 9.378 132.543 9.978C132.543 10.578 132.663 11.106 132.903 11.562C133.155 12.006 133.479 12.348 133.875 12.588C134.283 12.828 134.715 12.948 135.171 12.948C135.639 12.948 136.077 12.834 136.485 12.606C136.893 12.366 137.217 12.03 137.457 11.598C137.697 11.154 137.817 10.626 137.817 10.014ZM147.244 15.162C146.284 15.162 145.42 14.952 144.652 14.532C143.884 14.1 143.278 13.494 142.834 12.714C142.402 11.934 142.186 11.034 142.186 10.014C142.186 8.994 142.408 8.094 142.852 7.314C143.308 6.534 143.926 5.934 144.706 5.514C145.486 5.082 146.356 4.866 147.316 4.866C148.276 4.866 149.146 5.082 149.926 5.514C150.706 5.934 151.318 6.534 151.762 7.314C152.218 8.094 152.446 8.994 152.446 10.014C152.446 11.034 152.212 11.934 151.744 12.714C151.288 13.494 150.664 14.1 149.872 14.532C149.092 14.952 148.216 15.162 147.244 15.162ZM147.244 12.966C147.7 12.966 148.126 12.858 148.522 12.642C148.93 12.414 149.254 12.078 149.494 11.634C149.734 11.19 149.854 10.65 149.854 10.014C149.854 9.066 149.602 8.34 149.098 7.836C148.606 7.32 148 7.062 147.28 7.062C146.56 7.062 145.954 7.32 145.462 7.836C144.982 8.34 144.742 9.066 144.742 10.014C144.742 10.962 144.976 11.694 145.444 12.21C145.924 12.714 146.524 12.966 147.244 12.966ZM164.11 4.884C165.298 4.884 166.258 5.262 166.99 6.018C167.722 6.762 168.088 7.806 168.088 9.15V15H165.568V9.492C165.568 8.7 165.37 8.094 164.974 7.674C164.578 7.242 164.038 7.026 163.354 7.026C162.658 7.026 162.106 7.242 161.698 7.674C161.302 8.094 161.104 8.7 161.104 9.492V15H158.584V5.028H161.104V6.27C161.44 5.838 161.866 5.502 162.382 5.262C162.91 5.01 163.486 4.884 164.11 4.884ZM174.912 15.162C173.952 15.162 173.088 14.952 172.32 14.532C171.552 14.1 170.946 13.494 170.502 12.714C170.07 11.934 169.854 11.034 169.854 10.014C169.854 8.994 170.076 8.094 170.52 7.314C170.976 6.534 171.594 5.934 172.374 5.514C173.154 5.082 174.024 4.866 174.984 4.866C175.944 4.866 176.814 5.082 177.594 5.514C178.374 5.934 178.986 6.534 179.43 7.314C179.886 8.094 180.114 8.994 180.114 10.014C180.114 11.034 179.88 11.934 179.412 12.714C178.956 13.494 178.332 14.1 177.54 14.532C176.76 14.952 175.884 15.162 174.912 15.162ZM174.912 12.966C175.368 12.966 175.794 12.858 176.19 12.642C176.598 12.414 176.922 12.078 177.162 11.634C177.402 11.19 177.522 10.65 177.522 10.014C177.522 9.066 177.27 8.34 176.766 7.836C176.274 7.32 175.668 7.062 174.948 7.062C174.228 7.062 173.622 7.32 173.13 7.836C172.65 8.34 172.41 9.066 172.41 10.014C172.41 10.962 172.644 11.694 173.112 12.21C173.592 12.714 174.192 12.966 174.912 12.966ZM198.636 4.884C199.86 4.884 200.844 5.262 201.588 6.018C202.344 6.762 202.722 7.806 202.722 9.15V15H200.202V9.492C200.202 8.712 200.004 8.118 199.608 7.71C199.212 7.29 198.672 7.08 197.988 7.08C197.304 7.08 196.758 7.29 196.35 7.71C195.954 8.118 195.756 8.712 195.756 9.492V15H193.236V9.492C193.236 8.712 193.038 8.118 192.642 7.71C192.246 7.29 191.706 7.08 191.022 7.08C190.326 7.08 189.774 7.29 189.366 7.71C188.97 8.118 188.772 8.712 188.772 9.492V15H186.252V5.028H188.772V6.234C189.096 5.814 189.51 5.484 190.014 5.244C190.53 5.004 191.094 4.884 191.706 4.884C192.486 4.884 193.182 5.052 193.794 5.388C194.406 5.712 194.88 6.18 195.216 6.792C195.54 6.216 196.008 5.754 196.62 5.406C197.244 5.058 197.916 4.884 198.636 4.884ZM214.527 5.028V15H211.989V13.74C211.665 14.172 211.239 14.514 210.711 14.766C210.195 15.006 209.631 15.126 209.019 15.126C208.239 15.126 207.549 14.964 206.949 14.64C206.349 14.304 205.875 13.818 205.527 13.182C205.191 12.534 205.023 11.766 205.023 10.878V5.028H207.543V10.518C207.543 11.31 207.741 11.922 208.137 12.354C208.533 12.774 209.073 12.984 209.757 12.984C210.453 12.984 210.999 12.774 211.395 12.354C211.791 11.922 211.989 11.31 211.989 10.518V5.028H214.527ZM222.539 4.884C223.727 4.884 224.687 5.262 225.419 6.018C226.151 6.762 226.517 7.806 226.517 9.15V15H223.997V9.492C223.997 8.7 223.799 8.094 223.403 7.674C223.007 7.242 222.467 7.026 221.783 7.026C221.087 7.026 220.535 7.242 220.127 7.674C219.731 8.094 219.533 8.7 219.533 9.492V15H217.013V5.028H219.533V6.27C219.869 5.838 220.295 5.502 220.811 5.262C221.339 5.01 221.915 4.884 222.539 4.884ZM228.266 9.978C228.266 8.97 228.464 8.076 228.86 7.296C229.268 6.516 229.82 5.916 230.516 5.496C231.212 5.076 231.986 4.866 232.838 4.866C233.486 4.866 234.104 5.01 234.692 5.298C235.28 5.574 235.748 5.946 236.096 6.414V1.68H238.652V15H236.096V13.524C235.784 14.016 235.346 14.412 234.782 14.712C234.218 15.012 233.564 15.162 232.82 15.162C231.98 15.162 231.212 14.946 230.516 14.514C229.82 14.082 229.268 13.476 228.86 12.696C228.464 11.904 228.266 10.998 228.266 9.978ZM236.114 10.014C236.114 9.402 235.994 8.88 235.754 8.448C235.514 8.004 235.19 7.668 234.782 7.44C234.374 7.2 233.936 7.08 233.468 7.08C233 7.08 232.568 7.194 232.172 7.422C231.776 7.65 231.452 7.986 231.2 8.43C230.96 8.862 230.84 9.378 230.84 9.978C230.84 10.578 230.96 11.106 231.2 11.562C231.452 12.006 231.776 12.348 232.172 12.588C232.58 12.828 233.012 12.948 233.468 12.948C233.936 12.948 234.374 12.834 234.782 12.606C235.19 12.366 235.514 12.03 235.754 11.598C235.994 11.154 236.114 10.626 236.114 10.014ZM245.541 15.162C244.581 15.162 243.717 14.952 242.949 14.532C242.181 14.1 241.575 13.494 241.131 12.714C240.699 11.934 240.483 11.034 240.483 10.014C240.483 8.994 240.705 8.094 241.149 7.314C241.605 6.534 242.223 5.934 243.003 5.514C243.783 5.082 244.653 4.866 245.613 4.866C246.573 4.866 247.443 5.082 248.223 5.514C249.003 5.934 249.615 6.534 250.059 7.314C250.515 8.094 250.743 8.994 250.743 10.014C250.743 11.034 250.509 11.934 250.041 12.714C249.585 13.494 248.961 14.1 248.169 14.532C247.389 14.952 246.513 15.162 245.541 15.162ZM245.541 12.966C245.997 12.966 246.423 12.858 246.819 12.642C247.227 12.414 247.551 12.078 247.791 11.634C248.031 11.19 248.151 10.65 248.151 10.014C248.151 9.066 247.899 8.34 247.395 7.836C246.903 7.32 246.297 7.062 245.577 7.062C244.857 7.062 244.251 7.32 243.759 7.836C243.279 8.34 243.039 9.066 243.039 10.014C243.039 10.962 243.273 11.694 243.741 12.21C244.221 12.714 244.821 12.966 245.541 12.966ZM259.815 7.098V11.922C259.815 12.258 259.893 12.504 260.049 12.66C260.217 12.804 260.493 12.876 260.877 12.876H262.047V15H260.463C258.339 15 257.277 13.968 257.277 11.904V7.098H256.089V5.028H257.277V2.562H259.815V5.028H262.047V7.098H259.815ZM268.287 15.162C267.327 15.162 266.463 14.952 265.695 14.532C264.927 14.1 264.321 13.494 263.877 12.714C263.445 11.934 263.229 11.034 263.229 10.014C263.229 8.994 263.451 8.094 263.895 7.314C264.351 6.534 264.969 5.934 265.749 5.514C266.529 5.082 267.399 4.866 268.359 4.866C269.319 4.866 270.189 5.082 270.969 5.514C271.749 5.934 272.361 6.534 272.805 7.314C273.261 8.094 273.489 8.994 273.489 10.014C273.489 11.034 273.255 11.934 272.787 12.714C272.331 13.494 271.707 14.1 270.915 14.532C270.135 14.952 269.259 15.162 268.287 15.162ZM268.287 12.966C268.743 12.966 269.169 12.858 269.565 12.642C269.973 12.414 270.297 12.078 270.537 11.634C270.777 11.19 270.897 10.65 270.897 10.014C270.897 9.066 270.645 8.34 270.141 7.836C269.649 7.32 269.043 7.062 268.323 7.062C267.603 7.062 266.997 7.32 266.505 7.836C266.025 8.34 265.785 9.066 265.785 10.014C265.785 10.962 266.019 11.694 266.487 12.21C266.967 12.714 267.567 12.966 268.287 12.966ZM274.69 9.978C274.69 8.97 274.888 8.076 275.284 7.296C275.692 6.516 276.244 5.916 276.94 5.496C277.636 5.076 278.41 4.866 279.262 4.866C279.91 4.866 280.528 5.01 281.116 5.298C281.704 5.574 282.172 5.946 282.52 6.414V1.68H285.076V15H282.52V13.524C282.208 14.016 281.77 14.412 281.206 14.712C280.642 15.012 279.988 15.162 279.244 15.162C278.404 15.162 277.636 14.946 276.94 14.514C276.244 14.082 275.692 13.476 275.284 12.696C274.888 11.904 274.69 10.998 274.69 9.978ZM282.538 10.014C282.538 9.402 282.418 8.88 282.178 8.448C281.938 8.004 281.614 7.668 281.206 7.44C280.798 7.2 280.36 7.08 279.892 7.08C279.424 7.08 278.992 7.194 278.596 7.422C278.2 7.65 277.876 7.986 277.624 8.43C277.384 8.862 277.264 9.378 277.264 9.978C277.264 10.578 277.384 11.106 277.624 11.562C277.876 12.006 278.2 12.348 278.596 12.588C279.004 12.828 279.436 12.948 279.892 12.948C280.36 12.948 280.798 12.834 281.206 12.606C281.614 12.366 281.938 12.03 282.178 11.598C282.418 11.154 282.538 10.626 282.538 10.014ZM291.965 15.162C291.005 15.162 290.141 14.952 289.373 14.532C288.605 14.1 287.999 13.494 287.555 12.714C287.123 11.934 286.907 11.034 286.907 10.014C286.907 8.994 287.129 8.094 287.573 7.314C288.029 6.534 288.647 5.934 289.427 5.514C290.207 5.082 291.077 4.866 292.037 4.866C292.997 4.866 293.867 5.082 294.647 5.514C295.427 5.934 296.039 6.534 296.483 7.314C296.939 8.094 297.167 8.994 297.167 10.014C297.167 11.034 296.933 11.934 296.465 12.714C296.009 13.494 295.385 14.1 294.593 14.532C293.813 14.952 292.937 15.162 291.965 15.162ZM291.965 12.966C292.421 12.966 292.847 12.858 293.243 12.642C293.651 12.414 293.975 12.078 294.215 11.634C294.455 11.19 294.575 10.65 294.575 10.014C294.575 9.066 294.323 8.34 293.819 7.836C293.327 7.32 292.721 7.062 292.001 7.062C291.281 7.062 290.675 7.32 290.183 7.836C289.703 8.34 289.463 9.066 289.463 10.014C289.463 10.962 289.697 11.694 290.165 12.21C290.645 12.714 291.245 12.966 291.965 12.966ZM302.656 10.014C302.656 8.982 302.867 8.082 303.287 7.314C303.707 6.534 304.289 5.934 305.033 5.514C305.777 5.082 306.629 4.866 307.589 4.866C308.825 4.866 309.845 5.178 310.649 5.802C311.465 6.414 312.011 7.278 312.287 8.394H309.569C309.425 7.962 309.179 7.626 308.831 7.386C308.495 7.134 308.075 7.008 307.571 7.008C306.851 7.008 306.281 7.272 305.861 7.8C305.441 8.316 305.231 9.054 305.231 10.014C305.231 10.962 305.441 11.7 305.861 12.228C306.281 12.744 306.851 13.002 307.571 13.002C308.591 13.002 309.257 12.546 309.569 11.634H312.287C312.011 12.714 311.465 13.572 310.649 14.208C309.833 14.844 308.813 15.162 307.589 15.162C306.629 15.162 305.777 14.952 305.033 14.532C304.289 14.1 303.707 13.5 303.287 12.732C302.867 11.952 302.656 11.046 302.656 10.014ZM318.561 15.162C317.601 15.162 316.737 14.952 315.969 14.532C315.201 14.1 314.595 13.494 314.151 12.714C313.719 11.934 313.503 11.034 313.503 10.014C313.503 8.994 313.725 8.094 314.169 7.314C314.625 6.534 315.243 5.934 316.023 5.514C316.803 5.082 317.673 4.866 318.633 4.866C319.593 4.866 320.463 5.082 321.243 5.514C322.023 5.934 322.635 6.534 323.079 7.314C323.535 8.094 323.763 8.994 323.763 10.014C323.763 11.034 323.529 11.934 323.061 12.714C322.605 13.494 321.981 14.1 321.189 14.532C320.409 14.952 319.533 15.162 318.561 15.162ZM318.561 12.966C319.017 12.966 319.443 12.858 319.839 12.642C320.247 12.414 320.571 12.078 320.811 11.634C321.051 11.19 321.171 10.65 321.171 10.014C321.171 9.066 320.919 8.34 320.415 7.836C319.923 7.32 319.317 7.062 318.597 7.062C317.877 7.062 317.271 7.32 316.779 7.836C316.299 8.34 316.059 9.066 316.059 10.014C316.059 10.962 316.293 11.694 316.761 12.21C317.241 12.714 317.841 12.966 318.561 12.966ZM337.995 4.884C339.219 4.884 340.203 5.262 340.947 6.018C341.703 6.762 342.081 7.806 342.081 9.15V15H339.561V9.492C339.561 8.712 339.363 8.118 338.967 7.71C338.571 7.29 338.031 7.08 337.347 7.08C336.663 7.08 336.117 7.29 335.709 7.71C335.313 8.118 335.115 8.712 335.115 9.492V15H332.595V9.492C332.595 8.712 332.397 8.118 332.001 7.71C331.605 7.29 331.065 7.08 330.381 7.08C329.685 7.08 329.133 7.29 328.725 7.71C328.329 8.118 328.131 8.712 328.131 9.492V15H325.611V5.028H328.131V6.234C328.455 5.814 328.869 5.484 329.373 5.244C329.889 5.004 330.453 4.884 331.065 4.884C331.845 4.884 332.541 5.052 333.153 5.388C333.765 5.712 334.239 6.18 334.575 6.792C334.899 6.216 335.367 5.754 335.979 5.406C336.603 5.058 337.275 4.884 337.995 4.884ZM353.19 15.162C352.23 15.162 351.366 14.952 350.598 14.532C349.83 14.1 349.224 13.494 348.78 12.714C348.348 11.934 348.132 11.034 348.132 10.014C348.132 8.994 348.354 8.094 348.798 7.314C349.254 6.534 349.872 5.934 350.652 5.514C351.432 5.082 352.302 4.866 353.262 4.866C354.222 4.866 355.092 5.082 355.872 5.514C356.652 5.934 357.264 6.534 357.708 7.314C358.164 8.094 358.392 8.994 358.392 10.014C358.392 11.034 358.158 11.934 357.69 12.714C357.234 13.494 356.61 14.1 355.818 14.532C355.038 14.952 354.162 15.162 353.19 15.162ZM353.19 12.966C353.646 12.966 354.072 12.858 354.468 12.642C354.876 12.414 355.2 12.078 355.44 11.634C355.68 11.19 355.8 10.65 355.8 10.014C355.8 9.066 355.548 8.34 355.044 7.836C354.552 7.32 353.946 7.062 353.226 7.062C352.506 7.062 351.9 7.32 351.408 7.836C350.928 8.34 350.688 9.066 350.688 10.014C350.688 10.962 350.922 11.694 351.39 12.21C351.87 12.714 352.47 12.966 353.19 12.966ZM0.594 37.014C0.594 35.982 0.804 35.082 1.224 34.314C1.644 33.534 2.226 32.934 2.97 32.514C3.714 32.082 4.566 31.866 5.526 31.866C6.762 31.866 7.782 32.178 8.586 32.802C9.402 33.414 9.948 34.278 10.224 35.394H7.506C7.362 34.962 7.116 34.626 6.768 34.386C6.432 34.134 6.012 34.008 5.508 34.008C4.788 34.008 4.218 34.272 3.798 34.8C3.378 35.316 3.168 36.054 3.168 37.014C3.168 37.962 3.378 38.7 3.798 39.228C4.218 39.744 4.788 40.002 5.508 40.002C6.528 40.002 7.194 39.546 7.506 38.634H10.224C9.948 39.714 9.402 40.572 8.586 41.208C7.77 41.844 6.75 42.162 5.526 42.162C4.566 42.162 3.714 41.952 2.97 41.532C2.226 41.1 1.644 40.5 1.224 39.732C0.804 38.952 0.594 38.046 0.594 37.014ZM17.6861 31.884C18.4421 31.884 19.1141 32.052 19.7021 32.388C20.2901 32.712 20.7461 33.198 21.0701 33.846C21.4061 34.482 21.5741 35.25 21.5741 36.15V42H19.0541V36.492C19.0541 35.7 18.8561 35.094 18.4601 34.674C18.0641 34.242 17.5241 34.026 16.8401 34.026C16.1441 34.026 15.5921 34.242 15.1841 34.674C14.7881 35.094 14.5901 35.7 14.5901 36.492V42H12.0701V28.68H14.5901V33.27C14.9141 32.838 15.3461 32.502 15.8861 32.262C16.4261 32.01 17.0261 31.884 17.6861 31.884ZM25.2485 30.84C24.8045 30.84 24.4325 30.702 24.1325 30.426C23.8445 30.138 23.7005 29.784 23.7005 29.364C23.7005 28.944 23.8445 28.596 24.1325 28.32C24.4325 28.032 24.8045 27.888 25.2485 27.888C25.6925 27.888 26.0585 28.032 26.3465 28.32C26.6465 28.596 26.7965 28.944 26.7965 29.364C26.7965 29.784 26.6465 30.138 26.3465 30.426C26.0585 30.702 25.6925 30.84 25.2485 30.84ZM26.4905 32.028V42H23.9705V32.028H26.4905ZM31.5003 33.468C31.8243 33.012 32.2683 32.634 32.8323 32.334C33.4083 32.022 34.0623 31.866 34.7943 31.866C35.6463 31.866 36.4143 32.076 37.0983 32.496C37.7943 32.916 38.3403 33.516 38.7363 34.296C39.1443 35.064 39.3483 35.958 39.3483 36.978C39.3483 37.998 39.1443 38.904 38.7363 39.696C38.3403 40.476 37.7943 41.082 37.0983 41.514C36.4143 41.946 35.6463 42.162 34.7943 42.162C34.0623 42.162 33.4143 42.012 32.8503 41.712C32.2983 41.412 31.8483 41.034 31.5003 40.578V46.752H28.9803V32.028H31.5003V33.468ZM36.7743 36.978C36.7743 36.378 36.6483 35.862 36.3963 35.43C36.1563 34.986 35.8323 34.65 35.4243 34.422C35.0283 34.194 34.5963 34.08 34.1283 34.08C33.6723 34.08 33.2403 34.2 32.8323 34.44C32.4363 34.668 32.1123 35.004 31.8603 35.448C31.6203 35.892 31.5003 36.414 31.5003 37.014C31.5003 37.614 31.6203 38.136 31.8603 38.58C32.1123 39.024 32.4363 39.366 32.8323 39.606C33.2403 39.834 33.6723 39.948 34.1283 39.948C34.5963 39.948 35.0283 39.828 35.4243 39.588C35.8323 39.348 36.1563 39.006 36.3963 38.562C36.6483 38.118 36.7743 37.59 36.7743 36.978ZM46.7466 30.84C46.3026 30.84 45.9306 30.702 45.6306 30.426C45.3426 30.138 45.1986 29.784 45.1986 29.364C45.1986 28.944 45.3426 28.596 45.6306 28.32C45.9306 28.032 46.3026 27.888 46.7466 27.888C47.1906 27.888 47.5566 28.032 47.8446 28.32C48.1446 28.596 48.2946 28.944 48.2946 29.364C48.2946 29.784 48.1446 30.138 47.8446 30.426C47.5566 30.702 47.1906 30.84 46.7466 30.84ZM47.9886 32.028V42H45.4686V32.028H47.9886ZM56.0043 31.884C57.1923 31.884 58.1523 32.262 58.8843 33.018C59.6163 33.762 59.9823 34.806 59.9823 36.15V42H57.4623V36.492C57.4623 35.7 57.2643 35.094 56.8683 34.674C56.4723 34.242 55.9323 34.026 55.2483 34.026C54.5523 34.026 54.0003 34.242 53.5923 34.674C53.1963 35.094 52.9983 35.7 52.9983 36.492V42H50.4783V32.028H52.9983V33.27C53.3343 32.838 53.7603 32.502 54.2763 32.262C54.8043 32.01 55.3803 31.884 56.0043 31.884ZM65.3127 34.098V38.922C65.3127 39.258 65.3907 39.504 65.5467 39.66C65.7147 39.804 65.9907 39.876 66.3747 39.876H67.5447V42H65.9607C63.8367 42 62.7747 40.968 62.7747 38.904V34.098H61.5867V32.028H62.7747V29.562H65.3127V32.028H67.5447V34.098H65.3127ZM78.6272 36.798C78.6272 37.158 78.6032 37.482 78.5552 37.77H71.2652C71.3252 38.49 71.5772 39.054 72.0212 39.462C72.4652 39.87 73.0112 40.074 73.6592 40.074C74.5952 40.074 75.2612 39.672 75.6572 38.868H78.3752C78.0872 39.828 77.5352 40.62 76.7192 41.244C75.9032 41.856 74.9012 42.162 73.7132 42.162C72.7532 42.162 71.8892 41.952 71.1212 41.532C70.3652 41.1 69.7712 40.494 69.3392 39.714C68.9192 38.934 68.7092 38.034 68.7092 37.014C68.7092 35.982 68.9192 35.076 69.3392 34.296C69.7592 33.516 70.3472 32.916 71.1032 32.496C71.8592 32.076 72.7292 31.866 73.7132 31.866C74.6612 31.866 75.5072 32.07 76.2512 32.478C77.0072 32.886 77.5892 33.468 77.9972 34.224C78.4172 34.968 78.6272 35.826 78.6272 36.798ZM76.0172 36.078C76.0052 35.43 75.7712 34.914 75.3152 34.53C74.8592 34.134 74.3012 33.936 73.6412 33.936C73.0172 33.936 72.4892 34.128 72.0572 34.512C71.6372 34.884 71.3792 35.406 71.2832 36.078H76.0172ZM82.9866 33.576C83.3106 33.048 83.7306 32.634 84.2466 32.334C84.7746 32.034 85.3746 31.884 86.0466 31.884V34.53H85.3806C84.5886 34.53 83.9886 34.716 83.5806 35.088C83.1846 35.46 82.9866 36.108 82.9866 37.032V42H80.4666V32.028H82.9866V33.576ZM93.27 31.884C94.458 31.884 95.418 32.262 96.15 33.018C96.882 33.762 97.248 34.806 97.248 36.15V42H94.728V36.492C94.728 35.7 94.53 35.094 94.134 34.674C93.738 34.242 93.198 34.026 92.514 34.026C91.818 34.026 91.266 34.242 90.858 34.674C90.462 35.094 90.264 35.7 90.264 36.492V42H87.744V32.028H90.264V33.27C90.6 32.838 91.026 32.502 91.542 32.262C92.07 32.01 92.646 31.884 93.27 31.884ZM98.9963 36.978C98.9963 35.97 99.1943 35.076 99.5903 34.296C99.9983 33.516 100.544 32.916 101.228 32.496C101.924 32.076 102.698 31.866 103.55 31.866C104.294 31.866 104.942 32.016 105.494 32.316C106.058 32.616 106.508 32.994 106.844 33.45V32.028H109.382V42H106.844V40.542C106.52 41.01 106.07 41.4 105.494 41.712C104.93 42.012 104.276 42.162 103.532 42.162C102.692 42.162 101.924 41.946 101.228 41.514C100.544 41.082 99.9983 40.476 99.5903 39.696C99.1943 38.904 98.9963 37.998 98.9963 36.978ZM106.844 37.014C106.844 36.402 106.724 35.88 106.484 35.448C106.244 35.004 105.92 34.668 105.512 34.44C105.104 34.2 104.666 34.08 104.198 34.08C103.73 34.08 103.298 34.194 102.902 34.422C102.506 34.65 102.182 34.986 101.93 35.43C101.69 35.862 101.57 36.378 101.57 36.978C101.57 37.578 101.69 38.106 101.93 38.562C102.182 39.006 102.506 39.348 102.902 39.588C103.31 39.828 103.742 39.948 104.198 39.948C104.666 39.948 105.104 39.834 105.512 39.606C105.92 39.366 106.244 39.03 106.484 38.598C106.724 38.154 106.844 37.626 106.844 37.014ZM111.196 37.014C111.196 35.982 111.406 35.082 111.826 34.314C112.246 33.534 112.828 32.934 113.572 32.514C114.316 32.082 115.168 31.866 116.128 31.866C117.364 31.866 118.384 32.178 119.188 32.802C120.004 33.414 120.55 34.278 120.826 35.394H118.108C117.964 34.962 117.718 34.626 117.37 34.386C117.034 34.134 116.614 34.008 116.11 34.008C115.39 34.008 114.82 34.272 114.4 34.8C113.98 35.316 113.77 36.054 113.77 37.014C113.77 37.962 113.98 38.7 114.4 39.228C114.82 39.744 115.39 40.002 116.11 40.002C117.13 40.002 117.796 39.546 118.108 38.634H120.826C120.55 39.714 120.004 40.572 119.188 41.208C118.372 41.844 117.352 42.162 116.128 42.162C115.168 42.162 114.316 41.952 113.572 41.532C112.828 41.1 112.246 40.5 111.826 39.732C111.406 38.952 111.196 38.046 111.196 37.014ZM123.95 30.84C123.506 30.84 123.134 30.702 122.834 30.426C122.546 30.138 122.402 29.784 122.402 29.364C122.402 28.944 122.546 28.596 122.834 28.32C123.134 28.032 123.506 27.888 123.95 27.888C124.394 27.888 124.76 28.032 125.048 28.32C125.348 28.596 125.498 28.944 125.498 29.364C125.498 29.784 125.348 30.138 125.048 30.426C124.76 30.702 124.394 30.84 123.95 30.84ZM125.192 32.028V42H122.672V32.028H125.192ZM132.109 42.162C131.149 42.162 130.285 41.952 129.517 41.532C128.749 41.1 128.143 40.494 127.699 39.714C127.267 38.934 127.051 38.034 127.051 37.014C127.051 35.994 127.273 35.094 127.717 34.314C128.173 33.534 128.791 32.934 129.571 32.514C130.351 32.082 131.221 31.866 132.181 31.866C133.141 31.866 134.011 32.082 134.791 32.514C135.571 32.934 136.183 33.534 136.627 34.314C137.083 35.094 137.311 35.994 137.311 37.014C137.311 38.034 137.077 38.934 136.609 39.714C136.153 40.494 135.529 41.1 134.737 41.532C133.957 41.952 133.081 42.162 132.109 42.162ZM132.109 39.966C132.565 39.966 132.991 39.858 133.387 39.642C133.795 39.414 134.119 39.078 134.359 38.634C134.599 38.19 134.719 37.65 134.719 37.014C134.719 36.066 134.467 35.34 133.963 34.836C133.471 34.32 132.865 34.062 132.145 34.062C131.425 34.062 130.819 34.32 130.327 34.836C129.847 35.34 129.607 36.066 129.607 37.014C129.607 37.962 129.841 38.694 130.309 39.21C130.789 39.714 131.389 39.966 132.109 39.966ZM144.686 31.884C145.874 31.884 146.834 32.262 147.566 33.018C148.298 33.762 148.664 34.806 148.664 36.15V42H146.144V36.492C146.144 35.7 145.946 35.094 145.55 34.674C145.154 34.242 144.614 34.026 143.93 34.026C143.234 34.026 142.682 34.242 142.274 34.674C141.878 35.094 141.68 35.7 141.68 36.492V42H139.16V32.028H141.68V33.27C142.016 32.838 142.442 32.502 142.958 32.262C143.486 32.01 144.062 31.884 144.686 31.884ZM150.412 36.978C150.412 35.97 150.61 35.076 151.006 34.296C151.414 33.516 151.96 32.916 152.644 32.496C153.34 32.076 154.114 31.866 154.966 31.866C155.71 31.866 156.358 32.016 156.91 32.316C157.474 32.616 157.924 32.994 158.26 33.45V32.028H160.798V42H158.26V40.542C157.936 41.01 157.486 41.4 156.91 41.712C156.346 42.012 155.692 42.162 154.948 42.162C154.108 42.162 153.34 41.946 152.644 41.514C151.96 41.082 151.414 40.476 151.006 39.696C150.61 38.904 150.412 37.998 150.412 36.978ZM158.26 37.014C158.26 36.402 158.14 35.88 157.9 35.448C157.66 35.004 157.336 34.668 156.928 34.44C156.52 34.2 156.082 34.08 155.614 34.08C155.146 34.08 154.714 34.194 154.318 34.422C153.922 34.65 153.598 34.986 153.346 35.43C153.106 35.862 152.986 36.378 152.986 36.978C152.986 37.578 153.106 38.106 153.346 38.562C153.598 39.006 153.922 39.348 154.318 39.588C154.726 39.828 155.158 39.948 155.614 39.948C156.082 39.948 156.52 39.834 156.928 39.606C157.336 39.366 157.66 39.03 157.9 38.598C158.14 38.154 158.26 37.626 158.26 37.014ZM165.78 28.68V42H163.26V28.68H165.78Z" fill="white"/>
<path d="M184.942 31.884C186.166 31.884 187.15 32.262 187.894 33.018C188.65 33.762 189.028 34.806 189.028 36.15V42H186.508V36.492C186.508 35.712 186.31 35.118 185.914 34.71C185.518 34.29 184.978 34.08 184.294 34.08C183.61 34.08 183.064 34.29 182.656 34.71C182.26 35.118 182.062 35.712 182.062 36.492V42H179.542V36.492C179.542 35.712 179.344 35.118 178.948 34.71C178.552 34.29 178.012 34.08 177.328 34.08C176.632 34.08 176.08 34.29 175.672 34.71C175.276 35.118 175.078 35.712 175.078 36.492V42H172.558V32.028H175.078V33.234C175.402 32.814 175.816 32.484 176.32 32.244C176.836 32.004 177.4 31.884 178.012 31.884C178.792 31.884 179.488 32.052 180.1 32.388C180.712 32.712 181.186 33.18 181.522 33.792C181.846 33.216 182.314 32.754 182.926 32.406C183.55 32.058 184.222 31.884 184.942 31.884ZM200.96 32.028L194.786 46.716H192.104L194.264 41.748L190.268 32.028H193.094L195.668 38.994L198.278 32.028H200.96ZM206.134 42.162C205.318 42.162 204.586 42.018 203.938 41.73C203.29 41.43 202.774 41.028 202.39 40.524C202.018 40.02 201.814 39.462 201.778 38.85H204.316C204.364 39.234 204.55 39.552 204.874 39.804C205.21 40.056 205.624 40.182 206.116 40.182C206.596 40.182 206.968 40.086 207.232 39.894C207.508 39.702 207.646 39.456 207.646 39.156C207.646 38.832 207.478 38.592 207.142 38.436C206.818 38.268 206.296 38.088 205.576 37.896C204.832 37.716 204.22 37.53 203.74 37.338C203.272 37.146 202.864 36.852 202.516 36.456C202.18 36.06 202.012 35.526 202.012 34.854C202.012 34.302 202.168 33.798 202.48 33.342C202.804 32.886 203.26 32.526 203.848 32.262C204.448 31.998 205.15 31.866 205.954 31.866C207.142 31.866 208.09 32.166 208.798 32.766C209.506 33.354 209.896 34.152 209.968 35.16H207.556C207.52 34.764 207.352 34.452 207.052 34.224C206.764 33.984 206.374 33.864 205.882 33.864C205.426 33.864 205.072 33.948 204.82 34.116C204.58 34.284 204.46 34.518 204.46 34.818C204.46 35.154 204.628 35.412 204.964 35.592C205.3 35.76 205.822 35.934 206.53 36.114C207.25 36.294 207.844 36.48 208.312 36.672C208.78 36.864 209.182 37.164 209.518 37.572C209.866 37.968 210.046 38.496 210.058 39.156C210.058 39.732 209.896 40.248 209.572 40.704C209.26 41.16 208.804 41.52 208.204 41.784C207.616 42.036 206.926 42.162 206.134 42.162ZM213.405 30.84C212.961 30.84 212.589 30.702 212.289 30.426C212.001 30.138 211.857 29.784 211.857 29.364C211.857 28.944 212.001 28.596 212.289 28.32C212.589 28.032 212.961 27.888 213.405 27.888C213.849 27.888 214.215 28.032 214.503 28.32C214.803 28.596 214.953 28.944 214.953 29.364C214.953 29.784 214.803 30.138 214.503 30.426C214.215 30.702 213.849 30.84 213.405 30.84ZM214.647 32.028V42H212.127V32.028H214.647ZM229.521 31.884C230.745 31.884 231.729 32.262 232.473 33.018C233.229 33.762 233.607 34.806 233.607 36.15V42H231.087V36.492C231.087 35.712 230.889 35.118 230.493 34.71C230.097 34.29 229.557 34.08 228.873 34.08C228.189 34.08 227.643 34.29 227.235 34.71C226.839 35.118 226.641 35.712 226.641 36.492V42H224.121V36.492C224.121 35.712 223.923 35.118 223.527 34.71C223.131 34.29 222.591 34.08 221.907 34.08C221.211 34.08 220.659 34.29 220.251 34.71C219.855 35.118 219.657 35.712 219.657 36.492V42H217.137V32.028H219.657V33.234C219.981 32.814 220.395 32.484 220.899 32.244C221.415 32.004 221.979 31.884 222.591 31.884C223.371 31.884 224.067 32.052 224.679 32.388C225.291 32.712 225.765 33.18 226.101 33.792C226.425 33.216 226.893 32.754 227.505 32.406C228.129 32.058 228.801 31.884 229.521 31.884ZM238.932 34.098V38.922C238.932 39.258 239.01 39.504 239.166 39.66C239.334 39.804 239.61 39.876 239.994 39.876H241.164V42H239.58C237.456 42 236.394 40.968 236.394 38.904V34.098H235.206V32.028H236.394V29.562H238.932V32.028H241.164V34.098H238.932ZM245.496 33.576C245.82 33.048 246.24 32.634 246.756 32.334C247.284 32.034 247.884 31.884 248.556 31.884V34.53H247.89C247.098 34.53 246.498 34.716 246.09 35.088C245.694 35.46 245.496 36.108 245.496 37.032V42H242.976V32.028H245.496V33.576ZM249.606 36.978C249.606 35.97 249.804 35.076 250.2 34.296C250.608 33.516 251.154 32.916 251.838 32.496C252.534 32.076 253.308 31.866 254.16 31.866C254.904 31.866 255.552 32.016 256.104 32.316C256.668 32.616 257.118 32.994 257.454 33.45V32.028H259.992V42H257.454V40.542C257.13 41.01 256.68 41.4 256.104 41.712C255.54 42.012 254.886 42.162 254.142 42.162C253.302 42.162 252.534 41.946 251.838 41.514C251.154 41.082 250.608 40.476 250.2 39.696C249.804 38.904 249.606 37.998 249.606 36.978ZM257.454 37.014C257.454 36.402 257.334 35.88 257.094 35.448C256.854 35.004 256.53 34.668 256.122 34.44C255.714 34.2 255.276 34.08 254.808 34.08C254.34 34.08 253.908 34.194 253.512 34.422C253.116 34.65 252.792 34.986 252.54 35.43C252.3 35.862 252.18 36.378 252.18 36.978C252.18 37.578 252.3 38.106 252.54 38.562C252.792 39.006 253.116 39.348 253.512 39.588C253.92 39.828 254.352 39.948 254.808 39.948C255.276 39.948 255.714 39.834 256.122 39.606C256.53 39.366 256.854 39.03 257.094 38.598C257.334 38.154 257.454 37.626 257.454 37.014ZM266.611 39.678L269.131 32.028H271.813L268.123 42H265.063L261.391 32.028H264.091L266.611 39.678ZM282.498 36.798C282.498 37.158 282.474 37.482 282.426 37.77H275.136C275.196 38.49 275.448 39.054 275.892 39.462C276.336 39.87 276.882 40.074 277.53 40.074C278.466 40.074 279.132 39.672 279.528 38.868H282.246C281.958 39.828 281.406 40.62 280.59 41.244C279.774 41.856 278.772 42.162 277.584 42.162C276.624 42.162 275.76 41.952 274.992 41.532C274.236 41.1 273.642 40.494 273.21 39.714C272.79 38.934 272.58 38.034 272.58 37.014C272.58 35.982 272.79 35.076 273.21 34.296C273.63 33.516 274.218 32.916 274.974 32.496C275.73 32.076 276.6 31.866 277.584 31.866C278.532 31.866 279.378 32.07 280.122 32.478C280.878 32.886 281.46 33.468 281.868 34.224C282.288 34.968 282.498 35.826 282.498 36.798ZM279.888 36.078C279.876 35.43 279.642 34.914 279.186 34.53C278.73 34.134 278.172 33.936 277.512 33.936C276.888 33.936 276.36 34.128 275.928 34.512C275.508 34.884 275.25 35.406 275.154 36.078H279.888ZM286.858 28.68V42H284.338V28.68H286.858Z" fill="#FF5000"/>
</svg>
