<svg width="27" height="33" viewBox="0 0 27 33" fill="none" xmlns="http://www.w3.org/2000/svg">
<path d="M13.2 1.65241e-08C9.72186 -0.000173893 6.38425 1.3724 3.91254 3.81939C1.44083 6.26639 0.0347809 9.59004 0 13.068C0 22.1099 11.6325 32.1749 12.1275 32.6039C12.4263 32.8595 12.8067 33 13.2 33C13.5932 33 13.9736 32.8595 14.2725 32.6039C14.85 32.1749 26.3999 22.1099 26.3999 13.068C26.3651 9.59004 24.9591 6.26639 22.4874 3.81939C20.0157 1.3724 16.6781 -0.000173893 13.2 1.65241e-08ZM13.2 18.1499C12.0578 18.1499 10.9412 17.8112 9.99155 17.1767C9.04186 16.5421 8.30166 15.6402 7.86457 14.5849C7.42747 13.5297 7.31311 12.3686 7.53594 11.2483C7.75877 10.1281 8.30878 9.09908 9.11643 8.29143C9.92407 7.48379 10.9531 6.93377 12.0733 6.71094C13.1935 6.48811 14.3547 6.60248 15.4099 7.03957C16.4652 7.47667 17.3671 8.21686 18.0017 9.16655C18.6362 10.1162 18.9749 11.2328 18.9749 12.375C18.9749 13.9066 18.3665 15.3755 17.2835 16.4585C16.2005 17.5415 14.7316 18.1499 13.2 18.1499V18.1499Z" fill="white"/>
</svg>
