<svg width="30" height="42" viewBox="0 0 30 42" fill="none" xmlns="http://www.w3.org/2000/svg">
<path fill-rule="evenodd" clip-rule="evenodd" d="M9.08064 39.6237C10.6981 40.6693 12.5678 41.3765 14.8495 41.3212C17.1271 41.3765 19.0009 40.6693 20.6183 39.6237L20.5835 35.171H9.11549L9.08064 39.6237ZM20.3785 33.121C20.3785 24.1889 29.8702 21.1323 29.1589 12.235C28.712 6.62198 24.9091 0.324219 14.8495 0.324219C4.78988 0.324219 0.987031 6.62198 0.53807 12.2371C-0.173299 21.1323 9.3205 24.1889 9.3205 33.121H20.3785ZM4.59923 12.6204C5.02359 7.2944 8.93099 4.42023 14.8495 4.42023C20.7659 4.42023 24.3904 7.23085 24.8148 12.5569C25.0465 15.4762 23.3695 17.4217 21.1063 20.6054C19.4375 22.9548 17.82 25.4087 16.8995 29.0209H12.7994C11.879 25.4087 10.2615 22.9548 8.59068 20.6033C6.32947 17.4217 4.36552 15.5397 4.59923 12.6204Z" fill="#FF5000"/>
</svg>
