<svg width="189" height="41" viewBox="0 0 189 41" fill="none" xmlns="http://www.w3.org/2000/svg">
<line x1="48.6635" y1="33.2281" x2="67.4635" y2="33.2388" stroke="#FF5000" stroke-width="0.969072" stroke-linecap="round"/>
<path d="M80.7396 33.2477C80.7396 33.0838 80.6991 32.9215 80.6206 32.7705C80.542 32.6195 80.427 32.4828 80.2824 32.3686C80.1377 32.2544 79.9664 32.165 79.7784 32.1056C79.5905 32.0462 79.3898 32.0182 79.1883 32.023L75.603 32.1086L72.9893 27.7125C72.7797 27.3592 72.3385 27.134 71.8558 27.134C71.7567 27.134 71.6587 27.1511 71.5684 27.1842C71.478 27.2173 71.3973 27.2656 71.3316 27.3259C71.2659 27.3862 71.2166 27.4572 71.1871 27.5341C71.1576 27.611 71.1485 27.6922 71.1603 27.7722L71.8126 32.199L68.9636 32.2667L68.5928 31.4414C68.5241 31.2887 68.3994 31.1567 68.2355 31.0635C68.0716 30.9703 67.8764 30.9202 67.6764 30.9201C67.5868 30.9201 67.4981 30.9345 67.4153 30.9624C67.3326 30.9903 67.2574 31.0312 67.1941 31.0828C67.1307 31.1343 67.0805 31.1955 67.0463 31.2629C67.0121 31.3302 66.9945 31.4024 66.9946 31.4753V32.3837L66.3817 32.4877C66.167 32.524 65.9743 32.6194 65.8359 32.7578C65.6976 32.8962 65.6221 33.0691 65.6221 33.2474C65.6221 33.4258 65.6976 33.5987 65.8359 33.7371C65.9743 33.8754 66.167 33.9708 66.3817 34.0072L66.9946 34.1106V35.0202C66.9946 35.3033 67.2542 35.5359 67.5909 35.5704L67.6764 35.5747C67.8762 35.5746 68.0711 35.5246 68.2349 35.4315C68.3986 35.3383 68.5233 35.2066 68.5921 35.0541L68.9644 34.2294L71.8028 34.2971L71.1603 38.6568C71.1587 38.6681 71.1574 38.6794 71.1566 38.6907L71.155 38.7245C71.155 39.039 71.4691 39.2944 71.8558 39.2944C72.2984 39.2944 72.7056 39.1055 72.9326 38.8021L72.9893 38.7159L75.5644 34.3863L79.1891 34.4725C79.5885 34.4819 79.9761 34.3619 80.2667 34.139C80.5573 33.916 80.7272 33.6082 80.7388 33.2834L80.7396 33.2477Z" fill="#FF5000"/>
<path d="M56.5735 21V10.1855H59.0372L59.2771 11.6464C59.6259 11.1231 60.0838 10.7088 60.6507 10.4036C61.2321 10.0838 61.9007 9.9239 62.6566 9.9239C64.3282 9.9239 65.5128 10.5707 66.2105 11.8644C66.603 11.2684 67.1263 10.796 67.7804 10.4472C68.449 10.0983 69.1758 9.9239 69.9607 9.9239C71.3707 9.9239 72.4536 10.3454 73.2094 11.1885C73.9653 12.0316 74.3432 13.2671 74.3432 14.8951V21H71.5524V15.1567C71.5524 14.2264 71.3707 13.5142 71.0073 13.02C70.6584 12.5258 70.1133 12.2787 69.372 12.2787C68.6162 12.2787 68.0057 12.5548 67.5405 13.1072C67.0899 13.6595 66.8646 14.4299 66.8646 15.4183V21H64.0738V15.1567C64.0738 14.2264 63.8921 13.5142 63.5287 13.02C63.1653 12.5258 62.6057 12.2787 61.8499 12.2787C61.1086 12.2787 60.5053 12.5548 60.0402 13.1072C59.5896 13.6595 59.3643 14.4299 59.3643 15.4183V21H56.5735ZM77.9826 25.7967L80.49 20.2805H79.8359L75.6279 10.1855H78.6585L81.6892 17.7949L84.8507 10.1855H87.8159L80.9479 25.7967H77.9826ZM93.5778 21.2616C92.6185 21.2616 91.7754 21.109 91.0486 20.8038C90.3219 20.484 89.7404 20.0479 89.3044 19.4956C88.8683 18.9432 88.6067 18.3037 88.5194 17.5769H91.3321C91.4193 17.9984 91.6519 18.3618 92.0298 18.667C92.4222 18.9578 92.9237 19.1031 93.5342 19.1031C94.1447 19.1031 94.588 18.9796 94.8642 18.7325C95.1549 18.4853 95.3003 18.2019 95.3003 17.8821C95.3003 17.417 95.0968 17.1045 94.6898 16.9446C94.2828 16.7702 93.7159 16.603 92.9891 16.4431C92.524 16.3414 92.0516 16.2178 91.5719 16.0724C91.0922 15.9271 90.6489 15.7454 90.2419 15.5274C89.8495 15.2948 89.5297 15.0041 89.2826 14.6552C89.0355 14.2918 88.9119 13.8485 88.9119 13.3252C88.9119 12.3659 89.2898 11.5592 90.0457 10.9051C90.8161 10.251 91.8917 9.9239 93.2726 9.9239C94.5517 9.9239 95.5692 10.2219 96.325 10.8178C97.0954 11.4138 97.5533 12.2351 97.6987 13.2816H95.0605C94.9006 12.4822 94.2973 12.0824 93.2508 12.0824C92.7275 12.0824 92.3205 12.1842 92.0298 12.3877C91.7536 12.5912 91.6155 12.8456 91.6155 13.1508C91.6155 13.4706 91.8263 13.725 92.2478 13.9139C92.6694 14.1029 93.229 14.2773 93.9267 14.4372C94.6825 14.6116 95.373 14.8079 95.998 15.0259C96.6376 15.2294 97.1463 15.5419 97.5242 15.9634C97.9022 16.3704 98.0911 16.9591 98.0911 17.7295C98.1057 18.3981 97.9312 19.0014 97.5678 19.5392C97.2044 20.077 96.6812 20.4985 95.998 20.8038C95.3148 21.109 94.5081 21.2616 93.5778 21.2616ZM102.068 8.50669C101.559 8.50669 101.138 8.35406 100.803 8.04882C100.483 7.74357 100.324 7.35838 100.324 6.89324C100.324 6.4281 100.483 6.05018 100.803 5.75946C101.138 5.45422 101.559 5.3016 102.068 5.3016C102.577 5.3016 102.991 5.45422 103.311 5.75946C103.645 6.05018 103.812 6.4281 103.812 6.89324C103.812 7.35838 103.645 7.74357 103.311 8.04882C102.991 8.35406 102.577 8.50669 102.068 8.50669ZM100.672 21V10.1855H103.463V21H100.672ZM106.376 21V10.1855H108.84L109.08 11.6464C109.429 11.1231 109.887 10.7088 110.453 10.4036C111.035 10.0838 111.703 9.9239 112.459 9.9239C114.131 9.9239 115.316 10.5707 116.013 11.8644C116.406 11.2684 116.929 10.796 117.583 10.4472C118.252 10.0983 118.979 9.9239 119.763 9.9239C121.173 9.9239 122.256 10.3454 123.012 11.1885C123.768 12.0316 124.146 13.2671 124.146 14.8951V21H121.355V15.1567C121.355 14.2264 121.173 13.5142 120.81 13.02C120.461 12.5258 119.916 12.2787 119.175 12.2787C118.419 12.2787 117.808 12.5548 117.343 13.1072C116.893 13.6595 116.667 14.4299 116.667 15.4183V21H113.877V15.1567C113.877 14.2264 113.695 13.5142 113.331 13.02C112.968 12.5258 112.408 12.2787 111.653 12.2787C110.911 12.2787 110.308 12.5548 109.843 13.1072C109.392 13.6595 109.167 14.4299 109.167 15.4183V21H106.376ZM131.614 21C130.48 21 129.572 20.7238 128.889 20.1715C128.206 19.6191 127.864 18.638 127.864 17.228V12.5185H126.011V10.1855H127.864L128.191 7.2857H130.655V10.1855H133.576V12.5185H130.655V17.2498C130.655 17.7731 130.764 18.1365 130.982 18.34C131.214 18.529 131.607 18.6234 132.159 18.6234H133.511V21H131.614ZM135.973 21V10.1855H138.458L138.72 12.2133C139.112 11.5155 139.643 10.9632 140.311 10.5562C140.995 10.1347 141.794 9.9239 142.71 9.9239V12.8674H141.925C141.314 12.8674 140.769 12.9618 140.29 13.1508C139.81 13.3398 139.432 13.6668 139.156 14.1319C138.894 14.5971 138.763 15.2439 138.763 16.0724V21H135.973ZM148.346 21.2616C147.415 21.2616 146.652 21.1163 146.056 20.8256C145.46 20.5203 145.017 20.1206 144.726 19.6264C144.436 19.1322 144.29 18.5871 144.29 17.9911C144.29 16.9882 144.683 16.1742 145.468 15.5492C146.252 14.9241 147.43 14.6116 149 14.6116H151.747V14.35C151.747 13.6087 151.536 13.0636 151.115 12.7147C150.693 12.3659 150.17 12.1915 149.545 12.1915C148.978 12.1915 148.484 12.3295 148.062 12.6057C147.641 12.8674 147.379 13.2598 147.277 13.7831H144.552C144.624 12.9982 144.886 12.315 145.337 11.7336C145.802 11.1522 146.398 10.7088 147.125 10.4036C147.851 10.0838 148.665 9.9239 149.567 9.9239C151.107 9.9239 152.321 10.3091 153.208 11.0795C154.094 11.8499 154.538 12.94 154.538 14.35V21H152.161L151.9 19.2557C151.58 19.8372 151.129 20.3168 150.548 20.6948C149.981 21.0727 149.247 21.2616 148.346 21.2616ZM148.978 19.0813C149.777 19.0813 150.395 18.8197 150.831 18.2964C151.282 17.7731 151.565 17.1263 151.682 16.3559H149.305C148.564 16.3559 148.033 16.494 147.713 16.7702C147.394 17.0318 147.234 17.3588 147.234 17.7513C147.234 18.1728 147.394 18.4999 147.713 18.7325C148.033 18.965 148.455 19.0813 148.978 19.0813ZM159.803 21L155.835 10.1855H158.757L161.504 18.3618L164.251 10.1855H167.173L163.183 21H159.803ZM173.655 21.2616C172.565 21.2616 171.599 21.0291 170.756 20.5639C169.912 20.0988 169.251 19.4447 168.771 18.6016C168.292 17.7586 168.052 16.7847 168.052 15.68C168.052 14.5607 168.284 13.5651 168.75 12.6929C169.229 11.8208 169.883 11.1449 170.712 10.6652C171.555 10.171 172.543 9.9239 173.677 9.9239C174.738 9.9239 175.676 10.1565 176.49 10.6216C177.304 11.0867 177.936 11.7263 178.387 12.5403C178.852 13.3398 179.084 14.2337 179.084 15.2221C179.084 15.382 179.077 15.5492 179.063 15.7236C179.063 15.898 179.055 16.0797 179.041 16.2687H170.821C170.879 17.1117 171.17 17.7731 171.693 18.2528C172.231 18.7325 172.878 18.9723 173.634 18.9723C174.2 18.9723 174.673 18.8487 175.051 18.6016C175.443 18.34 175.734 18.0057 175.923 17.5987H178.757C178.554 18.2819 178.212 18.9069 177.733 19.4738C177.267 20.0261 176.686 20.4622 175.988 20.782C175.305 21.1017 174.527 21.2616 173.655 21.2616ZM173.677 12.1915C172.994 12.1915 172.391 12.3877 171.867 12.7801C171.344 13.1581 171.01 13.7395 170.865 14.5244H176.25C176.206 13.8122 175.945 13.2453 175.465 12.8237C174.985 12.4022 174.389 12.1915 173.677 12.1915ZM181.432 21V5.3016H184.222V21H181.432Z" fill="#FF5000"/>
<path d="M85.5923 37.9227C84.878 37.9227 84.2504 37.7666 83.7095 37.4546C83.1755 37.1356 82.756 36.6918 82.4508 36.1231C82.1526 35.5545 82.0035 34.8991 82.0035 34.1571C82.0035 33.4151 82.1526 32.7632 82.4508 32.2015C82.756 31.6328 83.1755 31.189 83.7095 30.87C84.2504 30.551 84.878 30.3915 85.5923 30.3915C86.3135 30.3915 86.9411 30.551 87.4751 30.87C88.016 31.189 88.4355 31.6328 88.7337 32.2015C89.0319 32.7632 89.181 33.4151 89.181 34.1571C89.181 34.8991 89.0319 35.5545 88.7337 36.1231C88.4355 36.6918 88.016 37.1356 87.4751 37.4546C86.9411 37.7666 86.3135 37.9227 85.5923 37.9227ZM85.5923 37.1529C86.1263 37.1529 86.5944 37.035 86.9966 36.7992C87.4057 36.5565 87.7213 36.2133 87.9432 35.7694C88.172 35.3187 88.2864 34.7812 88.2864 34.1571C88.2864 33.533 88.172 32.999 87.9432 32.5552C87.7213 32.1113 87.4057 31.7715 86.9966 31.5358C86.5944 31.293 86.1263 31.1717 85.5923 31.1717C85.0583 31.1717 84.5867 31.293 84.1776 31.5358C83.7754 31.7715 83.4599 32.1113 83.231 32.5552C83.0091 32.999 82.8981 33.533 82.8981 34.1571C82.8981 34.7812 83.0091 35.3187 83.231 35.7694C83.4599 36.2133 83.7754 36.5565 84.1776 36.7992C84.5867 37.035 85.0583 37.1529 85.5923 37.1529ZM93.1425 37.7979V32.6384H93.933L93.9954 33.3873C94.1619 33.11 94.3838 32.895 94.6612 32.7424C94.9386 32.5898 95.2506 32.5136 95.5974 32.5136C96.0065 32.5136 96.3567 32.5968 96.648 32.7632C96.9462 32.9296 97.175 33.1828 97.3345 33.5226C97.5148 33.2105 97.761 32.9643 98.0731 32.784C98.3921 32.6037 98.7353 32.5136 99.1029 32.5136C99.7201 32.5136 100.212 32.7008 100.58 33.0753C100.948 33.4428 101.131 34.0115 101.131 34.7812V37.7979H100.268V34.8748C100.268 34.3409 100.16 33.9387 99.9455 33.6682C99.7305 33.3977 99.4219 33.2625 99.0197 33.2625C98.6036 33.2625 98.2569 33.4255 97.9795 33.7514C97.709 34.0704 97.5738 34.5281 97.5738 35.1245V37.7979H96.7V34.8748C96.7 34.3409 96.5925 33.9387 96.3775 33.6682C96.1626 33.3977 95.854 33.2625 95.4517 33.2625C95.0426 33.2625 94.6993 33.4255 94.4219 33.7514C94.1515 34.0704 94.0162 34.5281 94.0162 35.1245V37.7979H93.1425ZM104.33 37.9227C103.72 37.9227 103.235 37.7389 102.874 37.3714C102.513 36.9969 102.333 36.4248 102.333 35.655V32.6384H103.207V35.5614C103.207 36.6363 103.647 37.1737 104.528 37.1737C104.979 37.1737 105.35 37.0142 105.641 36.6952C105.939 36.3693 106.088 35.9081 106.088 35.3117V32.6384H106.962V37.7979H106.171L106.109 36.8721C105.95 37.198 105.71 37.4546 105.391 37.6418C105.079 37.8291 104.726 37.9227 104.33 37.9227ZM108.4 37.7979V32.6384H109.191L109.243 33.5642C109.409 33.2382 109.649 32.9817 109.961 32.7944C110.273 32.6072 110.626 32.5136 111.022 32.5136C111.632 32.5136 112.117 32.7008 112.478 33.0753C112.845 33.4428 113.029 34.0115 113.029 34.7812V37.7979H112.155V34.8748C112.155 33.8 111.712 33.2625 110.824 33.2625C110.38 33.2625 110.009 33.4255 109.711 33.7514C109.42 34.0704 109.274 34.5281 109.274 35.1245V37.7979H108.4ZM116.694 37.9227C116.18 37.9227 115.73 37.8048 115.341 37.569C114.96 37.3332 114.662 37.0108 114.447 36.6016C114.239 36.1925 114.135 35.7278 114.135 35.2077C114.135 34.6876 114.242 34.2264 114.457 33.8242C114.672 33.4151 114.97 33.0961 115.352 32.8672C115.733 32.6315 116.184 32.5136 116.704 32.5136C117.127 32.5136 117.501 32.6002 117.827 32.7736C118.153 32.947 118.406 33.1897 118.587 33.5018V30.3083H119.461V37.7979H118.67L118.587 36.9449C118.42 37.1945 118.181 37.4199 117.869 37.621C117.557 37.8221 117.165 37.9227 116.694 37.9227ZM116.787 37.1633C117.134 37.1633 117.439 37.0836 117.703 36.9241C117.973 36.7576 118.181 36.5288 118.327 36.2375C118.479 35.9463 118.556 35.6065 118.556 35.2181C118.556 34.8298 118.479 34.49 118.327 34.1987C118.181 33.9074 117.973 33.6821 117.703 33.5226C117.439 33.3561 117.134 33.2729 116.787 33.2729C116.447 33.2729 116.142 33.3561 115.872 33.5226C115.608 33.6821 115.4 33.9074 115.248 34.1987C115.102 34.49 115.029 34.8298 115.029 35.2181C115.029 35.6065 115.102 35.9463 115.248 36.2375C115.4 36.5288 115.608 36.7576 115.872 36.9241C116.142 37.0836 116.447 37.1633 116.787 37.1633ZM123.236 37.9227C122.75 37.9227 122.313 37.8117 121.925 37.5898C121.537 37.3679 121.228 37.0558 120.999 36.6536C120.777 36.2445 120.666 35.766 120.666 35.2181C120.666 34.6703 120.781 34.1952 121.01 33.793C121.239 33.3839 121.547 33.0683 121.936 32.8464C122.331 32.6245 122.771 32.5136 123.257 32.5136C123.742 32.5136 124.179 32.6245 124.567 32.8464C124.956 33.0683 125.261 33.3839 125.483 33.793C125.712 34.1952 125.826 34.6703 125.826 35.2181C125.826 35.766 125.712 36.2445 125.483 36.6536C125.254 37.0558 124.942 37.3679 124.546 37.5898C124.158 37.8117 123.721 37.9227 123.236 37.9227ZM123.236 37.1737C123.534 37.1737 123.811 37.1009 124.068 36.9553C124.325 36.8096 124.533 36.5912 124.692 36.2999C124.852 36.0087 124.931 35.6481 124.931 35.2181C124.931 34.7882 124.852 34.4276 124.692 34.1363C124.54 33.845 124.335 33.6266 124.078 33.481C123.822 33.3353 123.548 33.2625 123.257 33.2625C122.958 33.2625 122.681 33.3353 122.424 33.481C122.168 33.6266 121.96 33.845 121.8 34.1363C121.641 34.4276 121.561 34.7882 121.561 35.2181C121.561 35.6481 121.641 36.0087 121.8 36.2999C121.96 36.5912 122.164 36.8096 122.414 36.9553C122.671 37.1009 122.945 37.1737 123.236 37.1737ZM129.794 37.7979V32.6384H130.584L130.636 33.5642C130.803 33.2382 131.042 32.9817 131.354 32.7944C131.666 32.6072 132.02 32.5136 132.415 32.5136C133.025 32.5136 133.511 32.7008 133.871 33.0753C134.239 33.4428 134.423 34.0115 134.423 34.7812V37.7979H133.549V34.8748C133.549 33.8 133.105 33.2625 132.217 33.2625C131.774 33.2625 131.403 33.4255 131.104 33.7514C130.813 34.0704 130.668 34.5281 130.668 35.1245V37.7979H129.794ZM138.097 37.9227C137.612 37.9227 137.175 37.8117 136.787 37.5898C136.398 37.3679 136.09 37.0558 135.861 36.6536C135.639 36.2445 135.528 35.766 135.528 35.2181C135.528 34.6703 135.643 34.1952 135.871 33.793C136.1 33.3839 136.409 33.0683 136.797 32.8464C137.192 32.6245 137.633 32.5136 138.118 32.5136C138.604 32.5136 139.041 32.6245 139.429 32.8464C139.817 33.0683 140.122 33.3839 140.344 33.793C140.573 34.1952 140.688 34.6703 140.688 35.2181C140.688 35.766 140.573 36.2445 140.344 36.6536C140.115 37.0558 139.803 37.3679 139.408 37.5898C139.02 37.8117 138.583 37.9227 138.097 37.9227ZM138.097 37.1737C138.396 37.1737 138.673 37.1009 138.93 36.9553C139.186 36.8096 139.394 36.5912 139.554 36.2999C139.713 36.0087 139.793 35.6481 139.793 35.2181C139.793 34.7882 139.713 34.4276 139.554 34.1363C139.401 33.845 139.197 33.6266 138.94 33.481C138.683 33.3353 138.41 33.2625 138.118 33.2625C137.82 33.2625 137.543 33.3353 137.286 33.481C137.029 33.6266 136.821 33.845 136.662 34.1363C136.502 34.4276 136.423 34.7882 136.423 35.2181C136.423 35.6481 136.502 36.0087 136.662 36.2999C136.821 36.5912 137.026 36.8096 137.276 36.9553C137.532 37.1009 137.806 37.1737 138.097 37.1737ZM146.632 37.9227C146.015 37.9227 145.501 37.7666 145.092 37.4546C144.683 37.1425 144.444 36.7195 144.375 36.1855H145.269C145.325 36.456 145.467 36.6918 145.696 36.8929C145.931 37.087 146.247 37.1841 146.642 37.1841C147.01 37.1841 147.28 37.1078 147.454 36.9553C147.627 36.7958 147.714 36.6085 147.714 36.3936C147.714 36.0815 147.599 35.8735 147.37 35.7694C147.148 35.6654 146.833 35.5718 146.424 35.4886C146.146 35.4331 145.869 35.3533 145.592 35.2493C145.314 35.1453 145.082 34.9997 144.895 34.8124C144.707 34.6183 144.614 34.3651 144.614 34.0531C144.614 33.6023 144.78 33.2348 145.113 32.9505C145.453 32.6592 145.911 32.5136 146.486 32.5136C147.034 32.5136 147.481 32.6523 147.828 32.9296C148.182 33.2001 148.386 33.5884 148.442 34.0947H147.578C147.544 33.8312 147.429 33.6266 147.235 33.481C147.048 33.3284 146.795 33.2521 146.476 33.2521C146.164 33.2521 145.921 33.318 145.748 33.4498C145.581 33.5815 145.498 33.7549 145.498 33.9699C145.498 34.1779 145.606 34.3409 145.82 34.4588C146.042 34.5767 146.341 34.6772 146.715 34.7604C147.034 34.8298 147.336 34.9165 147.62 35.0205C147.911 35.1176 148.147 35.2667 148.327 35.4678C148.515 35.6619 148.608 35.9463 148.608 36.3207C148.615 36.7854 148.438 37.1703 148.078 37.4754C147.724 37.7736 147.242 37.9227 146.632 37.9227ZM152.176 37.9227C151.684 37.9227 151.247 37.8117 150.866 37.5898C150.484 37.361 150.182 37.0454 149.961 36.6432C149.746 36.241 149.638 35.766 149.638 35.2181C149.638 34.6772 149.746 34.2056 149.961 33.8034C150.176 33.3943 150.474 33.0787 150.855 32.8568C151.243 32.628 151.691 32.5136 152.197 32.5136C152.696 32.5136 153.126 32.628 153.487 32.8568C153.854 33.0787 154.135 33.3735 154.329 33.741C154.524 34.1086 154.621 34.5038 154.621 34.9269C154.621 35.0031 154.617 35.0794 154.61 35.1557C154.61 35.232 154.61 35.3187 154.61 35.4158H150.501C150.522 35.811 150.612 36.1404 150.772 36.404C150.938 36.6606 151.143 36.8547 151.386 36.9865C151.635 37.1182 151.899 37.1841 152.176 37.1841C152.537 37.1841 152.838 37.1009 153.081 36.9345C153.324 36.768 153.501 36.5427 153.612 36.2583H154.475C154.336 36.7368 154.069 37.1356 153.674 37.4546C153.286 37.7666 152.786 37.9227 152.176 37.9227ZM152.176 33.2521C151.76 33.2521 151.389 33.3804 151.063 33.637C150.744 33.8866 150.56 34.2542 150.512 34.7396H153.757C153.737 34.275 153.577 33.9109 153.279 33.6474C152.981 33.3839 152.613 33.2521 152.176 33.2521ZM157.662 37.9227C157.051 37.9227 156.566 37.7389 156.205 37.3714C155.845 36.9969 155.664 36.4248 155.664 35.655V32.6384H156.538V35.5614C156.538 36.6363 156.979 37.1737 157.859 37.1737C158.31 37.1737 158.681 37.0142 158.972 36.6952C159.27 36.3693 159.42 35.9081 159.42 35.3117V32.6384H160.293V37.7979H159.503L159.44 36.8721C159.281 37.198 159.042 37.4546 158.723 37.6418C158.411 37.8291 158.057 37.9227 157.662 37.9227ZM166.856 37.9227C166.364 37.9227 165.92 37.8117 165.525 37.5898C165.136 37.361 164.828 37.0454 164.599 36.6432C164.377 36.2341 164.266 35.759 164.266 35.2181C164.266 34.6772 164.377 34.2056 164.599 33.8034C164.828 33.3943 165.136 33.0787 165.525 32.8568C165.92 32.628 166.364 32.5136 166.856 32.5136C167.466 32.5136 167.98 32.6731 168.396 32.9921C168.819 33.3111 169.086 33.7375 169.197 34.2715H168.302C168.233 33.9525 168.063 33.7063 167.792 33.533C167.522 33.3527 167.206 33.2625 166.846 33.2625C166.555 33.2625 166.281 33.3353 166.024 33.481C165.767 33.6266 165.559 33.845 165.4 34.1363C165.24 34.4276 165.161 34.7882 165.161 35.2181C165.161 35.6481 165.24 36.0087 165.4 36.2999C165.559 36.5912 165.767 36.8131 166.024 36.9657C166.281 37.1113 166.555 37.1841 166.846 37.1841C167.206 37.1841 167.522 37.0974 167.792 36.9241C168.063 36.7438 168.233 36.4906 168.302 36.1647H169.197C169.093 36.6848 168.829 37.1078 168.406 37.4338C167.983 37.7597 167.466 37.9227 166.856 37.9227ZM170.417 37.7979V30.3083H171.291V33.5226C171.464 33.2036 171.71 32.9574 172.029 32.784C172.348 32.6037 172.695 32.5136 173.07 32.5136C173.666 32.5136 174.144 32.7008 174.505 33.0753C174.866 33.4428 175.046 34.0115 175.046 34.7812V37.7979H174.183V34.8748C174.183 33.8 173.749 33.2625 172.882 33.2625C172.432 33.2625 172.054 33.4255 171.748 33.7514C171.443 34.0704 171.291 34.5281 171.291 35.1245V37.7979H170.417ZM176.9 31.4942C176.727 31.4942 176.581 31.4387 176.463 31.3277C176.352 31.2098 176.297 31.0642 176.297 30.8908C176.297 30.7244 176.352 30.5857 176.463 30.4747C176.581 30.3638 176.727 30.3083 176.9 30.3083C177.067 30.3083 177.209 30.3638 177.327 30.4747C177.445 30.5857 177.504 30.7244 177.504 30.8908C177.504 31.0642 177.445 31.2098 177.327 31.3277C177.209 31.4387 177.067 31.4942 176.9 31.4942ZM176.463 37.7979V32.6384H177.337V37.7979H176.463ZM178.859 40.0863V32.6384H179.649L179.732 33.4914C179.899 33.2417 180.135 33.0163 180.44 32.8152C180.752 32.6141 181.147 32.5136 181.626 32.5136C182.139 32.5136 182.586 32.6315 182.967 32.8672C183.349 33.103 183.644 33.4255 183.852 33.8346C184.067 34.2438 184.174 34.7084 184.174 35.2285C184.174 35.7486 184.067 36.2133 183.852 36.6224C183.644 37.0246 183.345 37.3436 182.957 37.5794C182.576 37.8083 182.128 37.9227 181.615 37.9227C181.192 37.9227 180.814 37.836 180.481 37.6626C180.155 37.4893 179.906 37.2465 179.732 36.9345V40.0863H178.859ZM181.522 37.1633C181.868 37.1633 182.173 37.0836 182.437 36.9241C182.7 36.7576 182.908 36.5288 183.061 36.2375C183.214 35.9463 183.29 35.6065 183.29 35.2181C183.29 34.8298 183.214 34.49 183.061 34.1987C182.908 33.9074 182.7 33.6821 182.437 33.5226C182.173 33.3561 181.868 33.2729 181.522 33.2729C181.175 33.2729 180.87 33.3561 180.606 33.5226C180.343 33.6821 180.135 33.9074 179.982 34.1987C179.829 34.49 179.753 34.8298 179.753 35.2181C179.753 35.6065 179.829 35.9463 179.982 36.2375C180.135 36.5288 180.343 36.7576 180.606 36.9241C180.87 37.0836 181.175 37.1633 181.522 37.1633Z" fill="#FF5000"/>
<path fill-rule="evenodd" clip-rule="evenodd" d="M47.284 38.9568H6.25133C5.99432 38.9568 5.74783 38.8547 5.56609 38.673L0.783835 33.8907C0.602099 33.709 0.5 33.4625 0.5 33.2055V10.9966C0.5 10.4614 0.933868 10.0276 1.46907 10.0276H15.977C16.5122 10.0276 16.9461 9.5937 16.9461 9.0585V4.45784C16.9461 3.92264 17.3799 3.48877 17.9151 3.48877H31.2342C31.7694 3.48877 32.2033 3.92264 32.2033 4.45784V9.0585C32.2033 9.5937 32.6371 10.0276 33.1724 10.0276H47.284C47.8192 10.0276 48.2531 10.4614 48.2531 10.9966V37.9877C48.2531 38.5229 47.8192 38.9568 47.284 38.9568ZM19.918 8.64051V7.45164C19.918 7.01391 20.2728 6.65906 20.7106 6.65906H27.8438C28.2815 6.65906 28.6364 7.01391 28.6364 7.45164V8.64051C28.6364 9.07824 28.2815 9.43309 27.8438 9.43309H20.7106C20.2728 9.43309 19.918 9.07824 19.918 8.64051Z" fill="#FF5000"/>
<path d="M42.8889 18.8999V21.4104V24.4795V27.5767V29.799C42.8889 30.2394 42.5319 30.5963 42.0916 30.5963H35.613H28.7029C28.2626 30.5963 27.9057 30.2394 27.9057 29.799V27.5783V24.4795V21.2523V18.8999C27.9057 18.4596 28.2626 18.1026 28.7029 18.1026H35.3973H42.0916C42.5319 18.1026 42.8889 18.4596 42.8889 18.8999Z" fill="#FBDA82"/>
<path d="M42.8889 18.8999V21.4104V24.4795V27.5767V29.799C42.8889 30.2394 42.5319 30.5963 42.0916 30.5963H35.613H28.7029C28.2626 30.5963 27.9057 30.2394 27.9057 29.799V27.5783V24.4795V21.2523V18.8999C27.9057 18.4596 28.2626 18.1026 28.7029 18.1026H35.3973H42.0916C42.5319 18.1026 42.8889 18.4596 42.8889 18.8999Z" stroke="#494949" stroke-width="0.155052"/>
<path d="M42.8889 18.8999V21.4104V24.4795V27.5767V29.799C42.8889 30.2394 42.5319 30.5963 42.0916 30.5963H35.613H28.7029C28.2626 30.5963 27.9057 30.2394 27.9057 29.799V27.5783V24.4795V21.2523V18.8999C27.9057 18.4596 28.2626 18.1026 28.7029 18.1026H35.3973H42.0916C42.5319 18.1026 42.8889 18.4596 42.8889 18.8999Z" stroke="url(#paint0_radial_1062_384)" stroke-opacity="0.2" stroke-width="0.155052"/>
<path d="M42.8889 18.8994V21.4099V24.4791V27.5762V29.7986C42.8889 30.2389 42.5319 30.5958 42.0916 30.5958H35.613H28.7029C28.2626 30.5958 27.9057 30.2389 27.9057 29.7986V27.5778V24.4791V21.2518V18.8994C27.9057 18.4591 28.2626 18.1021 28.7029 18.1021H35.3973H42.0916C42.5319 18.1021 42.8889 18.4591 42.8889 18.8994Z" stroke="#494949" stroke-width="0.155052"/>
<path d="M42.8889 18.8994V21.4099V24.4791V27.5762V29.7986C42.8889 30.2389 42.5319 30.5958 42.0916 30.5958H35.613H28.7029C28.2626 30.5958 27.9057 30.2389 27.9057 29.7986V27.5778V24.4791V21.2518V18.8994C27.9057 18.4591 28.2626 18.1021 28.7029 18.1021H35.3973H42.0916C42.5319 18.1021 42.8889 18.4591 42.8889 18.8994Z" stroke="url(#paint1_radial_1062_384)" stroke-opacity="0.2" stroke-width="0.155052"/>
<defs>
<radialGradient id="paint0_radial_1062_384" cx="0" cy="0" r="1" gradientUnits="userSpaceOnUse" gradientTransform="translate(27.8281 18.6179) rotate(45.3165) scale(18.9687 15.8492)">
<stop stop-opacity="0"/>
<stop offset="1" stop-color="white" stop-opacity="0.62"/>
</radialGradient>
<radialGradient id="paint1_radial_1062_384" cx="0" cy="0" r="1" gradientUnits="userSpaceOnUse" gradientTransform="translate(27.8281 18.6174) rotate(45.3165) scale(18.9687 15.8492)">
<stop stop-opacity="0"/>
<stop offset="1" stop-color="white" stop-opacity="0.62"/>
</radialGradient>
</defs>
</svg>
