<svg width="559" height="140" viewBox="0 0 559 140" fill="none" xmlns="http://www.w3.org/2000/svg">
<path d="M15.506 35.294C12.762 35.294 10.242 34.65 7.946 33.362C5.65 32.074 3.83 30.296 2.486 28.028C1.142 25.732 0.47 23.142 0.47 20.258C0.47 17.402 1.142 14.84 2.486 12.572C3.83 10.276 5.65 8.484 7.946 7.196C10.242 5.908 12.762 5.264 15.506 5.264C18.278 5.264 20.798 5.908 23.066 7.196C25.362 8.484 27.168 10.276 28.484 12.572C29.828 14.84 30.5 17.402 30.5 20.258C30.5 23.142 29.828 25.732 28.484 28.028C27.168 30.296 25.362 32.074 23.066 33.362C20.77 34.65 18.25 35.294 15.506 35.294ZM15.506 30.044C17.27 30.044 18.824 29.652 20.168 28.868C21.512 28.056 22.562 26.908 23.318 25.424C24.074 23.94 24.452 22.218 24.452 20.258C24.452 18.298 24.074 16.59 23.318 15.134C22.562 13.65 21.512 12.516 20.168 11.732C18.824 10.948 17.27 10.556 15.506 10.556C13.742 10.556 12.174 10.948 10.802 11.732C9.458 12.516 8.408 13.65 7.652 15.134C6.896 16.59 6.518 18.298 6.518 20.258C6.518 22.218 6.896 23.94 7.652 25.424C8.408 26.908 9.458 28.056 10.802 28.868C12.174 29.652 13.742 30.044 15.506 30.044ZM66.8484 11.732V35H60.9264V32.06C60.1704 33.068 59.1764 33.866 57.9444 34.454C56.7404 35.014 55.4244 35.294 53.9964 35.294C52.1764 35.294 50.5664 34.916 49.1664 34.16C47.7664 33.376 46.6604 32.242 45.8484 30.758C45.0644 29.246 44.6724 27.454 44.6724 25.382V11.732H50.5524V24.542C50.5524 26.39 51.0144 27.818 51.9384 28.826C52.8624 29.806 54.1224 30.296 55.7184 30.296C57.3424 30.296 58.6164 29.806 59.5404 28.826C60.4644 27.818 60.9264 26.39 60.9264 24.542V11.732H66.8484ZM60.4644 5.684L50.8044 10.094V5.894L60.4644 0.895998V5.684ZM85.544 11.396C88.316 11.396 90.556 12.278 92.264 14.042C93.972 15.778 94.826 18.214 94.826 21.35V35H88.946V22.148C88.946 20.3 88.484 18.886 87.56 17.906C86.636 16.898 85.376 16.394 83.78 16.394C82.156 16.394 80.868 16.898 79.916 17.906C78.992 18.886 78.53 20.3 78.53 22.148V35H72.65V11.732H78.53V14.63C79.314 13.622 80.308 12.838 81.512 12.278C82.744 11.69 84.088 11.396 85.544 11.396ZM103.4 8.96C102.364 8.96 101.496 8.638 100.796 7.994C100.124 7.322 99.7875 6.496 99.7875 5.516C99.7875 4.536 100.124 3.724 100.796 3.08C101.496 2.408 102.364 2.072 103.4 2.072C104.436 2.072 105.29 2.408 105.962 3.08C106.662 3.724 107.012 4.536 107.012 5.516C107.012 6.496 106.662 7.322 105.962 7.994C105.29 8.638 104.436 8.96 103.4 8.96ZM106.298 11.732V35H100.418V11.732H106.298ZM110.595 23.366C110.595 20.958 111.085 18.858 112.065 17.066C113.045 15.246 114.403 13.846 116.139 12.866C117.875 11.858 119.863 11.354 122.103 11.354C124.987 11.354 127.367 12.082 129.243 13.538C131.147 14.966 132.421 16.982 133.065 19.586H126.723C126.387 18.578 125.813 17.794 125.001 17.234C124.217 16.646 123.237 16.352 122.061 16.352C120.381 16.352 119.051 16.968 118.071 18.2C117.091 19.404 116.601 21.126 116.601 23.366C116.601 25.578 117.091 27.3 118.071 28.532C119.051 29.736 120.381 30.338 122.061 30.338C124.441 30.338 125.995 29.274 126.723 27.146H133.065C132.421 29.666 131.147 31.668 129.243 33.152C127.339 34.636 124.959 35.378 122.103 35.378C119.863 35.378 117.875 34.888 116.139 33.908C114.403 32.9 113.045 31.5 112.065 29.708C111.085 27.888 110.595 25.774 110.595 23.366ZM147.705 35.378C145.465 35.378 143.449 34.888 141.657 33.908C139.865 32.9 138.451 31.486 137.415 29.666C136.407 27.846 135.903 25.746 135.903 23.366C135.903 20.986 136.421 18.886 137.457 17.066C138.521 15.246 139.963 13.846 141.783 12.866C143.603 11.858 145.633 11.354 147.873 11.354C150.113 11.354 152.143 11.858 153.963 12.866C155.783 13.846 157.211 15.246 158.247 17.066C159.311 18.886 159.843 20.986 159.843 23.366C159.843 25.746 159.297 27.846 158.205 29.666C157.141 31.486 155.685 32.9 153.837 33.908C152.017 34.888 149.973 35.378 147.705 35.378ZM147.705 30.254C148.769 30.254 149.763 30.002 150.687 29.498C151.639 28.966 152.395 28.182 152.955 27.146C153.515 26.11 153.795 24.85 153.795 23.366C153.795 21.154 153.207 19.46 152.031 18.284C150.883 17.08 149.469 16.478 147.789 16.478C146.109 16.478 144.695 17.08 143.547 18.284C142.427 19.46 141.867 21.154 141.867 23.366C141.867 25.578 142.413 27.286 143.505 28.49C144.625 29.666 146.025 30.254 147.705 30.254ZM172.652 23.366C172.652 20.958 173.142 18.858 174.122 17.066C175.102 15.246 176.46 13.846 178.196 12.866C179.932 11.858 181.92 11.354 184.16 11.354C187.044 11.354 189.424 12.082 191.3 13.538C193.204 14.966 194.478 16.982 195.122 19.586H188.78C188.444 18.578 187.87 17.794 187.058 17.234C186.274 16.646 185.294 16.352 184.118 16.352C182.438 16.352 181.108 16.968 180.128 18.2C179.148 19.404 178.658 21.126 178.658 23.366C178.658 25.578 179.148 27.3 180.128 28.532C181.108 29.736 182.438 30.338 184.118 30.338C186.498 30.338 188.052 29.274 188.78 27.146H195.122C194.478 29.666 193.204 31.668 191.3 33.152C189.396 34.636 187.016 35.378 184.16 35.378C181.92 35.378 179.932 34.888 178.196 33.908C176.46 32.9 175.102 31.5 174.122 29.708C173.142 27.888 172.652 25.774 172.652 23.366ZM212.533 11.396C214.297 11.396 215.865 11.788 217.237 12.572C218.609 13.328 219.673 14.462 220.429 15.974C221.213 17.458 221.605 19.25 221.605 21.35V35H215.725V22.148C215.725 20.3 215.263 18.886 214.339 17.906C213.415 16.898 212.155 16.394 210.559 16.394C208.935 16.394 207.647 16.898 206.695 17.906C205.771 18.886 205.309 20.3 205.309 22.148V35H199.429V3.92H205.309V14.63C206.065 13.622 207.073 12.838 208.333 12.278C209.593 11.69 210.993 11.396 212.533 11.396ZM230.179 8.96C229.143 8.96 228.275 8.638 227.575 7.994C226.903 7.322 226.567 6.496 226.567 5.516C226.567 4.536 226.903 3.724 227.575 3.08C228.275 2.408 229.143 2.072 230.179 2.072C231.215 2.072 232.069 2.408 232.741 3.08C233.441 3.724 233.791 4.536 233.791 5.516C233.791 6.496 233.441 7.322 232.741 7.994C232.069 8.638 231.215 8.96 230.179 8.96ZM233.077 11.732V35H227.197V11.732H233.077ZM244.766 15.092C245.522 14.028 246.558 13.146 247.874 12.446C249.218 11.718 250.744 11.354 252.452 11.354C254.44 11.354 256.232 11.844 257.828 12.824C259.452 13.804 260.726 15.204 261.65 17.024C262.602 18.816 263.078 20.902 263.078 23.282C263.078 25.662 262.602 27.776 261.65 29.624C260.726 31.444 259.452 32.858 257.828 33.866C256.232 34.874 254.44 35.378 252.452 35.378C250.744 35.378 249.232 35.028 247.916 34.328C246.628 33.628 245.578 32.746 244.766 31.682V46.088H238.886V11.732H244.766V15.092ZM257.072 23.282C257.072 21.882 256.778 20.678 256.19 19.67C255.63 18.634 254.874 17.85 253.922 17.318C252.998 16.786 251.99 16.52 250.898 16.52C249.834 16.52 248.826 16.8 247.874 17.36C246.95 17.892 246.194 18.676 245.606 19.712C245.046 20.748 244.766 21.966 244.766 23.366C244.766 24.766 245.046 25.984 245.606 27.02C246.194 28.056 246.95 28.854 247.874 29.414C248.826 29.946 249.834 30.212 250.898 30.212C251.99 30.212 252.998 29.932 253.922 29.372C254.874 28.812 255.63 28.014 256.19 26.978C256.778 25.942 257.072 24.71 257.072 23.282ZM280.341 8.96C279.305 8.96 278.437 8.638 277.737 7.994C277.065 7.322 276.729 6.496 276.729 5.516C276.729 4.536 277.065 3.724 277.737 3.08C278.437 2.408 279.305 2.072 280.341 2.072C281.377 2.072 282.231 2.408 282.903 3.08C283.603 3.724 283.953 4.536 283.953 5.516C283.953 6.496 283.603 7.322 282.903 7.994C282.231 8.638 281.377 8.96 280.341 8.96ZM283.239 11.732V35H277.359V11.732H283.239ZM301.942 11.396C304.714 11.396 306.954 12.278 308.662 14.042C310.37 15.778 311.224 18.214 311.224 21.35V35H305.344V22.148C305.344 20.3 304.882 18.886 303.958 17.906C303.034 16.898 301.774 16.394 300.178 16.394C298.554 16.394 297.266 16.898 296.314 17.906C295.39 18.886 294.928 20.3 294.928 22.148V35H289.048V11.732H294.928V14.63C295.712 13.622 296.706 12.838 297.91 12.278C299.142 11.69 300.486 11.396 301.942 11.396ZM323.662 16.562V27.818C323.662 28.602 323.844 29.176 324.208 29.54C324.6 29.876 325.244 30.044 326.14 30.044H328.87V35H325.174C320.218 35 317.74 32.592 317.74 27.776V16.562H314.968V11.732H317.74V5.978H323.662V11.732H328.87V16.562H323.662ZM354.729 22.862C354.729 23.702 354.673 24.458 354.561 25.13H337.551C337.691 26.81 338.279 28.126 339.315 29.078C340.351 30.03 341.625 30.506 343.137 30.506C345.321 30.506 346.875 29.568 347.799 27.692H354.141C353.469 29.932 352.181 31.78 350.277 33.236C348.373 34.664 346.035 35.378 343.263 35.378C341.023 35.378 339.007 34.888 337.215 33.908C335.451 32.9 334.065 31.486 333.057 29.666C332.077 27.846 331.587 25.746 331.587 23.366C331.587 20.958 332.077 18.844 333.057 17.024C334.037 15.204 335.409 13.804 337.173 12.824C338.937 11.844 340.967 11.354 343.263 11.354C345.475 11.354 347.449 11.83 349.185 12.782C350.949 13.734 352.307 15.092 353.259 16.856C354.239 18.592 354.729 20.594 354.729 22.862ZM348.639 21.182C348.611 19.67 348.065 18.466 347.001 17.57C345.937 16.646 344.635 16.184 343.095 16.184C341.639 16.184 340.407 16.632 339.399 17.528C338.419 18.396 337.817 19.614 337.593 21.182H348.639ZM364.901 15.344C365.657 14.112 366.637 13.146 367.841 12.446C369.073 11.746 370.473 11.396 372.041 11.396V17.57H370.487C368.639 17.57 367.239 18.004 366.287 18.872C365.363 19.74 364.901 21.252 364.901 23.408V35H359.021V11.732H364.901V15.344ZM388.896 11.396C391.668 11.396 393.908 12.278 395.616 14.042C397.324 15.778 398.178 18.214 398.178 21.35V35H392.298V22.148C392.298 20.3 391.836 18.886 390.912 17.906C389.988 16.898 388.728 16.394 387.132 16.394C385.508 16.394 384.22 16.898 383.268 17.906C382.344 18.886 381.882 20.3 381.882 22.148V35H376.002V11.732H381.882V14.63C382.666 13.622 383.66 12.838 384.864 12.278C386.096 11.69 387.44 11.396 388.896 11.396ZM402.257 23.282C402.257 20.93 402.719 18.844 403.643 17.024C404.595 15.204 405.869 13.804 407.465 12.824C409.089 11.844 410.895 11.354 412.883 11.354C414.619 11.354 416.131 11.704 417.419 12.404C418.735 13.104 419.785 13.986 420.569 15.05V11.732H426.491V35H420.569V31.598C419.813 32.69 418.763 33.6 417.419 34.328C416.103 35.028 414.577 35.378 412.841 35.378C410.881 35.378 409.089 34.874 407.465 33.866C405.869 32.858 404.595 31.444 403.643 29.624C402.719 27.776 402.257 25.662 402.257 23.282ZM420.569 23.366C420.569 21.938 420.289 20.72 419.729 19.712C419.169 18.676 418.413 17.892 417.461 17.36C416.509 16.8 415.487 16.52 414.395 16.52C413.303 16.52 412.295 16.786 411.371 17.318C410.447 17.85 409.691 18.634 409.103 19.67C408.543 20.678 408.263 21.882 408.263 23.282C408.263 24.682 408.543 25.914 409.103 26.978C409.691 28.014 410.447 28.812 411.371 29.372C412.323 29.932 413.331 30.212 414.395 30.212C415.487 30.212 416.509 29.946 417.461 29.414C418.413 28.854 419.169 28.07 419.729 27.062C420.289 26.026 420.569 24.794 420.569 23.366ZM430.722 23.366C430.722 20.958 431.212 18.858 432.192 17.066C433.172 15.246 434.53 13.846 436.266 12.866C438.002 11.858 439.99 11.354 442.23 11.354C445.114 11.354 447.494 12.082 449.37 13.538C451.274 14.966 452.548 16.982 453.192 19.586H446.85C446.514 18.578 445.94 17.794 445.128 17.234C444.344 16.646 443.364 16.352 442.188 16.352C440.508 16.352 439.178 16.968 438.198 18.2C437.218 19.404 436.728 21.126 436.728 23.366C436.728 25.578 437.218 27.3 438.198 28.532C439.178 29.736 440.508 30.338 442.188 30.338C444.568 30.338 446.122 29.274 446.85 27.146H453.192C452.548 29.666 451.274 31.668 449.37 33.152C447.466 34.636 445.086 35.378 442.23 35.378C439.99 35.378 438.002 34.888 436.266 33.908C434.53 32.9 433.172 31.5 432.192 29.708C431.212 27.888 430.722 25.774 430.722 23.366ZM460.482 8.96C459.446 8.96 458.578 8.638 457.878 7.994C457.206 7.322 456.87 6.496 456.87 5.516C456.87 4.536 457.206 3.724 457.878 3.08C458.578 2.408 459.446 2.072 460.482 2.072C461.518 2.072 462.372 2.408 463.044 3.08C463.744 3.724 464.094 4.536 464.094 5.516C464.094 6.496 463.744 7.322 463.044 7.994C462.372 8.638 461.518 8.96 460.482 8.96ZM463.38 11.732V35H457.5V11.732H463.38ZM479.521 35.378C477.281 35.378 475.265 34.888 473.473 33.908C471.681 32.9 470.267 31.486 469.231 29.666C468.223 27.846 467.719 25.746 467.719 23.366C467.719 20.986 468.237 18.886 469.273 17.066C470.337 15.246 471.779 13.846 473.599 12.866C475.419 11.858 477.449 11.354 479.689 11.354C481.929 11.354 483.959 11.858 485.779 12.866C487.599 13.846 489.027 15.246 490.063 17.066C491.127 18.886 491.659 20.986 491.659 23.366C491.659 25.746 491.113 27.846 490.021 29.666C488.957 31.486 487.501 32.9 485.653 33.908C483.833 34.888 481.789 35.378 479.521 35.378ZM479.521 30.254C480.585 30.254 481.579 30.002 482.503 29.498C483.455 28.966 484.211 28.182 484.771 27.146C485.331 26.11 485.611 24.85 485.611 23.366C485.611 21.154 485.023 19.46 483.847 18.284C482.699 17.08 481.285 16.478 479.605 16.478C477.925 16.478 476.511 17.08 475.363 18.284C474.243 19.46 473.683 21.154 473.683 23.366C473.683 25.578 474.229 27.286 475.321 28.49C476.441 29.666 477.841 30.254 479.521 30.254ZM508.866 11.396C511.638 11.396 513.878 12.278 515.586 14.042C517.294 15.778 518.148 18.214 518.148 21.35V35H512.268V22.148C512.268 20.3 511.806 18.886 510.882 17.906C509.958 16.898 508.698 16.394 507.102 16.394C505.478 16.394 504.19 16.898 503.238 17.906C502.314 18.886 501.852 20.3 501.852 22.148V35H495.972V11.732H501.852V14.63C502.636 13.622 503.63 12.838 504.834 12.278C506.066 11.69 507.41 11.396 508.866 11.396ZM522.228 23.282C522.228 20.93 522.69 18.844 523.614 17.024C524.566 15.204 525.84 13.804 527.436 12.824C529.06 11.844 530.866 11.354 532.854 11.354C534.59 11.354 536.102 11.704 537.39 12.404C538.706 13.104 539.756 13.986 540.54 15.05V11.732H546.462V35H540.54V31.598C539.784 32.69 538.734 33.6 537.39 34.328C536.074 35.028 534.548 35.378 532.812 35.378C530.852 35.378 529.06 34.874 527.436 33.866C525.84 32.858 524.566 31.444 523.614 29.624C522.69 27.776 522.228 25.662 522.228 23.282ZM540.54 23.366C540.54 21.938 540.26 20.72 539.7 19.712C539.14 18.676 538.384 17.892 537.432 17.36C536.48 16.8 535.458 16.52 534.366 16.52C533.274 16.52 532.266 16.786 531.342 17.318C530.418 17.85 529.662 18.634 529.074 19.67C528.514 20.678 528.234 21.882 528.234 23.282C528.234 24.682 528.514 25.914 529.074 26.978C529.662 28.014 530.418 28.812 531.342 29.372C532.294 29.932 533.302 30.212 534.366 30.212C535.458 30.212 536.48 29.946 537.432 29.414C538.384 28.854 539.14 28.07 539.7 27.062C540.26 26.026 540.54 24.794 540.54 23.366ZM558.085 3.92V35H552.205V3.92H558.085ZM0.386 75.324C0.386 73 0.862 70.942 1.814 69.15C2.794 67.33 4.11 65.916 5.762 64.908C7.414 63.9 9.234 63.396 11.222 63.396C12.874 63.396 14.33 63.718 15.59 64.362C16.878 64.978 17.914 65.776 18.698 66.756V63.732H24.62V98.088H18.698V83.808C17.914 84.816 16.864 85.656 15.548 86.328C14.232 87 12.748 87.336 11.096 87.336C9.136 87.336 7.33 86.832 5.678 85.824C4.054 84.788 2.766 83.36 1.814 81.54C0.862 79.72 0.386 77.648 0.386 75.324ZM18.698 75.366C18.698 73.938 18.404 72.706 17.816 71.67C17.228 70.634 16.458 69.85 15.506 69.318C14.582 68.786 13.588 68.52 12.524 68.52C11.488 68.52 10.494 68.786 9.542 69.318C8.618 69.85 7.862 70.634 7.274 71.67C6.686 72.678 6.392 73.896 6.392 75.324C6.392 76.752 6.686 77.998 7.274 79.062C7.862 80.098 8.618 80.882 9.542 81.414C10.494 81.946 11.488 82.212 12.524 82.212C13.588 82.212 14.582 81.946 15.506 81.414C16.458 80.882 17.228 80.098 17.816 79.062C18.404 78.026 18.698 76.794 18.698 75.366ZM52.3288 63.732V87H46.4068V84.06C45.6508 85.068 44.6568 85.866 43.4248 86.454C42.2208 87.014 40.9048 87.294 39.4768 87.294C37.6568 87.294 36.0468 86.916 34.6468 86.16C33.2468 85.376 32.1408 84.242 31.3288 82.758C30.5448 81.246 30.1528 79.454 30.1528 77.382V63.732H36.0328V76.542C36.0328 78.39 36.4948 79.818 37.4188 80.826C38.3428 81.806 39.6028 82.296 41.1988 82.296C42.8228 82.296 44.0968 81.806 45.0208 80.826C45.9448 79.818 46.4068 78.39 46.4068 76.542V63.732H52.3288ZM79.7604 74.862C79.7604 75.702 79.7044 76.458 79.5924 77.13H62.5824C62.7224 78.81 63.3104 80.126 64.3464 81.078C65.3824 82.03 66.6564 82.506 68.1684 82.506C70.3524 82.506 71.9064 81.568 72.8304 79.692H79.1724C78.5004 81.932 77.2124 83.78 75.3084 85.236C73.4044 86.664 71.0664 87.378 68.2944 87.378C66.0544 87.378 64.0384 86.888 62.2464 85.908C60.4824 84.9 59.0964 83.486 58.0884 81.666C57.1084 79.846 56.6184 77.746 56.6184 75.366C56.6184 72.958 57.1084 70.844 58.0884 69.024C59.0684 67.204 60.4404 65.804 62.2044 64.824C63.9684 63.844 65.9984 63.354 68.2944 63.354C70.5064 63.354 72.4804 63.83 74.2164 64.782C75.9804 65.734 77.3384 67.092 78.2904 68.856C79.2704 70.592 79.7604 72.594 79.7604 74.862ZM73.6704 73.182C73.6424 71.67 73.0964 70.466 72.0324 69.57C70.9684 68.646 69.6664 68.184 68.1264 68.184C66.6704 68.184 65.4384 68.632 64.4304 69.528C63.4504 70.396 62.8484 71.614 62.6244 73.182H73.6704ZM115.69 74.862C115.69 75.702 115.634 76.458 115.522 77.13H98.5121C98.6521 78.81 99.2401 80.126 100.276 81.078C101.312 82.03 102.586 82.506 104.098 82.506C106.282 82.506 107.836 81.568 108.76 79.692H115.102C114.43 81.932 113.142 83.78 111.238 85.236C109.334 86.664 106.996 87.378 104.224 87.378C101.984 87.378 99.9681 86.888 98.1761 85.908C96.4121 84.9 95.0261 83.486 94.0181 81.666C93.0381 79.846 92.5481 77.746 92.5481 75.366C92.5481 72.958 93.0381 70.844 94.0181 69.024C94.9981 67.204 96.3701 65.804 98.1341 64.824C99.8981 63.844 101.928 63.354 104.224 63.354C106.436 63.354 108.41 63.83 110.146 64.782C111.91 65.734 113.268 67.092 114.22 68.856C115.2 70.592 115.69 72.594 115.69 74.862ZM109.6 73.182C109.572 71.67 109.026 70.466 107.962 69.57C106.898 68.646 105.596 68.184 104.056 68.184C102.6 68.184 101.368 68.632 100.36 69.528C99.3801 70.396 98.7781 71.614 98.5541 73.182H109.6ZM108.718 57.6L99.0581 62.01V57.81L108.718 52.812V57.6ZM138.894 87.378C136.99 87.378 135.282 87.042 133.77 86.37C132.258 85.67 131.054 84.732 130.158 83.556C129.29 82.38 128.814 81.078 128.73 79.65H134.652C134.764 80.546 135.198 81.288 135.954 81.876C136.738 82.464 137.704 82.758 138.852 82.758C139.972 82.758 140.84 82.534 141.456 82.086C142.1 81.638 142.422 81.064 142.422 80.364C142.422 79.608 142.03 79.048 141.246 78.684C140.49 78.292 139.272 77.872 137.592 77.424C135.856 77.004 134.428 76.57 133.308 76.122C132.216 75.674 131.264 74.988 130.452 74.064C129.668 73.14 129.276 71.894 129.276 70.326C129.276 69.038 129.64 67.862 130.368 66.798C131.124 65.734 132.188 64.894 133.56 64.278C134.96 63.662 136.598 63.354 138.474 63.354C141.246 63.354 143.458 64.054 145.11 65.454C146.762 66.826 147.672 68.688 147.84 71.04H142.212C142.128 70.116 141.736 69.388 141.036 68.856C140.364 68.296 139.454 68.016 138.306 68.016C137.242 68.016 136.416 68.212 135.828 68.604C135.268 68.996 134.988 69.542 134.988 70.242C134.988 71.026 135.38 71.628 136.164 72.048C136.948 72.44 138.166 72.846 139.818 73.266C141.498 73.686 142.884 74.12 143.976 74.568C145.068 75.016 146.006 75.716 146.79 76.668C147.602 77.592 148.022 78.824 148.05 80.364C148.05 81.708 147.672 82.912 146.916 83.976C146.188 85.04 145.124 85.88 143.724 86.496C142.352 87.084 140.742 87.378 138.894 87.378ZM174.507 74.862C174.507 75.702 174.451 76.458 174.339 77.13H157.329C157.469 78.81 158.057 80.126 159.093 81.078C160.129 82.03 161.403 82.506 162.915 82.506C165.099 82.506 166.653 81.568 167.577 79.692H173.919C173.247 81.932 171.959 83.78 170.055 85.236C168.151 86.664 165.813 87.378 163.041 87.378C160.801 87.378 158.785 86.888 156.993 85.908C155.229 84.9 153.843 83.486 152.835 81.666C151.855 79.846 151.365 77.746 151.365 75.366C151.365 72.958 151.855 70.844 152.835 69.024C153.815 67.204 155.187 65.804 156.951 64.824C158.715 63.844 160.745 63.354 163.041 63.354C165.253 63.354 167.227 63.83 168.963 64.782C170.727 65.734 172.085 67.092 173.037 68.856C174.017 70.592 174.507 72.594 174.507 74.862ZM168.417 73.182C168.389 71.67 167.843 70.466 166.779 69.57C165.715 68.646 164.413 68.184 162.873 68.184C161.417 68.184 160.185 68.632 159.177 69.528C158.197 70.396 157.595 71.614 157.371 73.182H168.417ZM200.764 63.732V87H194.842V84.06C194.086 85.068 193.092 85.866 191.86 86.454C190.656 87.014 189.34 87.294 187.912 87.294C186.092 87.294 184.482 86.916 183.082 86.16C181.682 85.376 180.576 84.242 179.764 82.758C178.98 81.246 178.588 79.454 178.588 77.382V63.732H184.468V76.542C184.468 78.39 184.93 79.818 185.854 80.826C186.778 81.806 188.038 82.296 189.634 82.296C191.258 82.296 192.532 81.806 193.456 80.826C194.38 79.818 194.842 78.39 194.842 76.542V63.732H200.764ZM222.454 67.092C223.21 66.028 224.246 65.146 225.562 64.446C226.906 63.718 228.432 63.354 230.14 63.354C232.128 63.354 233.92 63.844 235.516 64.824C237.14 65.804 238.414 67.204 239.338 69.024C240.29 70.816 240.766 72.902 240.766 75.282C240.766 77.662 240.29 79.776 239.338 81.624C238.414 83.444 237.14 84.858 235.516 85.866C233.92 86.874 232.128 87.378 230.14 87.378C228.432 87.378 226.92 87.028 225.604 86.328C224.316 85.628 223.266 84.746 222.454 83.682V98.088H216.574V63.732H222.454V67.092ZM234.76 75.282C234.76 73.882 234.466 72.678 233.878 71.67C233.318 70.634 232.562 69.85 231.61 69.318C230.686 68.786 229.678 68.52 228.586 68.52C227.522 68.52 226.514 68.8 225.562 69.36C224.638 69.892 223.882 70.676 223.294 71.712C222.734 72.748 222.454 73.966 222.454 75.366C222.454 76.766 222.734 77.984 223.294 79.02C223.882 80.056 224.638 80.854 225.562 81.414C226.514 81.946 227.522 82.212 228.586 82.212C229.678 82.212 230.686 81.932 231.61 81.372C232.562 80.812 233.318 80.014 233.878 78.978C234.466 77.942 234.76 76.71 234.76 75.282ZM243.527 75.282C243.527 72.93 243.989 70.844 244.913 69.024C245.865 67.204 247.139 65.804 248.735 64.824C250.359 63.844 252.165 63.354 254.153 63.354C255.889 63.354 257.401 63.704 258.689 64.404C260.005 65.104 261.055 65.986 261.839 67.05V63.732H267.761V87H261.839V83.598C261.083 84.69 260.033 85.6 258.689 86.328C257.373 87.028 255.847 87.378 254.111 87.378C252.151 87.378 250.359 86.874 248.735 85.866C247.139 84.858 245.865 83.444 244.913 81.624C243.989 79.776 243.527 77.662 243.527 75.282ZM261.839 75.366C261.839 73.938 261.559 72.72 260.999 71.712C260.439 70.676 259.683 69.892 258.731 69.36C257.779 68.8 256.757 68.52 255.665 68.52C254.573 68.52 253.565 68.786 252.641 69.318C251.717 69.85 250.961 70.634 250.373 71.67C249.813 72.678 249.533 73.882 249.533 75.282C249.533 76.682 249.813 77.914 250.373 78.978C250.961 80.014 251.717 80.812 252.641 81.372C253.593 81.932 254.601 82.212 255.665 82.212C256.757 82.212 257.779 81.946 258.731 81.414C259.683 80.854 260.439 80.07 260.999 79.062C261.559 78.026 261.839 76.794 261.839 75.366ZM279.383 67.344C280.139 66.112 281.119 65.146 282.323 64.446C283.555 63.746 284.955 63.396 286.523 63.396V69.57H284.969C283.121 69.57 281.721 70.004 280.769 70.872C279.845 71.74 279.383 73.252 279.383 75.408V87H273.503V63.732H279.383V67.344ZM288.972 75.282C288.972 72.93 289.434 70.844 290.358 69.024C291.31 67.204 292.584 65.804 294.18 64.824C295.804 63.844 297.61 63.354 299.598 63.354C301.334 63.354 302.846 63.704 304.134 64.404C305.45 65.104 306.5 65.986 307.284 67.05V63.732H313.206V87H307.284V83.598C306.528 84.69 305.478 85.6 304.134 86.328C302.818 87.028 301.292 87.378 299.556 87.378C297.596 87.378 295.804 86.874 294.18 85.866C292.584 84.858 291.31 83.444 290.358 81.624C289.434 79.776 288.972 77.662 288.972 75.282ZM307.284 75.366C307.284 73.938 307.004 72.72 306.444 71.712C305.884 70.676 305.128 69.892 304.176 69.36C303.224 68.8 302.202 68.52 301.11 68.52C300.018 68.52 299.01 68.786 298.086 69.318C297.162 69.85 296.406 70.634 295.818 71.67C295.258 72.678 294.978 73.882 294.978 75.282C294.978 76.682 295.258 77.914 295.818 78.978C296.406 80.014 297.162 80.812 298.086 81.372C299.038 81.932 300.046 82.212 301.11 82.212C302.202 82.212 303.224 81.946 304.176 81.414C305.128 80.854 305.884 80.07 306.444 79.062C307.004 78.026 307.284 76.794 307.284 75.366ZM12.02 139.294C9.976 139.294 8.128 138.944 6.476 138.244C4.852 137.544 3.564 136.536 2.612 135.22C1.66 133.904 1.17 132.35 1.142 130.558H7.442C7.526 131.762 7.946 132.714 8.702 133.414C9.486 134.114 10.55 134.464 11.894 134.464C13.266 134.464 14.344 134.142 15.128 133.498C15.912 132.826 16.304 131.958 16.304 130.894C16.304 130.026 16.038 129.312 15.506 128.752C14.974 128.192 14.302 127.758 13.49 127.45C12.706 127.114 11.614 126.75 10.214 126.358C8.31 125.798 6.756 125.252 5.552 124.72C4.376 124.16 3.354 123.334 2.486 122.242C1.646 121.122 1.226 119.638 1.226 117.79C1.226 116.054 1.66 114.542 2.528 113.254C3.396 111.966 4.614 110.986 6.182 110.314C7.75 109.614 9.542 109.264 11.558 109.264C14.582 109.264 17.032 110.006 18.908 111.49C20.812 112.946 21.862 114.99 22.058 117.622H15.59C15.534 116.614 15.1 115.788 14.288 115.144C13.504 114.472 12.454 114.136 11.138 114.136C9.99 114.136 9.066 114.43 8.366 115.018C7.694 115.606 7.358 116.46 7.358 117.58C7.358 118.364 7.61 119.022 8.114 119.554C8.646 120.058 9.29 120.478 10.046 120.814C10.83 121.122 11.922 121.486 13.322 121.906C15.226 122.466 16.78 123.026 17.984 123.586C19.188 124.146 20.224 124.986 21.092 126.106C21.96 127.226 22.394 128.696 22.394 130.516C22.394 132.084 21.988 133.54 21.176 134.884C20.364 136.228 19.174 137.306 17.606 138.118C16.038 138.902 14.176 139.294 12.02 139.294ZM33.3718 114.43V121.78H43.2418V126.442H33.3718V134.212H44.5018V139H27.4918V109.642H44.5018V114.43H33.3718ZM81.8073 109.684V139H75.9273V119.932L68.0733 139H63.6213L55.7253 119.932V139H49.8453V109.684H56.5233L65.8473 131.482L75.1713 109.684H81.8073ZM108.999 118.756C108.999 120.324 108.621 121.794 107.865 123.166C107.137 124.538 105.975 125.644 104.379 126.484C102.811 127.324 100.823 127.744 98.4147 127.744H93.5007V139H87.6207V109.684H98.4147C100.683 109.684 102.615 110.076 104.211 110.86C105.807 111.644 106.997 112.722 107.781 114.094C108.593 115.466 108.999 117.02 108.999 118.756ZM98.1627 122.998C99.7867 122.998 100.991 122.634 101.775 121.906C102.559 121.15 102.951 120.1 102.951 118.756C102.951 115.9 101.355 114.472 98.1627 114.472H93.5007V122.998H98.1627ZM128.293 139L121.825 127.576H119.053V139H113.173V109.684H124.177C126.445 109.684 128.377 110.09 129.973 110.902C131.569 111.686 132.759 112.764 133.543 114.136C134.355 115.48 134.761 116.992 134.761 118.672C134.761 120.604 134.201 122.354 133.081 123.922C131.961 125.462 130.295 126.526 128.083 127.114L135.097 139H128.293ZM119.053 123.166H123.967C125.563 123.166 126.753 122.788 127.537 122.032C128.321 121.248 128.713 120.17 128.713 118.798C128.713 117.454 128.321 116.418 127.537 115.69C126.753 114.934 125.563 114.556 123.967 114.556H119.053V123.166ZM145.96 114.43V121.78H155.83V126.442H145.96V134.212H157.09V139H140.08V109.642H157.09V114.43H145.96ZM170.035 109.18L169.363 129.466H164.407L163.693 109.18H170.035ZM167.011 139.294C165.947 139.294 165.065 138.972 164.365 138.328C163.693 137.656 163.357 136.83 163.357 135.85C163.357 134.87 163.693 134.058 164.365 133.414C165.065 132.742 165.947 132.406 167.011 132.406C168.047 132.406 168.901 132.742 169.573 133.414C170.245 134.058 170.581 134.87 170.581 135.85C170.581 136.83 170.245 137.656 169.573 138.328C168.901 138.972 168.047 139.294 167.011 139.294Z" fill="white"/>
</svg>
