<svg width="61" height="61" viewBox="0 0 61 61" fill="none" xmlns="http://www.w3.org/2000/svg">
<g clip-path="url(#clip0_815_231)">
<path d="M41.9449 0.351308C41.8175 0.208843 37.2248 0.407545 33.2283 4.74525C29.2318 9.0792 29.8466 14.0505 29.9366 14.178C30.0266 14.3054 35.6352 14.5041 39.2156 9.4616C42.796 4.41907 42.0724 0.497523 41.9449 0.351308V0.351308ZM54.3694 44.3394C54.1895 43.9795 45.6528 39.713 46.4476 31.51C47.2424 23.3033 52.7273 21.0538 52.8136 20.8101C52.8998 20.5664 50.5753 17.8483 48.1122 16.4724C46.3037 15.5023 44.3021 14.9466 42.2524 14.8453C41.8475 14.8341 40.4415 14.4891 37.551 15.2802C35.6465 15.8013 31.3537 17.4884 30.1728 17.5559C28.9881 17.6234 25.4639 15.5989 21.6736 15.0628C19.2479 14.5941 16.676 15.5539 14.8352 16.2925C12.9982 17.0273 9.50402 19.1193 7.05961 24.6792C4.61521 30.2353 5.89365 39.0382 6.80843 41.775C7.7232 44.5081 9.15161 48.9883 11.581 52.2575C13.7405 55.9466 16.6048 58.5072 17.8008 59.377C18.9967 60.2468 22.3709 60.8242 24.7103 59.6282C26.5924 58.4735 29.9891 57.8099 31.3312 57.8587C32.6697 57.9074 35.309 58.436 38.0121 59.8794C40.1529 60.618 42.1774 60.3106 44.2056 59.4858C46.2339 58.6572 49.1694 55.5155 52.5961 49.1458C53.897 46.184 54.4894 44.5831 54.3694 44.3394V44.3394Z" fill="white"/>
<path d="M41.9449 0.351308C41.8175 0.208843 37.2248 0.407545 33.2283 4.74525C29.2318 9.0792 29.8466 14.0505 29.9366 14.178C30.0266 14.3054 35.6352 14.5041 39.2156 9.4616C42.796 4.41907 42.0724 0.497523 41.9449 0.351308V0.351308ZM54.3694 44.3394C54.1895 43.9795 45.6528 39.713 46.4476 31.51C47.2424 23.3033 52.7273 21.0538 52.8136 20.8101C52.8998 20.5664 50.5753 17.8483 48.1122 16.4724C46.3037 15.5023 44.3021 14.9466 42.2524 14.8453C41.8475 14.8341 40.4415 14.4891 37.551 15.2802C35.6465 15.8013 31.3537 17.4884 30.1728 17.5559C28.9881 17.6234 25.4639 15.5989 21.6736 15.0628C19.2479 14.5941 16.676 15.5539 14.8352 16.2925C12.9982 17.0273 9.50402 19.1193 7.05961 24.6792C4.61521 30.2353 5.89365 39.0382 6.80843 41.775C7.7232 44.5081 9.15161 48.9883 11.581 52.2575C13.7405 55.9466 16.6048 58.5072 17.8008 59.377C18.9967 60.2468 22.3709 60.8242 24.7103 59.6282C26.5924 58.4735 29.9891 57.8099 31.3312 57.8587C32.6697 57.9074 35.309 58.436 38.0121 59.8794C40.1529 60.618 42.1774 60.3106 44.2056 59.4858C46.2339 58.6572 49.1694 55.5155 52.5961 49.1458C53.897 46.184 54.4894 44.5831 54.3694 44.3394V44.3394Z" fill="white"/>
</g>
<defs>
<clipPath id="clip0_815_231">
<rect width="59.9855" height="59.9855" fill="white" transform="translate(0.0234375 0.321289)"/>
</clipPath>
</defs>
</svg>
