<svg width="134" height="45" viewBox="0 0 134 45" fill="none" xmlns="http://www.w3.org/2000/svg">
<g clip-path="url(#clip0_815_243)">
<path d="M129.151 27.5669L132.84 30.0267C131.643 31.7906 128.779 34.817 123.827 34.817C117.677 34.817 113.098 30.0592 113.098 24.0067C113.098 17.5662 117.726 13.1968 123.309 13.1968C128.924 13.1968 131.675 17.6631 132.565 20.0743L133.051 21.3043L118.584 27.2918C119.684 29.4604 121.4 30.5608 123.827 30.5608C126.254 30.5608 127.937 29.3633 129.151 27.5669ZM117.807 23.6672L127.468 19.6537C126.934 18.3107 125.348 17.356 123.454 17.356C121.043 17.356 117.694 19.4921 117.807 23.6672Z" fill="#FF302F"/>
<path d="M106.123 2.17653H110.783V33.83H106.123V2.17627V2.17653Z" fill="#20B15A"/>
<path d="M98.7759 14.0382H103.275V33.2633C103.275 41.2412 98.5655 44.5263 92.9985 44.5263C87.7555 44.5263 84.6 40.9985 83.4186 38.1343L87.5451 36.4187C88.2893 38.1826 90.0857 40.2704 92.9985 40.2704C96.5748 40.2704 98.7759 38.0532 98.7759 33.9106V32.3572H98.614C97.5459 33.6516 95.5069 34.8167 92.9177 34.8167C87.5126 34.8167 82.5605 30.1075 82.5605 24.0392C82.5605 17.9382 87.5126 13.1807 92.9177 13.1807C95.4908 13.1807 97.5459 14.3296 98.614 15.5919H98.7759V14.0384V14.0382ZM99.0993 24.0392C99.0993 20.22 96.5587 17.4365 93.3222 17.4365C90.0532 17.4365 87.3022 20.22 87.3022 24.0392C87.3022 27.8096 90.0532 30.5445 93.3222 30.5445C96.559 30.5608 99.0996 27.8096 99.0996 24.0392H99.0993Z" fill="#3686F7"/>
<path d="M56.9754 23.9584C56.9754 30.1888 52.1207 34.7684 46.1654 34.7684C40.2104 34.7684 35.3555 30.1727 35.3555 23.9584C35.3555 17.6958 40.2104 13.1323 46.1654 13.1323C52.1207 13.1323 56.9754 17.6958 56.9754 23.9584ZM52.2501 23.9584C52.2501 20.0748 49.4342 17.4043 46.1654 17.4043C42.8967 17.4043 40.0807 20.0748 40.0807 23.9584C40.0807 27.8098 42.8967 30.5125 46.1654 30.5125C49.4344 30.5125 52.2501 27.8098 52.2501 23.9584Z" fill="#FF302F"/>
<path d="M80.5867 24.0067C80.5867 30.2372 75.7318 34.8167 69.7768 34.8167C63.8215 34.8167 58.9668 30.2369 58.9668 24.0067C58.9668 17.7441 63.8215 13.1968 69.7768 13.1968C75.7318 13.1968 80.5867 17.728 80.5867 24.0067ZM75.8451 24.0067C75.8451 20.1231 73.0294 17.4527 69.7604 17.4527C66.4917 17.4527 63.6757 20.1231 63.6757 24.0067C63.6757 27.8581 66.4917 30.5608 69.7604 30.5608C73.0455 30.5608 75.8451 27.842 75.8451 24.0067Z" fill="#FFBA40"/>
<path d="M17.5875 30.0757C10.8069 30.0757 5.49917 24.6059 5.49917 17.8253C5.49917 11.045 10.8069 5.57517 17.5875 5.57517C21.2448 5.57517 23.9148 7.01536 25.8891 8.86027L29.142 5.60765C26.391 2.9699 22.7175 0.962891 17.5875 0.962891C8.29875 0.96315 0.482422 8.53685 0.482422 17.8253C0.482422 27.1143 8.29875 34.6878 17.5875 34.6878C22.6042 34.6878 26.391 33.0372 29.3524 29.9625C32.3946 26.92 33.3331 22.6478 33.3331 19.1847C33.3331 18.1004 33.2038 16.9839 33.058 16.1586H17.5875V20.6574H28.6079C28.2842 23.4733 27.3942 25.399 26.0834 26.7096C24.4975 28.3119 21.9893 30.0757 17.5875 30.0757Z" fill="#3686F7"/>
</g>
<defs>
<clipPath id="clip0_815_243">
<rect width="133.004" height="43.642" fill="white" transform="translate(0.289062 0.895508)"/>
</clipPath>
</defs>
</svg>
