<svg width="70" height="92" viewBox="0 0 70 92" fill="none" xmlns="http://www.w3.org/2000/svg">
<path d="M12.5683 72.4214V84.9854H10.0483V79.6394H4.6663V84.9854H2.1463V72.4214H4.6663V77.5874H10.0483V72.4214H12.5683ZM24.4626 75.0134V84.9854H21.9246V83.7254C21.6006 84.1574 21.1746 84.4994 20.6466 84.7514C20.1306 84.9914 19.5666 85.1114 18.9546 85.1114C18.1746 85.1114 17.4846 84.9494 16.8846 84.6254C16.2846 84.2894 15.8106 83.8034 15.4626 83.1674C15.1266 82.5194 14.9586 81.7514 14.9586 80.8634V75.0134H17.4786V80.5034C17.4786 81.2954 17.6766 81.9074 18.0726 82.3394C18.4686 82.7594 19.0086 82.9694 19.6926 82.9694C20.3886 82.9694 20.9346 82.7594 21.3306 82.3394C21.7266 81.9074 21.9246 81.2954 21.9246 80.5034V75.0134H24.4626ZM26.301 79.9634C26.301 78.9554 26.499 78.0614 26.895 77.2814C27.303 76.5014 27.849 75.9014 28.533 75.4814C29.229 75.0614 30.003 74.8514 30.855 74.8514C31.599 74.8514 32.247 75.0014 32.799 75.3014C33.363 75.6014 33.813 75.9794 34.149 76.4354V75.0134H36.687V84.9854H34.149V83.5274C33.825 83.9954 33.375 84.3854 32.799 84.6974C32.235 84.9974 31.581 85.1474 30.837 85.1474C29.997 85.1474 29.229 84.9314 28.533 84.4994C27.849 84.0674 27.303 83.4614 26.895 82.6814C26.499 81.8894 26.301 80.9834 26.301 79.9634ZM34.149 79.9994C34.149 79.3874 34.029 78.8654 33.789 78.4334C33.549 77.9894 33.225 77.6534 32.817 77.4254C32.409 77.1854 31.971 77.0654 31.503 77.0654C31.035 77.0654 30.603 77.1794 30.207 77.4074C29.811 77.6354 29.487 77.9714 29.235 78.4154C28.995 78.8474 28.875 79.3634 28.875 79.9634C28.875 80.5634 28.995 81.0914 29.235 81.5474C29.487 81.9914 29.811 82.3334 30.207 82.5734C30.615 82.8134 31.047 82.9334 31.503 82.9334C31.971 82.9334 32.409 82.8194 32.817 82.5914C33.225 82.3514 33.549 82.0154 33.789 81.5834C34.029 81.1394 34.149 80.6114 34.149 79.9994ZM52.9723 75.0134L50.0563 84.9854H47.3383L45.5203 78.0194L43.7023 84.9854H40.9663L38.0323 75.0134H40.5883L42.3523 82.6094L44.2603 75.0134H46.9243L48.7963 82.5914L50.5603 75.0134H52.9723ZM63.6058 79.7834C63.6058 80.1434 63.5818 80.4674 63.5338 80.7554H56.2438C56.3038 81.4754 56.5558 82.0394 56.9998 82.4474C57.4438 82.8554 57.9898 83.0594 58.6378 83.0594C59.5738 83.0594 60.2398 82.6574 60.6358 81.8534H63.3538C63.0658 82.8134 62.5138 83.6054 61.6978 84.2294C60.8818 84.8414 59.8798 85.1474 58.6918 85.1474C57.7318 85.1474 56.8678 84.9374 56.0998 84.5174C55.3438 84.0854 54.7498 83.4794 54.3178 82.6994C53.8978 81.9194 53.6877 81.0194 53.6877 79.9994C53.6877 78.9674 53.8978 78.0614 54.3178 77.2814C54.7378 76.5014 55.3258 75.9014 56.0818 75.4814C56.8378 75.0614 57.7078 74.8514 58.6918 74.8514C59.6398 74.8514 60.4858 75.0554 61.2298 75.4634C61.9858 75.8714 62.5678 76.4534 62.9758 77.2094C63.3958 77.9534 63.6058 78.8114 63.6058 79.7834ZM60.9958 79.0634C60.9838 78.4154 60.7498 77.8994 60.2938 77.5154C59.8378 77.1194 59.2798 76.9214 58.6198 76.9214C57.9958 76.9214 57.4678 77.1134 57.0358 77.4974C56.6158 77.8694 56.3578 78.3914 56.2618 79.0634H60.9958ZM66.7231 73.8254C66.2791 73.8254 65.9071 73.6874 65.6071 73.4114C65.3191 73.1234 65.1751 72.7694 65.1751 72.3494C65.1751 71.9294 65.3191 71.5814 65.6071 71.3054C65.9071 71.0174 66.2791 70.8734 66.7231 70.8734C67.1671 70.8734 67.5331 71.0174 67.8211 71.3054C68.1211 71.5814 68.2711 71.9294 68.2711 72.3494C68.2711 72.7694 68.1211 73.1234 67.8211 73.4114C67.5331 73.6874 67.1671 73.8254 66.7231 73.8254ZM67.9651 75.0134V84.9854H65.4451V75.0134H67.9651Z" fill="black"/>
<g clip-path="url(#clip0_931_43)">
<path d="M14.9766 15.3479C14.9766 15.3479 10.3483 19.7699 10.0953 24.4469V25.3167C10.2996 29.0958 13.1508 31.3208 13.1508 31.3208C17.7209 35.7916 28.792 41.4153 31.3882 42.6862C31.3882 42.6862 31.5438 42.7649 31.6413 42.6674L31.69 42.57V42.4631C24.593 26.9982 14.9747 15.3498 14.9747 15.3498L14.9766 15.3479ZM29.9148 46.4915C29.8661 46.2872 29.6711 46.2872 29.6711 46.2872L11.2275 46.9414C13.2201 50.5143 16.5981 53.2586 20.1222 52.4376C22.5235 51.8133 28.0215 47.9855 29.8173 46.6865C29.9729 46.559 29.9148 46.4615 29.9148 46.4615V46.4915ZM30.1191 44.5382C22.0155 39.0608 6.32557 30.6947 6.32557 30.6947C5.99051 31.7431 5.813 32.8354 5.79883 33.9358V34.112C5.79883 36.787 6.79421 38.6616 6.79421 38.6616C8.79622 42.8886 12.6428 44.169 12.6428 44.169C14.4011 44.9113 16.1482 44.9394 16.1482 44.9394C16.45 44.9881 27.1424 44.9394 29.9917 44.9394C30.1191 44.9394 30.196 44.8119 30.196 44.8119V44.6657C30.196 44.587 30.1173 44.5382 30.1173 44.5382H30.1191ZM28.4395 7.97531C26.6686 8.42881 25.0895 9.4375 23.9335 10.8536C22.7775 12.2697 22.1053 14.0188 22.0155 15.8446V16.87C22.0591 17.7568 22.1935 18.6368 22.4166 19.4962C24.0662 26.7413 32.0724 38.6128 33.7914 41.1116C33.9188 41.239 34.0444 41.1903 34.0444 41.1903C34.0923 41.1689 34.1322 41.1329 34.1585 41.0874C34.1848 41.042 34.196 40.9894 34.1906 40.9372C36.8469 14.45 31.4182 7.39982 31.4182 7.39982C30.6178 7.44856 28.4395 7.97531 28.4395 7.97531ZM49.187 13.6477C49.187 13.6477 47.9666 9.1469 43.0947 7.94532C43.0947 7.94532 41.6701 7.5929 40.1648 7.39795C40.1648 7.39795 34.7174 14.4181 37.3624 40.9635C37.3923 41.1397 37.5179 41.1584 37.5179 41.1584C37.6942 41.2372 37.7616 41.091 37.7616 41.091C39.5687 38.5135 47.5149 26.6907 49.1364 19.4944C49.1364 19.4944 50.0343 15.989 49.1851 13.6458L49.187 13.6477ZM41.8931 46.3153C41.8931 46.3153 41.7169 46.3153 41.6682 46.4334C41.6682 46.4334 41.6382 46.6096 41.7357 46.6865C43.4827 47.9649 48.8627 51.6859 51.4402 52.4376C51.4402 52.4376 51.8413 52.565 52.5143 52.5838H52.8554C54.5838 52.535 57.6093 51.6652 60.3536 46.9414L41.8613 46.3172L41.8931 46.3153ZM61.4596 25.2961C61.812 20.1411 56.6064 15.3666 56.6064 15.3479C56.6064 15.3479 46.99 26.9963 39.9398 42.3432C39.9398 42.3432 39.8611 42.5381 39.9886 42.6656L40.0861 42.6843H40.2417C42.8866 41.3665 53.8808 35.7616 58.4303 31.3396C58.4303 31.3396 61.3096 29.0152 61.4577 25.2961H61.4596ZM65.2574 30.646C65.2574 30.646 49.5675 39.0627 41.4639 44.5101C41.4639 44.5101 41.3364 44.617 41.3851 44.7932C41.3851 44.7932 41.4639 44.9394 41.5613 44.9394C44.4612 44.9394 55.4648 44.9394 55.7385 44.8907C55.7385 44.8907 57.1631 44.8419 58.9121 44.169C58.9121 44.169 62.8074 42.9186 64.8375 38.4872C64.8375 38.4872 66.6633 34.8656 65.2574 30.6479V30.646Z" fill="black"/>
</g>
<defs>
<clipPath id="clip0_931_43">
<rect width="59.9853" height="59.9853" fill="white" transform="translate(5.79883)"/>
</clipPath>
</defs>
</svg>
