<svg width="84" height="92" viewBox="0 0 84 92" fill="none" xmlns="http://www.w3.org/2000/svg">
<g clip-path="url(#clip0_931_41)">
<path d="M27.6813 55.9491C7.73125 44.4476 7.73125 15.5379 27.6813 4.03649C47.6313 -7.46492 72.7043 6.98996 72.7043 29.9928C72.7043 52.9956 47.6314 67.4505 27.6813 55.9491ZM60.8514 44.9674H62.9285L51.4756 7.51202L42.7259 36.8268L33.9773 7.51226L22.532 44.9435H24.6389C25.4217 41.8897 26.2934 38.9112 27.5579 36.2401C29.1905 32.7172 31.2727 31.0408 33.8247 30.8128C37.2582 30.5059 39.9946 34.0969 42.721 40.5622C45.5188 34.2057 48.0212 30.6613 51.4367 30.8128C54.5404 30.9504 56.782 33.1513 58.6455 38.018C59.4573 40.3071 60.1356 42.6439 60.8516 44.9673L60.8514 44.9674Z" fill="black"/>
</g>
<path d="M15.8443 72.4214V84.9854H13.3243V76.8134L9.9583 84.9854H8.0503L4.6663 76.8134V84.9854H2.1463V72.4214H5.0083L9.0043 81.7634L13.0003 72.4214H15.8443ZM22.7638 85.1474C21.8038 85.1474 20.9398 84.9374 20.1718 84.5174C19.4038 84.0854 18.7978 83.4794 18.3538 82.6994C17.9218 81.9194 17.7058 81.0194 17.7058 79.9994C17.7058 78.9794 17.9278 78.0794 18.3718 77.2994C18.8278 76.5194 19.4458 75.9194 20.2258 75.4994C21.0058 75.0674 21.8758 74.8514 22.8358 74.8514C23.7958 74.8514 24.6658 75.0674 25.4458 75.4994C26.2258 75.9194 26.8378 76.5194 27.2818 77.2994C27.7378 78.0794 27.9658 78.9794 27.9658 79.9994C27.9658 81.0194 27.7318 81.9194 27.2637 82.6994C26.8078 83.4794 26.1838 84.0854 25.3918 84.5174C24.6118 84.9374 23.7358 85.1474 22.7638 85.1474ZM22.7638 82.9514C23.2198 82.9514 23.6458 82.8434 24.0418 82.6274C24.4498 82.3994 24.7738 82.0634 25.0138 81.6194C25.2538 81.1754 25.3738 80.6354 25.3738 79.9994C25.3738 79.0514 25.1218 78.3254 24.6178 77.8214C24.1258 77.3054 23.5198 77.0474 22.7998 77.0474C22.0798 77.0474 21.4738 77.3054 20.9818 77.8214C20.5018 78.3254 20.2618 79.0514 20.2618 79.9994C20.2618 80.9474 20.4958 81.6794 20.9638 82.1954C21.4438 82.6994 22.0438 82.9514 22.7638 82.9514ZM32.7483 77.0834V81.9074C32.7483 82.2434 32.8263 82.4894 32.9823 82.6454C33.1503 82.7894 33.4263 82.8614 33.8103 82.8614H34.9803V84.9854H33.3963C31.2723 84.9854 30.2103 83.9534 30.2103 81.8894V77.0834H29.0223V75.0134H30.2103V72.5474H32.7483V75.0134H34.9803V77.0834H32.7483ZM41.2208 85.1474C40.2608 85.1474 39.3968 84.9374 38.6288 84.5174C37.8608 84.0854 37.2548 83.4794 36.8108 82.6994C36.3788 81.9194 36.1628 81.0194 36.1628 79.9994C36.1628 78.9794 36.3848 78.0794 36.8288 77.2994C37.2848 76.5194 37.9028 75.9194 38.6828 75.4994C39.4628 75.0674 40.3328 74.8514 41.2928 74.8514C42.2528 74.8514 43.1228 75.0674 43.9028 75.4994C44.6828 75.9194 45.2948 76.5194 45.7388 77.2994C46.1948 78.0794 46.4228 78.9794 46.4228 79.9994C46.4228 81.0194 46.1888 81.9194 45.7208 82.6994C45.2648 83.4794 44.6408 84.0854 43.8488 84.5174C43.0688 84.9374 42.1928 85.1474 41.2208 85.1474ZM41.2208 82.9514C41.6768 82.9514 42.1028 82.8434 42.4988 82.6274C42.9068 82.3994 43.2308 82.0634 43.4708 81.6194C43.7108 81.1754 43.8308 80.6354 43.8308 79.9994C43.8308 79.0514 43.5788 78.3254 43.0748 77.8214C42.5828 77.3054 41.9768 77.0474 41.2568 77.0474C40.5368 77.0474 39.9308 77.3054 39.4388 77.8214C38.9588 78.3254 38.7188 79.0514 38.7188 79.9994C38.7188 80.9474 38.9528 81.6794 39.4208 82.1954C39.9008 82.6994 40.5008 82.9514 41.2208 82.9514ZM50.7913 76.5614C51.1153 76.0334 51.5353 75.6194 52.0513 75.3194C52.5793 75.0194 53.1793 74.8694 53.8513 74.8694V77.5154H53.1853C52.3933 77.5154 51.7933 77.7014 51.3853 78.0734C50.9893 78.4454 50.7913 79.0934 50.7913 80.0174V84.9854H48.2713V75.0134H50.7913V76.5614ZM59.9766 85.1474C59.0166 85.1474 58.1526 84.9374 57.3846 84.5174C56.6166 84.0854 56.0106 83.4794 55.5666 82.6994C55.1346 81.9194 54.9186 81.0194 54.9186 79.9994C54.9186 78.9794 55.1406 78.0794 55.5846 77.2994C56.0406 76.5194 56.6586 75.9194 57.4386 75.4994C58.2186 75.0674 59.0886 74.8514 60.0486 74.8514C61.0086 74.8514 61.8786 75.0674 62.6586 75.4994C63.4386 75.9194 64.0506 76.5194 64.4946 77.2994C64.9506 78.0794 65.1786 78.9794 65.1786 79.9994C65.1786 81.0194 64.9446 81.9194 64.4766 82.6994C64.0206 83.4794 63.3966 84.0854 62.6046 84.5174C61.8246 84.9374 60.9486 85.1474 59.9766 85.1474ZM59.9766 82.9514C60.4326 82.9514 60.8586 82.8434 61.2546 82.6274C61.6626 82.3994 61.9866 82.0634 62.2266 81.6194C62.4666 81.1754 62.5866 80.6354 62.5866 79.9994C62.5866 79.0514 62.3346 78.3254 61.8306 77.8214C61.3386 77.3054 60.7326 77.0474 60.0126 77.0474C59.2926 77.0474 58.6866 77.3054 58.1946 77.8214C57.7146 78.3254 57.4746 79.0514 57.4746 79.9994C57.4746 80.9474 57.7086 81.6794 58.1766 82.1954C58.6566 82.6994 59.2566 82.9514 59.9766 82.9514ZM69.5472 71.6654V84.9854H67.0272V71.6654H69.5472ZM71.3889 79.9634C71.3889 78.9554 71.5869 78.0614 71.9829 77.2814C72.3909 76.5014 72.9369 75.9014 73.6209 75.4814C74.3169 75.0614 75.0909 74.8514 75.9429 74.8514C76.6869 74.8514 77.3349 75.0014 77.8869 75.3014C78.4509 75.6014 78.9009 75.9794 79.2369 76.4354V75.0134H81.7749V84.9854H79.2369V83.5274C78.9129 83.9954 78.4629 84.3854 77.8869 84.6974C77.3229 84.9974 76.6689 85.1474 75.9249 85.1474C75.0849 85.1474 74.3169 84.9314 73.6209 84.4994C72.9369 84.0674 72.3909 83.4614 71.9829 82.6814C71.5869 81.8894 71.3889 80.9834 71.3889 79.9634ZM79.2369 79.9994C79.2369 79.3874 79.1169 78.8654 78.8769 78.4334C78.6369 77.9894 78.3129 77.6534 77.9049 77.4254C77.4969 77.1854 77.0589 77.0654 76.5909 77.0654C76.1229 77.0654 75.6909 77.1794 75.2949 77.4074C74.8989 77.6354 74.5749 77.9714 74.3229 78.4154C74.0829 78.8474 73.9629 79.3634 73.9629 79.9634C73.9629 80.5634 74.0829 81.0914 74.3229 81.5474C74.5749 81.9914 74.8989 82.3334 75.2949 82.5734C75.7029 82.8134 76.1349 82.9334 76.5909 82.9334C77.0589 82.9334 77.4969 82.8194 77.9049 82.5914C78.3129 82.3514 78.6369 82.0154 78.8769 81.5834C79.1169 81.1394 79.2369 80.6114 79.2369 79.9994Z" fill="black"/>
<defs>
<clipPath id="clip0_931_41">
<rect width="59.9856" height="59.9856" fill="white" transform="translate(12.7188)"/>
</clipPath>
</defs>
</svg>
