<svg width="134" height="58" viewBox="0 0 134 58" fill="none" xmlns="http://www.w3.org/2000/svg">
<g clip-path="url(#clip0_815_235)">
<path d="M110.221 21.7519L110.483 36.6687H110.354L106.023 21.7519H98.924V40.5423H103.621L103.359 25.106H103.488L108.122 40.5423H114.917V21.7519H110.221ZM20.7325 21.7519L17.1831 40.7376H22.3119L24.9303 23.4642H25.0384L27.5945 40.7376H32.6817L29.1739 21.7519H20.7325ZM49.4356 21.7519L47.0956 36.2322H46.9668L44.606 21.7519H36.8546L36.4847 40.7376H41.2478L41.3766 23.6596H41.4182L44.6019 40.7376H49.4273L52.611 23.6596H52.7398L52.8686 40.7376H57.6317L57.1787 21.7519H49.4356ZM9.16983 35.347C9.36517 35.7792 9.29867 36.4276 9.23633 36.731C9.10748 37.3794 8.6503 38.007 7.39511 38.007C6.18148 38.007 5.49155 37.3129 5.49155 36.2987V34.4575H0.404297V35.9081C0.404297 40.1724 3.75839 41.4276 7.33277 41.4276C10.7534 41.4276 13.6087 40.2389 14.0659 37.1217C14.3277 35.4758 14.1324 34.3952 14.0659 34.0045C13.1765 29.9979 5.92795 28.8757 5.4292 26.6438C5.36213 26.3077 5.36213 25.9616 5.4292 25.6255C5.55805 24.9979 5.9903 24.3495 7.13742 24.3495C8.28455 24.3495 8.91214 25.0436 8.91214 26.0577V27.2049H13.6752V25.8832C13.6752 21.7477 9.93042 21.1201 7.26627 21.1201C3.88723 21.1201 1.09839 22.2465 0.599641 25.2971C0.427742 26.1432 0.450481 27.0173 0.666141 27.8532C1.42258 31.7726 8.2222 32.9197 9.17398 35.3428L9.16983 35.347ZM70.9733 35.347C71.1686 35.7792 71.1021 36.3652 71.0398 36.731C70.9109 37.3794 70.4537 38.007 69.1985 38.007C67.9849 38.007 67.295 37.3129 67.295 36.2987V34.4575H62.2077V35.9081C62.2077 40.1059 65.4995 41.386 69.0697 41.386C72.4903 41.386 75.2833 40.2389 75.7363 37.0552C75.9982 35.4093 75.8028 34.391 75.7363 33.938C74.9799 29.9979 67.7937 28.8092 67.295 26.6438C67.2279 26.3077 67.2279 25.9616 67.295 25.6255C67.403 24.9979 67.8561 24.3495 69.0032 24.3495C70.0838 24.3495 70.7779 25.0436 70.7779 26.0577V27.2049H75.4745V25.8832C75.4745 21.7477 71.7962 21.1201 69.132 21.1201C65.753 21.1201 63.0265 22.18 62.5278 25.2971C62.3989 26.1201 62.3989 26.8973 62.5693 27.8532C63.3507 31.7726 70.0173 32.8532 70.9691 35.3428L70.9733 35.347ZM86.9707 37.8823C88.3131 37.8823 88.6789 36.9928 88.8119 36.4982C88.8784 36.3029 88.8784 35.9787 88.8784 35.7834V21.756H93.7038V35.4135C93.7038 35.7834 93.7038 36.4941 93.6373 36.6687C93.3339 40.2389 90.5201 41.386 87.033 41.386C83.5459 41.386 80.7571 40.2389 80.4287 36.6687C80.4287 36.4941 80.3622 35.7792 80.3622 35.4135V21.756H85.1876V35.7834C85.1876 36.0452 85.1876 36.3029 85.2541 36.4982C85.2541 36.997 85.6448 37.8823 86.9624 37.8823H86.9707ZM126.609 37.6869C128.018 37.6869 128.45 36.7975 128.579 36.3029C128.645 36.1076 128.645 35.7834 128.645 35.6088V32.8615H126.675V30.0685H133.408V35.1558C133.408 35.5465 133.408 35.7834 133.342 36.4317C133.018 39.9188 130.029 41.1283 126.675 41.1283C123.296 41.1283 120.333 39.9147 120.009 36.4317C119.942 35.7834 119.942 35.5423 119.942 35.1558V27.1467C119.942 26.8433 120.009 26.1949 120.009 25.8915C120.441 22.3213 123.3 21.1742 126.675 21.1742C130.029 21.1742 132.951 22.3213 133.342 25.8915C133.408 26.4526 133.408 27.1467 133.408 27.1467V27.7951H128.645V26.7144C128.645 26.7144 128.645 26.2614 128.579 25.9996C128.512 25.5673 128.126 24.6155 126.675 24.6155C125.266 24.6155 124.901 25.505 124.772 25.9996C124.705 26.2614 124.705 26.5856 124.705 26.9098V35.613C124.705 35.8499 124.705 36.1117 124.772 36.3071C124.772 36.8058 125.271 37.6911 126.613 37.6911L126.609 37.6869Z" fill="black"/>
</g>
<defs>
<clipPath id="clip0_815_235">
<rect width="133" height="57" fill="white" transform="translate(0.404297 0.952637)"/>
</clipPath>
</defs>
</svg>
