<svg width="66" height="92" viewBox="0 0 66 92" fill="none" xmlns="http://www.w3.org/2000/svg">
<g clip-path="url(#clip0_931_39)">
<path d="M53.6897 49.9883C53.4778 49.9868 53.2751 49.902 53.1253 49.7522C52.9755 49.6025 52.8907 49.3997 52.8892 49.1879V10.7991C52.8907 10.5873 52.9755 10.3846 53.1253 10.2348C53.2751 10.085 53.4778 10.0002 53.6897 9.99871H62.9649C63.0716 9.99647 63.1777 10.0155 63.277 10.0547C63.3762 10.0938 63.4667 10.1524 63.5431 10.2269C63.6196 10.3014 63.6804 10.3904 63.7221 10.4886C63.7638 10.5869 63.7855 10.6924 63.7859 10.7991V49.1879C63.7859 49.6378 63.4148 49.9977 62.9649 49.9883H53.6897ZM38.1366 49.9883C38.1366 49.9883 37.3943 49.7634 37.3943 49.1879V25.6193C37.4171 24.8844 37.291 24.1525 37.0238 23.4676C36.7566 22.7827 36.3537 22.1588 35.8393 21.6336C35.3248 21.1083 34.7095 20.6924 34.0303 20.4109C33.3511 20.1295 32.6221 19.9882 31.8869 19.9956H14.5474C13.5426 19.9956 13.7957 20.7473 13.7957 20.7473V49.1879C13.7957 49.8608 13.044 49.9883 13.044 49.9883H4.61792C4.51122 49.9905 4.40514 49.9715 4.30586 49.9324C4.20659 49.8932 4.1161 49.8346 4.03968 49.7601C3.96326 49.6856 3.90244 49.5967 3.86075 49.4984C3.81906 49.4002 3.79735 49.2946 3.79688 49.1879V10.7991C3.79688 10.3493 4.16803 9.98934 4.61792 9.99871H36.7682C39.5875 10.0199 42.2845 11.1526 44.2735 13.1508C46.2626 15.1489 47.3829 17.8511 47.3912 20.6705L47.41 49.1898C47.4102 49.2949 47.3897 49.3991 47.3495 49.4964C47.3094 49.5936 47.2504 49.6819 47.1761 49.7563C47.1017 49.8307 47.0134 49.8896 46.9161 49.9298C46.8189 49.9699 46.7147 49.9904 46.6095 49.9902L38.1366 49.9883ZM20.8946 49.9883C20.6952 49.9883 20.504 49.9091 20.363 49.7681C20.2221 49.6272 20.1429 49.436 20.1429 49.2366V26.7421C20.1429 26.3316 20.484 25.9904 20.8946 25.9904H30.316C30.7265 26.0092 31.0377 26.3428 31.0377 26.7421V49.2366C31.0387 49.3348 31.0202 49.4322 30.9834 49.5233C30.9466 49.6143 30.8921 49.6972 30.8231 49.767C30.7541 49.8369 30.6719 49.8924 30.5814 49.9304C30.4908 49.9684 30.3936 49.9881 30.2954 49.9883H20.8946Z" fill="black"/>
</g>
<path d="M9.6703 84.9854L6.9523 80.7554L4.4863 84.9854H1.6423L5.6023 78.6494L1.5883 72.4214H4.4863L7.2043 76.6334L9.6523 72.4214H12.4963L8.5543 78.7394L12.5683 84.9854H9.6703ZM15.7641 73.8254C15.3201 73.8254 14.9481 73.6874 14.6481 73.4114C14.3601 73.1234 14.2161 72.7694 14.2161 72.3494C14.2161 71.9294 14.3601 71.5814 14.6481 71.3054C14.9481 71.0174 15.3201 70.8734 15.7641 70.8734C16.2081 70.8734 16.5741 71.0174 16.8621 71.3054C17.1621 71.5814 17.3121 71.9294 17.3121 72.3494C17.3121 72.7694 17.1621 73.1234 16.8621 73.4114C16.5741 73.6874 16.2081 73.8254 15.7641 73.8254ZM17.0061 75.0134V84.9854H14.4861V75.0134H17.0061ZM18.8479 79.9634C18.8479 78.9554 19.0459 78.0614 19.4419 77.2814C19.8499 76.5014 20.3959 75.9014 21.0799 75.4814C21.7759 75.0614 22.5499 74.8514 23.4019 74.8514C24.1459 74.8514 24.7939 75.0014 25.3459 75.3014C25.9099 75.6014 26.3599 75.9794 26.6959 76.4354V75.0134H29.2339V84.9854H26.6959V83.5274C26.3719 83.9954 25.9219 84.3854 25.3459 84.6974C24.7819 84.9974 24.1279 85.1474 23.3839 85.1474C22.5439 85.1474 21.7759 84.9314 21.0799 84.4994C20.3959 84.0674 19.8499 83.4614 19.4419 82.6814C19.0459 81.8894 18.8479 80.9834 18.8479 79.9634ZM26.6959 79.9994C26.6959 79.3874 26.5759 78.8654 26.3359 78.4334C26.0959 77.9894 25.7719 77.6534 25.3639 77.4254C24.9559 77.1854 24.5179 77.0654 24.0499 77.0654C23.5819 77.0654 23.1499 77.1794 22.7539 77.4074C22.3579 77.6354 22.0339 77.9714 21.7819 78.4154C21.5419 78.8474 21.4219 79.3634 21.4219 79.9634C21.4219 80.5634 21.5419 81.0914 21.7819 81.5474C22.0339 81.9914 22.3579 82.3334 22.7539 82.5734C23.1619 82.8134 23.5939 82.9334 24.0499 82.9334C24.5179 82.9334 24.9559 82.8194 25.3639 82.5914C25.7719 82.3514 26.0959 82.0154 26.3359 81.5834C26.5759 81.1394 26.6959 80.6114 26.6959 79.9994ZM36.1231 85.1474C35.1631 85.1474 34.2991 84.9374 33.5311 84.5174C32.7631 84.0854 32.1571 83.4794 31.7131 82.6994C31.2811 81.9194 31.0651 81.0194 31.0651 79.9994C31.0651 78.9794 31.2871 78.0794 31.7311 77.2994C32.1871 76.5194 32.8051 75.9194 33.5851 75.4994C34.3651 75.0674 35.2351 74.8514 36.1951 74.8514C37.1551 74.8514 38.0251 75.0674 38.8051 75.4994C39.5851 75.9194 40.1971 76.5194 40.6411 77.2994C41.0971 78.0794 41.3251 78.9794 41.3251 79.9994C41.3251 81.0194 41.0911 81.9194 40.6231 82.6994C40.1671 83.4794 39.5431 84.0854 38.7511 84.5174C37.9711 84.9374 37.0951 85.1474 36.1231 85.1474ZM36.1231 82.9514C36.5791 82.9514 37.0051 82.8434 37.4011 82.6274C37.8091 82.3994 38.1331 82.0634 38.3731 81.6194C38.6131 81.1754 38.7331 80.6354 38.7331 79.9994C38.7331 79.0514 38.4811 78.3254 37.9771 77.8214C37.4851 77.3054 36.8791 77.0474 36.1591 77.0474C35.4391 77.0474 34.8331 77.3054 34.3411 77.8214C33.8611 78.3254 33.6211 79.0514 33.6211 79.9994C33.6211 80.9474 33.8551 81.6794 34.3231 82.1954C34.8031 82.6994 35.4031 82.9514 36.1231 82.9514ZM55.5576 74.8694C56.7816 74.8694 57.7656 75.2474 58.5096 76.0034C59.2656 76.7474 59.6436 77.7914 59.6436 79.1354V84.9854H57.1236V79.4774C57.1236 78.6974 56.9256 78.1034 56.5296 77.6954C56.1336 77.2754 55.5936 77.0654 54.9096 77.0654C54.2256 77.0654 53.6796 77.2754 53.2716 77.6954C52.8756 78.1034 52.6776 78.6974 52.6776 79.4774V84.9854H50.1576V79.4774C50.1576 78.6974 49.9596 78.1034 49.5636 77.6954C49.1676 77.2754 48.6276 77.0654 47.9436 77.0654C47.2476 77.0654 46.6956 77.2754 46.2876 77.6954C45.8916 78.1034 45.6936 78.6974 45.6936 79.4774V84.9854H43.1736V75.0134H45.6936V76.2194C46.0176 75.7994 46.4316 75.4694 46.9356 75.2294C47.4516 74.9894 48.0156 74.8694 48.6276 74.8694C49.4076 74.8694 50.1036 75.0374 50.7156 75.3734C51.3276 75.6974 51.8016 76.1654 52.1376 76.7774C52.4616 76.2014 52.9296 75.7394 53.5416 75.3914C54.1656 75.0434 54.8376 74.8694 55.5576 74.8694ZM63.313 73.8254C62.869 73.8254 62.497 73.6874 62.197 73.4114C61.909 73.1234 61.765 72.7694 61.765 72.3494C61.765 71.9294 61.909 71.5814 62.197 71.3054C62.497 71.0174 62.869 70.8734 63.313 70.8734C63.757 70.8734 64.123 71.0174 64.411 71.3054C64.711 71.5814 64.861 71.9294 64.861 72.3494C64.861 72.7694 64.711 73.1234 64.411 73.4114C64.123 73.6874 63.757 73.8254 63.313 73.8254ZM64.555 75.0134V84.9854H62.035V75.0134H64.555Z" fill="black"/>
<defs>
<clipPath id="clip0_931_39">
<rect width="59.9853" height="59.9853" fill="white" transform="translate(3.79883)"/>
</clipPath>
</defs>
</svg>
